<svg width="322" height="117" viewBox="0 0 322 117" fill="none" xmlns="http://www.w3.org/2000/svg">
<rect width="322" height="117" fill="white"/>
<g clip-path="url(#clip0_65_17)">
<path d="M47.06 21.2487C46.7627 21.977 46.6637 39.25 46.7627 59.5405L47.06 96.4797L49.834 96.7919L52.509 97.1041V61.2054C52.509 37.8973 52.9053 25.0987 53.4998 24.6824C55.5803 23.3297 60.435 25.4108 64.7942 29.4689C72.1257 36.3365 73.81 45.9095 69.3516 55.3784C67.0729 60.0608 64.8933 62.0378 59.147 64.7433C54.7877 66.8243 54.4905 67.1365 54.4905 70.7784C54.4905 75.773 58.3544 84.2014 62.5155 88.3635C66.4785 92.2135 73.7109 95.8554 77.5748 95.9595C82.1322 95.9595 80.547 94.2946 74.3053 92.4216C66.1813 90.1324 60.2368 83.9933 57.9581 75.6689C57.0664 72.4433 56.472 69.6338 56.6701 69.4257C56.7692 69.3216 58.7507 68.177 60.9303 67.0324C68.8563 62.8703 73.1164 56.523 74.0081 47.6784C75.3951 33.6311 66.7757 23.1216 51.8155 20.5203C48.6451 20 47.4563 20.2081 47.06 21.2487Z" fill="black"/>
<path d="M141.18 23.0176C116.115 38.2095 114.331 75.2527 137.911 92.1095C145.044 97.2081 148.314 97.9365 149.503 94.8149C150.592 91.5892 150.394 91.3811 145.242 88.6757C137.217 84.6176 129.589 73.9 128.202 64.8473L127.508 60.5811H136.524C145.837 60.5811 149.007 59.9568 148.016 58.396C147.719 57.8757 142.964 57.4595 137.515 57.4595H127.508L128.103 52.7771C129.39 42.8919 135.929 33.319 144.648 28.4284C147.917 26.5554 150.592 24.8906 150.592 24.5784C150.592 23.1217 148.413 20 147.323 20C146.629 20 143.954 21.3527 141.18 23.0176Z" fill="black"/>
<path d="M30.5147 26.7635C13.9693 41.227 2.6749 64.6392 0.495269 89.0919C-0.0991751 95.8554 -0.000101104 97.2081 1.08971 96.7919C1.98138 96.4797 2.77397 93.6703 3.26934 88.3635C3.66564 83.8892 4.35916 78.5824 4.75545 76.3973L5.54805 72.5473H19.2203H32.8925L32.9916 83.8892C33.1897 93.046 33.4869 95.4392 34.7749 96.2716C35.6666 96.896 37.1527 97 38.0443 96.6878C39.4314 96.0635 39.6295 92.3176 39.6295 58.5C39.6295 28.7405 39.3323 21.0405 38.3416 21.0405C37.648 21.0405 34.1805 23.6419 30.5147 26.7635ZM33.4869 48.823L33.1897 68.3851H20.3101C5.54805 68.3851 6.04342 68.9054 10.4027 58.8122C15.0592 47.8865 28.9295 29.3649 32.298 29.3649C33.4869 29.3649 33.6851 32.5905 33.4869 48.823Z" fill="black"/>
<path d="M83.024 21.6649C82.5287 22.0811 82.2314 38.9379 82.2314 59.2284V95.9595H85.699C90.95 95.9595 99.4703 92.1095 105.415 87.0108C113.341 80.2473 117.205 71.7149 117.7 59.4365C118.096 51.0081 117.898 49.7595 115.124 43.6203C111.161 34.6716 106.108 29.0527 98.4796 25.0987C92.2379 21.873 84.4111 20.1041 83.024 21.6649ZM97.8851 27.7C118.393 38.6257 121.465 68.3851 103.83 85.0338C99.3713 89.196 91.049 93.3581 89.7611 92.0054C89.4639 91.6933 89.1666 76.5014 89.1666 58.2919C89.1666 25.723 89.1666 25.2027 91.1481 25.2027C92.337 25.2027 95.3092 26.3473 97.8851 27.7Z" fill="black"/>
<path d="M153.763 58.7082L154.06 96.4798L166.742 96.7919C177.343 97 179.324 96.7919 179.324 95.5433C179.324 94.2946 177.541 93.8784 170.209 93.6703L160.995 93.3582L160.698 57.1473L160.5 21.0406H157.033H153.565L153.763 58.7082Z" fill="black"/>
<path d="M184.476 58.7081L184.773 96.4797H196.959C211.424 96.4797 214.198 94.5027 200.427 94.0865L191.213 93.7743V57.4595V21.0405H187.745H184.278L184.476 58.7081Z" fill="black"/>
<path d="M202.606 75.3567C195.176 79.5189 197.752 91.0689 206.074 91.0689C214.495 91.0689 216.873 79.5189 209.344 75.3567C206.669 73.7959 205.182 73.7959 202.606 75.3567ZM210.929 78.9986C214.198 83.2649 211.325 89.7162 206.074 89.7162C200.823 89.7162 197.95 83.2649 201.219 78.9986C203.994 75.2527 208.155 75.2527 210.929 78.9986Z" fill="black"/>
<path d="M202.507 79.727C201.616 82.1203 202.507 86.9068 203.894 87.427C204.489 87.6352 205.083 87.1149 205.083 86.1784C205.083 83.9933 206.668 83.9933 207.461 86.1784C208.452 88.8838 209.74 86.9068 209.641 82.7446C209.542 79.1027 209.343 78.7906 206.272 78.4784C204.192 78.2703 202.904 78.6865 202.507 79.727ZM207.065 81.3919C207.065 81.9122 206.668 82.4325 206.074 82.4325C205.579 82.4325 205.083 81.9122 205.083 81.3919C205.083 80.7676 205.579 80.3514 206.074 80.3514C206.668 80.3514 207.065 80.7676 207.065 81.3919Z" fill="black"/>
</g>
<defs>
<clipPath id="clip0_65_17">
<rect width="214" height="77" fill="white" transform="translate(0 20)"/>
</clipPath>
</defs>
</svg>
