<?xml version="1.0" encoding="UTF-8"?>
<svg version="1.1" xmlns="http://www.w3.org/2000/svg" width="322" height="117">
<path d="M0 0 C106.26 0 212.52 0 322 0 C322 38.61 322 77.22 322 117 C215.74 117 109.48 117 0 117 C0 78.39 0 39.78 0 0 Z " fill="#FDFDFC" transform="translate(0,0)"/>
<path d="M0 0 C66.66 0 133.32 0 202 0 C202 6.27 202 12.54 202 19 C135.34 19 68.68 19 0 19 C0 12.73 0 6.46 0 0 Z " fill="#8C222F" transform="translate(12,77)"/>
<path d="M0 0 C0.495 19.8 0.495 19.8 1 40 C-9 40 -9 40 -13 38 C-15.02555309 38.82906544 -15.02555309 38.82906544 -17 40 C-20.07318959 40.43105795 -23.14945729 40.37022258 -26.25 40.375 C-27.07113281 40.39949219 -27.89226562 40.42398438 -28.73828125 40.44921875 C-35.24663328 40.48016179 -40.73572841 39.09705606 -45.56323242 34.5168457 C-50.15011223 29.2454786 -50.36290621 24.7364297 -50.265625 18.0078125 C-49.79434197 12.67122529 -48.10960631 9.78050773 -44.046875 6.3515625 C-31.28497579 -2.79595267 -14.82976986 -4.2370771 0 0 Z " fill="#295F46" transform="translate(122,31)"/>
<path d="M0 0 C28.38 0 56.76 0 86 0 C86 6.27 86 12.54 86 19 C57.62 19 29.24 19 0 19 C0 12.73 0 6.46 0 0 Z " fill="#8B2130" transform="translate(128,77)"/>
<path d="M0 0 C22.11 0 44.22 0 67 0 C67 6.27 67 12.54 67 19 C44.89 19 22.78 19 0 19 C0 12.73 0 6.46 0 0 Z " fill="#E53B2D" transform="translate(234,77)"/>
<path d="M0 0 C3.71186481 2.29399934 6.23820966 4.33570026 8.16796875 8.33984375 C8.90563785 13.84057565 8.73500081 19.24283489 8.54296875 24.77734375 C8.51283606 26.28705629 8.48546605 27.79682664 8.4609375 29.30664062 C8.39519093 32.98558655 8.29185448 36.66234342 8.16796875 40.33984375 C3.87796875 40.33984375 -0.41203125 40.33984375 -4.83203125 40.33984375 C-4.88101563 38.2928125 -4.93 36.24578125 -4.98046875 34.13671875 C-5.0361083 32.14760469 -5.09181494 30.15849188 -5.14941406 28.16943359 C-5.18762463 26.79029132 -5.22249127 25.41105208 -5.25390625 24.03173828 C-5.29972749 22.04567408 -5.35869388 20.05992696 -5.41796875 18.07421875 C-5.44938965 16.88022461 -5.48081055 15.68623047 -5.51318359 14.45605469 C-5.81469129 11.50931327 -6.19822672 9.78002626 -7.83203125 7.33984375 C-11.51889248 5.49641313 -15.79900792 5.98417555 -19.83203125 6.33984375 C-22.78131041 7.56871006 -24.21879322 8.39428937 -25.94482422 11.05566406 C-27.09725209 14.02267428 -27.05734693 16.45638138 -27.02734375 19.63671875 C-27.02089844 20.84199219 -27.01445312 22.04726563 -27.0078125 23.2890625 C-26.99105469 24.54332031 -26.97429687 25.79757813 -26.95703125 27.08984375 C-26.94800781 28.35957031 -26.93898437 29.62929688 -26.9296875 30.9375 C-26.90612212 34.07169504 -26.87025138 37.20579316 -26.83203125 40.33984375 C-31.12203125 40.33984375 -35.41203125 40.33984375 -39.83203125 40.33984375 C-39.83203125 26.80984375 -39.83203125 13.27984375 -39.83203125 -0.66015625 C-35.87203125 -0.66015625 -31.91203125 -0.66015625 -27.83203125 -0.66015625 C-27.50203125 0.32984375 -27.17203125 1.31984375 -26.83203125 2.33984375 C-26.30996094 2.05109375 -25.78789062 1.76234375 -25.25 1.46484375 C-16.76743085 -2.81357992 -9.00379257 -2.66456531 0 0 Z " fill="#245C42" transform="translate(179.83203125,30.66015625)"/>
<path d="M0 0 C3.96 0 7.92 0 12 0 C12.01401855 1.3317627 12.01401855 1.3317627 12.02832031 2.69042969 C12.07240681 5.99345919 12.13404746 9.29520007 12.20751953 12.59765625 C12.23569611 14.02526937 12.25692727 15.45303753 12.27099609 16.88085938 C12.29247392 18.93700332 12.33913974 20.99129002 12.390625 23.046875 C12.41157227 24.28276367 12.43251953 25.51865234 12.45410156 26.79199219 C13.09163163 30.53847924 13.99217795 31.74732886 17 34 C19.6425784 34.5188938 19.6425784 34.5188938 22.4375 34.3125 C23.36433594 34.28800781 24.29117187 34.26351562 25.24609375 34.23828125 C27.89573135 34.00902183 30.40635893 33.57897977 33 33 C34.56921969 28.79889606 35.2811021 25.20289602 35.4140625 20.7265625 C35.45273437 19.57285156 35.49140625 18.41914062 35.53125 17.23046875 C35.5621875 16.04066406 35.593125 14.85085937 35.625 13.625 C35.66367187 12.41199219 35.70234375 11.19898438 35.7421875 9.94921875 C35.83613495 6.96638735 35.91914253 3.98321494 36 1 C41.94 0.505 41.94 0.505 48 0 C48 13.53 48 27.06 48 41 C44.04 41 40.08 41 36 41 C36 40.01 36 39.02 36 38 C35.51273437 38.28875 35.02546875 38.5775 34.5234375 38.875 C26.86654721 42.88442619 18.61109318 43.4862244 10.2421875 41.26953125 C5.52803338 39.36364386 2.84209678 37.31515692 0 33 C-0.34291942 30.28374631 -0.47072866 27.9935759 -0.390625 25.29296875 C-0.38496521 24.56757401 -0.37930542 23.84217926 -0.37347412 23.09480286 C-0.35119099 20.79167992 -0.30101487 18.49014776 -0.25 16.1875 C-0.22992434 14.62046528 -0.21167543 13.05340601 -0.1953125 11.48632812 C-0.15135337 7.65694481 -0.08238623 3.82874154 0 0 Z " fill="#235B41" transform="translate(253,30)"/>
<path d="M0 0 C15.84 0 31.68 0 48 0 C48 6.27 48 12.54 48 19 C32.16 19 16.32 19 0 19 C0 12.73 0 6.46 0 0 Z " fill="#E53B2D" transform="translate(12,77)"/>
<path d="M0 0 C-1.875 5.75 -1.875 5.75 -3 8 C-6.8713588 7.46231128 -8.97184125 6.422527 -12 4 C-17.93784153 2.02071949 -24.63075381 2.25181699 -30.5625 4.125 C-33.7591491 6.58396084 -34.75710791 8.1332246 -36 12 C-36.64187677 17.25388022 -36.78558255 22.24133489 -34.375 27.0625 C-31.545852 30.56170937 -30.41666771 31.27727256 -26 32 C-19.48193475 32.54654584 -14.06721778 32.06294914 -7.94921875 29.734375 C-5.67005807 28.87569322 -3.40160004 28.38735485 -1 28 C-0.6875 30.8125 -0.6875 30.8125 -1 34 C-7.63420757 39.99218748 -18.66121326 39.54849457 -27.1171875 39.3125 C-35.43659246 38.64293018 -42.44524551 35.31222102 -48 29 C-51.46635128 23.76557693 -50.54449796 16.98947752 -50 11 C-47.32802338 4.76538789 -41.68875553 0.53410861 -35.4921875 -2.04296875 C-24.16269491 -5.56072665 -10.7715123 -5.38575615 0 0 Z " fill="#285F45" transform="translate(62,33)"/>
<path d="M0 0 C0 3.63 0 7.26 0 11 C4.95 11 9.9 11 15 11 C15 12.65 15 14.3 15 16 C10.05 16 5.1 16 0 16 C0.09687548 19.95149966 0.19956184 23.90216192 0.31738281 27.85302734 C0.37454036 29.85886971 0.42168596 31.86498918 0.46875 33.87109375 C0.50742188 35.12792969 0.54609375 36.38476562 0.5859375 37.6796875 C0.63306885 39.42354736 0.63306885 39.42354736 0.68115234 41.20263672 C0.72157869 44.13656482 0.72157869 44.13656482 3 46 C5.43252661 46.46162427 5.43252661 46.46162427 8.125 46.625 C9.03507812 46.69976562 9.94515625 46.77453125 10.8828125 46.8515625 C11.58148438 46.90054688 12.28015625 46.94953125 13 47 C13 48.32 13 49.64 13 51 C6.24745063 52.46001067 -1.72075376 53.60277838 -8.0625 50.3125 C-11.23580828 47.81436369 -11.84473514 46.75461079 -13 43 C-13.79265452 34.10614759 -12.67965061 24.88400439 -12 16 C-15.3 16 -18.6 16 -22 16 C-22 14.02 -22 12.04 -22 10 C-18.7 10 -15.4 10 -12 10 C-12 7.36 -12 4.72 -12 2 C-7.69214025 0.64851459 -4.58042408 0 0 0 Z " fill="#285F45" transform="translate(224,20)"/>
<path d="M0 0 C12.54 0 25.08 0 38 0 C38 6.27 38 12.54 38 19 C25.46 19 12.92 19 0 19 C0 12.73 0 6.46 0 0 Z " fill="#E43D2C" transform="translate(128,77)"/>
<path d="M0 0 C1.28132813 0.00902344 2.56265625 0.01804688 3.8828125 0.02734375 C4.87023437 0.03894531 5.85765625 0.05054688 6.875 0.0625 C6.99868591 3.99495085 7.08937336 7.92664798 7.1496582 11.8605957 C7.18714374 13.85603555 7.25067535 15.85093052 7.31445312 17.84570312 C7.33056641 19.09931641 7.34667969 20.35292969 7.36328125 21.64453125 C7.38946533 22.80186768 7.41564941 23.9592041 7.44262695 25.15161133 C6.875 28.0625 6.875 28.0625 4.49633789 29.93652344 C-0.27746114 31.98707398 -5.28291695 31.99927598 -10.22265625 30.37109375 C-13.24214361 28.83891226 -15.0928902 27.1070394 -17.0625 24.375 C-18.81630061 18.9072687 -18.88232617 14.25033117 -17 8.8125 C-12.44959235 2.13856878 -7.97869421 -0.07253358 0 0 Z " fill="#FBFCFB" transform="translate(102.125,34.9375)"/>
<path d="M0 0 C6.6 0 13.2 0 20 0 C20 6.27 20 12.54 20 19 C13.4 19 6.8 19 0 19 C0 12.73 0 6.46 0 0 Z " fill="#F5E802" transform="translate(214,77)"/>
<path d="M0 0 C6.6 0 13.2 0 20 0 C20 6.27 20 12.54 20 19 C13.4 19 6.8 19 0 19 C0 12.73 0 6.46 0 0 Z " fill="#27573D" transform="translate(60,77)"/>
<path d="M0 0 C6.27 0 12.54 0 19 0 C19 6.27 19 12.54 19 19 C12.73 19 6.46 19 0 19 C0 12.73 0 6.46 0 0 Z " fill="#26573D" transform="translate(234,77)"/>
<path d="M0 0 C6.27 0 12.54 0 19 0 C19 6.27 19 12.54 19 19 C12.73 19 6.46 19 0 19 C0 12.73 0 6.46 0 0 Z " fill="#FCEB01" transform="translate(128,77)"/>
<path d="M0 0 C3 0.125 3 0.125 4 1.125 C4.04063832 2.79117115 4.042721 4.45888095 4 6.125 C0.625 6.75 0.625 6.75 -3 7.125 C-3.66 6.465 -4.32 5.805 -5 5.125 C-4.40256972 1.18196016 -4.1426006 0.17260836 0 0 Z " fill="#366951" transform="translate(307,64.875)"/>
</svg>
