<?xml version="1.0" encoding="UTF-8"?>
<svg version="1.1" xmlns="http://www.w3.org/2000/svg" width="178" height="38">
<path d="M0 0 C58.74 0 117.48 0 178 0 C178 12.54 178 25.08 178 38 C119.26 38 60.52 38 0 38 C0 25.46 0 12.92 0 0 Z " fill="#E9EDEF" transform="translate(0,0)"/>
<path d="M0 0 C2.97 0.495 2.97 0.495 6 1 C5.979375 1.886875 5.95875 2.77375 5.9375 3.6875 C5.99286219 6.62169631 6.3305734 9.15493696 7 12 C4.03 12 1.06 12 -2 12 C-2.433125 13.9490625 -2.433125 13.9490625 -2.875 15.9375 C-3.3671875 18.15234375 -3.3671875 18.15234375 -4 20 C-6.52475462 21.26237731 -8.31200466 21.09856404 -11.125 21.0625 C-12.03507813 21.05347656 -12.94515625 21.04445313 -13.8828125 21.03515625 C-14.93082031 21.01775391 -14.93082031 21.01775391 -16 21 C-16.33 19.68 -16.66 18.36 -17 17 C-13.7 17 -10.4 17 -7 17 C-7 16.34 -7 15.68 -7 15 C-7.63808594 14.72285156 -8.27617187 14.44570313 -8.93359375 14.16015625 C-9.75988281 13.79792969 -10.58617187 13.43570312 -11.4375 13.0625 C-12.26121094 12.70285156 -13.08492187 12.34320313 -13.93359375 11.97265625 C-16 11 -16 11 -17 10 C-16.6875 6.5 -16.6875 6.5 -16 3 C-12.82587823 1.41293912 -9.46361333 1.71522873 -6 2 C-3 3 -3 3 -1 4 C-0.67 2.68 -0.34 1.36 0 0 Z " fill="#EAEAEF" transform="translate(148,3)"/>
<path d="M0 0 C9.01875902 -0.48100048 9.01875902 -0.48100048 13.1875 1.5625 C15 4 15 4 14.875 7.5 C14.39947032 9.4021187 13.91363447 11.30227934 13.375 13.1875 C12.91775664 15.39750957 13.31647211 16.87346879 14 19 C12.125 18.6875 12.125 18.6875 10 18 C9.34 17.01 8.68 16.02 8 15 C5.43717258 14.27034634 5.43717258 14.27034634 3 14 C3 15.65 3 17.3 3 19 C2.01 19 1.02 19 0 19 C0 12.73 0 6.46 0 0 Z " fill="#D3B2DE" transform="translate(80,5)"/>
<path d="M0 0 C10.33724222 -0.36918722 10.33724222 -0.36918722 13.328125 1.296875 C15 3 15 3 15.5 6.4375 C15 10 15 10 13.4375 12.4375 C10.18129203 14.5248128 7.79004984 14.2915423 4 14 C4 15.65 4 17.3 4 19 C2.68 19 1.36 19 0 19 C0 12.73 0 6.46 0 0 Z " fill="#D5B3DF" transform="translate(61,5)"/>
<path d="M0 0 C3.02559518 0.11168808 3.02559518 0.11168808 6 -0.6875 C9 -1 9 -1 10.67578125 0.09375 C12.57326293 2.82522805 12.29348762 4.90188381 12.1875 8.1875 C12.16042969 9.27417969 12.13335937 10.36085938 12.10546875 11.48046875 C12.07066406 12.31191406 12.03585938 13.14335937 12 14 C11.01 14 10.02 14 9 14 C9 10.37 9 6.74 9 3 C4.36980013 3.4452998 4.36980013 3.4452998 3 5 C2.76807135 6.51469448 2.58784762 8.03754562 2.4375 9.5625 C2.35371094 10.38878906 2.26992188 11.21507812 2.18359375 12.06640625 C2.12300781 12.70449219 2.06242187 13.34257812 2 14 C1.01 14 0.02 14 -1 14 C-1.33 10.7 -1.66 7.4 -2 4 C-3.65 3.67 -5.3 3.34 -7 3 C-7.33 6.63 -7.66 10.26 -8 14 C-8.99 14 -9.98 14 -11 14 C-11 9.38 -11 4.76 -11 0 C-6.03156664 -0.82807223 -4.44024226 -1.08005893 0 0 Z " fill="#D5B2DE" transform="translate(44,10)"/>
<path d="M0 0 C4.62 0 9.24 0 14 0 C14 0.99 14 1.98 14 3 C10.37 3 6.74 3 3 3 C3 4.65 3 6.3 3 8 C6.3 8 9.6 8 13 8 C13 8.99 13 9.98 13 11 C10.03 11 7.06 11 4 11 C4 12.65 4 14.3 4 16 C7.3 16 10.6 16 14 16 C14 16.99 14 17.98 14 19 C9.38 19 4.76 19 0 19 C0 12.73 0 6.46 0 0 Z " fill="#D3B2DE" transform="translate(98,5)"/>
<path d="M0 0 C1.21236328 0.04060547 1.21236328 0.04060547 2.44921875 0.08203125 C3.06410156 0.11683594 3.67898437 0.15164062 4.3125 0.1875 C4.6425 1.5075 4.9725 2.8275 5.3125 4.1875 C2.3425 3.8575 -0.6275 3.5275 -3.6875 3.1875 C-3.3575 4.5075 -3.0275 5.8275 -2.6875 7.1875 C-0.87235295 8.28308815 -0.87235295 8.28308815 1.3125 8.875 C5.26263123 10.13763123 5.26263123 10.13763123 6.3125 11.1875 C6.5 14.125 6.5 14.125 6.3125 17.1875 C4.3125 19.1875 4.3125 19.1875 2 19.41796875 C1.113125 19.40378906 0.22625 19.38960937 -0.6875 19.375 C-2.0178125 19.36533203 -2.0178125 19.36533203 -3.375 19.35546875 C-5.6875 19.1875 -5.6875 19.1875 -7.6875 18.1875 C-7.1925 16.7025 -7.1925 16.7025 -6.6875 15.1875 C-3.3875 15.5175 -0.0875 15.8475 3.3125 16.1875 C2.9825 15.1975 2.6525 14.2075 2.3125 13.1875 C0.24093003 12.16740001 0.24093003 12.16740001 -2.1875 11.375 C-4.640625 10.359375 -4.640625 10.359375 -6.6875 9.1875 C-7.9375 6.125 -7.9375 6.125 -7.6875 3.1875 C-5.42573933 0.09474101 -3.73077869 -0.16220777 0 0 Z " fill="#D0AFDC" transform="translate(121.6875,4.8125)"/>
<path d="M0 0 C1.051875 -0.00386719 1.051875 -0.00386719 2.125 -0.0078125 C4 0.125 4 0.125 6 1.125 C5.67 2.115 5.34 3.105 5 4.125 C2.36 4.125 -0.28 4.125 -3 4.125 C-3.33 5.115 -3.66 6.105 -4 7.125 C-3.37351563 7.24617187 -2.74703125 7.36734375 -2.1015625 7.4921875 C-1.28429687 7.65976563 -0.46703125 7.82734375 0.375 8 C1.18710938 8.16242187 1.99921875 8.32484375 2.8359375 8.4921875 C5 9.125 5 9.125 7 11.125 C6.75 14.6875 6.75 14.6875 6 18.125 C3.47524538 19.38737731 1.68799534 19.22356404 -1.125 19.1875 C-2.03507813 19.17847656 -2.94515625 19.16945313 -3.8828125 19.16015625 C-4.93082031 19.14275391 -4.93082031 19.14275391 -6 19.125 C-6.33 17.805 -6.66 16.485 -7 15.125 C-3.7 15.125 -0.4 15.125 3 15.125 C3 14.465 3 13.805 3 13.125 C2.36191406 12.84785156 1.72382813 12.57070313 1.06640625 12.28515625 C0.24011719 11.92292969 -0.58617187 11.56070312 -1.4375 11.1875 C-2.26121094 10.82785156 -3.08492187 10.46820313 -3.93359375 10.09765625 C-6 9.125 -6 9.125 -7 8.125 C-6.6875 4.625 -6.6875 4.625 -6 1.125 C-3.75487738 0.00243869 -2.48543351 -0.00913762 0 0 Z " fill="#D0AEDB" transform="translate(138,4.875)"/>
<path d="M0 0 C3.3 0 6.6 0 10 0 C10 0.99 10 1.98 10 3 C7.69 3 5.38 3 3 3 C3.08378906 3.65226563 3.16757813 4.30453125 3.25390625 4.9765625 C3.82554104 9.88249144 4.15311982 14.13127185 3 19 C2.01 19 1.02 19 0 19 C0 12.73 0 6.46 0 0 Z " fill="#D1ACDC" transform="translate(80,5)"/>
<path d="M0 0 C5.75 -0.125 5.75 -0.125 8 1 C8.125 3.375 8.125 3.375 8 6 C6 8 6 8 2.875 8.125 C1.451875 8.063125 1.451875 8.063125 0 8 C0 5.36 0 2.72 0 0 Z " fill="#EAEBEF" transform="translate(83,8)"/>
<path d="M0 0 C2.875 -0.125 2.875 -0.125 6 0 C6.66 0.66 7.32 1.32 8 2 C7.44444444 6.55555556 7.44444444 6.55555556 6 8 C4.00041636 8.04080783 1.99954746 8.04254356 0 8 C0 5.36 0 2.72 0 0 Z " fill="#EAECF0" transform="translate(65,8)"/>
<path d="M0 0 C1.32 0 2.64 0 4 0 C4 4.62 4 9.24 4 14 C2.68 14 1.36 14 0 14 C0 9.38 0 4.76 0 0 Z " fill="#DABCE1" transform="translate(25,10)"/>
<path d="M0 0 C2.00720923 0.28674418 4.0085944 0.61866701 6 1 C6.042721 2.66611905 6.04063832 4.33382885 6 6 C5 7 5 7 2.5 7.125 C0 7 0 7 -1 6 C-1.125 3.5 -1.125 3.5 -1 1 C-0.67 0.67 -0.34 0.34 0 0 Z " fill="#E1D5E5" transform="translate(148,3)"/>
<path d="M0 0 C1.32 0 2.64 0 4 0 C4 2.64 4 5.28 4 8 C2.68 7.67 1.36 7.34 0 7 C0 4.69 0 2.38 0 0 Z " fill="#FDFDFD" transform="translate(174,0)"/>
<path d="M0 0 C0.33 0.66 0.66 1.32 1 2 C1.66 2 2.32 2 3 2 C3 1.34 3 0.68 3 0 C3.99 0 4.98 0 6 0 C6 0.99 6 1.98 6 3 C6.66 3 7.32 3 8 3 C7.67 2.01 7.34 1.02 7 0 C7.66 0 8.32 0 9 0 C9 1.32 9 2.64 9 4 C6.03 4 3.06 4 0 4 C0 2.68 0 1.36 0 0 Z " fill="#DECBE1" transform="translate(146,11)"/>
<path d="M0 0 C2.64 0.33 5.28 0.66 8 1 C5.377486 2.74834267 4.00515522 3.51529754 1 4 C0.34 3.67 -0.32 3.34 -1 3 C-0.67 2.01 -0.34 1.02 0 0 Z " fill="#D4B6DD" transform="translate(115,20)"/>
<path d="M0 0 C1.5 1.1875 1.5 1.1875 3 3 C3.1875 5.6875 3.1875 5.6875 3 8 C2.01 8 1.02 8 0 8 C0 5.36 0 2.72 0 0 Z " fill="#D7B7E0" transform="translate(43,16)"/>
</svg>
