<svg width="322" height="117" viewBox="0 0 322 117" fill="none" xmlns="http://www.w3.org/2000/svg">
<g clip-path="url(#clip0_132_45)">
<rect width="322" height="117" fill="white"/>
<g clip-path="url(#clip1_132_45)">
<path d="M-47 -61C74.77 -61 196.54 -61 322 -61C322 17.54 322 96.08 322 177C200.23 177 78.46 177 -47 177C-47 98.46 -47 19.92 -47 -61Z" fill="#FEFEFE"/>
<path d="M215.641 48.0833C218.448 50.1993 219.692 51.673 220.389 54.9591C220.642 58.7792 220.247 60.5959 217.947 63.888C215.127 66.3891 214.213 66.8817 210.283 67.1109C206.959 66.925 206.959 66.925 203.703 64.9417C203.345 68.2142 202.987 71.4867 202.618 74.8583C201.543 74.8583 200.469 74.8583 199.362 74.8583C199.203 71.5119 199.108 68.1663 199.023 64.8177C198.954 63.4026 198.954 63.4026 198.885 61.9589C198.735 54.068 198.735 54.068 201.961 50.4463C206.457 46.6889 209.85 46.5878 215.641 48.0833Z" fill="#181818"/>
<path d="M123.391 47.0917C126.321 48.8766 128.321 50.1498 129.903 53.0417C130.534 60.0722 130.534 60.0722 127.868 63.888C124.916 66.5061 123.932 66.8691 119.796 67.2969C115.794 66.925 115.794 66.925 112.674 64.5698C110.236 61.8174 109.393 60.7212 108.875 57.2563C109.442 52.7686 111.282 51.2893 114.709 48.0833C117.806 46.6686 119.956 46.7839 123.391 47.0917Z" fill="#121212"/>
<path d="M236.262 47.0917C239.192 48.8766 241.191 50.1498 242.774 53.0417C243.404 60.0722 243.404 60.0722 240.739 63.888C237.787 66.5061 236.802 66.8691 232.667 67.2969C228.665 66.925 228.665 66.925 225.545 64.5698C223.106 61.8174 222.263 60.7212 221.746 57.2563C222.313 52.7686 224.153 51.2893 227.58 48.0833C230.676 46.6686 232.826 46.7839 236.262 47.0917Z" fill="#171717"/>
<path d="M157.035 47.0917C161.689 49.533 161.689 49.533 163.547 52.05C164.362 55.1683 164.291 57.8483 163.547 60.975C161.6 63.8214 160.31 65.4289 157.035 66.925C153.44 67.3589 153.44 67.3589 149.438 66.925C146.171 64.3841 144.455 62.7992 143.528 58.9878C143.3 55.3277 143.896 53.208 146.047 50.1286C149.675 46.9112 152.018 46.5627 157.035 47.0917Z" fill="#0C0C0C"/>
<path d="M43.0793 71.8834C41.3205 75.8444 38.3112 78.6223 35.0753 81.6141C34.2904 82.3801 34.2904 82.3801 33.4897 83.1616C29.6211 86.7493 29.6211 86.7493 26.7363 86.7894C24.1399 85.5292 21.8713 84.1247 19.542 82.4818C18.6872 81.8925 17.8324 81.3032 16.9517 80.696C14.7282 78.7056 14.172 77.6342 13.7764 74.8584C16.6647 73.9786 18.9455 73.6063 21.9457 73.336C22.895 73.2497 23.8442 73.1634 24.8222 73.0745C26.3048 72.9451 26.3048 72.9451 27.8174 72.813C28.8016 72.7229 29.7858 72.6328 30.7998 72.54C34.9305 72.1706 38.922 71.8834 43.0793 71.8834Z" fill="#45ACE0"/>
<path d="M52.8468 67.9167C53.205 67.9167 53.5631 67.9167 53.9321 67.9167C54.1324 81.4363 54.1324 81.4363 52.8468 87.75C48.8126 89.4488 45.6797 89.9801 41.2477 89.9193C40.2139 89.9129 39.18 89.9065 38.1148 89.8999C35.4821 89.7334 35.4821 89.7334 33.3115 88.7417C34.9222 85.2842 37.069 83.1468 40.0268 80.5604C44.0569 76.9732 47.7994 73.2695 51.4224 69.3383C52.1275 68.6346 52.1275 68.6346 52.8468 67.9167Z" fill="#971393"/>
<path d="M7.26467 54.0333C12.3875 55.6207 16.483 58.1979 20.8987 60.975C22.3229 61.8655 23.7488 62.7539 25.1763 63.6401C25.801 64.0325 26.4258 64.425 27.0694 64.8293C29.0884 66.0017 31.1566 66.971 33.3117 67.9167C33.3117 68.5712 33.3117 69.2257 33.3117 69.9C25.9952 71.1479 19.0566 72.1452 11.6058 71.8833C8.49144 65.6837 6.70968 60.8793 7.26467 54.0333Z" fill="#412E95"/>
<path d="M15.9472 34.2C16.6634 34.2 17.3797 34.2 18.1177 34.2C19.3695 37.5444 20.6099 40.8922 21.8484 44.2406C22.2017 45.184 22.5549 46.1274 22.9189 47.0994C24.6182 51.7096 26.165 56.1204 26.8001 60.975C20.1873 57.814 14.1986 54.304 8.3501 50.0667C8.70066 43.9806 12.0354 38.9974 15.9472 34.2Z" fill="#90CD4F"/>
<path d="M45.2502 25.275C52.4368 25.579 57.4286 27.0034 63.7002 30.2333C61.2198 32.747 58.7607 34.1632 55.4545 35.6681C54.4955 36.1059 53.5365 36.5438 52.5484 36.9949C51.5502 37.4429 50.552 37.891 49.5236 38.3526C48.5212 38.8122 47.5188 39.2717 46.486 39.7452C39.0283 43.125 39.0283 43.125 36.5679 43.125C38.6249 36.6611 41.4711 31.0483 45.2502 25.275Z" fill="#FEEC2C"/>
<path d="M57.1885 50.0667C64.449 50.6017 70.9007 51.938 77.8091 54.0333C77.868 56.0784 77.9099 58.1238 77.9447 60.1693C77.9699 61.3083 77.9951 62.4473 78.021 63.6208C77.8143 66.8431 77.1509 68.9942 75.6385 71.8833C74.9222 71.8833 74.2059 71.8833 73.4679 71.8833C71.9608 70.3077 71.9608 70.3077 70.2459 68.1181C69.6262 67.3307 69.0064 66.5432 68.3679 65.7319C67.7229 64.8985 67.078 64.065 66.4135 63.2063C65.7685 62.3881 65.1236 61.57 64.4591 60.7271C61.7461 57.2577 59.1814 53.9337 57.1885 50.0667Z" fill="#ED5A3B"/>
<path d="M69.1263 34.2C71.2121 36.4468 71.2121 36.4468 73.1961 39.4063C73.8621 40.3727 74.528 41.3391 75.2141 42.3348C76.7234 45.1083 76.7234 45.1083 76.7234 49.075C66.8027 47.6154 57.1393 45.4203 47.4204 43.125C50.8335 40.6286 54.3759 38.7919 58.2734 36.9891C59.3926 36.4637 60.5118 35.9383 61.6649 35.397C64.7851 34.2 64.7851 34.2 69.1263 34.2Z" fill="#F39835"/>
<path d="M39.8237 25.275C36.9758 33.8471 32.9714 41.9045 28.9708 50.0667C28.2545 50.0667 27.5382 50.0667 26.8002 50.0667C25.8617 47.3218 24.9366 44.5742 24.0191 41.8234C23.6173 40.6547 23.6173 40.6547 23.2073 39.4624C22.959 38.7114 22.7106 37.9604 22.4548 37.1866C22.2218 36.4959 21.9887 35.8052 21.7487 35.0936C21.3737 33.2083 21.3737 33.2083 22.459 30.2333C24.9857 28.8582 24.9857 28.8582 28.1568 27.5682C29.7097 26.9182 29.7097 26.9182 31.294 26.255C34.3742 25.2823 36.5967 25.0759 39.8237 25.275Z" fill="#139B4D"/>
<path d="M58.2738 59.9833C62.4792 63.0574 65.1726 65.3804 68.3806 69.1563C69.1374 70.0409 69.8943 70.9254 70.6741 71.8369C71.2379 72.5067 71.8017 73.1765 72.3826 73.8667C69.4862 79.4618 65.6337 84.1241 59.3591 86.7583C58.6428 86.4311 57.9265 86.1038 57.1885 85.7667C57.5466 77.2582 57.9048 68.7497 58.2738 59.9833Z" fill="#BD0F37"/>
<path d="M97.6154 46.7818C102.283 47.1372 103.934 47.9783 107.112 51.0583C107.112 52.0401 107.112 53.0218 107.112 54.0333C105.303 54.0757 103.494 54.0736 101.685 54.0333C101.327 53.7061 100.969 53.3788 100.6 53.0417C97.8867 52.8764 97.8867 52.8764 95.1735 53.0417C93.728 54.1441 93.728 54.1441 93.8847 56.9464C93.727 60.0914 93.727 60.0914 96.2588 61.9667C99.2785 61.5648 99.2785 61.5648 101.685 59.9833C103.855 59.9429 106.027 59.9411 108.197 59.9833C106.683 63.327 105.199 65.1898 101.685 66.925C97.0765 67.461 94.8932 67.4047 90.968 65.0656C87.8075 62.1778 87.6191 61.3714 87.1694 57.1943C87.191 53.5785 87.5047 53.1206 90.2218 50.1286C91.1396 49.4537 92.0573 48.7787 93.0029 48.0833C94.0882 47.0917 94.0882 47.0917 97.6154 46.7818Z" fill="#131313"/>
<path d="M191.765 47.0917C194.41 48.3932 194.41 48.3932 196.106 50.0667C196.106 51.0484 196.106 52.0302 196.106 53.0417C191.901 52.174 191.901 52.174 190.68 51.0583C188.012 50.7277 188.012 50.7277 185.253 51.0583C184.179 52.531 184.179 52.531 183.083 54.0333C183.828 54.142 184.574 54.2506 185.342 54.3626C186.32 54.5198 187.298 54.6771 188.306 54.8391C189.275 54.9886 190.245 55.1382 191.243 55.2923C194.166 56.0788 195.39 56.7694 197.191 58.9917C197.108 62.045 196.578 63.469 194.342 65.7474C190.712 67.4062 188.173 67.3824 184.168 66.925C181.522 65.0656 181.522 65.0656 179.827 62.9583C179.827 62.3038 179.827 61.6493 179.827 60.975C184.032 61.8427 184.032 61.8427 185.253 62.9583C187.423 62.9988 189.595 63.0005 191.765 62.9583C192.123 61.9766 192.481 60.9948 192.85 59.9833C192.092 59.7916 191.334 59.5998 190.552 59.4023C189.565 59.1441 188.577 58.8858 187.559 58.6198C186.577 58.3667 185.595 58.1136 184.583 57.8528C181.997 57.0083 181.997 57.0083 179.827 55.025C180.03 52.05 180.03 52.05 180.912 49.075C184.939 46.6222 187.001 46.7098 191.765 47.0917Z" fill="#222222"/>
<path d="M133.159 39.1583C134.949 39.1583 136.74 39.1583 138.585 39.1583C138.943 46.3578 139.301 53.5573 139.67 60.975C140.387 61.3022 141.103 61.6295 141.841 61.9667C141.841 63.6029 141.841 65.2392 141.841 66.925C138.638 66.6086 136.901 66.3938 134.624 64.2396C132.836 61.4659 132.782 59.7922 132.841 56.59C132.851 55.5737 132.862 54.5574 132.872 53.5104C132.9 52.4558 132.927 51.4011 132.955 50.3146C132.97 49.2446 132.985 48.1747 133 47.0723C133.038 44.4338 133.092 41.7963 133.159 39.1583Z" fill="#0E0E0E"/>
<path d="M237.347 51.0583C239.873 54.5205 240.064 55.9098 239.518 59.9833C237.334 62.7914 236.131 63.8011 232.396 64.3838C229.75 63.95 229.75 63.95 227.783 62.9583C225.719 59.7811 225.914 56.6358 226.494 53.0417C228.921 48.7376 232.804 50.0016 237.347 51.0583Z" fill="#F4F4F4"/>
<path d="M214.556 51.0583C217.082 54.5205 217.272 55.9098 216.726 59.9833C214.543 62.7914 213.339 63.8011 209.604 64.3838C206.959 63.95 206.959 63.95 204.992 62.9583C202.927 59.7811 203.122 56.6358 203.703 53.0417C206.129 48.7376 210.012 50.0016 214.556 51.0583Z" fill="#F6F6F6"/>
<path d="M97.9545 51.8641C100.6 52.05 100.6 52.05 101.685 53.0417C103.855 53.0821 106.027 53.0839 108.197 53.0417C108.913 55.3324 109.63 57.6232 110.368 59.9833C108.197 60.975 108.197 60.975 104.941 60.913C101.557 60.6341 101.557 60.6341 99.5146 62.9583C96.3297 62.5946 95.3206 62.1012 93.0028 59.9833C92.7315 57.0083 92.7315 57.0083 93.0028 54.0333C95.1734 52.05 95.1734 52.05 97.9545 51.8641Z" fill="#F7F7F7"/>
<path d="M175.282 46.7198C176.065 46.8425 176.849 46.9652 177.656 47.0917C177.656 48.7279 177.656 50.3642 177.656 52.05C176.607 52.3376 176.607 52.3376 175.536 52.6311C172.942 53.9214 172.942 53.9214 172.653 57.0471C172.603 58.2206 172.553 59.3941 172.501 60.6031C172.439 61.7817 172.378 62.9603 172.314 64.1747C172.286 65.0823 172.258 65.9899 172.229 66.925C170.439 66.925 168.648 66.925 166.803 66.925C165.869 53.0899 165.869 53.0899 169.177 49.199C172.229 47.0917 172.229 47.0917 175.282 46.7198Z" fill="#141414"/>
<path d="M259.053 43.125C260.128 43.125 261.202 43.125 262.309 43.125C262.309 44.7612 262.309 46.3975 262.309 48.0833C264.1 48.0833 265.891 48.0833 267.736 48.0833C267.736 49.0651 267.736 50.0468 267.736 51.0583C266.303 51.0583 264.87 51.0583 263.394 51.0583C263.394 54.9853 263.394 58.9123 263.394 62.9583C264.827 63.2856 266.26 63.6128 267.736 63.95C267.736 64.9317 267.736 65.9135 267.736 66.925C263.721 66.4292 261.559 65.924 259.053 62.9583C258.684 60.8 258.684 60.8 258.735 58.3293C258.746 57.444 258.756 56.5588 258.767 55.6467C258.794 54.7257 258.822 53.8047 258.85 52.8557C258.864 51.9232 258.879 50.9907 258.894 50.0299C258.933 47.7277 258.986 45.4266 259.053 43.125Z" fill="#303030"/>
<path d="M153.712 51.8021C154.809 51.8839 155.905 51.9657 157.035 52.05C159.206 55.025 159.206 55.025 158.867 58.1239C158.121 60.975 158.121 60.975 157.035 61.9666C153.847 62.2146 153.847 62.2146 150.524 61.9666C148.353 58.9916 148.353 58.9916 148.692 55.8927C149.681 52.1155 149.681 52.1155 153.712 51.8021Z" fill="#EDEDED"/>
<path d="M119.525 51.8641C122.306 52.05 122.306 52.05 124.477 54.0333C124.838 59.3222 124.838 59.3222 123.391 61.9667C120.271 62.0906 120.271 62.0906 116.88 61.9667C116.163 61.3122 115.447 60.6577 114.709 59.9833C115.461 52.1497 115.461 52.1497 119.525 51.8641Z" fill="#F5F5F5"/>
<path d="M188.509 56.0167C191.016 56.3439 193.523 56.6712 196.106 57.0083C196.464 58.9718 196.822 60.9353 197.191 62.9583C194.051 65.7404 192.288 66.8579 187.899 67.4208C184.168 66.925 184.168 66.925 181.522 65.0656C179.827 62.9583 179.827 62.9583 179.827 60.975C184.032 61.8427 184.032 61.8427 185.253 62.9583C187.423 62.9988 189.595 63.0005 191.765 62.9583C192.123 61.9766 192.481 60.9948 192.85 59.9833C191.418 59.3288 189.985 58.6743 188.509 58C188.509 57.3455 188.509 56.691 188.509 56.0167Z" fill="#161616"/>
<path d="M256.883 47.0917C256.883 48.0734 256.883 49.0552 256.883 50.0667C255.092 50.7212 253.301 51.3757 251.456 52.05C251.098 56.9588 250.74 61.8675 250.371 66.925C249.296 66.925 248.222 66.925 247.115 66.925C246.997 64.3621 246.912 61.8037 246.844 59.2396C246.807 58.5161 246.771 57.7925 246.733 57.0471C246.663 53.4916 246.774 51.481 249.116 48.5792C251.932 46.7891 253.521 46.7504 256.883 47.0917Z" fill="#1E1E1E"/>
<path d="M185.253 48.0833C191.824 47.8896 191.824 47.8896 193.935 48.0833C196.106 50.0666 196.106 50.0666 196.106 53.0416C192.091 52.1613 188.134 51.112 184.167 50.0666C184.526 49.4121 184.884 48.7576 185.253 48.0833Z" fill="#111111"/>
<path d="M179.827 60.975C183.242 61.6686 186.367 62.7211 189.594 63.95C189.236 64.6045 188.878 65.259 188.509 65.9333C186.002 65.6061 183.495 65.2788 180.912 64.9417C180.554 63.6327 180.196 62.3237 179.827 60.975Z" fill="#0C0C0C"/>
</g>
</g>
<defs>
<clipPath id="clip0_132_45">
<rect width="322" height="117" fill="white"/>
</clipPath>
<clipPath id="clip1_132_45">
<rect width="369" height="238" fill="white" transform="translate(-47 -61)"/>
</clipPath>
</defs>
</svg>
