<svg width="322" height="117" viewBox="0 0 322 117" fill="none" xmlns="http://www.w3.org/2000/svg">
<g clip-path="url(#clip0_132_45)">
<rect width="322" height="117" fill="white"/>
<g clip-path="url(#clip1_132_45)">
<path d="M-47 -42C57.28 -42 161.56 -42 269 -42C269 24 269 90 269 158C164.72 158 60.44 158 -47 158C-47 92 -47 26 -47 -42Z" fill="#FEFEFE"/>
<path d="M177.917 49.6667C180.321 51.4448 181.386 52.6832 181.984 55.4447C182.2 58.6548 181.862 60.1814 179.892 62.9479C177.477 65.0497 176.695 65.4636 173.329 65.6562C170.482 65.5 170.482 65.5 167.694 63.8333C167.387 66.5833 167.081 69.3333 166.765 72.1667C165.844 72.1667 164.924 72.1667 163.976 72.1667C163.841 69.3545 163.759 66.5431 163.686 63.7292C163.627 62.54 163.627 62.54 163.568 61.3268C163.439 54.6958 163.439 54.6958 166.202 51.6523C170.052 48.4949 172.958 48.4099 177.917 49.6667Z" fill="#181818"/>
<path d="M98.9177 48.8333C101.427 50.3333 103.139 51.4032 104.494 53.8333C105.034 59.7413 105.034 59.7413 102.752 62.9479C100.223 65.148 99.3804 65.453 95.839 65.8125C92.4118 65.5 92.4118 65.5 89.7398 63.5208C87.6515 61.2079 86.9297 60.2868 86.4868 57.375C86.9721 53.6039 88.5476 52.3608 91.4824 49.6667C94.1342 48.4778 95.9757 48.5747 98.9177 48.8333Z" fill="#121212"/>
<path d="M195.576 48.8333C198.086 50.3333 199.798 51.4032 201.153 53.8333C201.693 59.7413 201.693 59.7413 199.41 62.9479C196.882 65.148 196.039 65.453 192.498 65.8125C189.071 65.5 189.071 65.5 186.398 63.5208C184.31 61.2079 183.588 60.2868 183.146 57.375C183.631 53.6039 185.206 52.3608 188.141 49.6667C190.793 48.4778 192.634 48.5747 195.576 48.8333Z" fill="#171717"/>
<path d="M127.729 48.8333C131.715 50.8849 131.715 50.8849 133.306 53C134.003 55.6204 133.943 57.8725 133.306 60.5C131.639 62.8919 130.534 64.2428 127.729 65.5C124.651 65.8646 124.651 65.8646 121.224 65.5C118.425 63.3648 116.956 62.033 116.163 58.8301C115.967 55.7544 116.477 53.9731 118.319 51.3854C121.426 48.6817 123.433 48.3888 127.729 48.8333Z" fill="#0C0C0C"/>
<path d="M30.141 69.6667C28.6348 72.9953 26.0577 75.3297 23.2866 77.8438C22.6145 78.4875 22.6145 78.4875 21.9288 79.1442C18.6158 82.1591 18.6158 82.1591 16.1454 82.1927C13.9219 81.1338 11.9791 79.9535 9.98438 78.5729C9.25235 78.0777 8.52033 77.5825 7.76613 77.0723C5.86202 75.3996 5.38571 74.4993 5.04688 72.1667C7.52034 71.4274 9.47352 71.1145 12.0429 70.8874C12.8558 70.8149 13.6687 70.7424 14.5062 70.6677C15.7758 70.5589 15.7758 70.5589 17.0711 70.4479C17.914 70.3722 18.7568 70.2965 19.6252 70.2184C23.1626 69.908 26.5808 69.6667 30.141 69.6667Z" fill="#45ACE0"/>
<path d="M38.5058 66.3333C38.8125 66.3333 39.1192 66.3333 39.4352 66.3333C39.6067 77.6944 39.6067 77.6944 38.5058 83C35.051 84.4275 32.368 84.874 28.5727 84.8229C27.6873 84.8176 26.8019 84.8122 25.8897 84.8067C23.6352 84.6667 23.6352 84.6667 21.7764 83.8333C23.1557 80.9279 24.9941 79.1318 27.5271 76.9583C30.9784 73.9438 34.1833 70.8315 37.2859 67.528C37.8898 66.9366 37.8898 66.9366 38.5058 66.3333Z" fill="#971393"/>
<path d="M-0.529564 54.6667C3.85746 56.0006 7.36471 58.1663 11.1462 60.5C12.3659 61.2483 13.5869 61.9949 14.8094 62.7396C15.3444 63.0694 15.8794 63.3991 16.4306 63.7389C18.1595 64.7241 19.9307 65.5387 21.7763 66.3333C21.7763 66.8833 21.7763 67.4333 21.7763 68C15.5107 69.0487 9.56864 69.8867 3.18808 69.6667C0.521002 64.4569 -1.00484 60.4196 -0.529564 54.6667Z" fill="#412E95"/>
<path d="M6.90578 38C7.5192 38 8.13261 38 8.76461 38C9.83656 40.8104 10.8988 43.6237 11.9595 46.4375C12.262 47.2303 12.5645 48.023 12.8762 48.8398C14.3314 52.714 15.6561 56.4205 16.1999 60.5C10.537 57.8437 5.40836 54.8941 0.399902 51.3333C0.700114 46.219 3.55584 42.0314 6.90578 38Z" fill="#90CD4F"/>
<path d="M32.0002 30.5C38.1546 30.7555 42.4294 31.9524 47.8002 34.6667C45.6761 36.779 43.5702 37.9691 40.7389 39.2337C39.9176 39.6016 39.0963 39.9696 38.2502 40.3486C37.3953 40.7251 36.5405 41.1017 35.6598 41.4896C34.8014 41.8758 33.943 42.2619 33.0585 42.6598C26.672 45.5 26.672 45.5 24.5649 45.5C26.3265 40.0682 28.7639 35.3515 32.0002 30.5Z" fill="#FEEC2C"/>
<path d="M42.2236 51.3333C48.4413 51.7829 53.9664 52.9059 59.8825 54.6667C59.933 56.3852 59.9688 58.104 59.9986 59.8229C60.0202 60.7801 60.0418 61.7372 60.064 62.7233C59.887 65.4312 59.3189 67.2388 58.0236 69.6667C57.4102 69.6667 56.7968 69.6667 56.1648 69.6667C54.8742 68.3426 54.8742 68.3426 53.4056 66.5026C52.8749 65.8409 52.3441 65.1792 51.7973 64.4974C51.245 63.797 50.6927 63.0966 50.1236 62.375C49.5713 61.6875 49.019 61 48.45 60.2917C46.1266 57.3762 43.9303 54.5829 42.2236 51.3333Z" fill="#ED5A3B"/>
<path d="M52.4471 38C54.2333 39.888 54.2333 39.888 55.9324 42.375C56.5027 43.1871 57.073 43.9992 57.6605 44.8359C58.953 47.1667 58.953 47.1667 58.953 50.5C50.4573 49.2735 42.1818 47.4288 33.8589 45.5C36.7817 43.4022 39.8154 41.8588 43.153 40.3437C44.1115 39.9022 45.0699 39.4607 46.0574 39.0059C48.7295 38 48.7295 38 52.4471 38Z" fill="#F39835"/>
<path d="M27.3528 30.5C24.9139 37.7034 21.4847 44.4744 18.0587 51.3333C17.4453 51.3333 16.8319 51.3333 16.1999 51.3333C15.3961 49.0267 14.604 46.7178 13.8183 44.4062C13.4741 43.4241 13.4741 43.4241 13.123 42.4222C12.9104 41.7911 12.6977 41.16 12.4786 40.5098C12.279 39.9293 12.0795 39.3489 11.8739 38.7509C11.5528 37.1667 11.5528 37.1667 12.4822 34.6667C14.646 33.5111 14.646 33.5111 17.3616 32.4271C18.6915 31.8808 18.6915 31.8808 20.0482 31.3236C22.686 30.5061 24.5893 30.3327 27.3528 30.5Z" fill="#139B4D"/>
<path d="M43.153 59.6667C46.7544 62.2499 49.061 64.2021 51.8082 67.375C52.4563 68.1184 53.1045 68.8617 53.7723 69.6276C54.2551 70.1905 54.7379 70.7534 55.2354 71.3334C52.755 76.0352 49.4558 79.9531 44.0825 82.1667C43.469 81.8917 42.8556 81.6167 42.2236 81.3334C42.5303 74.1834 42.837 67.0334 43.153 59.6667Z" fill="#BD0F37"/>
<path d="M76.844 48.5729C80.8414 48.8716 82.2547 49.5784 84.9764 52.1667C84.9764 52.9917 84.9764 53.8167 84.9764 54.6667C83.4279 54.7023 81.8779 54.7006 80.3293 54.6667C80.0226 54.3917 79.7159 54.1167 79.3999 53.8334C77.0764 53.6945 77.0764 53.6945 74.7528 53.8334C73.515 54.7597 73.515 54.7597 73.6492 57.1146C73.5141 59.7575 73.5141 59.7575 75.6823 61.3334C78.2682 60.9956 78.2682 60.9956 80.3293 59.6667C82.1878 59.6327 84.0474 59.6312 85.9058 59.6667C84.6091 62.4765 83.338 64.0418 80.3293 65.5C76.3826 65.9504 74.5128 65.9032 71.1514 63.9375C68.4448 61.5108 68.2835 60.8331 67.8984 57.3229C67.9169 54.2844 68.1855 53.8997 70.5124 51.3854C71.2983 50.8182 72.0843 50.2511 72.894 49.6667C73.8234 48.8334 73.8234 48.8334 76.844 48.5729Z" fill="#131313"/>
<path d="M157.471 48.8333C159.736 49.9271 159.736 49.9271 161.188 51.3333C161.188 52.1583 161.188 52.9833 161.188 53.8333C157.587 53.1042 157.587 53.1042 156.541 52.1667C154.257 51.8888 154.257 51.8888 151.894 52.1667C150.974 53.4042 150.974 53.4042 150.035 54.6667C150.674 54.758 151.312 54.8493 151.97 54.9434C152.808 55.0755 153.645 55.2076 154.508 55.3437C155.338 55.4694 156.169 55.5951 157.024 55.7246C159.527 56.3856 160.575 56.9659 162.118 58.8333C162.046 61.3991 161.592 62.5958 159.678 64.5104C156.569 65.9043 154.394 65.8844 150.965 65.5C148.699 63.9375 148.699 63.9375 147.247 62.1667C147.247 61.6167 147.247 61.0667 147.247 60.5C150.849 61.2292 150.849 61.2292 151.894 62.1667C153.753 62.2007 155.612 62.2021 157.471 62.1667C157.777 61.3417 158.084 60.5167 158.4 59.6667C157.751 59.5055 157.101 59.3444 156.432 59.1784C155.586 58.9614 154.741 58.7444 153.869 58.5208C153.028 58.3081 152.187 58.0954 151.321 57.8763C149.106 57.1667 149.106 57.1667 147.247 55.5C147.421 53 147.421 53 148.176 50.5C151.625 48.4388 153.391 48.5125 157.471 48.8333Z" fill="#222222"/>
<path d="M107.282 42.1667C108.816 42.1667 110.349 42.1667 111.929 42.1667C112.236 48.2167 112.543 54.2667 112.859 60.5C113.472 60.775 114.086 61.05 114.718 61.3333C114.718 62.7083 114.718 64.0833 114.718 65.5C111.975 65.2341 110.488 65.0536 108.537 63.2433C107.006 60.9125 106.96 59.5061 107.01 56.8151C107.019 55.9611 107.028 55.1071 107.037 54.2272C107.061 53.341 107.084 52.4547 107.108 51.5417C107.121 50.6425 107.133 49.7434 107.146 48.817C107.179 46.5998 107.225 44.3835 107.282 42.1667Z" fill="#0E0E0E"/>
<path d="M196.506 52.1667C198.669 55.076 198.832 56.2435 198.365 59.6667C196.495 62.0264 195.464 62.8749 192.266 63.3646C190 63 190 63 188.316 62.1667C186.548 59.4967 186.715 56.8536 187.212 53.8333C189.29 50.2165 192.615 51.2786 196.506 52.1667Z" fill="#F4F4F4"/>
<path d="M176.988 52.1667C179.152 55.076 179.315 56.2435 178.847 59.6667C176.977 62.0264 175.947 62.8749 172.748 63.3646C170.483 63 170.483 63 168.798 62.1667C167.03 59.4967 167.197 56.8536 167.694 53.8333C169.772 50.2165 173.098 51.2786 176.988 52.1667Z" fill="#F6F6F6"/>
<path d="M77.1344 52.8438C79.3999 53 79.3999 53 80.3293 53.8333C82.1877 53.8673 84.0474 53.8688 85.9058 53.8333C86.5192 55.7583 87.1326 57.6833 87.7646 59.6667C85.9058 60.5 85.9058 60.5 83.1175 60.4479C80.2199 60.2135 80.2199 60.2135 78.4705 62.1667C75.7431 61.861 74.8789 61.4464 72.894 59.6667C72.6616 57.1667 72.6616 57.1667 72.894 54.6667C74.7528 53 74.7528 53 77.1344 52.8438Z" fill="#F7F7F7"/>
<path d="M143.355 48.5208C144.026 48.6239 144.697 48.7271 145.388 48.8333C145.388 50.2083 145.388 51.5833 145.388 53C144.49 53.2417 144.49 53.2417 143.573 53.4883C141.351 54.5725 141.351 54.5725 141.104 57.1992C141.061 58.1853 141.018 59.1715 140.974 60.1875C140.921 61.1779 140.868 62.1683 140.814 63.1888C140.79 63.9515 140.766 64.7142 140.741 65.5C139.208 65.5 137.674 65.5 136.094 65.5C135.295 53.8739 135.295 53.8739 138.127 50.6041C140.741 48.8333 140.741 48.8333 143.355 48.5208Z" fill="#141414"/>
<path d="M215.094 45.5C216.014 45.5 216.934 45.5 217.882 45.5C217.882 46.875 217.882 48.25 217.882 49.6667C219.416 49.6667 220.949 49.6667 222.529 49.6667C222.529 50.4917 222.529 51.3167 222.529 52.1667C221.302 52.1667 220.076 52.1667 218.812 52.1667C218.812 55.4667 218.812 58.7667 218.812 62.1667C220.038 62.4417 221.265 62.7167 222.529 63C222.529 63.825 222.529 64.65 222.529 65.5C219.091 65.0834 217.24 64.6588 215.094 62.1667C214.777 60.3529 214.777 60.3529 214.822 58.2767C214.831 57.5328 214.84 56.7889 214.849 56.0225C214.872 55.2485 214.896 54.4745 214.92 53.6771C214.932 52.8934 214.945 52.1098 214.958 51.3024C214.991 49.3678 215.036 47.4341 215.094 45.5Z" fill="#303030"/>
<path d="M124.883 52.7917C125.822 52.8604 126.762 52.9292 127.729 53C129.588 55.5 129.588 55.5 129.298 58.1042C128.659 60.5 128.659 60.5 127.729 61.3333C124.999 61.5417 124.999 61.5417 122.153 61.3333C120.294 58.8333 120.294 58.8333 120.585 56.2292C121.431 53.0551 121.431 53.0551 124.883 52.7917Z" fill="#EDEDED"/>
<path d="M95.6067 52.8438C97.9883 53 97.9883 53 99.8471 54.6667C100.157 59.1111 100.157 59.1111 98.9177 61.3333C96.2457 61.4375 96.2457 61.4375 93.3412 61.3333C92.7278 60.7833 92.1144 60.2333 91.4824 59.6667C92.1264 53.0838 92.1264 53.0838 95.6067 52.8438Z" fill="#F5F5F5"/>
<path d="M154.682 56.3333C156.829 56.6083 158.976 56.8833 161.188 57.1666C161.495 58.8166 161.802 60.4666 162.118 62.1666C159.429 64.5045 157.918 65.4436 154.16 65.9166C150.965 65.5 150.965 65.5 148.699 63.9375C147.247 62.1666 147.247 62.1666 147.247 60.5C150.849 61.2291 150.849 61.2291 151.894 62.1666C153.753 62.2007 155.612 62.2021 157.471 62.1666C157.777 61.3416 158.084 60.5166 158.4 59.6666C157.173 59.1166 155.946 58.5666 154.682 58C154.682 57.45 154.682 56.9 154.682 56.3333Z" fill="#161616"/>
<path d="M213.235 48.8334C213.235 49.6584 213.235 50.4834 213.235 51.3334C211.702 51.8834 210.168 52.4334 208.588 53C208.281 57.125 207.975 61.25 207.659 65.5C206.739 65.5 205.819 65.5 204.871 65.5C204.77 63.3463 204.696 61.1964 204.638 59.0417C204.607 58.4337 204.576 57.8257 204.544 57.1992C204.483 54.2115 204.578 52.5219 206.584 50.0834C208.996 48.5791 210.357 48.5466 213.235 48.8334Z" fill="#1E1E1E"/>
<path d="M151.894 49.6667C157.522 49.5039 157.522 49.5039 159.33 49.6667C161.188 51.3333 161.188 51.3333 161.188 53.8333C157.75 53.0935 154.361 52.2118 150.965 51.3333C151.272 50.7833 151.578 50.2333 151.894 49.6667Z" fill="#111111"/>
<path d="M147.247 60.5C150.172 61.0828 152.848 61.9673 155.612 63C155.305 63.55 154.998 64.1 154.682 64.6667C152.535 64.3917 150.388 64.1167 148.176 63.8333C147.87 62.7333 147.563 61.6333 147.247 60.5Z" fill="#0C0C0C"/>
</g>
</g>
<defs>
<clipPath id="clip0_132_45">
<rect width="322" height="117" fill="white"/>
</clipPath>
<clipPath id="clip1_132_45">
<rect width="316" height="200" fill="white" transform="translate(-47 -42)"/>
</clipPath>
</defs>
</svg>
