<svg width="322" height="117" viewBox="0 0 322 117" fill="none" xmlns="http://www.w3.org/2000/svg">
<rect width="322" height="117" fill="white"/>
<g clip-path="url(#clip0_176_468)">
<path d="M210.157 23.5912C226.026 23.5912 241.894 23.5912 258.244 23.5912C258.244 28.2735 258.244 32.9557 258.244 37.7799C246.617 37.7799 234.991 37.7799 223.012 37.7799C223.012 40.9014 223.012 44.0229 223.012 47.239C233.224 47.239 243.437 47.239 253.959 47.239C253.959 51.7262 253.959 56.2133 253.959 60.8365C243.746 60.8365 233.534 60.8365 223.012 60.8365C223.012 64.5433 223.012 68.2501 223.012 72.0692C234.796 72.0692 246.579 72.0692 258.72 72.0692C258.72 76.5563 258.72 81.0435 258.72 85.6667C242.694 85.6667 226.668 85.6667 210.157 85.6667C210.157 65.1818 210.157 44.6968 210.157 23.5912Z" fill="#FFFF00"/>
<path d="M176.319 22.858C177.29 22.8523 178.26 22.834 179.23 22.8153C187.022 22.737 193.905 24.4565 199.694 31.2121C202.027 34.304 203.087 37.2449 203.968 41.3271C202.083 41.9205 200.199 42.5109 198.314 43.1006C197.777 43.2698 197.24 43.439 196.686 43.6133C196.174 43.7734 195.661 43.9334 195.133 44.0983C194.66 44.2469 194.186 44.3955 193.698 44.5486C192.541 44.8742 192.541 44.8742 191.589 44.8742C191.109 43.9228 191.109 43.9228 190.577 42.6572C188.826 39.0689 186.442 38.0113 183.257 37.0409C177.914 35.8924 171.991 35.8649 167.039 38.7775C165.688 40.0708 165.688 40.0708 165.7 42.3617C165.759 42.9957 165.818 43.6298 165.879 44.283C170.196 46.6528 174.483 47.3067 179.121 47.8672C196.545 50.0406 196.545 50.0406 201.654 56.1416C204.626 60.8799 204.836 65.658 204.444 71.478C204.038 73.4838 203.442 75.0675 202.539 76.7988C202.261 77.3509 202.261 77.3509 201.978 77.9142C199.016 82.9304 193.491 85.1741 188.732 86.2579C178.52 87.985 165.938 88.6495 157.13 81.048C153.816 77.6929 151.923 73.5503 150.643 68.522C150.643 68.1318 150.643 67.7416 150.643 67.3396C152.438 66.7449 154.233 66.155 156.029 65.5661C156.54 65.3969 157.05 65.2277 157.576 65.0534C158.31 64.8133 158.31 64.8133 159.059 64.5684C159.51 64.4198 159.961 64.2712 160.426 64.1181C161.594 63.7925 161.594 63.7925 163.022 63.7925C163.187 64.2634 163.187 64.2634 163.355 64.7439C164.36 67.4463 165.168 69.3609 167.307 70.8868C171.202 72.6514 174.918 72.9334 179.031 72.8821C179.585 72.889 180.138 72.8958 180.709 72.9029C184.198 72.8882 187.954 72.8402 190.666 69.7783C191.231 68.1886 191.396 67.2799 191.113 65.5661C189.34 63.9428 187.697 63.3902 185.548 62.9057C185.227 62.8332 184.907 62.7608 184.576 62.6861C181.376 62.0015 178.153 61.5987 174.925 61.169C159.599 59.0814 159.599 59.0814 154.96 53.1579C152.019 48.5078 151.644 44.2025 152.072 38.3711C153.262 33.0319 155.894 29.774 159.619 26.9282C164.931 23.483 170.435 22.8787 176.319 22.858Z" fill="#FFFF00"/>
<path d="M14 23.5911C18.1439 23.5668 22.2879 23.5424 26.5574 23.5172C28.491 23.5011 28.491 23.5011 30.4637 23.4846C53.4773 23.371 53.4773 23.371 62.0963 32.9348C67.0557 39.4015 68.4563 47.196 68.4197 55.8328C68.256 64.0425 66.3259 70.9255 61.7895 76.9834C56.3852 83.3218 49.0315 85.7514 41.7279 85.7337C41.1 85.7337 40.4721 85.7336 39.8251 85.7335C39.1674 85.7305 38.5097 85.7275 37.852 85.7244C37.2469 85.7238 36.6419 85.7232 36.0186 85.7225C33.7675 85.7195 31.5164 85.7112 29.2653 85.7036C24.2277 85.6914 19.1902 85.6792 14 85.6666C14 65.1817 14 44.6968 14 23.5911ZM26.3788 37.7798C26.3788 49.0953 26.3788 60.4108 26.3788 72.0691C28.932 72.1057 31.4851 72.1423 34.1156 72.18C34.9087 72.1961 35.7018 72.2123 36.5189 72.2289C42.1179 72.2949 47.5701 72.0203 51.8897 67.0671C54.5576 63.6334 55.4702 59.5948 55.5703 54.8875C55.3752 48.6945 54.0216 44.9926 50.5414 40.5511C45.8107 36.9464 40.4665 37.5733 35.1273 37.669C30.7968 37.7238 30.7968 37.7238 26.3788 37.7798Z" fill="#FFFF00"/>
<path d="M91.9314 23.524C92.4874 23.5271 93.0434 23.5302 93.6163 23.5334C94.2162 23.5353 94.8162 23.5372 95.4343 23.5392C96.0725 23.5441 96.7107 23.5491 97.3489 23.5542C97.989 23.5572 98.6291 23.5599 99.2692 23.5623C100.841 23.5693 102.413 23.579 103.985 23.5912C107.252 31.647 110.512 39.7032 113.618 47.8571C115.213 52.0286 116.847 56.1747 118.491 60.3168C118.967 61.517 119.442 62.7171 119.918 63.9173C120.636 65.7299 121.355 67.5419 122.077 69.3522C122.759 71.0616 123.437 72.773 124.115 74.4847C124.423 75.2517 124.423 75.2517 124.737 76.0342C124.93 76.523 125.123 77.0118 125.321 77.5155C125.488 77.9353 125.655 78.355 125.828 78.7875C126.595 81.0259 127.171 83.3588 127.79 85.6666C123.077 85.6666 118.363 85.6666 113.507 85.6666C111.936 81.5696 110.365 77.4727 108.746 73.2515C97.1978 72.9589 97.1978 72.9589 85.4164 72.6603C85.1022 73.8309 84.788 75.0015 84.4642 76.2075C84.171 77.0216 83.8634 77.8281 83.538 78.6231C83.3096 79.1859 83.3096 79.1859 83.0766 79.7602C82.8864 80.2217 82.6962 80.6832 82.5003 81.1588C81.587 83.3902 81.587 83.3902 80.6553 85.6666C75.9419 85.6666 71.2284 85.6666 66.3721 85.6666C68.8924 78.5441 71.5459 71.551 74.3658 64.604C76.2415 59.9824 78.0929 55.3499 79.8817 50.6753C81.9531 45.2641 84.0405 39.8629 86.1421 34.4697C86.4904 33.5755 86.8384 32.681 87.1859 31.7863C87.6726 30.5335 88.1605 29.2815 88.6488 28.0297C88.7963 27.6492 88.9438 27.2687 89.0959 26.8767C90.375 23.6058 90.375 23.6058 91.9314 23.524ZM96.8431 41.327C95.9593 43.6615 95.0779 45.9973 94.1987 48.3345C93.8991 49.1296 93.5989 49.9244 93.298 50.7189C92.8662 51.8596 92.4367 53.0016 92.0076 54.1439C91.7483 54.8312 91.489 55.5185 91.2218 56.2267C90.5914 57.7621 90.5914 57.7621 90.6536 59.0629C95.0529 59.0629 99.4521 59.0629 103.985 59.0629C102.482 54.7743 102.482 54.7743 100.98 50.4858C99.9116 47.4363 98.8468 44.3853 97.7953 41.327C97.481 41.327 97.1668 41.327 96.8431 41.327Z" fill="#FFFF00"/>
<path d="M132.075 23.5912C136.317 23.5912 140.559 23.5912 144.93 23.5912C144.93 44.0761 144.93 64.561 144.93 85.6667C140.688 85.6667 136.446 85.6667 132.075 85.6667C132.075 65.1818 132.075 44.6968 132.075 23.5912Z" fill="#FFFF00"/>
<path d="M282.525 23.5912C283.448 24.5519 283.448 24.5519 283.954 25.956C283.861 28.9075 283.143 31.5264 282.345 34.2812C282 35.404 282 35.404 282.049 36.5975C282.452 36.2683 282.855 35.9391 283.269 35.5999C283.662 35.2821 283.662 35.2821 284.062 34.9579C284.919 34.2437 284.919 34.2437 285.721 33.3967C287.274 31.8347 287.959 31.2883 290.024 31.2029C291.572 31.868 291.572 31.868 292.524 33.1242C293.14 35.3243 293 36.7244 292.524 38.9623C291.073 40.1631 290.809 40.2905 289.185 40.2602C288.825 40.2563 288.464 40.2525 288.093 40.2486C287.532 40.2337 287.532 40.2337 286.959 40.2186C286.58 40.2132 286.2 40.2079 285.809 40.2024C284.873 40.1885 283.937 40.1673 283.002 40.1447C284.237 42.2091 285.385 43.655 287.138 45.022C289.176 46.6293 289.176 46.6293 289.667 47.239C289.875 48.8648 289.875 48.8648 289.667 50.7862C288.369 52.5112 287.427 53.56 285.561 54.1117C283.812 53.5403 283.458 52.728 282.525 50.7862C281.813 48.449 281.199 46.0851 280.621 43.6919C279.151 45.5176 278.876 47.8479 278.287 50.2851C277.782 51.9117 277.475 52.746 276.336 53.7422C274.501 53.7007 273.358 53.437 271.813 52.1903C271.099 50.7862 271.099 50.7862 271.069 48.717C271.68 46.219 272.217 45.6913 273.956 44.283C274.553 43.7698 275.148 43.2523 275.741 42.7312C276.023 42.4919 276.306 42.2526 276.596 42.006C277.362 41.3537 277.362 41.3537 277.764 40.1447C277.202 40.1721 276.64 40.1996 276.061 40.2278C275.319 40.25 274.578 40.2715 273.837 40.2925C273.281 40.3222 273.281 40.3222 272.715 40.3525C270.904 40.391 269.972 40.4088 268.458 39.0824C267.766 37.7799 267.766 37.7799 267.766 35.7107C268.279 33.48 268.581 32.5376 270.147 31.2768C272.552 31.4406 273.914 32.4703 275.8 34.2697C276.261 34.7033 276.721 35.1369 277.195 35.5837C277.54 35.9183 277.885 36.2528 278.241 36.5975C278.398 36.4024 278.555 36.2073 278.717 36.0063C278.579 35.5353 278.442 35.0644 278.3 34.5791C278.035 33.6395 278.035 33.6395 277.764 32.6808C277.499 31.7549 277.499 31.7549 277.229 30.8103C276.806 28.8841 276.69 27.3501 276.812 25.3648C278.329 22.7632 280.172 22.7998 282.525 23.5912Z" fill="#FFFF00"/>
<path d="M92.5581 102.811C93.8445 102.775 95.1309 102.738 96.4562 102.7C96.8571 102.684 97.258 102.668 97.671 102.652C99.8419 102.622 101.286 102.798 103.033 104.585C103.39 106.063 103.39 106.063 103.509 108.132C103.568 108.665 103.626 109.197 103.687 109.746C103.746 110.323 103.805 110.9 103.866 111.494C103.922 112.045 103.979 112.596 104.037 113.164C103.985 114.635 103.985 114.635 103.367 115.681C101.983 116.923 100.764 117.072 99.1139 117.058C98.7695 117.056 98.4251 117.055 98.0702 117.053C97.6358 117.048 97.2014 117.042 96.7538 117.037C95.3692 117.025 93.9846 117.013 92.5581 117C92.5581 112.318 92.5581 107.635 92.5581 102.811ZM94.9387 105.767C94.9387 106.548 94.9387 107.328 94.9387 108.132C96.824 108.132 98.7094 108.132 100.652 108.132C100.652 107.352 100.652 106.571 100.652 105.767C98.7666 105.767 96.8812 105.767 94.9387 105.767ZM94.9387 111.088C94.9387 112.063 94.9387 113.039 94.9387 114.044C96.9812 114.044 99.0237 114.044 101.128 114.044C101.285 113.264 101.442 112.483 101.604 111.679C101.075 110.888 101.075 110.888 99.7276 111.03C99.1587 111.037 98.5898 111.044 98.0036 111.051C97.4334 111.056 96.8633 111.062 96.2758 111.067C95.6139 111.078 95.6139 111.078 94.9387 111.088Z" fill="#FFFF00"/>
<path d="M107.793 102.811C111.25 102.811 114.707 102.811 118.268 102.811C118.268 103.787 118.268 104.762 118.268 105.767C115.597 105.767 112.926 105.767 110.174 105.767C110.174 106.548 110.174 107.328 110.174 108.132C112.531 108.132 114.887 108.132 117.316 108.132C117.316 109.108 117.316 110.083 117.316 111.088C114.959 111.088 112.602 111.088 110.174 111.088C110.174 112.063 110.174 113.039 110.174 114.044C112.845 114.044 115.516 114.044 118.268 114.044C118.268 115.019 118.268 115.995 118.268 117C114.811 117 111.355 117 107.793 117C107.793 112.318 107.793 107.635 107.793 102.811Z" fill="#FFFF00"/>
<path d="M126.838 102.811C127.781 102.811 128.723 102.811 129.695 102.811C130.483 104.618 131.265 106.43 132.045 108.243C132.269 108.754 132.492 109.265 132.721 109.791C132.935 110.289 133.148 110.786 133.368 111.298C133.565 111.753 133.762 112.208 133.965 112.677C134.482 114.116 134.73 115.449 134.932 117C133.831 117.185 133.831 117.185 132.551 117C132.35 116.518 132.149 116.037 131.941 115.54C131.225 113.87 131.225 113.87 129.734 113.626C129.22 113.605 128.706 113.585 128.177 113.564C127.401 113.521 127.401 113.521 126.609 113.478C126.213 113.47 125.818 113.461 125.41 113.453C125.095 114.623 124.781 115.794 124.457 117C123.672 117 122.886 117 122.077 117C122.358 114.919 122.798 113.196 123.537 111.298C123.825 110.552 123.825 110.552 124.118 109.791C124.318 109.28 124.519 108.769 124.725 108.243C124.927 107.72 125.13 107.198 125.338 106.66C125.836 105.376 126.336 104.093 126.838 102.811ZM128.266 106.358C127.559 108.407 127.559 108.407 126.838 110.497C127.781 110.497 128.723 110.497 129.695 110.497C129.38 109.131 129.066 107.765 128.742 106.358C128.585 106.358 128.428 106.358 128.266 106.358Z" fill="#FFFF00"/>
<path d="M137.788 102.811C138.574 102.811 139.359 102.811 140.169 102.811C140.198 103.48 140.227 104.15 140.256 104.839C140.296 105.715 140.337 106.591 140.377 107.467C140.396 107.908 140.415 108.349 140.434 108.804C140.51 111.206 140.51 111.206 141.121 113.453C141.905 113.469 142.688 113.48 143.472 113.49C144.126 113.5 144.126 113.5 144.794 113.511C145.866 113.606 145.866 113.606 146.358 112.862C146.471 111.171 146.559 109.492 146.626 107.799C146.647 107.323 146.667 106.846 146.688 106.355C146.739 105.174 146.787 103.993 146.834 102.811C147.62 102.811 148.406 102.811 149.215 102.811C149.267 104.524 149.304 106.234 149.334 107.947C149.358 108.671 149.358 108.671 149.382 109.41C149.414 111.833 149.377 113.12 148.345 115.238C146.604 117.209 144.929 117.163 142.687 117.132C141.127 116.943 140.04 116.289 138.741 115.226C137.756 113.393 137.672 113.022 137.695 110.952C137.698 110.477 137.701 110.003 137.705 109.514C137.713 109.021 137.721 108.529 137.729 108.021C137.733 107.522 137.737 107.022 137.742 106.507C137.753 105.275 137.77 104.043 137.788 102.811Z" fill="#FFFF00"/>
<path d="M153.5 102.811C157.271 102.811 161.042 102.811 164.927 102.811C164.927 103.787 164.927 104.762 164.927 105.767C163.355 105.767 161.784 105.767 160.166 105.767C160.166 109.474 160.166 113.181 160.166 117C159.38 117 158.594 117 157.785 117C157.785 113.293 157.785 109.586 157.785 105.767C156.371 105.767 154.957 105.767 153.5 105.767C153.5 104.792 153.5 103.816 153.5 102.811Z" fill="#FFFF00"/>
<path d="M168.259 102.811C169.509 102.479 169.509 102.479 171.116 102.811C172.258 104.45 173.122 106.244 173.973 108.132C174.18 107.748 174.387 107.364 174.601 106.968C175.452 105.487 176.281 104.113 177.305 102.811C178.942 102.479 178.942 102.479 180.162 102.811C179.459 104.732 178.556 106.251 177.514 107.91C175.786 110.901 175.357 113.36 175.401 117C174.615 117 173.83 117 173.02 117C173.036 116.656 173.051 116.311 173.067 115.956C173.015 111.399 171.431 108.837 169.18 105.453C168.259 103.994 168.259 103.994 168.259 102.811Z" fill="#FFFF00"/>
</g>
<defs>
<clipPath id="clip0_176_468">
<rect width="279" height="94" fill="white" transform="translate(14 23)"/>
</clipPath>
</defs>
</svg>
