<?xml version="1.0" encoding="UTF-8"?>
<svg version="1.1" xmlns="http://www.w3.org/2000/svg" width="300" height="100">
<path d="M0 0 C99 0 198 0 300 0 C300 33 300 66 300 100 C201 100 102 100 0 100 C0 67 0 34 0 0 Z " fill="#FEFEFE" transform="translate(0,0)"/>
<path d="M0 0 C48.84 0 97.68 0 148 0 C148 33 148 66 148 100 C109.06 100 70.12 100 30 100 C31.83155135 92.67379462 33.60643124 85.77305622 36.1875 78.75 C36.59645508 77.61498047 36.59645508 77.61498047 37.01367188 76.45703125 C37.67057745 74.6361351 38.33448981 72.81776894 39 71 C37.35 71 35.7 71 34 71 C34 73.64 34 76.28 34 79 C33.67 79 33.34 79 33 79 C33 75.7 33 72.4 33 69 C35.64 69 38.28 69 41 69 C41 71.97 41 74.94 41 78 C41.99 78 42.98 78 44 78 C44 71.4 44 64.8 44 58 C43.01 57.67 42.02 57.34 41 57 C41.99 56.67 42.98 56.34 44 56 C45.04980354 53.71408975 45.89798062 51.56082866 46.6875 49.1875 C47.12449219 47.94355469 47.56148437 46.69960938 48.01171875 45.41796875 C49.18517655 41.95256366 49.18517655 41.95256366 49 38 C48.175 37.505 47.35 37.01 46.5 36.5 C45.675 36.005 44.85 35.51 44 35 C44 33.68 44 32.36 44 31 C42.9018396 31.0925708 42.9018396 31.0925708 41.78149414 31.18701172 C38.41093082 30.96039437 37.15020281 30.05376603 34.49609375 28.0078125 C33.67302734 27.38519531 32.84996094 26.76257813 32.00195312 26.12109375 C31.15568359 25.46238281 30.30941406 24.80367187 29.4375 24.125 C27.75067822 22.83334723 26.06194517 21.54418573 24.37109375 20.2578125 C23.62786865 19.6817627 22.88464355 19.10571289 22.11889648 18.51220703 C20.14043229 17.10022325 18.20308829 16.01604327 16 15 C16 14.34 16 13.68 16 13 C15.46890625 12.75121094 14.9378125 12.50242187 14.390625 12.24609375 C11.39129584 10.68271793 8.58772772 8.90291037 5.75 7.0625 C4.67234375 6.37285156 3.5946875 5.68320313 2.484375 4.97265625 C1.25460938 3.99619141 1.25460938 3.99619141 0 3 C0 2.01 0 1.02 0 0 Z " fill="#FEFEFE" transform="translate(152,0)"/>
<path d="M0 0 C0.99 0 1.98 0 3 0 C3 0.66 3 1.32 3 2 C3.70511719 2.2475 4.41023438 2.495 5.13671875 2.75 C8.36887443 4.16103659 10.96328902 5.9250726 13.8125 8 C14.78832031 8.70125 15.76414062 9.4025 16.76953125 10.125 C17.50558594 10.74375 18.24164063 11.3625 19 12 C19 12.66 19 13.32 19 14 C19.73734375 14.26804443 20.4746875 14.53608887 21.234375 14.81225586 C23.92406532 15.96738857 25.9259102 17.24174048 28.25 19.00390625 C29.0234375 19.57947266 29.796875 20.15503906 30.59375 20.74804688 C32.19979641 21.95909973 33.80396252 23.17265013 35.40625 24.38867188 C36.1796875 24.96294922 36.953125 25.53722656 37.75 26.12890625 C38.79414063 26.91890015 38.79414063 26.91890015 39.859375 27.72485352 C42.24522527 29.14607796 44.26701616 29.60790999 47 30 C47 31.32 47 32.64 47 34 C47.804375 34.226875 48.60875 34.45375 49.4375 34.6875 C52 36 52 36 52.80859375 38.1328125 C53.0643008 41.96319978 51.98857711 44.61281858 50.625 48.1875 C50.16351563 49.41855469 49.70203125 50.64960937 49.2265625 51.91796875 C48 55 48 55 47 57 C46.91627341 58.52148326 46.89269973 60.04655778 46.90234375 61.5703125 C46.90556641 62.46621094 46.90878906 63.36210938 46.91210938 64.28515625 C46.92048828 65.22230469 46.92886719 66.15945312 46.9375 67.125 C46.94201172 68.06988281 46.94652344 69.01476562 46.95117188 69.98828125 C46.96297643 72.32558387 46.97944241 74.66276061 47 77 C46.01 77 45.02 77 44 77 C44 74.03 44 71.06 44 68 C41.36 68 38.72 68 36 68 C36.33 68.66 36.66 69.32 37 70 C38.65 70 40.3 70 42 70 C39.80434178 79.880462 36.34363664 89.44675246 33 99 C12.21 99 -8.58 99 -30 99 C-38.89265728 73.43361031 -38.89265728 73.43361031 -38 62 C-38.33 61.67 -38.66 61.34 -39 61 C-39 66.28 -39 71.56 -39 77 C-40.98 77.495 -40.98 77.495 -43 78 C-43 72.39 -43 66.78 -43 61 C-44.65 60.67 -46.3 60.34 -48 60 C-48 59.01 -48 58.02 -48 57 C-46.515 56.505 -46.515 56.505 -45 56 C-45.37253906 54.97519531 -45.74507813 53.95039062 -46.12890625 52.89453125 C-46.60741019 51.53407887 -47.08523938 50.17338904 -47.5625 48.8125 C-47.80935547 48.13896484 -48.05621094 47.46542969 -48.31054688 46.77148438 C-49.67069191 42.84430504 -50.4881279 39.97083375 -49 36 C-48.01 35.505 -48.01 35.505 -47 35 C-46.34444881 32.47266765 -46.34444881 32.47266765 -46 30 C-45.13375 30.09023438 -44.2675 30.18046875 -43.375 30.2734375 C-38.99918664 29.91891558 -37.35942984 28.41024158 -34 25.625 C-32.8677976 24.70727131 -31.73361069 23.79198659 -30.59765625 22.87890625 C-29.72004639 22.16758545 -29.72004639 22.16758545 -28.82470703 21.44189453 C-25.77765808 19.03409803 -22.61064588 16.79995318 -19.4375 14.5625 C-15.0273518 11.46039442 -15.0273518 11.46039442 -10.72265625 8.21484375 C-9 7 -9 7 -7 7 C-7 6.34 -7 5.68 -7 5 C-2.61538462 2 -2.61538462 2 0 2 C0 1.34 0 0.68 0 0 Z " fill="#E6E6E6" transform="translate(149,1)"/>
<path d="M0 0 C4.84825193 0.3232168 7.17623447 1.67623447 10.5625 5.0625 C12.1956216 8.07088189 12.2242025 9.8628393 11.75 13.25 C10.11564595 16.28522895 8.694447 18.53352297 5.9375 20.625 C2.69376185 21.55178233 0.10738508 21.60340896 -3.25 21.25 C-6.00329021 19.45437595 -7.77627461 18.19745078 -9.25 15.25 C-9.67068924 12.19098826 -9.74028455 9.30241674 -9.25 6.25 C-6.8125 3.25 -6.8125 3.25 -4.25 1.25 C-3.25 0.25 -3.25 0.25 0 0 Z " fill="#1E1E1E" transform="translate(125.25,57.75)"/>
<path d="M0 0 C2.31436137 0.47549606 4.09290891 1.29272851 6.1484375 2.44140625 C5.8184375 3.76140625 5.4884375 5.08140625 5.1484375 6.44140625 C4.1584375 5.78140625 3.1684375 5.12140625 2.1484375 4.44140625 C-2.51663678 3.97735248 -2.51663678 3.97735248 -6.7890625 5.56640625 C-8.35578495 8.33121058 -8.24132685 10.32329142 -7.8515625 13.44140625 C-6.91558935 15.46091687 -6.91558935 15.46091687 -4.8515625 16.44140625 C-1.30942265 16.94148419 -1.30942265 16.94148419 2.1484375 16.44140625 C2.8084375 15.45140625 3.4684375 14.46140625 4.1484375 13.44140625 C2.4984375 13.44140625 0.8484375 13.44140625 -0.8515625 13.44140625 C-0.5215625 12.45140625 -0.1915625 11.46140625 0.1484375 10.44140625 C2.7884375 10.44140625 5.4284375 10.44140625 8.1484375 10.44140625 C7.85283496 13.69303424 7.41149629 16.00678738 5.7109375 18.81640625 C1.69746754 21.36153354 -2.24068192 21.3292619 -6.8515625 20.44140625 C-10.51806378 17.59799709 -12.54208632 15.3424742 -13.2890625 10.75390625 C-12.75314569 6.69625038 -11.52287884 4.75950317 -8.76953125 1.796875 C-5.8722307 -0.25070808 -3.45964232 -0.18815599 0 0 Z " fill="#141414" transform="translate(146.8515625,30.55859375)"/>
<path d="M0 0 C1.32 0 2.64 0 4 0 C5.921875 2.625 5.921875 2.625 7.75 6 C8.36359375 7.11375 8.9771875 8.2275 9.609375 9.375 C10.29773438 10.674375 10.29773438 10.674375 11 12 C11.33 8.04 11.66 4.08 12 0 C12.99 0 13.98 0 15 0 C15 6.6 15 13.2 15 20 C13.68 20 12.36 20 11 20 C9.078125 17.375 9.078125 17.375 7.25 14 C6.63640625 12.88625 6.0228125 11.7725 5.390625 10.625 C4.93171875 9.75875 4.4728125 8.8925 4 8 C3.67 11.96 3.34 15.92 3 20 C2.01 20 1.02 20 0 20 C0 13.4 0 6.8 0 0 Z " fill="#0F0F0F" transform="translate(181,31)"/>
<path d="M0 0 C2.375 1.5625 2.375 1.5625 4 4 C4.5625 7.5 4.5625 7.5 4 11 C1.58140437 13.69500656 -0.00763965 14.80636871 -3.5625 15.5 C-6.9249123 14.8102744 -8.0486167 13.81866476 -10 11 C-10.56783945 7.02512383 -10.62340519 4.93510779 -8.375 1.5625 C-5.28314769 -0.47161336 -3.63632575 -0.60605429 0 0 Z " fill="#E6E6E6" transform="translate(129,61)"/>
<path d="M0 0 C1.32 0 2.64 0 4 0 C4 2.64 4 5.28 4 8 C6.64 8 9.28 8 12 8 C12 5.36 12 2.72 12 0 C12.99 0 13.98 0 15 0 C15 6.6 15 13.2 15 20 C14.01 20 13.02 20 12 20 C12 17.03 12 14.06 12 11 C9.36 11 6.72 11 4 11 C4 13.97 4 16.94 4 20 C2.68 20 1.36 20 0 20 C0 13.4 0 6.8 0 0 Z " fill="#181818" transform="translate(181,58)"/>
<path d="M0 0 C1.32 0 2.64 0 4 0 C4.33 5.28 4.66 10.56 5 16 C6.65 16.33 8.3 16.66 10 17 C12.05922402 14.94077598 11.41427579 10.78291876 11.5625 7.9375 C11.60568359 7.17888672 11.64886719 6.42027344 11.69335938 5.63867188 C11.79973633 3.75934562 11.90039934 1.87969756 12 0 C12.99 0 13.98 0 15 0 C15.10812003 2.75105422 15.18734945 5.49785087 15.25 8.25 C15.30027344 9.41595703 15.30027344 9.41595703 15.3515625 10.60546875 C15.45027902 16.38038528 15.45027902 16.38038528 13.171875 19.515625 C10.209116 21.54053223 8.51696851 21.58616142 5 21 C2.69724444 19.1329009 1.32176129 17.64352259 0 15 C-0.0716735 12.44842345 -0.09308442 9.92527029 -0.0625 7.375 C-0.05798828 6.66859375 -0.05347656 5.9621875 -0.04882812 5.234375 C-0.03703875 3.48954725 -0.01910324 1.744763 0 0 Z " fill="#202020" transform="translate(141,58)"/>
<path d="M0 0 C0.66 0 1.32 0 2 0 C3.50310854 3.14435738 5.00196342 6.29072347 6.5 9.4375 C6.92925781 10.33533203 7.35851562 11.23316406 7.80078125 12.15820312 C8.40986328 13.43920898 8.40986328 13.43920898 9.03125 14.74609375 C9.40830078 15.53685303 9.78535156 16.3276123 10.17382812 17.14233398 C11 19 11 19 11 20 C7.04 20 3.08 20 -1 20 C-0.67 19.01 -0.34 18.02 0 17 C1.65 16.67 3.3 16.34 5 16 C3.68 13.36 2.36 10.72 1 8 C0.52949219 8.86625 0.05898437 9.7325 -0.42578125 10.625 C-1.04839844 11.73875 -1.67101562 12.8525 -2.3125 14 C-3.23482422 15.670625 -3.23482422 15.670625 -4.17578125 17.375 C-4.77777344 18.24125 -5.37976563 19.1075 -6 20 C-6.99 20 -7.98 20 -9 20 C-8.37348573 17.1375259 -7.47829483 14.71918347 -6.15234375 12.109375 C-5.79462891 11.40039062 -5.43691406 10.69140625 -5.06835938 9.9609375 C-4.69517578 9.23132812 -4.32199219 8.50171875 -3.9375 7.75 C-3.56044922 7.00492188 -3.18339844 6.25984375 -2.79492188 5.4921875 C-1.86689327 3.65962469 -0.93392821 1.82956324 0 0 Z " fill="#0F0F0F" transform="translate(166,31)"/>
<path d="M0 0 C3.96 0 7.92 0 12 0 C12 0.99 12 1.98 12 3 C9.36 3 6.72 3 4 3 C4 4.65 4 6.3 4 8 C5.65 8.33 7.3 8.66 9 9 C9 9.66 9 10.32 9 11 C7.35 11 5.7 11 4 11 C4 12.98 4 14.96 4 17 C6.31 17 8.62 17 11 17 C11.33 17.99 11.66 18.98 12 20 C8.04 20 4.08 20 0 20 C0 13.4 0 6.8 0 0 Z " fill="#1B1B1B" transform="translate(87,31)"/>
<path d="M0 0 C0.66 1.32 1.32 2.64 2 4 C0.68 4.33 -0.64 4.66 -2 5 C-2.33 6.65 -2.66 8.3 -3 10 C-1.35 10 0.3 10 2 10 C1.34 11.32 0.68 12.64 0 14 C-6.27586207 14.48275862 -6.27586207 14.48275862 -9.4375 12.375 C-11.47161336 9.28314769 -11.60605429 7.63632575 -11 4 C-8.02080717 -0.52837311 -5.15974216 -0.39690324 0 0 Z " fill="#E8E8E8" transform="translate(149,34)"/>
<path d="M0 0 C3.96 0 7.92 0 12 0 C12 0.99 12 1.98 12 3 C9.03 3 6.06 3 3 3 C3 4.65 3 6.3 3 8 C4.98 8 6.96 8 9 8 C9 8.99 9 9.98 9 11 C7.02 11 5.04 11 3 11 C3 12.98 3 14.96 3 17 C5.64 17 8.28 17 11 17 C11 17.99 11 18.98 11 20 C7.37 20 3.74 20 0 20 C0 13.4 0 6.8 0 0 Z " fill="#0E0E0E" transform="translate(120,31)"/>
<path d="M0 0 C0.66 0.33 1.32 0.66 2 1 C1.67 2.32 1.34 3.64 1 5 C-0.0725 4.7525 -1.145 4.505 -2.25 4.25 C-5.96598456 3.62006479 -5.96598456 3.62006479 -8.4375 5.625 C-10.30261443 8.45997394 -10.66474877 9.67625617 -10 13 C-8.41666667 15.41666667 -8.41666667 15.41666667 -6 17 C-2.83625717 17.3858223 -1.04286484 17.01428828 2 16 C2 17.32 2 18.64 2 20 C-1.14911479 21.57455739 -3.52008816 21.34799118 -7 21 C-10.58014577 18.94473113 -12.36748152 17.74665002 -13.76953125 13.875 C-14.36459677 10.58267488 -14.60197176 8.1310485 -13 5.12109375 C-8.92826062 0.09201088 -6.26019312 -0.22357833 0 0 Z " fill="#131313" transform="translate(175,58)"/>
<path d="M0 0 C4.29 0 8.58 0 13 0 C13 0.99 13 1.98 13 3 C11.35 3 9.7 3 8 3 C8 8.94 8 14.88 8 21 C7.01 21 6.02 21 5 21 C5 15.39 5 9.78 5 4 C3.35 3.67 1.7 3.34 0 3 C0 2.01 0 1.02 0 0 Z " fill="#212121" transform="translate(101,58)"/>
<path d="M0 0 C3.96 0 7.92 0 12 0 C12 0.99 12 1.98 12 3 C10.35 3 8.7 3 7 3 C7 8.61 7 14.22 7 20 C6.01 20 5.02 20 4 20 C4 14.39 4 8.78 4 3 C2.68 3 1.36 3 0 3 C0 2.01 0 1.02 0 0 Z " fill="#060606" transform="translate(201,31)"/>
<path d="M0 0 C0.99 0 1.98 0 3 0 C3 5.61 3 11.22 3 17 C5.97 17 8.94 17 12 17 C12 17.99 12 18.98 12 20 C8.04 20 4.08 20 0 20 C0 13.4 0 6.8 0 0 Z " fill="#0B0B0B" transform="translate(104,31)"/>
<path d="M0 0 C5 2 5 2 5.96484375 4.16796875 C6.01096337 7.88316076 4.90485683 10.90929247 3.5625 14.3125 C3.31951172 14.95767578 3.07652344 15.60285156 2.82617188 16.26757812 C2.22862502 17.84931979 1.61582273 19.42528374 1 21 C-0.32 19.68 -1.64 18.36 -3 17 C-2.01 17 -1.02 17 0 17 C0 11.39 0 5.78 0 0 Z " fill="#EBEBEB" transform="translate(196,35)"/>
<path d="M0 0 C0.99 0 1.98 0 3 0 C3 4.95 3 9.9 3 15 C2.01 15.33 1.02 15.66 0 16 C0 10.72 0 5.44 0 0 Z " fill="#0D0D0D" transform="translate(153,58)"/>
<path d="M0 0 C0.66 0.33 1.32 0.66 2 1 C1.525625 1.680625 1.05125 2.36125 0.5625 3.0625 C-1.2225636 6.41841956 -1.63153086 9.24161481 -2 13 C-2.99 13.33 -3.98 13.66 -5 14 C-5.78774617 5.96498906 -5.78774617 5.96498906 -2.5 1.9375 C-1.2625 0.9784375 -1.2625 0.9784375 0 0 Z " fill="#101010" transform="translate(121,59)"/>
<path d="M0 0 C0 4.95 0 9.9 0 15 C-2.57022407 11.14466389 -4.16765078 7.88607124 -3.75 3.1875 C-2.98920531 0.96851547 -2.53081671 0 0 0 Z " fill="#EBEBEB" transform="translate(103,36)"/>
<path d="M0 0 C0.66 0.33 1.32 0.66 2 1 C2.05379226 3.95857409 2.09357093 6.91617721 2.125 9.875 C2.14175781 10.71675781 2.15851563 11.55851562 2.17578125 12.42578125 C2.18222656 13.23144531 2.18867188 14.03710938 2.1953125 14.8671875 C2.20578613 15.61081543 2.21625977 16.35444336 2.22705078 17.12060547 C2 19 2 19 0 21 C-0.99 19.68 -1.98 18.36 -3 17 C-2.01 17 -1.02 17 0 17 C0 11.39 0 5.78 0 0 Z " fill="#F4F4F4" transform="translate(196,35)"/>
<path d="M0 0 C1.32 0 2.64 0 4 0 C4.625 1.875 4.625 1.875 5 4 C4.34 4.66 3.68 5.32 3 6 C2.01 6 1.02 6 0 6 C-1.125 2.25 -1.125 2.25 0 0 Z " fill="#868686" transform="translate(134,89)"/>
<path d="M0 0 C1.32 0 2.64 0 4 0 C4.625 1.875 4.625 1.875 5 4 C4.34 4.66 3.68 5.32 3 6 C2.01 6 1.02 6 0 6 C0 4.02 0 2.04 0 0 Z " fill="#767676" transform="translate(152,89)"/>
<path d="M0 0 C-0.33 1.32 -0.66 2.64 -1 4 C-3.31 4.33 -5.62 4.66 -8 5 C-3.375 0 -3.375 0 0 0 Z " fill="#121212" transform="translate(134,73)"/>
<path d="M0 0 C6.75 -0.125 6.75 -0.125 9 1 C8.67 2.32 8.34 3.64 8 5 C4.62496331 3.8141763 2.35277269 2.72426311 0 0 Z " fill="#1A1A1A" transform="translate(168,58)"/>
</svg>
