<svg width="322" height="117" viewBox="0 0 322 117" fill="none" xmlns="http://www.w3.org/2000/svg">
<g clip-path="url(#clip0_43_152)">
<rect width="322" height="117" fill="white"/>
<path d="M162.933 21.7982C151.338 23.994 141.55 31.4673 137.378 41.2389C136.602 42.9774 135.899 44.4344 135.749 44.4355C135.561 44.4369 135.412 39.7087 135.368 33.9027L135.287 23.3676L123.676 23.4564L112.028 23.5454L112.089 46.349C112.145 68.3565 112.114 69.2933 111.378 71.3124C110.458 73.848 108.484 76.1575 106.499 77.0156C104.589 77.873 98.0511 77.923 95.7525 77.0977C93.3408 76.2265 91.2548 73.7139 90.518 70.7227C90.0907 68.8998 89.941 64.0779 89.8036 46.098L89.6324 23.7167L77.9087 23.8063L66.1474 23.8963L66.175 32.4183C66.2377 40.6123 66.2026 40.9403 65.5928 39.8212C63.0394 35.1582 58.2321 30.606 53.329 28.2554C45.8227 24.5668 41.6479 24.0836 18.7265 24.2589L0.013639 24.402L0.27895 59.0976L0.544262 93.7933L20.7208 93.4049C36.5764 93.0963 41.5726 92.8708 43.9356 92.2908C52.0377 90.3559 58.285 86.6557 62.3793 81.5204C64.0913 79.3533 66.0191 75.9203 66.5692 74.1368C67.0086 72.635 67.5358 72.7714 67.85 74.5484C68.399 77.541 70.7283 82.3931 72.9285 85.0921C76.5322 89.513 82.7577 92.79 89.832 94.047C94.2345 94.8094 109.114 94.6488 113.054 93.8226C120.294 92.2688 126.019 89.0877 129.592 84.5652C132.57 80.7964 133.972 77.3674 135.051 71.0377C135.339 69.4434 135.864 69.3458 136.176 70.795C136.762 73.6469 139.467 78.5897 142.312 82.0798C144.892 85.2442 146.027 86.2189 149.689 88.4853C164.149 97.3184 185.295 95.9392 197.84 85.3076C211.43 73.7314 213.501 49.6941 202.189 34.7965C196.798 27.7202 190.116 23.6975 180.557 21.8508C176.869 21.1298 166.685 21.114 162.933 21.7982ZM178.061 39.4294C183.158 42.4809 185.836 48.735 185.905 57.7718C185.94 67.1835 182.91 73.9495 177.667 76.2841C174.895 77.4759 168.845 77.5222 166.318 76.324C160.737 73.7445 157.794 67.2582 157.719 57.4723C157.647 48.0141 160.679 41.529 166.408 38.9098C169.254 37.6237 175.494 37.9038 178.061 39.4294ZM37.6463 41.346C43.7146 43.7345 46.0486 49.1952 45.6432 60.0618C45.4264 66.104 44.6938 68.5913 42.1261 71.8888C38.9258 75.9871 34.1293 77.7563 26.9122 77.4837L23.905 77.3662L23.6544 59.3403C23.541 49.4142 23.5145 41.0326 23.6243 40.6572C23.9546 39.6245 34.5554 40.1053 37.6463 41.346Z" fill="#ED018C"/>
<path d="M206.883 83.5527C207.222 83.6437 207.823 83.6391 208.199 83.5426C208.536 83.3996 208.234 83.3082 207.52 83.3137C206.806 83.3191 206.507 83.4151 206.883 83.5527Z" fill="#ED018C"/>
<path d="M205.088 84.6435C204.716 85.1614 204.495 85.6782 204.57 85.7713C204.646 85.8644 205.019 85.4401 205.39 84.8285C206.206 83.4643 206.017 83.3253 205.088 84.6435Z" fill="#ED018C"/>
<path d="M209.027 83.864C209.028 83.9577 209.332 84.3299 209.71 84.6548C210.278 85.2592 210.315 85.2121 209.821 84.4667C209.327 83.7213 209.024 83.4894 209.027 83.864Z" fill="#ED018C"/>
<path d="M206.422 87.0682C206.43 88.1451 206.511 88.8937 206.622 88.7524C206.957 88.3284 207.045 85.0968 206.707 85.0994C206.557 85.1005 206.413 85.9913 206.422 87.0682Z" fill="#ED018C"/>
<path d="M207.837 85.4184C208.063 85.5104 208.291 85.93 208.294 86.3046C208.297 86.6792 208.074 86.9619 207.848 86.9636C207.51 86.9662 207.474 87.1069 207.776 87.3387C208.003 87.5243 208.27 87.9905 208.385 88.3642C208.501 88.738 208.609 88.1752 208.601 87.0515C208.626 85.506 208.473 85.0858 207.985 85.1363C207.571 85.1395 207.535 85.2803 207.837 85.4184Z" fill="#ED018C"/>
<path d="M210.254 86.9452C210.261 87.8348 210.339 88.2088 210.448 87.7397C210.52 87.3177 210.514 86.5686 210.436 86.1009C210.32 85.6804 210.247 86.0555 210.254 86.9452Z" fill="#ED018C"/>
<path d="M204.552 88.2531C204.553 88.4872 204.934 89.093 205.426 89.6043L206.26 90.4876L205.499 89.3228C205.081 88.6704 204.701 88.0646 204.662 87.9713C204.586 87.8782 204.55 87.9721 204.552 88.2531Z" fill="#ED018C"/>
<path d="M209.411 89.6207C208.928 90.3736 208.966 90.4201 209.562 89.8069C209.898 89.4765 210.196 89.0996 210.195 89.006C210.192 88.6314 209.893 88.8678 209.411 89.6207Z" fill="#ED018C"/>
<path d="M206.937 90.5761C207.276 90.6672 207.877 90.6626 208.252 90.566C208.589 90.423 208.288 90.3316 207.574 90.3371C206.86 90.3426 206.56 90.4385 206.937 90.5761Z" fill="#ED018C"/>
</g>
<defs>
<clipPath id="clip0_43_152">
<rect width="322" height="117" fill="white"/>
</clipPath>
</defs>
</svg>
