<?xml version="1.0" encoding="UTF-8"?>
<svg version="1.1" xmlns="http://www.w3.org/2000/svg" width="322" height="117">
<path d="M0 0 C106.26 0 212.52 0 322 0 C322 38.61 322 77.22 322 117 C215.74 117 109.48 117 0 117 C0 78.39 0 39.78 0 0 Z " fill="#010101" transform="translate(0,0)"/>
<path d="M0 0 C7.78900934 5.55230058 12.93770052 12.06317449 15.6875 21.3125 C16.65745223 29.6540892 16.79244688 38.81132967 12 46 C11.34 46 10.68 46 10 46 C9.7525 46.556875 9.505 47.11375 9.25 47.6875 C6.23367978 53.26769241 2.67716756 56.10144693 -3 58.75 C-3.61617187 59.05292969 -4.23234375 59.35585937 -4.8671875 59.66796875 C-12.25024378 63.23274915 -20.04135324 64.62493892 -28 61.875 C-29.34808727 61.2824939 -30.68091892 60.65454402 -32 60 C-33.2065625 59.43152344 -33.2065625 59.43152344 -34.4375 58.8515625 C-42.34691813 54.67982672 -47.67059062 48.43528855 -51.1953125 40.2109375 C-52.21903858 36.12597228 -52.36799541 32.32075028 -52.375 28.125 C-52.39949219 27.36058594 -52.42398438 26.59617187 -52.44921875 25.80859375 C-52.49605991 16.61211272 -48.18583153 10.55190856 -42.078125 3.98046875 C-31.19104867 -6.39499685 -12.85249509 -7.04415596 0 0 Z " fill="#F5F5F5" transform="translate(252,14)"/>
<path d="M0 0 C1.13127319 -0.00945648 2.26254639 -0.01891296 3.42810059 -0.02865601 C5.26096619 -0.01954697 5.26096619 -0.01954697 7.13085938 -0.01025391 C8.38467407 -0.01312408 9.63848877 -0.01599426 10.93029785 -0.01895142 C13.58356688 -0.02099468 16.23600909 -0.01695109 18.88916016 -0.00292969 C22.28902571 0.01416273 25.68818083 0.00432043 29.08802032 -0.01364708 C32.33149215 -0.0270973 35.57487828 -0.01767874 38.81835938 -0.01025391 C40.04026978 -0.0163266 41.26218018 -0.02239929 42.52111816 -0.02865601 C44.21802795 -0.01447128 44.21802795 -0.01447128 45.94921875 0 C46.94610718 0.00238678 47.94299561 0.00477356 48.97009277 0.00723267 C51.47460938 0.38818359 51.47460938 0.38818359 53.29650879 1.72494507 C55.13070432 4.31445627 54.85922209 6.31128184 54.47460938 9.38818359 C52.90388535 11.48522665 52.01822587 12.28808013 49.41893005 12.76672363 C48.23884117 12.7698053 48.23884117 12.7698053 47.03491211 12.77294922 C45.69353432 12.78811584 45.69353432 12.78811584 44.32505798 12.80358887 C43.36249588 12.80056763 42.39993378 12.79754639 41.40820312 12.79443359 C40.41836929 12.80526978 39.42853546 12.81610596 38.40870667 12.82727051 C34.16810915 12.87324743 29.92756999 12.88464781 25.68676758 12.89941406 C22.59368742 12.91505363 19.50112819 12.94804111 16.40820312 12.98193359 C15.44361679 12.97891235 14.47903046 12.97589111 13.48521423 12.97277832 C12.14856468 12.98794495 12.14856468 12.98794495 10.78491211 13.00341797 C9.99898178 13.00547241 9.21305145 13.00752686 8.40330505 13.00964355 C7.76683548 13.13456177 7.13036591 13.25947998 6.47460938 13.38818359 C4.08662256 16.29404046 4.08662256 16.29404046 4.78710938 20.01318359 C5.11574061 23.21322672 5.11574061 23.21322672 6.47460938 24.38818359 C7.87046265 24.49472343 9.27152101 24.53436123 10.67138672 24.54589844 C12.00814957 24.56129166 12.00814957 24.56129166 13.37191772 24.57699585 C14.82653915 24.58794785 14.82653915 24.58794785 16.31054688 24.59912109 C18.34440911 24.62718849 20.37826317 24.65585294 22.41210938 24.68505859 C25.63378687 24.72636215 28.85531169 24.76323018 32.07714844 24.78955078 C35.17610575 24.81709285 38.27435892 24.86296575 41.37304688 24.91162109 C42.33874603 24.91487396 43.30444519 24.91812683 44.29940796 24.92147827 C45.19688751 24.93804474 46.09436707 24.95461121 47.01904297 24.97167969 C47.8087851 24.97976654 48.59852722 24.98785339 49.41220093 24.9961853 C52.02173503 25.49217479 52.94093467 26.23737147 54.47460938 28.38818359 C54.14127604 34.72151693 54.14127604 34.72151693 51.47460938 37.38818359 C49.53918457 37.65319824 49.53918457 37.65319824 47.1484375 37.67529297 C46.25411011 37.68870728 45.35978271 37.70212158 44.43835449 37.71594238 C43.4706311 37.72121948 42.50290771 37.72649658 41.50585938 37.73193359 C40.5146106 37.7465564 39.52336182 37.7611792 38.5020752 37.77624512 C34.24874753 37.83868328 29.995272 37.8781635 25.74169922 37.91992188 C22.64209525 37.95357716 19.54280493 37.99871088 16.44335938 38.04443359 C15.47563599 38.04971069 14.5079126 38.05498779 13.51086426 38.0604248 C12.61653687 38.07383911 11.72220947 38.08725342 10.80078125 38.10107422 C9.61736145 38.11201111 9.61736145 38.11201111 8.41003418 38.12316895 C6.2377833 38.22191516 6.2377833 38.22191516 4.47460938 40.38818359 C4.05794271 43.88818359 4.05794271 43.88818359 4.47460938 47.38818359 C7.58335329 49.46067954 8.27883424 49.63973368 11.80664062 49.65942383 C12.67764404 49.66961044 13.54864746 49.67979706 14.44604492 49.69029236 C15.38359619 49.6924324 16.32114746 49.69457245 17.28710938 49.69677734 C19.26888324 49.72192996 21.25065401 49.74732809 23.23242188 49.77294922 C26.35969287 49.80174137 29.48691013 49.82575725 32.61425781 49.84448242 C35.63048794 49.86608117 38.6460938 49.90550883 41.66210938 49.94677734 C43.06843628 49.94695107 43.06843628 49.94695107 44.50317383 49.9471283 C45.37417725 49.96046707 46.24518066 49.97380585 47.14257812 49.98754883 C47.90852295 49.99261948 48.67446777 49.99769012 49.46362305 50.00291443 C52.04102846 50.4966994 52.95425053 51.26832793 54.47460938 53.38818359 C54.14127604 59.72151693 54.14127604 59.72151693 51.47460938 62.38818359 C49.09034729 62.65560913 49.09034729 62.65560913 46.06274414 62.67871094 C44.36572105 62.69785049 44.36572105 62.69785049 42.63441467 62.71737671 C40.79380714 62.72071518 40.79380714 62.72071518 38.91601562 62.72412109 C37.03317116 62.73410629 37.03317116 62.73410629 35.11228943 62.74429321 C32.45321508 62.75443498 29.79454939 62.75997308 27.13549805 62.75878906 C23.72765868 62.75858578 20.32065243 62.78589134 16.9130106 62.82033348 C13.66404313 62.84791447 10.41508435 62.84675076 7.16601562 62.84912109 C5.32844444 62.87067764 5.32844444 62.87067764 3.45375061 62.89266968 C2.31924973 62.88651642 1.18474884 62.88036316 0.01586914 62.87402344 C-1.48398781 62.87829849 -1.48398781 62.87829849 -3.0141449 62.88265991 C-5.52539062 62.38818359 -5.52539062 62.38818359 -7.34745789 60.69877625 C-8.76651378 57.91520464 -8.90581062 56.05269673 -8.91357422 52.93286133 C-8.9230307 51.84170517 -8.93248718 50.75054901 -8.94223022 49.62632751 C-8.93615753 48.45332596 -8.93008484 47.2803244 -8.92382812 46.07177734 C-8.9266983 44.86376968 -8.92956848 43.65576202 -8.93252563 42.41114807 C-8.93456667 39.85832246 -8.92903415 37.30548122 -8.91650391 34.75268555 C-8.90043792 30.83721106 -8.91635956 26.92276673 -8.93554688 23.00732422 C-8.93356473 20.52880631 -8.92972164 18.05028904 -8.92382812 15.57177734 C-8.92990082 14.39675156 -8.93597351 13.22172577 -8.94223022 12.01109314 C-8.9280455 10.37908714 -8.9280455 10.37908714 -8.91357422 8.71411133 C-8.91118744 7.75576889 -8.90880066 6.79742645 -8.90634155 5.81004333 C-8.52539062 3.38818359 -8.52539062 3.38818359 -7.34646606 1.57957458 C-4.82072327 -0.0728266 -3.00899382 0.00720422 0 0 Z " fill="#F6F6F6" transform="translate(61.525390625,11.61181640625)"/>
<path d="M0 0 C0.94785873 -0.00960754 1.89571747 -0.01921509 2.87229919 -0.02911377 C3.89420853 -0.03336365 4.91611786 -0.03761353 5.96899414 -0.04199219 C7.54651207 -0.0505423 7.54651207 -0.0505423 9.15589905 -0.05926514 C11.38094069 -0.06871325 13.60599632 -0.07524837 15.83105469 -0.07910156 C19.23730776 -0.08881914 22.64296052 -0.11984964 26.04907227 -0.15136719 C28.20987597 -0.15789611 30.37068399 -0.16314702 32.53149414 -0.16699219 C33.55137924 -0.17933899 34.57126434 -0.19168579 35.62205505 -0.20440674 C37.0485714 -0.19990509 37.0485714 -0.19990509 38.50390625 -0.1953125 C39.75608192 -0.20078094 39.75608192 -0.20078094 41.03355408 -0.20635986 C43.87971792 0.25176552 45.25087633 1.17323035 47.31665039 3.16113281 C47.81665039 6.16113281 47.81665039 6.16113281 47.31665039 9.16113281 C45.52264017 11.27641192 44.01478655 12.06759067 41.26678467 12.43579102 C38.63108482 12.55613225 36.00977636 12.57590352 33.37133789 12.56738281 C31.92200363 12.58363708 31.92200363 12.58363708 30.44338989 12.60021973 C26.3111862 12.64613264 22.17904426 12.65760695 18.04663086 12.67236328 C15.02963535 12.68800029 12.01317427 12.72098188 8.99633789 12.75488281 C8.05676239 12.75186157 7.11718689 12.74884033 6.1491394 12.74572754 C4.84736252 12.76089417 4.84736252 12.76089417 3.51928711 12.77636719 C2.75413788 12.77842163 1.98898865 12.78047607 1.20065308 12.78259277 C-1.09484333 13.01302131 -1.09484333 13.01302131 -2.68334961 16.16113281 C-3.06960945 20.44604193 -3.01253652 24.73987633 -2.99902344 29.04003906 C-2.99586052 31.15384331 -3.01933974 33.26625128 -3.04467773 35.37988281 C-3.04695056 36.72363105 -3.0476543 38.06738304 -3.04663086 39.41113281 C-3.04961182 40.63316406 -3.05259277 41.85519531 -3.05566406 43.11425781 C-2.94859057 46.09705399 -2.94859057 46.09705399 -1.43083191 47.82751465 C0.75459664 49.49535827 1.91925992 49.53857749 4.64868164 49.54589844 C5.51968506 49.55600952 6.39068848 49.56612061 7.28808594 49.57653809 C8.22563721 49.57351685 9.16318848 49.57049561 10.12915039 49.56738281 C11.0944165 49.57821899 12.05968262 49.58905518 13.05419922 49.60021973 C16.14175118 49.63453695 19.22893258 49.6500881 22.31665039 49.66113281 C26.37950891 49.67566559 30.44153519 49.70927546 34.50415039 49.75488281 C35.44170166 49.75186157 36.37925293 49.74884033 37.34521484 49.74572754 C38.21621826 49.75583862 39.08722168 49.76594971 39.98461914 49.77636719 C41.13353638 49.77944885 41.13353638 49.77944885 42.30566406 49.78259277 C44.87296787 50.26585179 45.75610547 51.09531334 47.31665039 53.16113281 C47.75415039 56.16113281 47.75415039 56.16113281 47.31665039 59.16113281 C44.410815 61.9796486 42.3530771 62.53254848 38.36450195 62.50170898 C37.38378723 62.50148239 36.40307251 62.5012558 35.39263916 62.50102234 C34.34146912 62.48553848 33.29029907 62.47005463 32.20727539 62.45410156 C31.12532898 62.44985672 30.04338257 62.44561188 28.9286499 62.4412384 C25.47439649 62.42445127 22.02072735 62.38679808 18.56665039 62.34863281 C16.2242109 62.33358606 13.88176227 62.31989764 11.53930664 62.30761719 C5.79822201 62.27454762 0.05747795 62.22434747 -5.68334961 62.16113281 C-5.68334961 61.50113281 -5.68334961 60.84113281 -5.68334961 60.16113281 C-6.40522461 59.99613281 -7.12709961 59.83113281 -7.87084961 59.66113281 C-11.97320833 57.47320816 -13.75220107 54.3307343 -15.68334961 50.16113281 C-16.31942498 47.1848018 -16.34189461 44.34847344 -16.27709961 41.31347656 C-16.27713989 40.49794815 -16.27718018 39.68241974 -16.27722168 38.84217834 C-16.2718954 37.1303022 -16.25443753 35.41842426 -16.2253418 33.70678711 C-16.18339752 31.10160859 -16.18428949 28.49901508 -16.19116211 25.89355469 C-16.1806701 24.22101087 -16.16773193 22.54848023 -16.15209961 20.87597656 C-16.15189819 20.10599838 -16.15169678 19.3360202 -16.15148926 18.54270935 C-16.03979812 13.3874212 -15.08626604 9.74520793 -12.68334961 5.16113281 C-8.63824487 1.31828331 -5.50978098 0.04510951 0 0 Z " fill="#F5F5F5" transform="translate(143.683349609375,11.8388671875)"/>
<path d="M0 0 C0.9178125 -0.00515625 1.835625 -0.0103125 2.78125 -0.015625 C8.29564583 0.52313781 11.6059617 2.8692216 15.6875 6.5 C16.54730469 7.24765625 17.40710938 7.9953125 18.29296875 8.765625 C22.09550582 13.04600301 22.88943177 17.55771942 22.76953125 23.21484375 C22.32469459 26.57368291 21.00932877 29.23134247 19.5 32.25 C18.84 32.25 18.18 32.25 17.5 32.25 C17.231875 32.848125 16.96375 33.44625 16.6875 34.0625 C14.49780335 38.09615173 11.89901593 39.97047589 7.578125 41.66796875 C1.5378704 43.35969419 -3.94710005 42.83517141 -9.6875 40.375 C-15.25944641 37.23252785 -18.98235283 33.14616723 -21.5 27.25 C-22.2477922 22.04080346 -22.16826755 17.25480265 -20.5 12.25 C-19.84 12.25 -19.18 12.25 -18.5 12.25 C-18.29375 11.528125 -18.0875 10.80625 -17.875 10.0625 C-15.75825247 5.73278915 -12.46174205 3.19020473 -8.14453125 1.12109375 C-5.28087883 0.17782272 -3.00806328 -0.01689923 0 0 Z " fill="#070707" transform="translate(233.5,21.75)"/>
<path d="M0 0 C2.64 0 5.28 0 8 0 C8 0.99 8 1.98 8 3 C6.02 3 4.04 3 2 3 C2 3.66 2 4.32 2 5 C3.65 5 5.3 5 7 5 C7 5.66 7 6.32 7 7 C5.35 7 3.7 7 2 7 C2 8.32 2 9.64 2 11 C3.98 11 5.96 11 8 11 C8 11.66 8 12.32 8 13 C5.36 13 2.72 13 0 13 C0 8.71 0 4.42 0 0 Z " fill="#C5C5C5" transform="translate(228,85)"/>
<path d="M0 0 C1.4540625 0.0309375 1.4540625 0.0309375 2.9375 0.0625 C2.9375 1.0525 2.9375 2.0425 2.9375 3.0625 C1.2875 3.0625 -0.3625 3.0625 -2.0625 3.0625 C-2.0625 3.7225 -2.0625 4.3825 -2.0625 5.0625 C-1.1034375 5.2790625 -1.1034375 5.2790625 -0.125 5.5 C1.9375 6.0625 1.9375 6.0625 2.9375 7.0625 C3.0625 9.5625 3.0625 9.5625 2.9375 12.0625 C1.9375 13.0625 1.9375 13.0625 -1.125 13.125 C-2.094375 13.104375 -3.06375 13.08375 -4.0625 13.0625 C-4.0625 12.4025 -4.0625 11.7425 -4.0625 11.0625 C-2.4125 11.0625 -0.7625 11.0625 0.9375 11.0625 C0.9375 10.0725 0.9375 9.0825 0.9375 8.0625 C-1.5375 7.0725 -1.5375 7.0725 -4.0625 6.0625 C-4.105221 4.39638095 -4.10313832 2.72867115 -4.0625 1.0625 C-3.0625 0.0625 -3.0625 0.0625 0 0 Z " fill="#ACACAC" transform="translate(82.0625,84.9375)"/>
<path d="M0 0 C2 1 4 2 6 3 C6.33 2.01 6.66 1.02 7 0 C7.66 0 8.32 0 9 0 C8.690625 0.680625 8.38125 1.36125 8.0625 2.0625 C6.86629351 5.36965912 6.40994603 8.51545878 6 12 C5.01 12 4.02 12 3 12 C2.87625 10.88625 2.7525 9.7725 2.625 8.625 C2.3534187 4.96896323 2.3534187 4.96896323 0 3 C0 2.01 0 1.02 0 0 Z " fill="#BCBCBC" transform="translate(154,86)"/>
<path d="M0 0 C2.97 0 5.94 0 9 0 C9 0.66 9 1.32 9 2 C8.01 2 7.02 2 6 2 C6 5.3 6 8.6 6 12 C5.34 12 4.68 12 4 12 C4 8.7 4 5.4 4 2 C2.68 2 1.36 2 0 2 C0 1.34 0 0.68 0 0 Z " fill="#D7D7D7" transform="translate(116,86)"/>
<path d="M0 0 C0.66 0 1.32 0 2 0 C2 3.3 2 6.6 2 10 C3.65 10 5.3 10 7 10 C7 10.66 7 11.32 7 12 C4.69 12 2.38 12 0 12 C0 8.04 0 4.08 0 0 Z " fill="#CFCFCF" transform="translate(192,86)"/>
<path d="M0 0 C1.65 0.33 3.3 0.66 5 1 C5.042721 2.66611905 5.04063832 4.33382885 5 6 C4 7 4 7 0.9375 7.0625 C-0.5165625 7.0315625 -0.5165625 7.0315625 -2 7 C-2 6.34 -2 5.68 -2 5 C-0.35 5 1.3 5 3 5 C3 4.01 3 3.02 3 2 C2.01 1.67 1.02 1.34 0 1 C0 0.67 0 0.34 0 0 Z " fill="#D4D4D4" transform="translate(80,91)"/>
<path d="M0 0 C2.475 0.495 2.475 0.495 5 1 C4.67 2.65 4.34 4.3 4 6 C2.68 5.67 1.36 5.34 0 5 C0 3.35 0 1.7 0 0 Z " fill="#6F6F6F" transform="translate(273,51)"/>
</svg>
