<svg width="322" height="117" viewBox="0 0 322 117" fill="none" xmlns="http://www.w3.org/2000/svg">
<g clip-path="url(#clip0_136_2)">
<rect width="322" height="117" fill="white"/>
<path d="M97.6389 -0.324097C97.6389 0.146459 97.6389 0.617014 97.6389 1.10183C98.2251 1.25531 98.8113 1.40879 99.4153 1.56693C102.909 2.84749 105.753 4.62311 108.799 6.49361C109.975 7.20839 111.151 7.92232 112.328 8.63529C112.844 8.95104 113.359 9.26679 113.89 9.59211C115.252 10.4254 115.252 10.4254 116.991 11.0833C116.991 11.5539 116.991 12.0244 116.991 12.5092C117.618 12.6857 118.245 12.8622 118.891 13.044C121.682 14.0397 123.764 15.2713 126.172 16.787C127.103 17.3664 128.036 17.9447 128.969 18.5221C129.454 18.8225 129.939 19.1229 130.439 19.4324C133.485 21.2926 136.603 23.073 139.72 24.8548C142.188 26.2688 144.612 27.702 147.005 29.1998C147.84 29.7209 148.676 30.242 149.537 30.7789C150.263 31.244 150.988 31.709 151.736 32.1881C154.4 33.3959 156.207 33.3764 159.213 33.1852C159.403 34.0895 159.403 34.0895 159.598 35.0121C161.593 38.5696 165 40.2618 168.889 42.4537C168.566 43.4949 168.234 44.5342 167.899 45.5729C167.663 46.3063 167.428 47.0397 167.185 47.7953C166.25 50.2963 166.25 50.2963 164.931 52.7972C159.151 63.9958 160.075 76.1454 160.093 88.0833C158.351 88.0833 156.609 88.0833 154.815 88.0833C154.525 85.26 154.234 82.4366 153.935 79.5278C153.296 81.1076 153.296 81.1076 152.643 82.7194C152.048 84.1806 151.452 85.6418 150.856 87.103C150.58 87.7877 150.303 88.4724 150.018 89.1778C146.837 96.9625 143.324 104.604 139.861 112.324C110.543 112.324 81.225 112.324 51.0185 112.324C47.2449 103.383 43.4713 94.4429 39.5833 85.2315C39.293 86.1726 39.0028 87.1137 38.7037 88.0833C36.962 88.0833 35.2204 88.0833 33.4259 88.0833C33.4259 81.7308 33.4259 75.3783 33.4259 68.8333C31.394 68.8333 29.362 68.8333 27.2685 68.8333C27.2685 67.4216 27.2685 66.01 27.2685 64.5555C28.4296 64.5555 29.5907 64.5555 30.787 64.5555C30.4342 63.7032 30.4342 63.7032 30.0743 62.8337C29.1994 60.7187 28.3258 58.6033 27.453 56.4877C27.0755 55.5734 26.6975 54.6592 26.3191 53.7452C25.7741 52.4288 25.2311 51.1119 24.688 49.795C24.361 49.0034 24.0339 48.2119 23.6969 47.3964C23.0475 45.7537 22.469 44.133 21.9907 42.4537C23.123 41.7366 24.2601 41.0246 25.3993 40.3148C26.032 39.9178 26.6647 39.5207 27.3166 39.1117C29.0278 38.1759 29.0278 38.1759 30.787 38.1759C30.787 36.529 30.787 34.882 30.787 33.1852C32.1256 33.2844 32.1256 33.2844 33.4912 33.3857C37.5858 33.1479 39.8027 31.951 42.9369 29.9768C48.2087 26.7685 48.2087 26.7685 50.1389 26.7685C50.1389 26.2979 50.1389 25.8274 50.1389 25.3426C51.6312 24.3412 51.6312 24.3412 53.7021 23.2009C54.4442 22.7905 55.1863 22.3802 55.951 21.9574C56.7362 21.5305 57.5214 21.1036 58.3304 20.6638C59.1054 20.2341 59.8805 19.8044 60.679 19.3618C66.485 16.1732 66.485 16.1732 69.4907 15.3611C69.4907 14.8905 69.4907 14.42 69.4907 13.9352C70.8823 13.0607 70.8823 13.0607 72.8443 12.0636C76.0663 10.3801 79.2024 8.63616 82.3003 6.80553C83.1099 6.32763 83.9195 5.84972 84.7537 5.35733C86.2303 4.46761 87.6938 3.56313 89.1381 2.63916C90.0531 2.05464 90.0531 2.05464 90.9867 1.45831C91.7742 0.939964 91.7742 0.939964 92.5776 0.411146C94.1204 -0.324097 94.1204 -0.324097 97.6389 -0.324097Z" fill="#FCD6E4"/>
<path d="M66.8519 64.5555C70.8026 66.0393 73.2181 68.0347 75.6482 70.9276C77.1587 74.6769 77.0534 77.5179 75.0435 81.0873C72.952 84.1734 70.3818 85.7963 66.687 87.5931C62.1939 88.4833 57.5892 88.4184 53.5406 86.4652C50.0098 84.1003 47.7971 82.0374 47.1736 78.2661C47.0595 74.0279 47.1729 71.0654 50.5066 67.6942C55.5118 64.0982 60.3858 63.7205 66.8519 64.5555Z" fill="#2A2827"/>
<path d="M154.815 33.1852C156.266 33.1852 157.718 33.1852 159.213 33.1852C159.213 40.9493 159.213 48.7135 159.213 56.713C157.471 56.713 155.73 56.713 153.935 56.713C153.109 55.515 153.109 55.515 152.265 54.2928C151.539 53.2428 150.813 52.1929 150.087 51.1429C149.542 50.3537 149.542 50.3537 148.987 49.5485C148.636 49.0407 148.284 48.533 147.922 48.0098C147.6 47.5431 147.277 47.0764 146.945 46.5955C146.105 45.4255 145.186 44.2931 144.259 43.1667C143.969 47.6369 143.679 52.1072 143.38 56.713C141.638 56.713 139.896 56.713 138.102 56.713C138.102 49.1841 138.102 41.6552 138.102 33.8981C139.843 33.8981 141.585 33.8981 143.38 33.8981C144.948 35.2071 144.948 35.2071 146.204 37.0174C146.663 37.6607 147.122 38.304 147.596 38.9669C148.055 39.647 148.514 40.3271 148.987 41.0278C149.467 41.7079 149.947 42.388 150.441 43.0887C151.623 44.7702 152.781 46.4628 153.935 48.1574C154.225 43.2166 154.516 38.2757 154.815 33.1852Z" fill="#2A2726"/>
<path d="M93.2408 33.8982C96.4844 34.834 96.4844 34.834 98.5186 36.0371C98.8089 36.7429 99.0991 37.4488 99.3982 38.176C98.5274 39.2347 98.5274 39.2347 97.6389 40.3149C97.0584 40.3149 96.4778 40.3149 95.8797 40.3149C95.8797 39.8443 95.8797 39.3738 95.8797 38.8889C91.7722 37.9509 87.8003 37.7101 83.5649 38.176C80.6328 39.3643 80.6328 39.3643 79.1667 41.7408C78.297 45.3243 78.4833 47.9472 80.816 51.0984C84.6646 52.9701 87.9767 53.1016 92.3612 52.4352C94.6274 51.0912 95.5249 50.1585 96.7593 48.1575C94.4371 48.1575 92.1149 48.1575 89.7223 48.1575C90.3028 46.9811 90.8834 45.8047 91.4815 44.5926C94.9649 44.5926 98.4482 44.5926 102.037 44.5926C101.761 49.5089 101.187 51.8655 96.7593 55.2871C92.4651 57.4842 87.5791 57.1437 82.6852 56.713C78.2713 54.9881 75.2088 52.4358 73.0093 48.8704C72.5311 45.3378 72.5129 42.5455 74.4937 39.3345C80.3047 33.9881 84.7048 33.384 93.2408 33.8982Z" fill="#292726"/>
<path d="M7.03711 33.1852C12.8427 33.1852 18.6482 33.1852 24.6297 33.1852C24.6297 34.8321 24.6297 36.4791 24.6297 38.1759C20.8561 38.1759 17.0825 38.1759 13.1945 38.1759C13.1945 39.5876 13.1945 40.9993 13.1945 42.4537C15.2265 42.4537 17.2584 42.4537 19.3519 42.4537C19.6422 43.8654 19.9325 45.277 20.2316 46.7315C17.9093 46.7315 15.5871 46.7315 13.1945 46.7315C13.1945 48.6137 13.1945 50.4959 13.1945 52.4352C16.3876 52.4352 19.5806 52.4352 22.8704 52.4352C24.6297 55.287 24.6297 55.287 24.6297 57.4259C18.8241 57.4259 13.0186 57.4259 7.03711 57.4259C7.03711 49.4265 7.03711 41.427 7.03711 33.1852Z" fill="#1D1D1B"/>
<path d="M138.981 64.5555C140.723 64.5555 142.465 64.5555 144.259 64.5555C144.259 67.3789 144.259 70.2022 144.259 73.1111C147.743 73.1111 151.226 73.1111 154.815 73.1111C154.815 70.2878 154.815 67.4644 154.815 64.5555C156.556 64.5555 158.298 64.5555 160.093 64.5555C160.093 72.3197 160.093 80.0839 160.093 88.0833C158.351 88.0833 156.609 88.0833 154.815 88.0833C154.525 84.5542 154.234 81.025 153.935 77.3889C150.452 77.1536 146.968 76.9183 143.38 76.6759C143.38 80.2051 143.38 83.7342 143.38 87.3704C141.928 87.3704 140.477 87.3704 138.981 87.3704C138.981 79.8415 138.981 72.3126 138.981 64.5555Z" fill="#2B2928"/>
<path d="M63.2303 67.8112C67.1958 68.4694 69.04 69.7112 71.2501 72.3981C71.8651 75.8181 71.8788 78.654 69.7107 81.6666C66.9664 83.6438 65.3393 84.3994 61.6841 84.7858C57.673 84.3957 54.9465 82.9963 52.448 80.4189C51.3629 77.2528 50.99 74.5972 52.8019 71.6322C55.7532 68.3654 58.2695 67.4795 63.2303 67.8112Z" fill="#FAD5E3"/>
<path d="M117.87 33.1852C118.451 33.1852 119.032 33.1852 119.63 33.1852C121.513 36.305 123.392 39.4265 125.267 42.5498C125.906 43.6125 126.546 44.6748 127.187 45.7365C128.107 47.2608 129.023 48.7867 129.938 50.313C130.371 51.0271 130.371 51.0271 130.812 51.7557C132.824 55.1247 132.824 55.1247 132.824 56.713C127.309 56.713 121.794 56.713 116.111 56.713C116.692 55.5366 117.272 54.3602 117.87 53.1481C120.193 53.1481 122.515 53.1481 124.907 53.1481C124.072 51.4969 123.228 49.8488 122.379 48.202C122.142 47.7319 121.905 47.2618 121.66 46.7774C120.468 44.1323 120.468 44.1323 117.87 42.4537C117.635 42.8603 117.4 43.2669 117.158 43.6859C116.096 45.5188 115.032 47.3505 113.967 49.1823C113.597 49.8224 113.227 50.4625 112.845 51.122C112.491 51.7309 112.137 52.3398 111.771 52.9671C111.444 53.5309 111.117 54.0947 110.78 54.6755C109.954 56 109.954 56 109.074 56.713C107.315 56.7421 105.555 56.7433 103.796 56.713C108.371 48.8212 113.003 40.9615 117.87 33.1852Z" fill="#292726"/>
<path d="M82.6852 64.5555C84.4268 64.5555 86.1685 64.5555 87.963 64.5555C87.9758 65.0627 87.9886 65.5698 88.0018 66.0923C88.0673 68.3878 88.1523 70.6824 88.2378 72.9774C88.2577 73.7756 88.2775 74.5738 88.298 75.3962C88.3291 76.1613 88.3603 76.9264 88.3925 77.7147C88.4155 78.4204 88.4385 79.126 88.4623 79.8531C88.6772 81.6862 88.6772 81.6862 90.0218 82.9887C91.5559 84.0222 91.5559 84.0222 94.1753 83.7164C97.0166 83.2733 97.0166 83.2733 98.5185 80.9537C98.8413 79.1606 98.8413 79.1606 98.8827 77.1577C98.9167 76.4248 98.9508 75.6918 98.9858 74.9367C99.0266 73.7904 99.0266 73.7904 99.0683 72.6209C99.1023 71.8485 99.1363 71.076 99.1714 70.2801C99.2543 68.3721 99.3296 66.464 99.3981 64.5555C100.85 64.5555 102.301 64.5555 103.796 64.5555C103.873 67.333 103.92 70.1103 103.961 72.8883C103.983 73.6745 104.005 74.4608 104.028 75.2709C104.037 76.0314 104.045 76.7919 104.054 77.5755C104.068 78.2737 104.082 78.9719 104.096 79.6912C103.612 82.8827 101.542 85.3279 98.5185 87.3704C95.3053 88.2385 93.1022 88.3619 89.7222 88.0833C85.9351 86.0562 84.0422 84.4313 82.6852 80.9537C82.4855 79.0437 82.4855 79.0437 82.5134 77.0185C82.5219 75.9259 82.5219 75.9259 82.5306 74.8113C82.5453 74.0591 82.56 73.3069 82.5752 72.5318C82.5832 71.7658 82.5911 70.9998 82.5993 70.2105C82.6199 68.3254 82.6488 66.4405 82.6852 64.5555Z" fill="#2E2B2A"/>
<path d="M52.7778 33.8982C58.2931 33.8982 63.8084 33.8982 69.4908 33.8982C69.4908 35.0746 69.4908 36.251 69.4908 37.463C65.7172 37.463 61.9436 37.463 58.0556 37.463C58.0556 39.11 58.0556 40.7569 58.0556 42.4537C60.3778 42.4537 62.7001 42.4537 65.0926 42.4537C65.0926 43.6301 65.0926 44.8065 65.0926 46.0186C62.7704 46.0186 60.4482 46.0186 58.0556 46.0186C58.0556 48.3713 58.0556 50.7241 58.0556 53.1482C61.5389 53.1482 65.0223 53.1482 68.6112 53.1482C68.9014 54.3246 69.1917 55.501 69.4908 56.713C63.9755 56.713 58.4602 56.713 52.7778 56.713C52.7778 49.1841 52.7778 41.6552 52.7778 33.8982Z" fill="#312E2D"/>
<path d="M131.364 65.2824C131.846 65.5131 132.327 65.7438 132.824 65.9814C132.824 67.3931 132.824 68.8048 132.824 70.2592C132.262 70.0239 131.699 69.7887 131.12 69.5463C127.498 68.5878 124.273 68.2154 120.509 68.8333C117.731 70.6715 116.456 71.7184 115.757 74.5398C115.571 77.7168 116.269 79.9375 118.75 82.3796C121.585 84.0437 124.115 84.0836 127.546 83.8055C130.45 82.8079 130.45 82.8079 132.824 81.6666C132.824 83.3136 132.824 84.9605 132.824 86.6574C128.681 88.0006 124.927 88.6634 120.509 88.0833C116.15 86.2489 113.04 83.8181 110.833 80.2407C110.307 76.223 109.839 72.2436 112.757 68.7887C117.557 64.3709 124.444 62.8386 131.364 65.2824Z" fill="#2D2A29"/>
<path d="M167.085 33.1042C167.818 33.108 168.55 33.1117 169.305 33.1156C170.096 33.1179 170.887 33.1202 171.701 33.1225C172.949 33.1315 172.949 33.1315 174.222 33.1406C175.057 33.1438 175.892 33.1471 176.752 33.1504C178.823 33.1588 180.893 33.1706 182.963 33.1852C182.963 34.8321 182.963 36.4791 182.963 38.1759C180.931 38.1759 178.899 38.1759 176.806 38.1759C176.806 44.5284 176.806 50.8809 176.806 57.4259C175.064 57.4259 173.322 57.4259 171.528 57.4259C171.528 51.0734 171.528 44.7209 171.528 38.1759C169.496 38.1759 167.464 38.1759 165.37 38.1759C164.491 37.463 164.491 37.463 164.381 35.6806C164.532 33.2247 164.532 33.2247 167.085 33.1042Z" fill="#1C1C1A"/>
<path d="M27.2686 64.5555C33.0741 64.5555 38.8797 64.5555 44.8611 64.5555C44.8611 65.7319 44.8611 66.9083 44.8611 68.1204C42.8292 68.1204 40.7973 68.1204 38.7037 68.1204C38.7037 74.7081 38.7037 81.2959 38.7037 88.0833C36.9621 88.0833 35.2204 88.0833 33.426 88.0833C33.426 81.7308 33.426 75.3783 33.426 68.8333C31.394 68.8333 29.3621 68.8333 27.2686 68.8333C27.2686 67.4217 27.2686 66.01 27.2686 64.5555Z" fill="#252322"/>
<path d="M30.7871 33.1852C32.2385 33.1852 33.6899 33.1852 35.1853 33.1852C36.3936 35.1439 36.0762 36.6193 35.9584 38.8053C35.9158 39.6371 35.8733 40.4688 35.8295 41.3258C35.7802 42.198 35.7309 43.0701 35.68 43.9687C35.6341 44.8464 35.5882 45.7241 35.5409 46.6284C35.4266 48.8018 35.3065 50.975 35.1853 53.1481C38.9589 53.1481 42.7325 53.1481 46.6204 53.1481C46.6204 54.3245 46.6204 55.5009 46.6204 56.713C41.3954 56.713 36.1704 56.713 30.7871 56.713C30.7871 48.9488 30.7871 41.1846 30.7871 33.1852Z" fill="#1F1F1D"/>
<path d="M111.713 99.4908C113.802 99.4017 113.802 99.4017 116.111 99.4908C116.692 99.9613 117.272 100.432 117.87 100.917C117.54 103.145 117.54 103.145 116.991 105.194C114.902 105.64 114.902 105.64 112.593 105.907C112.012 105.437 111.431 104.966 110.833 104.482C111.163 101.897 111.163 101.897 111.713 99.4908Z" fill="#574D4F"/>
<path d="M73.8888 99.4907C76.1978 99.7581 76.1978 99.7581 78.287 100.204C78.8367 101.852 78.8367 101.852 79.1666 103.769C78.2958 104.827 78.2958 104.827 77.4073 105.907C73.1191 105.284 73.1191 105.284 72.1296 104.481C71.9646 102.744 71.9646 102.744 72.1296 100.917C72.7101 100.446 73.2907 99.9755 73.8888 99.4907Z" fill="#554C4E"/>
<path d="M98.5186 99.4908C99.9841 99.4603 101.451 99.4618 102.917 99.4908C103.796 100.204 103.796 100.204 103.851 102.744C103.833 103.552 103.815 104.361 103.796 105.195C102.055 105.195 100.313 105.195 98.5186 105.195C98.5186 103.312 98.5186 101.43 98.5186 99.4908Z" fill="#4D4547"/>
<path d="M85.324 99.4907C87.9629 100.204 87.9629 100.204 88.8425 101.63C89.1328 100.924 89.423 100.218 89.7221 99.4907C90.3027 99.4907 90.8832 99.4907 91.4814 99.4907C91.4814 101.608 91.4814 103.726 91.4814 105.907C90.9008 105.907 90.3203 105.907 89.7221 105.907C89.1416 105.202 88.561 104.496 87.9629 103.769C87.6726 104.474 87.3823 105.18 87.0832 105.907C86.5027 105.907 85.9221 105.907 85.324 105.907C85.324 103.79 85.324 101.672 85.324 99.4907Z" fill="#64585B"/>
<path d="M124.028 99.4907C124.608 99.4907 125.189 99.4907 125.787 99.4907C126.368 100.197 126.948 100.902 127.546 101.63C127.837 100.924 128.127 100.218 128.426 99.4907C129.007 99.4907 129.587 99.4907 130.185 99.4907C130.185 101.608 130.185 103.726 130.185 105.907C129.314 105.907 128.444 105.907 127.546 105.907C126.966 104.731 126.385 103.555 125.787 102.343C125.207 103.284 124.626 104.225 124.028 105.194C124.028 103.312 124.028 101.43 124.028 99.4907Z" fill="#5F5356"/>
<path d="M112.593 100.917C113.754 100.917 114.915 100.917 116.111 100.917C116.111 102.093 116.111 103.269 116.111 104.481C114.66 104.246 113.208 104.011 111.713 103.768C112.003 102.827 112.293 101.886 112.593 100.917Z" fill="#F1CDDA"/>
<path d="M73.8889 100.917C75.05 100.917 76.2111 100.917 77.4074 100.917C77.4074 102.093 77.4074 103.269 77.4074 104.481C75.956 104.246 74.5046 104.011 73.0093 103.768C73.2996 102.827 73.5898 101.886 73.8889 100.917Z" fill="#F0CCD9"/>
<path d="M99.3982 100.917C100.559 100.917 101.72 100.917 102.917 100.917C102.626 102.093 102.336 103.269 102.037 104.481C101.166 104.481 100.295 104.481 99.3982 104.481C99.3982 103.305 99.3982 102.129 99.3982 100.917Z" fill="#F0CDDA"/>
</g>
<defs>
<clipPath id="clip0_136_2">
<rect width="322" height="117" fill="white"/>
</clipPath>
</defs>
</svg>
