<svg width="322" height="117" viewBox="0 0 322 117" fill="none" xmlns="http://www.w3.org/2000/svg">
<rect width="322" height="117" fill="white"/>
<g clip-path="url(#clip0_112_15)">
<path d="M78 0C92.52 0 107.04 0 122 0C122 14.3969 122 28.7939 122 43.6271C107.48 43.6271 92.96 43.6271 78 43.6271C78 29.2302 78 14.8332 78 0ZM81.2 3.17288C81.2 15.4757 81.2 27.7786 81.2 40.4542C93.608 40.4542 106.016 40.4542 118.8 40.4542C118.8 28.1514 118.8 15.8485 118.8 3.17288C106.392 3.17288 93.984 3.17288 81.2 3.17288Z" fill="#1D1D1B"/>
<path d="M140.4 60.2847C143.989 60.2479 143.989 60.2479 147.65 60.2104C148.392 60.1995 149.135 60.1887 149.9 60.1775C159.547 60.0948 159.547 60.0948 163.075 62.6892C165.093 64.7244 165.623 67.2459 165.75 70.0265C165.642 72.7681 164.811 75.4002 162.8 77.339C161.885 77.903 160.943 78.4069 160 78.9254C160.608 79.8347 161.216 80.7436 161.825 81.6521C162.006 81.9219 162.186 82.1917 162.372 82.4696C163.653 84.3758 164.97 86.2519 166.328 88.1048C166.8 88.8406 166.8 88.8406 166.8 89.6339C164.726 89.8989 162.869 89.9953 160.8 89.6339C158.882 88.1214 157.903 85.9334 156.905 83.7591C155.791 81.476 155.791 81.476 154 79.7186C151.233 78.921 148.46 79.215 145.6 79.322C145.6 82.7249 145.6 86.1278 145.6 89.6339C143.884 89.6339 142.168 89.6339 140.4 89.6339C140.4 79.9486 140.4 70.2634 140.4 60.2847ZM145.6 65.044C145.6 68.447 145.6 71.8499 145.6 75.3559C146.903 75.3723 148.207 75.3886 149.55 75.4055C149.952 75.4127 150.354 75.4199 150.768 75.4274C155.152 75.4842 155.152 75.4842 159.025 73.7695C160.356 71.9332 160.279 70.0185 160 67.8203C158.941 66.2616 157.904 65.6807 156.094 65.1971C154.157 64.8656 152.184 64.9647 150.225 64.9945C147.936 65.019 147.936 65.019 145.6 65.044Z" fill="#1D1D1B"/>
<path d="M177.2 60.2847C184.724 60.2847 192.248 60.2847 200 60.2847C200 61.8553 200 63.4259 200 65.0441C194.192 65.0441 188.384 65.0441 182.4 65.0441C182.4 67.5308 182.4 70.0175 182.4 72.5796C187.68 72.5796 192.96 72.5796 198.4 72.5796C198.4 74.0193 198.4 75.459 198.4 76.9424C193.12 76.9424 187.84 76.9424 182.4 76.9424C182.4 79.56 182.4 82.1776 182.4 84.8746C188.208 84.8746 194.016 84.8746 200 84.8746C200 86.4451 200 88.0157 200 89.6339C192.476 89.6339 184.952 89.6339 177.2 89.6339C177.2 79.9487 177.2 70.2634 177.2 60.2847Z" fill="#1D1D1B"/>
<path d="M0 60.2847C7.392 60.2847 14.784 60.2847 22.4 60.2847C22.4 61.8553 22.4 63.4259 22.4 65.0441C16.592 65.0441 10.784 65.0441 4.8 65.0441C4.8 67.5308 4.8 70.0175 4.8 72.5796C10.212 72.5796 15.624 72.5796 21.2 72.5796C21.2 74.0193 21.2 75.459 21.2 76.9424C15.788 76.9424 10.376 76.9424 4.8 76.9424C4.8 79.56 4.8 82.1776 4.8 84.8746C10.74 84.8746 16.68 84.8746 22.8 84.8746C22.8 86.4451 22.8 88.0157 22.8 89.6339C15.276 89.6339 7.752 89.6339 0 89.6339C0 79.9487 0 70.2634 0 60.2847Z" fill="#1D1D1B"/>
<path d="M101.2 60.2847C102.916 60.2847 104.632 60.2847 106.4 60.2847C106.406 60.8469 106.412 61.409 106.418 61.9882C106.441 64.0809 106.472 66.1733 106.505 68.2658C106.518 69.1702 106.529 70.0746 106.539 70.979C106.552 72.2816 106.573 73.584 106.595 74.8865C106.598 75.2886 106.6 75.6907 106.603 76.1049C106.663 78.9748 107.05 80.9211 108.9 83.2138C110.916 84.8041 113.076 85.094 115.6 84.8746C117.246 84.4818 118.471 83.9848 119.725 82.8419C121.426 79.9687 121.782 77.1639 121.805 73.8795C121.812 73.4884 121.819 73.0973 121.826 72.6943C121.848 71.458 121.862 70.2218 121.875 68.9854C121.888 68.1418 121.902 67.2982 121.916 66.4547C121.95 64.3981 121.977 62.3415 122 60.2847C123.716 60.2847 125.432 60.2847 127.2 60.2847C127.23 62.7958 127.252 65.3068 127.266 67.818C127.272 68.6704 127.28 69.5227 127.29 70.375C127.435 82.4898 127.435 82.4898 123.6 86.8576C121.024 89.3551 117.711 90.085 114.2 90.1792C110.502 90.0842 107.325 89.2342 104.578 86.6748C101.549 83.4916 100.961 79.9414 101.044 75.6999C101.046 75.2565 101.048 74.8132 101.051 74.3564C101.059 72.9542 101.08 71.5524 101.1 70.1504C101.108 69.194 101.115 68.2376 101.122 67.2812C101.139 64.9489 101.167 62.6169 101.2 60.2847Z" fill="#1D1D1B"/>
<path d="M31.2 60.2847C33.2277 59.9073 35.2143 59.6262 37.2 60.2847C39.2551 61.8107 40.4844 64.2334 41.775 66.3826C42.1504 66.9694 42.5277 67.5551 42.907 68.1395C45.6 72.3413 45.6 72.3413 45.6 73.3729C45.864 73.3729 46.128 73.3729 46.4 73.3729C46.4981 73.0977 46.5963 72.8225 46.6975 72.539C47.2768 71.2141 48.026 70.0583 48.839 68.8676C48.9967 68.6337 49.1545 68.3998 49.317 68.1587C49.6486 67.6675 49.9812 67.1769 50.3145 66.6869C50.8263 65.9344 51.3356 65.1803 51.8445 64.4259C54.3279 60.7528 54.3279 60.7528 54.8 60.2847C55.8121 60.2557 56.8132 60.2481 57.825 60.26C58.2515 60.2626 58.2515 60.2626 58.6867 60.2654C59.3911 60.2701 60.0955 60.2772 60.8 60.2847C60.2959 61.6251 59.7215 62.7821 58.9241 63.973C58.7092 64.2959 58.4943 64.6187 58.2729 64.9514C57.9267 65.4658 57.9267 65.4658 57.5734 65.9907C57.3358 66.3469 57.0981 66.7031 56.8533 67.0702C56.0955 68.2055 55.3353 69.3391 54.575 70.4727C53.8136 71.6108 53.0528 72.7492 52.2923 73.8879C51.8193 74.5959 51.3457 75.3034 50.8714 76.0106C50.6578 76.3297 50.4442 76.6488 50.2241 76.9775C50.0355 77.2586 49.847 77.5398 49.6527 77.8294C48.789 79.1636 48.7277 80.07 48.6734 81.6552C48.6483 82.3492 48.6483 82.3492 48.6226 83.0573C48.6069 83.5425 48.5912 84.0277 48.575 84.5275C48.549 85.2599 48.549 85.2599 48.5226 86.0071C48.4801 87.216 48.4398 88.4249 48.4 89.6339C46.684 89.6339 44.968 89.6339 43.2 89.6339C43.2175 88.9345 43.235 88.2351 43.2531 87.5145C43.2921 81.8915 43.0526 77.9742 39.5253 73.5301C38.0823 71.6393 36.7895 69.6404 35.4694 67.6641C34.9817 66.9379 34.4882 66.216 33.993 65.4949C33.6865 65.0451 33.3799 64.5953 33.0734 64.1455C32.7993 63.7456 32.5252 63.3456 32.2428 62.9336C31.6832 62.0087 31.3744 61.3373 31.2 60.2847Z" fill="#1D1D1B"/>
<path d="M71.2 60.2847C72.916 60.2847 74.632 60.2847 76.4 60.2847C76.4 68.3994 76.4 76.514 76.4 84.8746C81.548 84.8746 86.696 84.8746 91.9999 84.8746C91.9999 86.4451 91.9999 88.0157 91.9999 89.6339C85.136 89.6339 78.272 89.6339 71.2 89.6339C71.2 79.9487 71.2 70.2634 71.2 60.2847Z" fill="#1D1D1B"/>
<path d="M87.6001 9.51862C88.7881 9.51862 89.9761 9.51862 91.2001 9.51862C91.2001 16.4553 91.2001 23.392 91.2001 30.539C98.1961 30.539 105.192 30.539 112.4 30.539C112.4 31.586 112.4 32.6331 112.4 33.7118C104.216 33.7118 96.0321 33.7118 87.6001 33.7118C87.6001 25.7281 87.6001 17.7443 87.6001 9.51862Z" fill="#1D1D1B"/>
<path d="M148.4 106.292C150.116 106.292 151.832 106.292 153.6 106.292C153.732 106.815 153.864 107.339 154 107.878C154.644 108.66 154.644 108.66 155.425 109.365C155.879 109.791 156.332 110.216 156.8 110.654C156.8 109.215 156.8 107.775 156.8 106.292C158.12 106.292 159.44 106.292 160.8 106.292C160.8 109.694 160.8 113.097 160.8 116.603C159.48 116.603 158.16 116.603 156.8 116.603C156.125 115.785 156.125 115.785 155.6 114.62C154.897 113.867 154.159 113.166 153.409 112.459C152.8 111.844 152.8 111.844 152.4 111.051C152.4 112.883 152.4 114.716 152.4 116.603C151.08 116.603 149.76 116.603 148.4 116.603C148.532 116.342 148.664 116.08 148.8 115.81C148.861 115.15 148.9 114.487 148.926 113.824C148.943 113.433 148.96 113.042 148.977 112.639C148.993 112.229 149.009 111.82 149.025 111.398C149.042 110.985 149.059 110.573 149.077 110.148C149.12 109.127 149.161 108.106 149.2 107.085C148.936 107.085 148.672 107.085 148.4 107.085C148.4 106.823 148.4 106.561 148.4 106.292Z" fill="#1D1D1B"/>
<path d="M104.8 106.292C106.137 106.267 107.473 106.242 108.85 106.217C109.475 106.201 109.475 106.201 110.113 106.184C112.239 106.165 113.781 106.256 115.6 107.481C116.822 109.218 117.168 110.955 116.8 113.034C116.294 114.349 115.695 115.49 114.474 116.279C113.434 116.665 112.627 116.694 111.519 116.681C111.165 116.679 110.812 116.677 110.448 116.675C110.003 116.668 109.558 116.66 109.1 116.653C107.681 116.637 106.262 116.62 104.8 116.603C104.8 113.2 104.8 109.798 104.8 106.292ZM108.8 109.068C108.8 110.769 108.8 112.471 108.8 114.224C110.542 114.393 111.348 114.401 112.8 113.381C113.726 112.299 113.726 112.299 113.575 110.976C113.28 109.822 113.28 109.822 112.4 109.068C111.193 108.96 110.015 109.033 108.8 109.068Z" fill="#1D1D1B"/>
<path d="M82 106.292C83.584 106.292 85.168 106.292 86.8 106.292C87.0228 106.709 87.2455 107.126 87.475 107.556C88.2807 108.964 89.1996 109.96 90.4 111.051C90.4 109.48 90.4 107.91 90.4 106.292C91.588 106.292 92.776 106.292 94 106.292C94 109.694 94 113.097 94 116.603C92.68 116.603 91.36 116.603 90 116.603C89.736 116.08 89.472 115.556 89.2 115.017C88.6664 114.375 88.1152 113.748 87.55 113.133C87.0385 112.577 86.527 112.021 86 111.447C86 113.149 86 114.85 86 116.603C84.68 116.603 83.36 116.603 82 116.603C82 113.2 82 109.798 82 106.292Z" fill="#1D1D1B"/>
<path d="M68.8939 106.55C70.2137 107.202 70.8328 107.931 71.6001 109.167C72.1873 111.35 72.1012 112.896 71.0001 114.943C69.3711 116.356 67.6123 116.951 65.4501 117.039C63.3851 116.897 62.022 116.351 60.4001 115.017C59.2096 113.246 59.3041 111.54 59.6001 109.464C61.363 105.927 65.3895 105.536 68.8939 106.55ZM63.4501 109.737C62.7432 110.611 62.7432 110.611 62.5751 111.646C62.7328 112.717 62.7328 112.717 63.6501 113.579C64.7614 114.33 64.7614 114.33 66.0501 114.199C67.4889 113.747 67.4889 113.747 68.4001 112.637C68.6334 111.447 68.6334 111.447 68.4001 110.258C67.5126 109.242 66.9394 109.088 65.6001 108.894C64.3727 108.98 64.3727 108.98 63.4501 109.737Z" fill="#1D1D1B"/>
<path d="M135.8 106.812C137.205 107.752 137.859 108.251 138.4 109.861C138.621 111.744 138.578 113.084 137.7 114.794C136.225 116.459 134.744 116.814 132.578 117.012C130.458 116.986 128.647 116.323 127 115.017C125.85 113.497 125.874 112.102 126 110.258C126.604 108.461 127.406 107.436 129.136 106.566C131.371 105.856 133.627 106.004 135.8 106.812ZM129.8 109.935C129.123 110.993 129.123 110.993 129.175 112.092C129.754 113.376 130.29 113.704 131.6 114.224C133.003 114.196 133.711 114.077 134.775 113.158C135.358 111.899 135.202 111.17 134.8 109.861C133.007 108.676 131.476 108.481 129.8 109.935Z" fill="#1D1D1B"/>
<path d="M39.2 106.292C40.652 106.292 42.104 106.292 43.6 106.292C43.468 108.909 43.336 111.527 43.2 114.224C44.1652 114.166 45.1305 114.109 46.125 114.05C46.4273 114.033 46.7296 114.016 47.0411 113.998C48.2423 113.923 49.2528 113.81 50.4 113.43C50.4 114.608 50.4 115.786 50.4 117C44.856 116.804 44.856 116.804 39.2 116.603C39.2 113.2 39.2 109.798 39.2 106.292Z" fill="#1D1D1B"/>
<path d="M96.3999 9.51862C101.68 9.51862 106.96 9.51862 112.4 9.51862C112.4 10.5657 112.4 11.6127 112.4 12.6915C107.12 12.6915 101.84 12.6915 96.3999 12.6915C96.3999 11.6444 96.3999 10.5974 96.3999 9.51862Z" fill="#1D1D1B"/>
<path d="M96.3999 19.8305C99.8319 19.8305 103.264 19.8305 106.8 19.8305C106.8 20.8776 106.8 21.9246 106.8 23.0034C103.368 23.0034 99.9359 23.0034 96.3999 23.0034C96.3999 21.9563 96.3999 20.9093 96.3999 19.8305Z" fill="#1D1D1B"/>
</g>
<defs>
<clipPath id="clip0_112_15">
<rect width="200" height="117" fill="white"/>
</clipPath>
</defs>
</svg>
