<?xml version="1.0" encoding="UTF-8"?>
<svg version="1.1" xmlns="http://www.w3.org/2000/svg" width="322" height="117">
<path d="M0 0 C106.26 0 212.52 0 322 0 C322 38.61 322 77.22 322 117 C215.74 117 109.48 117 0 117 C0 78.39 0 39.78 0 0 Z " fill="#F6F6F6" transform="translate(0,0)"/>
<path d="M0 0 C7.26 0 14.52 0 22 0 C22 1.32 22 2.64 22 4 C21.01 4.66 20.02 5.32 19 6 C18.49095616 8.4157113 18.49095616 8.4157113 18.48828125 11.2265625 C18.45516846 12.15549316 18.42205566 13.08442383 18.38793945 14.04150391 C18.35059692 15.81533447 18.35059692 15.81533447 18.3125 17.625 C18.209375 21.37875 18.10625 25.1325 18 29 C27.9 29 37.8 29 48 29 C47.67 21.41 47.34 13.82 47 6 C45.68 5.34 44.36 4.68 43 4 C43 2.68 43 1.36 43 0 C50.26 0 57.52 0 65 0 C65 1.32 65 2.64 65 4 C64.01 4.66 63.02 5.32 62 6 C61.53971583 8.64318464 61.53971583 8.64318464 61.61181641 11.77905273 C61.60235992 12.99048447 61.59290344 14.2019162 61.5831604 15.45005798 C61.59226944 17.42190819 61.59226944 17.42190819 61.6015625 19.43359375 C61.59954214 20.79118506 61.59663102 22.14877532 61.59286499 23.50636292 C61.58843828 26.35371213 61.59488243 29.20077925 61.60888672 32.0480957 C61.62596304 35.69795714 61.61615023 39.34715605 61.59816933 42.99699306 C61.58732668 45.80142708 61.59078021 48.60570415 61.5985527 51.4101429 C61.60152805 53.41043146 61.59241497 55.41072612 61.5831604 57.41099548 C61.59261688 58.62557938 61.60207336 59.84016327 61.61181641 61.09155273 C61.61539658 62.69799904 61.61539658 62.69799904 61.61904907 64.3368988 C62.05998461 67.41933243 62.80836269 67.94947282 65 70 C65 71.32 65 72.64 65 74 C58.07 74 51.14 74 44 74 C45 69 45 69 46 68 C46.15873955 65.78312006 46.25133837 63.56144702 46.31640625 61.33984375 C46.33718735 60.67537735 46.35796844 60.01091095 46.37937927 59.3263092 C46.44493658 57.19681457 46.50378785 55.06719332 46.5625 52.9375 C46.60567939 51.49673153 46.64929349 50.05597601 46.69335938 48.61523438 C46.80144527 45.07695097 46.90047093 41.53857603 47 38 C37.43 38 27.86 38 18 38 C18.103125 42.723125 18.20625 47.44625 18.3125 52.3125 C18.33739502 53.79919189 18.36229004 55.28588379 18.38793945 56.81762695 C18.42105225 57.98769287 18.45416504 59.15775879 18.48828125 60.36328125 C18.51446533 61.56251221 18.54064941 62.76174316 18.56762695 63.99731445 C19.04745047 67.3295276 19.62306449 67.83810738 22 70 C22 71.32 22 72.64 22 74 C14.74 74 7.48 74 0 74 C0 72.68 0 71.36 0 70 C0.97595123 69.07353668 0.97595123 69.07353668 1.97161865 68.12835693 C4.65699186 65.31062609 4.48586776 63.78999854 4.45410156 59.94628906 C4.45379944 58.72532532 4.45349731 57.50436157 4.45318604 56.24639893 C4.43254089 54.93274353 4.41189575 53.61908813 4.390625 52.265625 C4.38316087 50.90371532 4.37746874 49.54179488 4.37347412 48.17987061 C4.35823092 44.60229632 4.31896181 41.02537578 4.2746582 37.44805908 C4.23367632 33.79488976 4.21545697 30.14161438 4.1953125 26.48828125 C4.1524651 19.3252234 4.08423115 12.16270344 4 5 C2.68 4.67 1.36 4.34 0 4 C0 2.68 0 1.36 0 0 Z " fill="#070707" transform="translate(19,27)"/>
<path d="M0 0 C6.93 0 13.86 0 21 0 C21 1.32 21 2.64 21 4 C20.01 4.66 19.02 5.32 18 6 C17.48987435 8.61196291 17.48987435 8.61196291 17.48828125 11.6640625 C17.45283203 12.78554688 17.41738281 13.90703125 17.38085938 15.0625 C17.35830078 16.238125 17.33574219 17.41375 17.3125 18.625 C17.27833984 19.80835937 17.24417969 20.99171875 17.20898438 22.2109375 C17.12629425 25.1405306 17.05721286 28.0698164 17 31 C17.66 31 18.32 31 19 31 C19.23203125 30.44957031 19.4640625 29.89914063 19.703125 29.33203125 C21.35210258 26.36685168 23.43545912 24.16686425 25.75 21.6875 C26.64074219 20.71941406 27.53148437 19.75132813 28.44921875 18.75390625 C29.9492958 17.13437436 31.451126 15.51645777 32.95703125 13.90234375 C35.83294752 10.7185435 37.73470303 8.3774 38 4 C37.01 4 36.02 4 35 4 C35 2.68 35 1.36 35 0 C42.92 0 50.84 0 59 0 C59 0.99 59 1.98 59 3 C57.53125 4.31103516 57.53125 4.31103516 55.5 5.6640625 C50.72962405 9.06516388 46.93036883 13.05393844 43 17.375 C42.32066406 18.11105469 41.64132812 18.84710938 40.94140625 19.60546875 C39.28827825 21.39829771 37.64137207 23.19641421 36 25 C38.66624455 30.54616026 41.91791792 35.78384834 45.02954102 41.08764648 C46.16862895 43.03031617 47.30416895 44.97502751 48.43945312 46.91992188 C54.75036509 60.10990612 54.75036509 60.10990612 64 70 C64 71.32 64 72.64 64 74 C56.74 74 49.48 74 42 74 C42 72.68 42 71.36 42 70 C42.66 69.67 43.32 69.34 44 69 C43.42050384 64.90987279 42.09889473 62.14235181 39.91015625 58.65625 C39.29076172 57.65722656 38.67136719 56.65820312 38.03320312 55.62890625 C37.38287109 54.59636719 36.73253906 53.56382813 36.0625 52.5 C34.77906901 50.45009328 33.49899258 48.39808158 32.22265625 46.34375 C31.65297119 45.43818359 31.08328613 44.53261719 30.49633789 43.59960938 C29.06857905 41.11914337 27.98867693 38.6816086 27 36 C26.071875 36.7425 25.14375 37.485 24.1875 38.25 C23.66542969 38.66765625 23.14335937 39.0853125 22.60546875 39.515625 C19.95068588 41.97016877 18.1721249 43.87653319 17.61181641 47.53369141 C17.60843262 48.46358887 17.60504883 49.39348633 17.6015625 50.3515625 C17.59769531 51.36734375 17.59382813 52.383125 17.58984375 53.4296875 C17.60144531 54.48414063 17.61304688 55.53859375 17.625 56.625 C17.61339844 57.6871875 17.60179687 58.749375 17.58984375 59.84375 C17.59564453 61.36355469 17.59564453 61.36355469 17.6015625 62.9140625 C17.60494629 63.8417041 17.60833008 64.7693457 17.61181641 65.72509766 C17.80396729 66.85117432 17.80396729 66.85117432 18 68 C19.485 68.99 19.485 68.99 21 70 C21 71.32 21 72.64 21 74 C14.07 74 7.14 74 0 74 C0.33 72.35 0.66 70.7 1 69 C1.66 69 2.32 69 3 69 C3.06943077 60.82039446 3.12277566 52.64091149 3.15543652 44.46108437 C3.17111006 40.66307817 3.19237859 36.86527319 3.22631836 33.06738281 C3.25885241 29.40397533 3.27684029 25.74076169 3.28463173 22.07722092 C3.29018603 20.6777173 3.30103199 19.27822461 3.31719017 17.87880325 C3.33888273 15.92272489 3.3402247 13.96645252 3.34057617 12.01025391 C3.34723801 10.8955069 3.35389984 9.78075989 3.36076355 8.63223267 C3.24171158 7.76359589 3.12265961 6.89495911 3 6 C2.01 5.34 1.02 4.68 0 4 C0 2.68 0 1.36 0 0 Z " fill="#070707" transform="translate(233,27)"/>
<path d="M0 0 C4.95 0 9.9 0 15 0 C15.515625 1.299375 16.03125 2.59875 16.5625 3.9375 C17.89353097 7.27923733 19.25068367 10.60761334 20.6484375 13.921875 C24.07670688 22.07846505 27.16865261 30.23253625 29.88671875 38.65234375 C31.09393309 42.28245846 32.49480367 45.78711974 33.96484375 49.31640625 C34.80014698 51.48189046 35.54576735 53.63167446 36.25390625 55.83984375 C36.5797168 56.85401367 36.5797168 56.85401367 36.91210938 57.88867188 C37.33702706 59.2272264 37.75405415 60.5683184 38.16210938 61.91210938 C39.27829993 65.4301357 40.38706206 67.4627994 43 70 C43 71.32 43 72.64 43 74 C35.41 74 27.82 74 20 74 C20 72.68 20 71.36 20 70 C21.98 69.505 21.98 69.505 24 69 C22.97092219 62.63596616 21.37111564 56.95089447 18.8046875 51.03125 C18 49 18 49 18 47 C9.75 47 1.5 47 -7 47 C-7.33 48.65 -7.66 50.3 -8 52 C-8.99644182 54.78523497 -10.07426543 57.52981134 -11.16015625 60.28125 C-12.02529288 63.08187835 -12.39301934 65.09464187 -12 68 C-10.515 68.99 -10.515 68.99 -9 70 C-9 71.32 -9 72.64 -9 74 C-15.27 74 -21.54 74 -28 74 C-28 72.68 -28 71.36 -28 70 C-27.4225 69.46375 -26.845 68.9275 -26.25 68.375 C-20.98861309 62.82131382 -19.33699977 54.14729812 -16.99633789 47.02441406 C-14.68510718 39.99183172 -12.21166291 33.01893449 -9.72753906 26.04589844 C-9.03078739 24.08657663 -8.33889412 22.1256101 -7.6484375 20.1640625 C-5.2479816 13.37504305 -2.72656836 6.66494487 0 0 Z " fill="#0A0A0A" transform="translate(120,27)"/>
<path d="M0 0 C3.56652912 2.78515244 6.82590696 5.77771032 10 9 C8.6095501 12.10442031 6.98428402 14.3656443 4.625 16.8125 C4.03976563 17.43769531 3.45453125 18.06289063 2.8515625 18.70703125 C1 20 1 20 -1.2265625 19.69921875 C-1.81179687 19.46847656 -2.39703125 19.23773438 -3 19 C-3.02578125 18.37351562 -3.0515625 17.74703125 -3.078125 17.1015625 C-3.13484375 16.28429687 -3.1915625 15.46703125 -3.25 14.625 C-3.29640625 13.81289063 -3.3428125 13.00078125 -3.390625 12.1640625 C-3.78784651 9.84897769 -3.78784651 9.84897769 -5.859375 8.7734375 C-12.28132915 6.4530964 -20.56438764 5.13016719 -27.06640625 7.87109375 C-28.71391493 9.15894975 -28.71391493 9.15894975 -30 12 C-30.33660145 15.64407137 -30.33660145 15.64407137 -29 19 C-24.04663608 22.86796545 -17.61566144 23.96769067 -11.65625 25.57421875 C-2.60527009 28.13866306 5.82631491 31.7405813 11 40 C13.37413274 47.16609392 12.53262868 54.35649705 9.2109375 61.0234375 C6.8000538 64.95862186 3.79554786 67.46963476 0 70 C-0.99 70 -1.98 70 -3 70 C-3 70.66 -3 71.32 -3 72 C-11.9024616 74.79292913 -22.01960967 75.61530821 -30.87109375 72.17578125 C-37.16421044 68.70013332 -42.6671922 63.37580623 -46 57 C-46 55.68 -46 54.36 -46 53 C-43.734375 50.82421875 -43.734375 50.82421875 -40.75 48.6875 C-39.77546875 47.96949219 -38.8009375 47.25148437 -37.796875 46.51171875 C-35 45 -35 45 -32.640625 45.26953125 C-32.09921875 45.51058594 -31.5578125 45.75164062 -31 46 C-31.05800781 46.73605469 -31.11601562 47.47210938 -31.17578125 48.23046875 C-31.56677792 54.61078837 -31.56677792 54.61078837 -28.6875 60.125 C-23.70195033 63.60329047 -18.88294495 63.49991641 -13 63 C-9.53037969 62.12454849 -6.82414333 60.69121698 -4.0625 58.375 C-2.37791909 54.60946621 -2.22461596 51.04094374 -3 47 C-7.74469139 41.36567897 -15.53529461 40.06665083 -22.4375 38.625 C-29.83317498 36.9539031 -36.30756572 34.76113299 -41.0625 28.5625 C-44.20848234 22.82763636 -43.82170258 16.32019837 -43 10 C-40.18655967 3.83207313 -35.1970443 -0.3591255 -28.9375 -2.8125 C-19.25705273 -5.64342071 -8.8362086 -4.9508757 0 0 Z " fill="#090909" transform="translate(212,29)"/>
<path d="M0 0 C3.48326597 0.85529699 4.97293913 2.60978164 6.97265625 5.484375 C7.71728865 9.45574781 7.34532503 10.92537183 5.09765625 14.296875 C2.61388307 16.85370033 1.6624517 17.37707349 -1.83984375 17.921875 C-5.02734375 17.484375 -5.02734375 17.484375 -7.90234375 14.859375 C-10.22080937 11.17710608 -10.83880658 9.72201422 -10.02734375 5.484375 C-7.61458248 0.85991589 -5.2803869 -0.35531575 0 0 Z " fill="#D4D4D4" transform="translate(309.02734375,25.515625)"/>
<path d="M0 0 C0.99 0.33 1.98 0.66 3 1 C3.99356073 3.4706347 4.81316774 5.83152521 5.5625 8.375 C7.23678729 13.91825328 7.23678729 13.91825328 10 19 C10 20.32 10 21.64 10 23 C4.39 23 -1.22 23 -7 23 C-5.14034522 15.09646717 -2.93533734 7.56929629 0 0 Z " fill="#EFEFEF" transform="translate(124,42)"/>
<path d="M0 0 C3.48326597 0.85529699 4.97293913 2.60978164 6.97265625 5.484375 C7.71728865 9.45574781 7.34532503 10.92537183 5.09765625 14.296875 C2.61388307 16.85370033 1.6624517 17.37707349 -1.83984375 17.921875 C-5.02734375 17.484375 -5.02734375 17.484375 -7.90234375 14.859375 C-10.22080937 11.17710608 -10.83880658 9.72201422 -10.02734375 5.484375 C-7.61458248 0.85991589 -5.2803869 -0.35531575 0 0 Z M-6.96484375 3.546875 C-8.64140665 6.60413676 -8.39263352 9.0750038 -8.02734375 12.484375 C-7.04685437 14.54840185 -7.04685437 14.54840185 -5.02734375 15.484375 C-1.39702599 16.02506062 0.29479704 15.94817341 3.34765625 13.859375 C5.43645466 10.80651579 5.51334187 9.11469276 4.97265625 5.484375 C4.0366831 3.46486438 4.0366831 3.46486438 1.97265625 2.484375 C-1.43671495 2.11908523 -3.90758199 1.8703121 -6.96484375 3.546875 Z " fill="#535353" transform="translate(309.02734375,25.515625)"/>
<path d="M0 0 C0.66 0 1.32 0 2 0 C1.67657623 0.53892883 1.35315247 1.07785767 1.01992798 1.63311768 C-0.22480222 4.5216843 -0.27854568 6.72656329 -0.31884766 9.87011719 C-0.33871735 11.05103943 -0.35858704 12.23196167 -0.37905884 13.44866943 C-0.39061005 14.71857727 -0.40216125 15.98848511 -0.4140625 17.296875 C-0.43342865 18.60078186 -0.4527948 19.90468872 -0.4727478 21.24810791 C-0.52401083 24.70693936 -0.56366744 28.16580966 -0.60089111 31.62481689 C-0.64096753 35.15752732 -0.69204322 38.69007693 -0.7421875 42.22265625 C-0.83887755 49.14831991 -0.92330435 56.07408685 -1 63 C-1.33 63 -1.66 63 -2 63 C-2.04628946 55.08114422 -2.08185182 47.16234474 -2.10362434 39.24338722 C-2.11407274 35.5665065 -2.12825102 31.88971817 -2.15087891 28.21289062 C-2.17256991 24.66620345 -2.18456067 21.11960528 -2.18975449 17.5728569 C-2.193457 16.21802748 -2.20068689 14.86320306 -2.21146011 13.50841141 C-2.22592448 11.61454243 -2.22681649 9.72058436 -2.22705078 7.82666016 C-2.23371262 6.20783432 -2.23371262 6.20783432 -2.24050903 4.55630493 C-2 2 -2 2 0 0 Z " fill="#CDCDCD" transform="translate(82,31)"/>
<path d="M0 0 C0.66 0 1.32 0 2 0 C2.33 0.99 2.66 1.98 3 3 C2.2575 3.4125 1.515 3.825 0.75 4.25 C-3.07219922 6.63873758 -3.07219922 6.63873758 -6 10 C-6.64771542 13.74082449 -6.69709223 17.45987959 -6.75 21.25 C-6.77964844 22.28125 -6.80929688 23.3125 -6.83984375 24.375 C-6.91044778 26.91674495 -6.96319009 29.45757783 -7 32 C-7.33 32 -7.66 32 -8 32 C-8.1164862 28.27109745 -8.18734576 24.54266486 -8.25 20.8125 C-8.28351563 19.75740234 -8.31703125 18.70230469 -8.3515625 17.61523438 C-8.45053479 9.77168046 -8.45053479 9.77168046 -6.109375 5.76171875 C-4 4 -4 4 -2 4 C-1.34 2.68 -0.68 1.36 0 0 Z " fill="#CFCFCF" transform="translate(258,63)"/>
<path d="M0 0 C2.31 0 4.62 0 7 0 C7 2.97 7 5.94 7 9 C6.34 9 5.68 9 5 9 C4.67 7.68 4.34 6.36 4 5 C3.34 5 2.68 5 2 5 C2 5.99 2 6.98 2 8 C1.34 8 0.68 8 0 8 C0 5.36 0 2.72 0 0 Z " fill="#646464" transform="translate(304,30)"/>
<path d="M0 0 C0.66 0 1.32 0 2 0 C2.32152515 3.53677664 2.4131192 5.3962104 0.375 8.375 C-2.6037896 10.4131192 -4.46322336 10.32152515 -8 10 C-8 9.34 -8 8.68 -8 8 C-7.34 8 -6.68 8 -6 8 C-6 6.68 -6 5.36 -6 4 C-5.34 4 -4.68 4 -4 4 C-3.67 5.32 -3.34 6.64 -3 8 C-2.34 8 -1.68 8 -1 8 C-1.33 6.35 -1.66 4.7 -2 3 C-1.34 3 -0.68 3 0 3 C0 2.01 0 1.02 0 0 Z " fill="#E3E3E3" transform="translate(312,31)"/>
<path d="M0 0 C0.99 0.33 1.98 0.66 3 1 C3.33 2.65 3.66 4.3 4 6 C3.01 5.67 2.02 5.34 1 5 C0.01 6.32 -0.98 7.64 -2 9 C-1.125 2.25 -1.125 2.25 0 0 Z " fill="#B7B7B7" transform="translate(124,42)"/>
<path d="M0 0 C3.125 0.375 3.125 0.375 6 1 C6 1.33 6 1.66 6 2 C3.69 2.33 1.38 2.66 -1 3 C-1.33 5.31 -1.66 7.62 -2 10 C-2.66 9.01 -3.32 8.02 -4 7 C-3.1025444 3.93369336 -2.26961192 2.26961192 0 0 Z " fill="#6B6B6B" transform="translate(303,26)"/>
<path d="M0 0 C-1.15173355 2.46800047 -2.04783565 4.04783565 -4 6 C-4.69748583 7.31747324 -5.36959957 8.64914193 -6 10 C-5.38909774 3.52443609 -5.38909774 3.52443609 -3.5625 1.0625 C-2 0 -2 0 0 0 Z " fill="#C2C2C2" transform="translate(187,36)"/>
</svg>
