<?xml version="1.0" encoding="UTF-8"?>
<svg version="1.1" xmlns="http://www.w3.org/2000/svg" width="154" height="31">
<path d="M0 0 C50.82 0 101.64 0 154 0 C154 10.23 154 20.46 154 31 C103.18 31 52.36 31 0 31 C0 20.77 0 10.54 0 0 Z " fill="#292630" transform="translate(0,0)"/>
<path d="M0 0 C4.62 0 9.24 0 14 0 C14 1.32 14 2.64 14 4 C17.3 4 20.6 4 24 4 C24.495 6.475 24.495 6.475 25 9 C22.75 10.125 22.75 10.125 20 11 C18.65783903 10.35128886 17.32544541 9.68221455 16 9 C13.64435404 8.55188863 13.64435404 8.55188863 11.25 8.375 C10.45078125 8.30023438 9.6515625 8.22546875 8.828125 8.1484375 C8.22484375 8.09945313 7.6215625 8.05046875 7 8 C7 9.32 7 10.64 7 12 C9.97 12.99 12.94 13.98 16 15 C16.36527988 20.47919818 16.36527988 20.47919818 14.82104492 22.6809082 C12.34307758 24.47584821 10.7158061 24.3433559 7.67578125 24.29296875 C6.64775391 24.28330078 5.61972656 24.27363281 4.56054688 24.26367188 C2.95276367 24.2259668 2.95276367 24.2259668 1.3125 24.1875 C0.22904297 24.17396484 -0.85441406 24.16042969 -1.97070312 24.14648438 C-4.64763405 24.11110643 -7.32356838 24.06174189 -10 24 C-10.33 22.68 -10.66 21.36 -11 20 C-8.36 20 -5.72 20 -3 20 C-2.67 19.01 -2.34 18.02 -2 17 C-2.721875 16.896875 -3.44375 16.79375 -4.1875 16.6875 C-7.35761946 15.91258191 -9.44663103 15.04269518 -12 13 C-12.625 10.5 -12.625 10.5 -12 8 C-9.6875 6.3125 -9.6875 6.3125 -7 5 C-6.01 4.34 -5.02 3.68 -4 3 C-3.01 3 -2.02 3 -1 3 C-0.67 2.01 -0.34 1.02 0 0 Z " fill="#2F2437" transform="translate(110,0)"/>
<path d="M0 0 C16.17 0 32.34 0 49 0 C48.67 1.65 48.34 3.3 48 5 C47.04287109 5.19916016 47.04287109 5.19916016 46.06640625 5.40234375 C45.24011719 5.57894531 44.41382813 5.75554688 43.5625 5.9375 C42.73878906 6.11152344 41.91507813 6.28554687 41.06640625 6.46484375 C39.02338796 6.80752994 39.02338796 6.80752994 38 8 C37.95936168 9.66617115 37.957279 11.33388095 38 13 C42.455 14.98 42.455 14.98 47 17 C47 17.99 47 18.98 47 20 C40.375 20.125 40.375 20.125 37 19 C36.67 19.66 36.34 20.32 36 21 C33.03 20.67 30.06 20.34 27 20 C27 19.01 27 18.02 27 17 C29.31 17 31.62 17 34 17 C34 15.68 34 14.36 34 13 C31.36 13 28.72 13 26 13 C26 11.68 26 10.36 26 9 C28.97 9 31.94 9 35 9 C35 7.68 35 6.36 35 5 C32.72858891 5.11402064 30.45785448 5.24158505 28.1875 5.375 C26.29064453 5.47941406 26.29064453 5.47941406 24.35546875 5.5859375 C20.87244766 5.76102939 20.87244766 5.76102939 18 8 C17.34 7.67 16.68 7.34 16 7 C14.10475333 6.9528399 12.2079663 6.96269685 10.3125 7 C2.81926425 7.06705356 -4.52993363 6.55850963 -12 6 C-12 11.94 -12 17.88 -12 24 C-12.66 24 -13.32 24 -14 24 C-14.18451025 14.58997722 -14.18451025 14.58997722 -13 10 C-13.66 9.67 -14.32 9.34 -15 9 C-14.1875 6.5625 -14.1875 6.5625 -12 4 C-8.34442851 3.23437883 -4.72817347 3.06962633 -1 3 C-0.67 2.01 -0.34 1.02 0 0 Z " fill="#26212D" transform="translate(61,0)"/>
<path d="M0 0 C1.32 0.33 2.64 0.66 4 1 C4 1.66 4 2.32 4 3 C5.0725 2.835 6.145 2.67 7.25 2.5 C11 2 11 2 15 2 C16.2684375 1.9071875 16.2684375 1.9071875 17.5625 1.8125 C20 2 20 2 21.640625 3.15625 C23.535366 5.72612859 23.29879262 7.53420896 23.1875 10.6875 C23.16042969 11.68136719 23.13335937 12.67523438 23.10546875 13.69921875 C23.07066406 14.45847656 23.03585938 15.21773437 23 16 C22.01 16 21.02 16 20 16 C19.505 11.05 19.505 11.05 19 6 C17.68 6 16.36 6 15 6 C14.67 9.3 14.34 12.6 14 16 C13.01 16 12.02 16 11 16 C11 12.7 11 9.4 11 6 C9.02 6.33 7.04 6.66 5 7 C4.67 9.97 4.34 12.94 4 16 C2.68 16 1.36 16 0 16 C0 14.35 0 12.7 0 11 C-0.66 11 -1.32 11 -2 11 C-2 12.65 -2 14.3 -2 16 C-2.99 16 -3.98 16 -5 16 C-5 11.38 -5 6.76 -5 2 C-3.68 2.33 -2.36 2.66 -1 3 C-0.67 2.01 -0.34 1.02 0 0 Z " fill="#9E87C2" transform="translate(23,8)"/>
<path d="M0 0 C9.24324324 -0.48648649 9.24324324 -0.48648649 12.625 1.6875 C14.24864748 4.41817986 14.49334144 5.87550419 14 9 C13.34 9.66 12.68 10.32 12 11 C12.26676204 12.98491642 12.26676204 12.98491642 13 15 C13.33 15.99 13.66 16.98 14 18 C12.0625 17.6875 12.0625 17.6875 10 17 C9.67 16.01 9.34 15.02 9 14 C6.03 13.505 6.03 13.505 3 13 C3 14.65 3 16.3 3 18 C2.01 18 1.02 18 0 18 C0 12.06 0 6.12 0 0 Z " fill="#8F7BB1" transform="translate(67,6)"/>
<path d="M0 0 C1.5675 -0.061875 3.135 -0.12375 4.75 -0.1875 C6.07257812 -0.23970703 6.07257812 -0.23970703 7.421875 -0.29296875 C10.49951615 0.0567632 11.8043956 0.84468192 14 3 C14.61459548 6.61074844 14.45961289 8.30138841 12.4375 11.375 C9.18317497 13.54455002 6.82869586 13.29451507 3 13 C3 14.65 3 16.3 3 18 C2.01 18 1.02 18 0 18 C0 12.06 0 6.12 0 0 Z " fill="#9A82C1" transform="translate(50,6)"/>
<path d="M0 0 C3.96 0 7.92 0 12 0 C12 0.99 12 1.98 12 3 C9.03 3 6.06 3 3 3 C3 4.32 3 5.64 3 7 C5.64 7 8.28 7 11 7 C11 7.99 11 8.98 11 10 C8.36 10 5.72 10 3 10 C3 11.65 3 13.3 3 15 C5.97 15 8.94 15 12 15 C12 15.66 12 16.32 12 17 C8.04 17 4.08 17 0 17 C0 11.39 0 5.78 0 0 Z " fill="#9C86C0" transform="translate(84,6)"/>
<path d="M0 0 C1.21816406 0.03480469 1.21816406 0.03480469 2.4609375 0.0703125 C3.68683594 0.09738281 3.68683594 0.09738281 4.9375 0.125 C5.87722656 0.15980469 5.87722656 0.15980469 6.8359375 0.1953125 C7.1659375 1.1853125 7.4959375 2.1753125 7.8359375 3.1953125 C5.1959375 3.1953125 2.5559375 3.1953125 -0.1640625 3.1953125 C-0.1640625 4.5153125 -0.1640625 5.8353125 -0.1640625 7.1953125 C0.9496875 7.3190625 2.0634375 7.4428125 3.2109375 7.5703125 C6.8359375 8.1953125 6.8359375 8.1953125 8.8359375 10.1953125 C9.18725321 12.93557503 9.18013625 14.57145226 7.8359375 17.0078125 C4.59604788 18.93149696 1.5533556 18.37813634 -2.1640625 18.1953125 C-2.4940625 16.8753125 -2.8240625 15.5553125 -3.1640625 14.1953125 C-0.5240625 14.1953125 2.1159375 14.1953125 4.8359375 14.1953125 C5.1659375 13.2053125 5.4959375 12.2153125 5.8359375 11.1953125 C5.1140625 11.0921875 4.3921875 10.9890625 3.6484375 10.8828125 C0.47831804 10.10789441 -1.61069353 9.23800768 -4.1640625 7.1953125 C-4.6015625 4.6328125 -4.6015625 4.6328125 -4.1640625 2.1953125 C-2.1640625 0.1953125 -2.1640625 0.1953125 0 0 Z " fill="#9C87C7" transform="translate(102.1640625,5.8046875)"/>
<path d="M0 0 C2.3828125 -0.29296875 2.3828125 -0.29296875 5.125 -0.1875 C6.03507812 -0.16042969 6.94515625 -0.13335938 7.8828125 -0.10546875 C8.58148438 -0.07066406 9.28015625 -0.03585938 10 0 C10 0.99 10 1.98 10 3 C7.36 2.67 4.72 2.34 2 2 C2 3.32 2 4.64 2 6 C4.97 6.99 7.94 7.98 11 9 C11.35789474 14.36842105 11.35789474 14.36842105 9.9375 16.875 C6.96164925 18.60291334 4.36405631 18.24465864 1 18 C0.34 17.67 -0.32 17.34 -1 17 C-1 16.01 -1 15.02 -1 14 C1.64 14 4.28 14 7 14 C7.33 13.01 7.66 12.02 8 11 C5.03 10.01 2.06 9.02 -1 8 C-1.625 5.6875 -1.625 5.6875 -2 3 C-1.34 2.01 -0.68 1.02 0 0 Z " fill="#9582BB" transform="translate(115,6)"/>
<path d="M0 0 C9.24324324 -0.48648649 9.24324324 -0.48648649 12.625 1.6875 C14.28889137 4.48586276 14.73591261 5.81104534 14 9 C11.5 10.8125 11.5 10.8125 9 12 C9 9.36 9 6.72 9 4 C6.69 3.67 4.38 3.34 2 3 C2 7.62 2 12.24 2 17 C1.34 17 0.68 17 0 17 C0 11.39 0 5.78 0 0 Z " fill="#907CB3" transform="translate(67,6)"/>
<path d="M0 0 C1.32 0.33 2.64 0.66 4 1 C3.01 1.33 2.02 1.66 1 2 C1 6.62 1 11.24 1 16 C0.67 16 0.34 16 0 16 C0 14.35 0 12.7 0 11 C-0.66 11 -1.32 11 -2 11 C-2 12.65 -2 14.3 -2 16 C-2.99 16 -3.98 16 -5 16 C-5 11.38 -5 6.76 -5 2 C-3.68 2.33 -2.36 2.66 -1 3 C-0.67 2.01 -0.34 1.02 0 0 Z " fill="#64557F" transform="translate(23,8)"/>
<path d="M0 0 C3.3 0 6.6 0 10 0 C9.34 0.66 8.68 1.32 8 2 C8.33 2.66 8.66 3.32 9 4 C7.35 4.33 5.7 4.66 4 5 C3.67 7.97 3.34 10.94 3 14 C2.01 14 1.02 14 0 14 C0 9.38 0 4.76 0 0 Z " fill="#977FBC" transform="translate(24,10)"/>
<path d="M0 0 C5.75 -0.125 5.75 -0.125 8 1 C8 2.65 8 4.3 8 6 C5.29120665 7.35439668 2.99066732 7.06501451 0 7 C0 4.69 0 2.38 0 0 Z " fill="#3C2E54" transform="translate(53,9)"/>
<path d="M0 0 C0.33 1.65 0.66 3.3 1 5 C-2.11771927 6.60339848 -3.39011689 7.18974141 -6.8125 6.125 C-7.534375 5.75375 -8.25625 5.3825 -9 5 C-9 4.01 -9 3.02 -9 2 C-5.5647952 -0.29013653 -4.014669 -0.17842973 0 0 Z " fill="#4E4566" transform="translate(134,4)"/>
<path d="M0 0 C1.99954746 -0.04254356 4.00041636 -0.04080783 6 0 C7 1 7 1 7.125 3.5 C7 6 7 6 6 7 C4.00041636 7.04080783 1.99954746 7.04254356 0 7 C0 4.69 0 2.38 0 0 Z " fill="#2F223C" transform="translate(70,9)"/>
<path d="M0 0 C1.4800841 0.11362262 2.95910074 0.24122908 4.4375 0.375 C5.26121094 0.44460938 6.08492188 0.51421875 6.93359375 0.5859375 C7.95646484 0.79089844 7.95646484 0.79089844 9 1 C9.33 1.66 9.66 2.32 10 3 C9.01 4.32 8.02 5.64 7 7 C4.69 6.01 2.38 5.02 0 4 C0 2.68 0 1.36 0 0 Z " fill="#32273E" transform="translate(117,8)"/>
<path d="M0 0 C3.3 0.66 6.6 1.32 10 2 C10 2.33 10 2.66 10 3 C7.69 3 5.38 3 3 3 C3 3.66 3 4.32 3 5 C5.31 5.33 7.62 5.66 10 6 C10 6.33 10 6.66 10 7 C2.41 7 -5.18 7 -13 7 C-13 6.67 -13 6.34 -13 6 C-8.71 6 -4.42 6 0 6 C0 4.02 0 2.04 0 0 Z " fill="#392C4C" transform="translate(97,18)"/>
<path d="M0 0 C2.97 0 5.94 0 9 0 C9 0.33 9 0.66 9 1 C7.02 1.33 5.04 1.66 3 2 C2.67 6.62 2.34 11.24 2 16 C1.34 16 0.68 16 0 16 C0 10.72 0 5.44 0 0 Z " fill="#AC92DA" transform="translate(67,7)"/>
<path d="M0 0 C1.21816406 0.03480469 1.21816406 0.03480469 2.4609375 0.0703125 C3.68683594 0.09738281 3.68683594 0.09738281 4.9375 0.125 C5.87722656 0.15980469 5.87722656 0.15980469 6.8359375 0.1953125 C7.1659375 1.1853125 7.4959375 2.1753125 7.8359375 3.1953125 C5.1959375 3.1953125 2.5559375 3.1953125 -0.1640625 3.1953125 C-0.4940625 4.1853125 -0.8240625 5.1753125 -1.1640625 6.1953125 C-1.4940625 5.2053125 -1.8240625 4.2153125 -2.1640625 3.1953125 C-2.8240625 4.5153125 -3.4840625 5.8353125 -4.1640625 7.1953125 C-4.2890625 4.8203125 -4.2890625 4.8203125 -4.1640625 2.1953125 C-2.1640625 0.1953125 -2.1640625 0.1953125 0 0 Z " fill="#765F94" transform="translate(102.1640625,5.8046875)"/>
<path d="M0 0 C0.99 0.33 1.98 0.66 3 1 C3.35555556 6.33333333 3.35555556 6.33333333 2 8.875 C-1.25313684 10.70488947 -4.31390109 10.18128355 -8 10 C-8 9.67 -8 9.34 -8 9 C-6.02 9 -4.04 9 -2 9 C-2 8.34 -2 7.68 -2 7 C-1.34 7 -0.68 7 0 7 C-0.185625 6.030625 -0.37125 5.06125 -0.5625 4.0625 C-0.706875 3.051875 -0.85125 2.04125 -1 1 C-0.67 0.67 -0.34 0.34 0 0 Z " fill="#A18BCE" transform="translate(61,8)"/>
<path d="M0 0 C0.66 1.32 1.32 2.64 2 4 C0 6 0 6 -1.9453125 6.1953125 C-3.96354167 6.13020833 -5.98177083 6.06510417 -8 6 C-8.33 4.68 -8.66 3.36 -9 2 C-6.36 2 -3.72 2 -1 2 C-0.67 1.34 -0.34 0.68 0 0 Z " fill="#9280B8" transform="translate(108,18)"/>
<path d="M0 0 C1.27617188 0.02320313 2.55234375 0.04640625 3.8671875 0.0703125 C5.78917969 0.09738281 5.78917969 0.09738281 7.75 0.125 C9.23113281 0.15980469 9.23113281 0.15980469 10.7421875 0.1953125 C10.7421875 0.5253125 10.7421875 0.8553125 10.7421875 1.1953125 C6.4521875 1.1953125 2.1621875 1.1953125 -2.2578125 1.1953125 C-2.5878125 4.4953125 -2.9178125 7.7953125 -3.2578125 11.1953125 C-3.9178125 10.8653125 -4.5778125 10.5353125 -5.2578125 10.1953125 C-5.453125 4.140625 -5.453125 4.140625 -5.2578125 2.1953125 C-3.2578125 0.1953125 -3.2578125 0.1953125 0 0 Z " fill="#302641" transform="translate(85.2578125,4.8046875)"/>
<path d="M0 0 C2.97 0 5.94 0 9 0 C8.67 0.99 8.34 1.98 8 3 C4.9375 4.1875 4.9375 4.1875 2 5 C1.01 4.01 0.02 3.02 -1 2 C-0.67 1.34 -0.34 0.68 0 0 Z " fill="#242227" transform="translate(124,0)"/>
<path d="M0 0 C1.4540625 0.0309375 1.4540625 0.0309375 2.9375 0.0625 C2.9375 3.3625 2.9375 6.6625 2.9375 10.0625 C2.6075 10.0625 2.2775 10.0625 1.9375 10.0625 C1.6075 7.7525 1.2775 5.4425 0.9375 3.0625 C-0.0525 3.3925 -1.0425 3.7225 -2.0625 4.0625 C-2.3925 6.0425 -2.7225 8.0225 -3.0625 10.0625 C-3.3925 10.0625 -3.7225 10.0625 -4.0625 10.0625 C-4.08939216 8.58343108 -4.10884621 7.10422517 -4.125 5.625 C-4.13660156 4.80128906 -4.14820312 3.97757813 -4.16015625 3.12890625 C-4.00103255 -0.23815127 -3.43619093 0.07012635 0 0 Z " fill="#503B5E" transform="translate(31.0625,13.9375)"/>
<path d="M0 0 C3.3 0 6.6 0 10 0 C10 0.99 10 1.98 10 3 C7.36 3 4.72 3 2 3 C1.67 3.99 1.34 4.98 1 6 C0.34 6 -0.32 6 -1 6 C-0.67 4.02 -0.34 2.04 0 0 Z " fill="#A290CC" transform="translate(115,6)"/>
<path d="M0 0 C0.99 0 1.98 0 3 0 C3.103125 0.639375 3.20625 1.27875 3.3125 1.9375 C3.539375 2.618125 3.76625 3.29875 4 4 C4.99 4.33 5.98 4.66 7 5 C6.01 5.495 6.01 5.495 5 6 C4.34786708 8.02463255 4.34786708 8.02463255 4 10 C2.68 9.34 1.36 8.68 0 8 C0.33 7.67 0.66 7.34 1 7 C1.19149081 3.36805359 1.19149081 3.36805359 0 0 Z " fill="#433357" transform="translate(109,14)"/>
<path d="M0 0 C2.97 0.33 5.94 0.66 9 1 C8.67 1.99 8.34 2.98 8 4 C5.36 3.67 2.72 3.34 0 3 C0 2.01 0 1.02 0 0 Z " fill="#271F26" transform="translate(88,9)"/>
<path d="M0 0 C2.64 0.33 5.28 0.66 8 1 C8.33 1.99 8.66 2.98 9 4 C2.25 4.125 2.25 4.125 0 3 C0 2.01 0 1.02 0 0 Z " fill="#8C7AB2" transform="translate(114,20)"/>
<path d="M0 0 C2.475 0.495 2.475 0.495 5 1 C5 1.99 5 2.98 5 4 C3.35 4.33 1.7 4.66 0 5 C0 3.35 0 1.7 0 0 Z " fill="#232023" transform="translate(54,10)"/>
<path d="M0 0 C1.32 0.33 2.64 0.66 4 1 C3.67 1.33 3.34 1.66 3 2 C2.95919217 3.99958364 2.95745644 6.00045254 3 8 C2.01 8.495 2.01 8.495 1 9 C1 7.35 1 5.7 1 4 C0.01 3.67 -0.98 3.34 -2 3 C-1.34 3 -0.68 3 0 3 C0 2.01 0 1.02 0 0 Z " fill="#2D1E3F" transform="translate(96,6)"/>
<path d="M0 0 C1.32 0.33 2.64 0.66 4 1 C3.67 2.32 3.34 3.64 3 5 C1.02 5 -0.96 5 -3 5 C-2.505 4.54625 -2.01 4.0925 -1.5 3.625 C0.22609337 2.12364481 0.22609337 2.12364481 0 0 Z " fill="#3E2D55" transform="translate(119,16)"/>
<path d="M0 0 C2.97 0.495 2.97 0.495 6 1 C5.67 3.64 5.34 6.28 5 9 C4.67 9 4.34 9 4 9 C3.71125 7.88625 3.4225 6.7725 3.125 5.625 C2.30758671 1.99708908 2.30758671 1.99708908 0 0 Z " fill="#322340" transform="translate(60,6)"/>
<path d="M0 0 C2.35171131 0.59861742 4.6859378 1.26924352 7 2 C7.33 2.66 7.66 3.32 8 4 C5.03 3.67 2.06 3.34 -1 3 C-0.67 2.01 -0.34 1.02 0 0 Z " fill="#241A39" transform="translate(119,2)"/>
<path d="M0 0 C1.20628008 2.33214148 2.1654738 4.49642139 3 7 C1.68 6.67 0.36 6.34 -1 6 C-1.042721 4.33388095 -1.04063832 2.66617115 -1 1 C-0.67 0.67 -0.34 0.34 0 0 Z " fill="#A691C8" transform="translate(100,8)"/>
<path d="M0 0 C-0.66 0.66 -1.32 1.32 -2 2 C-1.67 2.66 -1.34 3.32 -1 4 C-2.65 4 -4.3 4 -6 4 C-6.33 3.01 -6.66 2.02 -7 1 C-4.53721199 -0.231394 -2.7204945 -0.07159196 0 0 Z " fill="#7D6799" transform="translate(34,10)"/>
<path d="M0 0 C2.31 0 4.62 0 7 0 C7.33 0.99 7.66 1.98 8 3 C5.36 2.67 2.72 2.34 0 2 C0 1.34 0 0.68 0 0 Z " fill="#A790CA" transform="translate(102,6)"/>
</svg>
