<svg width="322" height="117" viewBox="0 0 322 117" fill="none" xmlns="http://www.w3.org/2000/svg">
<g clip-path="url(#clip0_43_60)">
<rect width="322" height="117" fill="white"/>
<g filter="url(#filter0_dd_43_60)">
<g clip-path="url(#clip1_43_60)">
<rect y="22" width="210" height="73" fill="white"/>
<path d="M60.3403 28.6823V35.0583H61.5553H62.7703V32.0356C62.7973 28.8476 62.9323 28.3989 64.1473 28.021C65.1193 27.6904 66.1993 28.1155 66.5233 28.9656C66.6853 29.3671 66.8203 30.9021 66.8203 32.3662V35.0583H68.0353H69.2503V31.8467C69.2503 28.2336 68.9533 27.3126 67.5223 26.5097C66.4693 25.9429 64.6603 26.061 63.5533 26.7694L62.7703 27.289V24.7858V22.3062H61.5553H60.3403V28.6823Z" fill="#9C182F"/>
<path d="M108.076 28.3753C108.022 31.7286 108.049 34.6097 108.103 34.7514C108.157 34.9403 108.67 35.0583 109.507 35.0583H110.83V28.6823V22.3062H109.48H108.157L108.076 28.3753Z" fill="#9C182F"/>
<path d="M20.4341 22.9201C19.3271 23.605 19.8131 24.9038 21.1901 24.9038C22.0541 24.9038 22.5401 24.5024 22.5401 23.8175C22.5401 23.3452 21.6761 22.5423 21.1901 22.5423C21.1091 22.5423 20.7581 22.7076 20.4341 22.9201Z" fill="#9C182F"/>
<path d="M1.83143 22.9438L0.94043 23.0382V29.0601V35.1056L4.12643 35.0111C6.66443 34.9639 7.50143 34.8458 8.33843 34.4444C10.2554 33.5706 10.9574 31.4925 9.85043 29.9103C9.55343 29.5088 9.22943 29.1546 9.12143 29.1546C8.98643 29.1546 8.68943 28.9893 8.41943 28.824C7.98743 28.517 8.01443 28.4461 8.90543 27.6668C9.66143 27.0056 9.85043 26.6514 9.85043 25.8957C9.85043 24.833 9.14843 23.912 7.87943 23.3452C7.04243 22.9438 3.53243 22.7312 1.83143 22.9438ZM6.93443 25.14C8.06843 26.368 7.06943 27.6668 4.77443 27.903L3.37043 28.0447V26.2027V24.3843L4.90943 24.4788C6.07043 24.5732 6.55643 24.7149 6.93443 25.14ZM6.82643 30.0283C7.79843 30.6423 7.98743 32.1537 7.17743 32.7913C6.55643 33.2872 4.61243 33.7123 3.88343 33.5234C3.42443 33.3817 3.37043 33.1219 3.37043 31.3508V29.3199L4.74743 29.438C5.50343 29.5088 6.42143 29.7686 6.82643 30.0283Z" fill="#9C182F"/>
<path d="M89.0953 23.1091C87.2593 23.7939 86.1253 25.8484 86.8003 27.2417C87.2593 28.21 88.0423 28.8003 89.9053 29.5324C91.9573 30.3353 92.7403 30.9493 92.7403 31.7759C92.7403 33.1928 90.4723 33.8068 88.0153 33.0511C87.4483 32.8622 86.9083 32.7677 86.8543 32.8149C86.7733 32.8622 86.7193 33.3108 86.6923 33.8068C86.6653 34.6805 86.6923 34.7041 88.0153 35.0111C89.7433 35.4126 91.8223 35.2473 93.2803 34.5861C95.3593 33.6651 96.0073 31.1382 94.5493 29.556C94.2253 29.2018 92.9293 28.4461 91.6603 27.903C90.2023 27.289 89.3383 26.7458 89.2843 26.4861C88.9603 24.9511 90.4183 24.1718 92.7673 24.6677C93.5233 24.833 94.1983 24.9038 94.2523 24.833C94.3333 24.7622 94.4413 24.3607 94.4413 23.9356C94.4953 23.298 94.3873 23.1327 93.8203 22.991C92.6863 22.7076 89.9593 22.7785 89.0953 23.1091Z" fill="#9C182F"/>
<path d="M141.07 29.06V35.0819L142.312 35.0111L143.581 34.9402L143.608 32.3426L143.635 29.7449L146.524 29.674L149.413 29.6032L149.494 32.2717L149.575 34.9402H150.79H152.005L152.086 28.9656L152.14 23.0146H150.79H149.44V25.3761V27.7376H146.632C143.365 27.7376 143.446 27.8084 143.5 25.2108C143.527 24.3134 143.527 23.4633 143.527 23.2979C143.5 23.109 143.068 23.0146 142.285 23.0146H141.07V29.06Z" fill="#9C182F"/>
<path d="M54.0762 24.4788C53.4552 24.6677 53.3202 24.8566 53.3202 25.5178C53.3202 26.2263 53.2392 26.3208 52.6452 26.3208C52.0512 26.3208 51.9702 26.4152 51.9702 27.1473C51.9702 27.8557 52.0512 27.9738 52.6182 27.9738C53.2392 27.9738 53.2662 28.021 53.3742 30.784C53.5092 33.9721 53.8062 34.6097 55.3452 35.0584C55.8852 35.2237 56.7492 35.2709 57.2622 35.2001C58.0992 35.0584 58.1802 34.9639 58.1802 34.2318C58.1802 33.4998 58.0992 33.4289 57.3162 33.3581C56.0472 33.2636 55.7232 32.5315 55.8042 30.0992L55.8852 28.0919L56.9652 28.021C58.1802 27.9266 58.4232 27.714 58.2342 26.9111C58.1532 26.4388 57.9372 26.3444 56.9922 26.2735C55.8852 26.2027 55.8852 26.2027 55.8042 25.1872C55.7232 24.1009 55.4802 24.0065 54.0762 24.4788Z" fill="#9C182F"/>
<path d="M16.4653 26.3444C16.1683 26.486 15.6553 26.8875 15.3313 27.2417L14.7103 27.8557V27.0764C14.7103 26.3444 14.6563 26.3207 13.6303 26.3207H12.5503V30.6895V35.0583H13.7383H14.9263L15.0073 32.2481C15.1153 29.6505 15.1693 29.3907 15.7633 28.8239C16.2223 28.3989 16.7083 28.21 17.3293 28.21C18.1933 28.21 18.2203 28.1863 18.2203 27.1473C18.2203 26.2027 18.1663 26.0846 17.6263 26.0846C17.2753 26.0846 16.7623 26.2027 16.4653 26.3444Z" fill="#9C182F"/>
<path d="M29.1552 26.368C28.8582 26.5097 28.3452 26.8403 28.0212 27.1L27.4002 27.5723V26.9583C27.4002 26.368 27.3192 26.3207 26.3202 26.3207H25.2402V30.6895V35.0583H26.4552H27.6702V32.1301C27.6702 29.4143 27.7242 29.1309 28.2912 28.5878C29.2902 27.6196 30.9912 27.7376 31.4772 28.8476C31.6122 29.1546 31.7202 30.6895 31.7202 32.2481V35.0583H32.9352H34.1502V31.8703C34.1502 28.21 33.8532 27.3126 32.4762 26.5569C31.5042 26.0374 29.9922 25.9429 29.1552 26.368Z" fill="#9C182F"/>
<path d="M39.145 26.4151C35.581 27.8084 35.392 33.2399 38.848 34.6096C40.306 35.1764 40.819 35.1764 42.385 34.4915L43.654 33.9011L43.519 34.8694C43.222 36.735 41.521 37.5143 39.064 36.8767L37.714 36.546L37.444 37.349C37.174 38.1046 37.201 38.1755 37.822 38.388C39.064 38.7895 41.278 38.8839 42.493 38.6006C43.978 38.2463 45.328 37.1128 45.733 35.8848C45.895 35.3653 46.03 33.0274 46.03 30.6186V26.3207H44.95C44.032 26.3207 43.87 26.3915 43.87 26.793C43.87 27.2653 43.87 27.2653 43.087 26.7694C42.115 26.1554 40.225 25.9665 39.145 26.4151ZM42.709 28.3044C43.411 28.8239 43.465 29.0128 43.465 30.5714C43.465 32.13 43.411 32.3189 42.709 32.8385C41.791 33.5233 40.927 33.5705 40.009 32.9093C38.551 31.9411 38.524 29.3434 39.955 28.2571C40.873 27.5723 41.764 27.5959 42.709 28.3044Z" fill="#9C182F"/>
<path d="M74.2452 26.5096C72.3552 27.2889 71.4102 28.7294 71.4102 30.784C71.4102 33.7122 73.2192 35.1764 76.8372 35.1291C79.3212 35.1055 80.0772 34.8221 79.8342 33.9956C79.6182 33.3344 79.6182 33.3344 78.0522 33.5233C77.4042 33.6178 76.4862 33.6178 76.0542 33.5233C75.0282 33.3344 73.8402 32.3898 73.8402 31.7758C73.8402 31.3271 74.0292 31.2799 77.1612 31.2326L80.4552 31.1618L80.4282 29.9338C80.3472 27.7612 78.9162 26.3207 76.6212 26.1554C75.7302 26.1082 75.0012 26.2026 74.2452 26.5096ZM77.0802 27.8557C77.8902 28.2099 78.3762 29.1309 78.0252 29.6032C77.9442 29.7449 76.9722 29.863 75.8382 29.863C74.1102 29.863 73.8402 29.8157 73.8402 29.4379C73.8402 28.8711 74.5962 27.9737 75.2982 27.7376C76.1082 27.4542 76.1892 27.4542 77.0802 27.8557Z" fill="#9C182F"/>
<path d="M98.9501 26.3679C97.9781 26.6749 97.6271 27.3126 98.1131 27.9502C98.2751 28.1863 98.4641 28.2099 98.8961 27.9974C99.1931 27.8557 100.057 27.7376 100.813 27.7376C101.893 27.7376 102.244 27.8321 102.568 28.2572C103.27 29.1309 103.081 29.3198 101.38 29.4615C98.4911 29.7449 97.0601 30.784 97.0601 32.626C97.0601 34.7041 99.3551 35.7904 101.785 34.8458C103.324 34.2554 103.27 34.2554 103.27 34.7041C103.27 34.9639 103.567 35.0583 104.35 35.0583H105.43V31.9411C105.43 28.5642 105.025 27.2653 103.756 26.5805C102.946 26.1318 100.111 26.0137 98.9501 26.3679ZM103 31.705C103 32.9093 102.082 33.7123 100.813 33.5942C100.111 33.547 99.8411 33.3816 99.6521 32.8621C99.1931 31.7522 100.327 30.8076 102.136 30.8076C102.973 30.8076 103 30.8548 103 31.705Z" fill="#9C182F"/>
<path d="M116.041 26.3443C113.773 26.9111 112.342 29.4615 112.963 31.8702C113.962 35.7904 120.199 36.428 122.359 32.8385C122.656 32.3898 122.818 31.5396 122.818 30.5478C122.818 29.2253 122.71 28.8239 122.062 27.9737C120.847 26.3679 118.498 25.7303 116.041 26.3443ZM119.362 28.3044C120.01 28.7767 120.118 29.06 120.199 30.3589C120.361 32.7204 119.146 33.972 117.175 33.5469C116.176 33.3344 115.42 32.1064 115.42 30.7367C115.42 28.1391 117.472 26.8874 119.362 28.3044Z" fill="#9C182F"/>
<path d="M128.65 26.5805C128.137 26.8639 127.624 27.1945 127.543 27.3126C127.435 27.4543 127.3 27.2653 127.192 26.9347C127.03 26.3916 126.868 26.3207 125.896 26.3207H124.789L124.978 27.407C125.059 28.021 125.14 29.9811 125.14 31.7758V35.0583H126.355H127.57V32.1301C127.57 29.5324 127.624 29.1546 128.137 28.5878C128.515 28.1627 128.947 27.9738 129.541 27.9738C131.296 27.9738 131.62 28.6823 131.62 32.3662V35.0583H132.835H134.05V31.9175C134.05 29.3435 133.942 28.635 133.51 27.7849C132.673 26.1554 130.486 25.6123 128.65 26.5805Z" fill="#9C182F"/>
<path d="M157.135 26.5096C156.541 26.7694 155.839 27.1708 155.596 27.407C154.273 28.7294 153.895 31.3271 154.84 32.9093C156.649 36.0029 161.968 36.0029 163.777 32.8857C164.236 32.1064 164.317 31.5869 164.236 30.3353C164.074 27.6904 162.616 26.3679 159.754 26.179C158.62 26.0845 157.945 26.179 157.135 26.5096ZM160.483 27.9737C160.996 28.2099 161.86 29.8157 161.86 30.5242C161.86 31.3743 161.266 32.7204 160.726 33.1691C158.782 34.7513 156.19 32.2717 157 29.6268C157.486 28.021 159.025 27.2889 160.483 27.9737Z" fill="#9C182F"/>
<path d="M170.365 26.3444C170.068 26.486 169.555 26.8403 169.231 27.1L168.61 27.5723V26.9584C168.61 26.368 168.529 26.3207 167.53 26.3207H166.45V30.6895V35.0583H167.665H168.88V32.1301C168.88 29.3907 168.934 29.1309 169.501 28.5406C170.23 27.8085 171.391 27.714 172.066 28.3044C172.444 28.635 172.552 29.2963 172.606 31.8703L172.714 35.0583H173.902H175.09V32.2245C175.09 30.6187 175.225 29.1546 175.387 28.8239C175.765 28.0919 176.899 27.714 177.709 28.0446C178.6 28.3753 178.87 29.4143 178.87 32.3662V35.0583H180.112H181.354L181.246 31.6814C181.165 29.0601 181.057 28.1627 180.679 27.5723C179.707 25.9901 177.331 25.6595 175.522 26.8639L174.631 27.4779L173.956 26.8639C173.173 26.179 171.229 25.8957 170.365 26.3444Z" fill="#9C182F"/>
<path d="M186.43 26.3443C185.539 26.6513 184.324 27.6904 183.811 28.5406C183.244 29.5088 183.271 31.9175 183.865 33.0274C184.783 34.7277 187.24 35.5306 190.102 35.082C190.939 34.9403 191.695 34.775 191.776 34.7277C191.83 34.6569 191.803 34.3263 191.722 33.9484L191.533 33.2636L189.967 33.4997C188.644 33.6887 188.266 33.6414 187.348 33.2636C186.349 32.8385 185.512 31.8703 185.782 31.4688C185.863 31.3744 187.375 31.2799 189.157 31.2799H192.37V30.1464C192.37 27.1945 189.427 25.3053 186.43 26.3443ZM189.454 28.1627C189.724 28.3752 189.967 28.8239 189.994 29.1545C190.075 29.7213 190.021 29.7449 188.077 29.8158C186.97 29.863 185.971 29.7922 185.863 29.6977C185.539 29.4143 186.376 28.0682 187.051 27.7849C187.78 27.4543 188.833 27.6432 189.454 28.1627Z" fill="#9C182F"/>
<path d="M19.9484 26.6277C19.8944 26.793 19.8674 28.7294 19.8944 30.9256L19.9754 34.9402L21.2714 35.0111L22.5404 35.0819V30.7131V26.3207H21.3254C20.5694 26.3207 20.0294 26.4388 19.9484 26.6277Z" fill="#9C182F"/>
<path d="M108.265 46.5353C105.889 46.7951 103.189 47.1965 101.488 47.598C95.6292 48.9441 90.9042 52.0377 88.6092 56.0522C87.5022 58.0123 87.4752 58.0831 87.4752 60.5391C87.4752 62.6881 87.5832 63.2549 88.2042 64.5301C89.5002 67.2458 91.6602 69.1586 95.0892 70.6228C98.0862 71.898 101.488 72.5356 108.886 73.1968C112.558 73.5275 116.5 73.9053 117.634 74.047C123.223 74.6846 127.165 76.2668 128.11 78.2741C129.217 80.5884 126.841 83.3514 122.629 84.6502C117.418 86.256 108.697 86.2796 102.46 84.6974C98.6532 83.7292 94.3062 81.8872 91.3362 80.0216L90.0942 79.2187L89.4462 80.2105C88.4472 81.7928 85.7202 86.4922 85.7202 86.6339C85.7202 86.9645 90.4992 89.4913 93.0912 90.554C98.3292 92.6793 102.73 93.6712 109.021 94.1199C120.307 94.9464 130 92.6085 135.076 87.8619C139.126 84.0598 140.287 78.5103 137.965 74.0706C136.966 72.1578 133.915 69.6073 131.215 68.4266C127.111 66.6082 124.6 66.1359 113.8 65.0496C104.917 64.1758 102.298 63.798 100.759 63.2076C97.7352 62.0269 97.1412 59.5709 99.4092 57.6581C102.271 55.2021 108.022 54.0686 114.637 54.6353C120.199 55.1076 124.033 56.0522 128.704 58.0831L131.62 59.3584L132.538 57.8942C136.102 52.2266 135.967 52.4863 135.481 52.1557C134.509 51.5181 130.27 49.6761 127.894 48.8968C122.359 47.0549 113.638 45.9922 108.265 46.5353Z" fill="#9C182F"/>
<path d="M165.154 46.6298C158.296 47.3854 152.977 49.44 149.467 52.6516C145.417 56.4064 144.364 61.0586 146.686 65.2621C147.685 67.0805 150.439 69.442 152.707 70.4102C156.568 72.0397 159.268 72.5356 169.42 73.433C179.842 74.3776 182.974 75.1096 185.296 77.0933C186.322 77.9907 186.538 78.6283 186.349 80.0688C186.025 82.7373 182.11 84.8391 176.17 85.5948C173.2 85.9726 167.26 85.9254 164.425 85.4767C159.727 84.7446 154.678 82.9735 150.655 80.6592C149.629 80.0688 148.63 79.5021 148.441 79.384C148.225 79.2659 147.415 80.4231 145.93 82.9263L143.743 86.6575L144.364 87.1061C145.39 87.8382 149.845 90.058 151.924 90.8846C162.238 94.97 176.737 95.4423 186.268 91.9709C192.91 89.5385 196.771 85.2405 197.149 79.8091C197.446 75.4639 195.853 72.3939 191.992 69.8435C187.753 67.0569 184.081 66.2303 169.825 64.8134C161.806 64.0105 160.375 63.8216 158.782 63.2076C155.65 61.9796 155.299 59.3347 157.972 57.2566C160.348 55.4382 164.317 54.5408 169.825 54.5644C176.197 54.6117 181.516 55.7216 186.943 58.1303C188.482 58.8152 189.778 59.3583 189.805 59.3111C189.832 59.2875 190.804 57.7289 191.965 55.8633L194.071 52.4627L193.45 52.0612C192.154 51.1875 187.186 49.2038 184.378 48.3773C182.758 47.9286 180.058 47.3382 178.33 47.0784C174.766 46.5353 168.124 46.3228 165.154 46.6298Z" fill="#9C182F"/>
<path d="M0.91322 70.2921C0.88622 82.8082 0.83222 93.2697 0.80522 93.5767C0.77822 93.8601 0.83222 94.1434 0.94022 94.2143C1.21022 94.356 4.42322 93.4822 7.90622 92.3015C15.2232 89.8219 22.3512 86.1379 28.5612 81.6274L30.9912 79.8563L31.6662 80.5411C32.0442 80.919 34.9872 83.9181 38.2542 87.177L44.1672 93.1516H51.0792H57.9642L55.4262 90.6012C54.0492 89.2079 51.7002 86.8464 50.2152 85.3586C48.7302 83.8709 45.4902 80.5883 43.0062 78.0851C40.4952 75.5819 38.4702 73.433 38.4702 73.3149C38.4702 73.1732 39.3072 72.1577 40.3602 71.0714C43.9512 67.2222 47.7852 62.0504 50.8632 56.9732C52.6452 54.0213 55.4802 48.4717 55.4802 47.905C55.4802 47.6216 54.6972 47.5744 50.0262 47.6216L44.5452 47.6924L42.5742 51.1166C35.4192 63.5146 25.8342 73.1732 14.6022 79.3131C13.2792 80.0452 12.0372 80.6356 11.8212 80.6356C11.5242 80.6356 11.4702 77.8018 11.4702 64.105V47.5744H6.20522H0.94022L0.91322 70.2921Z" fill="#9C182F"/>
<path d="M64.9302 70.481V93.3878H70.4652H76.0002V70.481V47.5743H70.4652H64.9302V70.481Z" fill="#9C182F"/>
<path d="M204.007 48.7551C202.846 48.9913 201.847 49.6289 201.064 50.668C200.2 51.7543 200.308 54.163 201.253 55.3201C202.873 57.3274 206.302 57.5872 208.408 55.8869C210.514 54.163 210.352 50.9041 208.111 49.5108C207.463 49.1094 205.465 48.4717 205.06 48.5426C204.979 48.5662 204.52 48.6607 204.007 48.7551ZM206.923 49.5817C207.355 49.7706 208.003 50.2429 208.381 50.6443C211.189 53.549 207.031 57.9414 203.224 56.0758C200.308 54.6353 200.281 50.9277 203.197 49.6525C204.331 49.133 205.897 49.1094 206.923 49.5817Z" fill="#9C182F"/>
<path d="M203.305 50.5971C203.224 50.668 203.17 51.707 203.17 52.935C203.17 54.6825 203.251 55.1312 203.548 55.1312C203.818 55.1312 203.98 54.8242 204.034 54.2338C204.115 53.4073 204.169 53.3601 205.033 53.4073C206.032 53.4309 206.41 53.7615 206.41 54.5881C206.41 54.9187 206.572 55.1312 206.815 55.1312C207.382 55.1312 207.355 53.856 206.761 53.3601C206.329 52.9822 206.329 52.935 206.761 52.7225C207.301 52.4627 207.382 51.282 206.896 50.9277C206.518 50.6916 203.521 50.4082 203.305 50.5971ZM205.978 51.2583C206.518 51.4473 206.545 52.1557 206.032 52.5099C205.816 52.6752 205.303 52.7697 204.871 52.7225C204.25 52.6752 204.088 52.5336 204.034 51.8723C203.953 51.1639 204.007 51.1166 204.763 51.1166C205.195 51.1166 205.735 51.1875 205.978 51.2583Z" fill="#9C182F"/>
</g>
<rect y="22" width="210" height="73" stroke="white" stroke-width="3"/>
</g>
</g>
<defs>
<filter id="filter0_dd_43_60" x="-5.5" y="20.5" width="221" height="84" filterUnits="userSpaceOnUse" color-interpolation-filters="sRGB">
<feFlood flood-opacity="0" result="BackgroundImageFix"/>
<feColorMatrix in="SourceAlpha" type="matrix" values="0 0 0 0 0 0 0 0 0 0 0 0 0 0 0 0 0 0 127 0" result="hardAlpha"/>
<feOffset dy="4"/>
<feGaussianBlur stdDeviation="2"/>
<feComposite in2="hardAlpha" operator="out"/>
<feColorMatrix type="matrix" values="0 0 0 0 0 0 0 0 0 0 0 0 0 0 0 0 0 0 0.25 0"/>
<feBlend mode="normal" in2="BackgroundImageFix" result="effect1_dropShadow_43_60"/>
<feColorMatrix in="SourceAlpha" type="matrix" values="0 0 0 0 0 0 0 0 0 0 0 0 0 0 0 0 0 0 127 0" result="hardAlpha"/>
<feOffset dy="4"/>
<feGaussianBlur stdDeviation="2"/>
<feComposite in2="hardAlpha" operator="out"/>
<feColorMatrix type="matrix" values="0 0 0 0 0 0 0 0 0 0 0 0 0 0 0 0 0 0 0.25 0"/>
<feBlend mode="normal" in2="effect1_dropShadow_43_60" result="effect2_dropShadow_43_60"/>
<feBlend mode="normal" in="SourceGraphic" in2="effect2_dropShadow_43_60" result="shape"/>
</filter>
<clipPath id="clip0_43_60">
<rect width="322" height="117" fill="white"/>
</clipPath>
<clipPath id="clip1_43_60">
<rect y="22" width="210" height="73" fill="white"/>
</clipPath>
</defs>
</svg>
