<svg width="322" height="117" viewBox="0 0 322 117" fill="none" xmlns="http://www.w3.org/2000/svg">
<rect width="322" height="117" fill="white"/>
<g clip-path="url(#clip0_130_14)">
<path d="M0 3C71.61 3 143.22 3 217 3C217 40.62 217 78.24 217 117C145.39 117 73.78 117 0 117C0 79.38 0 41.76 0 3Z" fill="#FDFDFD"/>
<path d="M60.6982 37.8486C65.3718 39.8593 68.5338 43.0839 70.525 47.5769C71.2783 52.3921 70.8619 56.2246 67.8125 60.2027C64.8527 63.4078 62.0652 65.6626 57.4075 66.0203C48.6105 66.2021 48.6105 66.2021 44.95 62.9231C41.2075 59.2338 39.7531 56.376 39.2344 51.3221C39.3605 47.435 40.9242 44.1554 43.7572 41.334C48.8348 37.1902 54.1631 36.0227 60.6982 37.8486Z" fill="#FBFBFB"/>
<path d="M80.6001 38.8077C86.0188 38.7399 86.0188 38.7399 91.547 38.6707C92.678 38.6507 93.809 38.6308 94.9743 38.6102C95.8753 38.6047 96.7763 38.5993 97.7046 38.5936C98.6218 38.5821 99.539 38.5707 100.484 38.5588C103.977 38.8944 106.531 40.0241 109.178 42.1875C110.556 44.9306 110.656 47.5306 110.05 50.5C107.957 53.132 106.436 54.2346 103.075 54.8846C103.626 55.5977 104.176 56.3108 104.743 57.0456C105.463 57.9846 106.182 58.9238 106.902 59.863C107.446 60.5674 107.446 60.5674 108.002 61.286C108.349 61.7405 108.696 62.195 109.054 62.6633C109.375 63.0805 109.695 63.4976 110.026 63.9274C110.825 65.1154 110.825 65.1154 111.6 67.3077C109.127 67.6474 109.127 67.6474 106.175 67.3077C104.534 65.7155 103.506 63.7951 102.349 61.8726C99.8787 58.1085 99.8787 58.1085 96.0532 55.7553C92.3212 55.1007 89.1254 55.3968 85.2501 55.6154C85.2501 59.4739 85.2501 63.3323 85.2501 67.3077C83.7156 67.3077 82.1811 67.3077 80.6001 67.3077C80.6001 57.9027 80.6001 48.4977 80.6001 38.8077Z" fill="#111111"/>
<path d="M67.6185 37.1178C71.7418 40.3872 75.3765 44.6048 76.1708 49.735C76.5195 54.5575 74.9434 58.2395 72.0748 62.1923C68.1181 66.3525 63.9097 69.1455 57.9704 69.754C51.7468 70.0015 46.9175 69.398 41.8498 65.8461C38.2716 62.6732 35.1787 59.4988 34.5872 54.7847C34.4739 49.0744 34.7204 44.7294 38.7498 40.2692C47.5054 32.4278 57.1761 32.0052 67.6185 37.1178ZM42.9608 42.3045C39.9034 46.1731 39.0553 49.4034 39.5248 54.1538C40.5636 59.3061 43.665 62.0869 48.0498 65.1154C52.0641 67.0079 58.1834 66.2808 62.3389 65.0697C66.3005 62.2453 70.0645 58.5579 70.8124 53.777C70.9416 48.7624 70.1565 45.5627 66.6498 41.7307C62.3882 37.9133 58.2907 36.9552 52.5333 37.0721C48.4451 37.5911 45.6486 39.4162 42.9608 42.3045Z" fill="#0D0D0D"/>
<path d="M161.975 38.8077C164.021 38.8077 166.067 38.8077 168.175 38.8077C172.145 45.8568 176.087 52.9183 179.897 60.0457C180.35 60.8862 180.35 60.8862 180.813 61.7438C182.9 65.6734 182.9 65.6734 182.9 67.3077C181.11 67.3077 179.32 67.3077 177.475 67.3077C176.955 66.3656 176.439 65.4213 175.925 64.4759C175.637 63.9503 175.35 63.4247 175.053 62.8831C174.375 61.4615 174.375 61.4615 174.375 60C171.354 59.9316 168.339 59.9363 165.317 59.9543C164.463 59.9341 163.608 59.9138 162.727 59.8929C160.225 59.9286 158.165 60.0227 155.775 60.7308C153.855 62.7233 152.82 64.7737 151.9 67.3077C150.11 67.3077 148.32 67.3077 146.475 67.3077C151.209 57.5647 156.384 48.1379 161.975 38.8077Z" fill="#090909"/>
<path d="M117.8 38.8077C126.495 38.8077 135.191 38.8077 144.15 38.8077C144.15 39.7723 144.15 40.7369 144.15 41.7308C136.989 41.7308 129.828 41.7308 122.45 41.7308C122.45 44.8658 122.45 48.0008 122.45 51.2308C127.821 51.2308 133.191 51.2308 138.725 51.2308C138.725 52.1954 138.725 53.16 138.725 54.1538C133.354 54.1538 127.983 54.1538 122.45 54.1538C122.45 57.53 122.45 60.9061 122.45 64.3846C129.611 64.3846 136.772 64.3846 144.15 64.3846C144.15 65.3492 144.15 66.3138 144.15 67.3077C135.454 67.3077 126.759 67.3077 117.8 67.3077C117.8 57.9027 117.8 48.4977 117.8 38.8077Z" fill="#040404"/>
<path d="M185.225 38.8077C186.76 38.8077 188.294 38.8077 189.875 38.8077C189.875 47.2481 189.875 55.6884 189.875 64.3846C197.292 64.3846 204.709 64.3846 212.35 64.3846C212.35 65.3492 212.35 66.3138 212.35 67.3077C203.399 67.3077 194.448 67.3077 185.225 67.3077C185.225 57.9027 185.225 48.4977 185.225 38.8077Z" fill="#101010"/>
<path d="M85.25 42.4615C88.1727 42.4025 91.0941 42.3589 94.0172 42.3245C94.8479 42.3061 95.6786 42.2878 96.5344 42.2688C97.3311 42.2618 98.1279 42.2547 98.9487 42.2474C100.051 42.2302 100.051 42.2302 101.175 42.2126C103.075 42.4615 103.075 42.4615 104.474 43.4112C106.039 45.5117 105.727 47.3011 105.4 49.7692C103.748 51.3251 102.706 51.9088 100.383 52.2104C99.6849 52.1989 98.9868 52.1875 98.2676 52.1756C97.1287 52.165 97.1287 52.165 95.9668 52.1542C94.786 52.1267 94.786 52.1267 93.5813 52.0985C92.782 52.0887 91.9828 52.0788 91.1594 52.0686C89.1894 52.0428 87.2197 52.0035 85.25 51.9615C85.25 48.8265 85.25 45.6915 85.25 42.4615Z" fill="#FCFCFC"/>
<path d="M4.6499 38.8077C5.92865 38.8077 7.2074 38.8077 8.5249 38.8077C8.5249 47.2481 8.5249 55.6884 8.5249 64.3846C15.9417 64.3846 23.3584 64.3846 30.9999 64.3846C30.9999 65.3492 30.9999 66.3138 30.9999 67.3077C22.3044 67.3077 13.6089 67.3077 4.6499 67.3077C4.6499 57.9027 4.6499 48.4977 4.6499 38.8077Z" fill="#070707"/>
<path d="M106.175 74.6154C115.959 74.4327 115.959 74.4327 118.575 76.0769C118.943 78.712 118.45 80.3869 117.025 82.6539C117.792 83.6185 118.559 84.5831 119.35 85.5769C117.945 85.3942 117.945 85.3942 116.25 84.8462C115.914 84.3639 115.578 83.8815 115.233 83.3846C113.943 81.6363 113.943 81.6363 111.067 81.375C110.22 81.3147 109.373 81.2544 108.5 81.1923C108.5 82.8804 108.5 84.5685 108.5 86.3077C107.733 86.3077 106.965 86.3077 106.175 86.3077C106.175 82.4492 106.175 78.5908 106.175 74.6154Z" fill="#2A2A2A"/>
<path d="M164.3 43.1923C164.812 43.1923 165.323 43.1923 165.85 43.1923C167.896 47.5331 169.942 51.8739 172.05 56.3462C167.447 56.3462 162.843 56.3462 158.1 56.3462C159.257 53.0741 160.427 50.3376 162.072 47.3029C162.49 46.5286 162.907 45.7542 163.337 44.9564C163.655 44.3743 163.973 43.7921 164.3 43.1923Z" fill="#F4F4F4"/>
<path d="M72.8501 74.6154C82.5141 74.3447 82.5141 74.3447 84.4206 75.6002C85.2501 76.8077 85.2501 76.8077 85.1048 78.726C84.4751 80.4615 84.4751 80.4615 82.9251 81.1923C81.6022 81.2434 80.2772 81.254 78.9532 81.238C78.2479 81.2314 77.5426 81.2248 76.8159 81.218C76.2744 81.2095 75.733 81.201 75.1751 81.1923C75.1751 82.8804 75.1751 84.5685 75.1751 86.3077C74.4078 86.3077 73.6406 86.3077 72.8501 86.3077C72.8501 82.4492 72.8501 78.5908 72.8501 74.6154Z" fill="#1D1D1D"/>
<path d="M92.9999 74.6154C94.3683 74.7096 94.3683 74.7096 96.0999 75.3461C97.5894 77.2844 97.5894 77.2844 99.0062 79.6851C99.4817 80.4754 99.9572 81.2658 100.447 82.08C101.525 84.1154 101.525 84.1154 101.525 85.5769C100.758 85.5769 99.9904 85.5769 99.1999 85.5769C98.9442 85.0946 98.6884 84.6123 98.4249 84.1154C97.0369 84.0563 95.6482 84.0137 94.2593 83.9783C93.486 83.9529 92.7128 83.9275 91.9161 83.9013C90.9181 84.0072 90.9181 84.0072 89.8999 84.1154C89.1327 85.2005 89.1327 85.2005 88.3499 86.3077C87.5827 86.3077 86.8154 86.3077 86.0249 86.3077C87.1355 83.4145 88.6068 80.9824 90.3843 78.4062C90.8738 77.6931 91.3633 76.98 91.8677 76.2453C92.4281 75.4385 92.4281 75.4385 92.9999 74.6154Z" fill="#1B1B1B"/>
<path d="M141.825 74.6154C143.762 75.6202 143.762 75.6202 144.925 76.8077C144.925 77.29 144.925 77.7723 144.925 78.2693C144.158 78.2693 143.39 78.2693 142.6 78.2693C142.6 77.7869 142.6 77.3046 142.6 76.8077C140.298 76.8077 137.996 76.8077 135.625 76.8077C135.625 77.29 135.625 77.7723 135.625 78.2693C139.845 79.3544 139.845 79.3544 144.15 80.4616C144.406 81.6673 144.661 82.8731 144.925 84.1154C141.754 86.2896 139.52 86.7084 135.625 86.3077C133.736 85.3029 133.736 85.3029 132.525 84.1154C132.525 83.6331 132.525 83.1508 132.525 82.6539C133.292 82.6539 134.059 82.6539 134.85 82.6539C134.85 83.1362 134.85 83.6185 134.85 84.1154C137.152 84.1154 139.453 84.1154 141.825 84.1154C141.825 83.3919 141.825 82.6685 141.825 81.9231C141.11 81.803 141.11 81.803 140.381 81.6805C139.754 81.5646 139.128 81.4487 138.483 81.3293C137.552 81.164 137.552 81.164 136.603 80.9954C134.668 80.4062 133.824 79.7158 132.525 78.2693C134.505 74.1349 137.239 74.1197 141.825 74.6154Z" fill="#1E1E1E"/>
<path d="M27.9 38.8077C29.1788 38.8077 30.4575 38.8077 31.775 38.8077C30.6189 42.4413 28.9815 45.6904 27.125 49.0384C25.8463 49.0384 24.5675 49.0384 23.25 49.0384C24.4061 45.4048 26.0435 42.1557 27.9 38.8077Z" fill="#141414"/>
<path d="M108.5 76.0769C109.63 76.0572 110.76 76.043 111.891 76.0312C112.52 76.0228 113.149 76.0143 113.798 76.0056C115.475 76.0769 115.475 76.0769 117.025 76.8077C116.769 77.7723 116.514 78.7369 116.25 79.7308C113.693 79.7308 111.135 79.7308 108.5 79.7308C108.5 78.525 108.5 77.3192 108.5 76.0769Z" fill="#E8E8E8"/>
<path d="M92.9999 74.6154C94.4409 74.7952 94.4409 74.7952 96.0999 75.3461C97.0808 76.6963 97.0808 76.6963 97.8437 78.3149C98.1034 78.8509 98.3631 79.3869 98.6308 79.9391C98.8186 80.3527 99.0064 80.7662 99.1999 81.1923C98.4327 81.4334 97.6654 81.6746 96.8749 81.923C95.724 79.7527 95.724 79.7527 94.5499 77.5384C94.0224 78.2167 94.0224 78.2167 93.4843 78.9086C92.2249 80.4615 92.2249 80.4615 90.6749 81.923C90.0937 80.7355 90.0937 80.7355 89.8999 79C91.4015 76.625 91.4015 76.625 92.9999 74.6154Z" fill="#232323"/>
<path d="M75.1748 76.0769C77.4766 76.0769 79.7783 76.0769 82.1498 76.0769C82.4056 77.0415 82.6613 78.0061 82.9248 79C82.1498 79.7308 82.1498 79.7308 80.5483 79.8021C79.91 79.7936 79.2716 79.7852 78.6139 79.7764C77.9735 79.7698 77.3331 79.7632 76.6733 79.7564C76.1788 79.748 75.6843 79.7395 75.1748 79.7308C75.1748 78.525 75.1748 77.3192 75.1748 76.0769Z" fill="#F4F4F4"/>
<path d="M141.825 74.6154C143.762 75.6202 143.762 75.6202 144.925 76.8077C144.925 77.29 144.925 77.7723 144.925 78.2693C144.158 78.2693 143.39 78.2693 142.6 78.2693C142.6 77.7869 142.6 77.3046 142.6 76.8077C141.502 76.7679 140.404 76.7397 139.306 76.7164C138.389 76.6909 138.389 76.6909 137.453 76.665C135.464 76.8203 134.236 77.3291 132.525 78.2693C134.505 74.1349 137.239 74.1197 141.825 74.6154Z" fill="#262626"/>
<path d="M124.775 78.2692C125.542 78.2692 126.309 78.2692 127.1 78.2692C127.1 80.9219 127.1 83.5746 127.1 86.3077C126.333 86.3077 125.565 86.3077 124.775 86.3077C124.775 83.655 124.775 81.0023 124.775 78.2692Z" fill="#252525"/>
<path d="M93.7752 76.8077C95.713 78.3965 96.4383 79.5338 96.8752 81.9231C95.0849 81.9231 93.2947 81.9231 91.4502 81.9231C92.9033 77.6298 92.9033 77.6298 93.7752 76.8077Z" fill="#DFDFDF"/>
<path d="M116.25 75.3461C117.017 75.5873 117.785 75.8284 118.575 76.0769C118.769 77.7668 118.769 77.7668 118.575 79.7307C117.025 81.0553 117.025 81.0553 115.475 81.9231C115.475 81.4407 115.475 80.9584 115.475 80.4615C113.173 80.4615 110.872 80.4615 108.5 80.4615C108.5 80.2204 108.5 79.9792 108.5 79.7307C111.058 79.4896 113.615 79.2484 116.25 79C116.506 78.2765 116.762 77.5531 117.025 76.8077C116.514 76.5665 116.002 76.3254 115.475 76.0769C115.731 75.8357 115.987 75.5946 116.25 75.3461Z" fill="#2A2A2A"/>
<path d="M97.6499 81.1923C99.1515 81.7404 99.1515 81.7404 100.75 82.6539C101.331 84.2067 101.331 84.2067 101.525 85.5769C100.758 85.5769 99.9904 85.5769 99.1999 85.5769C98.9442 85.0946 98.6884 84.6123 98.4249 84.1154C96.4207 83.7732 96.4207 83.7732 94.114 83.6587C92.9376 83.5767 92.9376 83.5767 91.7375 83.4931C90.8279 83.4394 90.8279 83.4394 89.8999 83.3846C89.8999 83.1435 89.8999 82.9023 89.8999 82.6539C90.6417 82.5874 90.6417 82.5874 91.3984 82.5197C92.359 82.4278 92.359 82.4278 93.339 82.3341C93.9773 82.2748 94.6157 82.2155 95.2734 82.1543C96.8645 82.0771 96.8645 82.0771 97.6499 81.1923Z" fill="#373737"/>
<path d="M93.7749 75.3461C94.5422 75.3461 95.3094 75.3461 96.0999 75.3461C97.1229 77.2754 98.1459 79.2046 99.1999 81.1923C98.4327 81.4334 97.6654 81.6746 96.8749 81.9231C95.8519 79.7527 94.8289 77.5823 93.7749 75.3461Z" fill="#111111"/>
<path d="M84.4748 76.8077C84.7306 77.7723 84.9863 78.7369 85.2498 79.7308C82.7893 81.125 81.2928 81.3099 78.4686 80.9183C77.8492 80.8372 77.2298 80.7562 76.5916 80.6728C76.1241 80.6031 75.6565 80.5333 75.1748 80.4615C75.1748 80.2204 75.1748 79.9792 75.1748 79.7308C75.6513 79.7034 76.1279 79.6761 76.6188 79.648C77.2452 79.5999 77.8716 79.5519 78.517 79.5024C79.1374 79.46 79.7578 79.4176 80.397 79.3739C82.4309 78.94 83.1637 78.3001 84.4748 76.8077Z" fill="#3C3C3C"/>
<path d="M132.561 34.1804C134.102 34.1933 135.64 34.3024 137.175 34.4231C135.093 35.7316 133.561 36.3673 131.217 37.0721C130.591 37.2624 129.964 37.4527 129.319 37.6487C128.843 37.79 128.366 37.9313 127.875 38.0769C130.116 34.5544 130.116 34.5544 132.561 34.1804Z" fill="#151515"/>
<path d="M132.525 82.6539C133.292 82.6539 134.059 82.6539 134.85 82.6539C134.85 83.1362 134.85 83.6185 134.85 84.1154C135.361 84.1154 135.873 84.1154 136.4 84.1154C136.4 84.5977 136.4 85.08 136.4 85.5769C137.934 85.5769 139.469 85.5769 141.05 85.5769C141.05 85.8181 141.05 86.0593 141.05 86.3077C136.128 86.5755 136.128 86.5755 133.736 85.3029C132.525 84.1154 132.525 84.1154 132.525 82.6539Z" fill="#353535"/>
<path d="M113.925 80.4615C114.436 80.4615 114.948 80.4615 115.475 80.4615C116.474 81.5805 116.474 81.5805 117.509 83.0192C117.855 83.494 118.201 83.9688 118.557 84.4579C118.818 84.8272 119.08 85.1965 119.35 85.5769C116.419 85.0231 116.419 85.0231 114.894 83.4303C113.925 81.9231 113.925 81.9231 113.925 80.4615Z" fill="#0A0A0A"/>
</g>
<defs>
<clipPath id="clip0_130_14">
<rect width="217" height="114" fill="white" transform="translate(0 3)"/>
</clipPath>
</defs>
</svg>
