<svg width="322" height="117" viewBox="0 0 322 117" fill="none" xmlns="http://www.w3.org/2000/svg">
<g clip-path="url(#clip0_135_134)">
<rect width="322" height="117" fill="white"/>
<g filter="url(#filter0_dd_135_134)">
<mask id="path-1-outside-1_135_134" maskUnits="userSpaceOnUse" x="1" y="32" width="199" height="39" fill="black">
<rect fill="white" x="1" y="32" width="199" height="39"/>
<path d="M2.64205 69V34.0909H11.0795V62.1477H25.6023V69H2.64205ZM34.9858 34.0909V37.9773C34.9858 39.0568 34.7699 40.1477 34.3381 41.25C33.9176 42.3409 33.3665 43.3636 32.6847 44.3182C32.0028 45.2727 31.2812 46.0795 30.5199 46.7386L26.9744 44.7955C27.4972 43.9318 27.9631 42.9602 28.3722 41.8807C28.7813 40.7898 28.9858 39.4943 28.9858 37.9943V34.0909H34.9858ZM72.6222 51.5455C72.6222 55.3864 71.8835 58.642 70.4062 61.3125C68.929 63.983 66.929 66.0114 64.4062 67.3977C61.8949 68.7841 59.0767 69.4773 55.9517 69.4773C52.8153 69.4773 49.9915 68.7784 47.4801 67.3807C44.9688 65.983 42.9744 63.9545 41.4972 61.2955C40.0312 58.625 39.2983 55.375 39.2983 51.5455C39.2983 47.7045 40.0312 44.4489 41.4972 41.7784C42.9744 39.108 44.9688 37.0795 47.4801 35.6932C49.9915 34.3068 52.8153 33.6136 55.9517 33.6136C59.0767 33.6136 61.8949 34.3068 64.4062 35.6932C66.929 37.0795 68.929 39.108 70.4062 41.7784C71.8835 44.4489 72.6222 47.7045 72.6222 51.5455ZM63.9972 51.5455C63.9972 49.2727 63.6733 47.3523 63.0256 45.7841C62.3892 44.2159 61.4688 43.0284 60.2642 42.2216C59.071 41.4148 57.6335 41.0114 55.9517 41.0114C54.2813 41.0114 52.8438 41.4148 51.6392 42.2216C50.4347 43.0284 49.5085 44.2159 48.8608 45.7841C48.2244 47.3523 47.9062 49.2727 47.9062 51.5455C47.9062 53.8182 48.2244 55.7386 48.8608 57.3068C49.5085 58.875 50.4347 60.0625 51.6392 60.8693C52.8438 61.6761 54.2813 62.0795 55.9517 62.0795C57.6335 62.0795 59.071 61.6761 60.2642 60.8693C61.4688 60.0625 62.3892 58.875 63.0256 57.3068C63.6733 55.7386 63.9972 53.8182 63.9972 51.5455ZM77.5483 69V34.0909H91.9688C94.5824 34.0909 96.8381 34.5625 98.7358 35.5057C100.645 36.4375 102.116 37.7784 103.151 39.5284C104.185 41.267 104.702 43.3295 104.702 45.7159C104.702 48.1364 104.173 50.1932 103.116 51.8864C102.06 53.5682 100.56 54.8523 98.6165 55.7386C96.6733 56.6136 94.3722 57.0511 91.7131 57.0511H82.5938V50.4034H90.1449C91.4176 50.4034 92.4801 50.2386 93.3324 49.9091C94.196 49.5682 94.8494 49.0568 95.2926 48.375C95.7358 47.6818 95.9574 46.7955 95.9574 45.7159C95.9574 44.6364 95.7358 43.7443 95.2926 43.0398C94.8494 42.3239 94.196 41.7898 93.3324 41.4375C92.4688 41.0739 91.4063 40.892 90.1449 40.892H85.9858V69H77.5483ZM97.2017 53.0455L105.895 69H96.6903L88.1676 53.0455H97.2017ZM109.33 69V34.0909H133.67V40.9432H117.767V48.1023H132.426V54.9716H117.767V62.1477H133.67V69H109.33ZM146.506 69H137.438L149.216 34.0909H160.449L172.227 69H163.159L154.96 42.8864H154.688L146.506 69ZM145.295 55.2614H164.25V61.6705H145.295V55.2614ZM175.986 69V34.0909H184.423V62.1477H198.946V69H175.986Z"/>
</mask>
<path d="M2.64205 69V34.0909H11.0795V62.1477H25.6023V69H2.64205ZM34.9858 34.0909V37.9773C34.9858 39.0568 34.7699 40.1477 34.3381 41.25C33.9176 42.3409 33.3665 43.3636 32.6847 44.3182C32.0028 45.2727 31.2812 46.0795 30.5199 46.7386L26.9744 44.7955C27.4972 43.9318 27.9631 42.9602 28.3722 41.8807C28.7813 40.7898 28.9858 39.4943 28.9858 37.9943V34.0909H34.9858ZM72.6222 51.5455C72.6222 55.3864 71.8835 58.642 70.4062 61.3125C68.929 63.983 66.929 66.0114 64.4062 67.3977C61.8949 68.7841 59.0767 69.4773 55.9517 69.4773C52.8153 69.4773 49.9915 68.7784 47.4801 67.3807C44.9688 65.983 42.9744 63.9545 41.4972 61.2955C40.0312 58.625 39.2983 55.375 39.2983 51.5455C39.2983 47.7045 40.0312 44.4489 41.4972 41.7784C42.9744 39.108 44.9688 37.0795 47.4801 35.6932C49.9915 34.3068 52.8153 33.6136 55.9517 33.6136C59.0767 33.6136 61.8949 34.3068 64.4062 35.6932C66.929 37.0795 68.929 39.108 70.4062 41.7784C71.8835 44.4489 72.6222 47.7045 72.6222 51.5455ZM63.9972 51.5455C63.9972 49.2727 63.6733 47.3523 63.0256 45.7841C62.3892 44.2159 61.4688 43.0284 60.2642 42.2216C59.071 41.4148 57.6335 41.0114 55.9517 41.0114C54.2813 41.0114 52.8438 41.4148 51.6392 42.2216C50.4347 43.0284 49.5085 44.2159 48.8608 45.7841C48.2244 47.3523 47.9062 49.2727 47.9062 51.5455C47.9062 53.8182 48.2244 55.7386 48.8608 57.3068C49.5085 58.875 50.4347 60.0625 51.6392 60.8693C52.8438 61.6761 54.2813 62.0795 55.9517 62.0795C57.6335 62.0795 59.071 61.6761 60.2642 60.8693C61.4688 60.0625 62.3892 58.875 63.0256 57.3068C63.6733 55.7386 63.9972 53.8182 63.9972 51.5455ZM77.5483 69V34.0909H91.9688C94.5824 34.0909 96.8381 34.5625 98.7358 35.5057C100.645 36.4375 102.116 37.7784 103.151 39.5284C104.185 41.267 104.702 43.3295 104.702 45.7159C104.702 48.1364 104.173 50.1932 103.116 51.8864C102.06 53.5682 100.56 54.8523 98.6165 55.7386C96.6733 56.6136 94.3722 57.0511 91.7131 57.0511H82.5938V50.4034H90.1449C91.4176 50.4034 92.4801 50.2386 93.3324 49.9091C94.196 49.5682 94.8494 49.0568 95.2926 48.375C95.7358 47.6818 95.9574 46.7955 95.9574 45.7159C95.9574 44.6364 95.7358 43.7443 95.2926 43.0398C94.8494 42.3239 94.196 41.7898 93.3324 41.4375C92.4688 41.0739 91.4063 40.892 90.1449 40.892H85.9858V69H77.5483ZM97.2017 53.0455L105.895 69H96.6903L88.1676 53.0455H97.2017ZM109.33 69V34.0909H133.67V40.9432H117.767V48.1023H132.426V54.9716H117.767V62.1477H133.67V69H109.33ZM146.506 69H137.438L149.216 34.0909H160.449L172.227 69H163.159L154.96 42.8864H154.688L146.506 69ZM145.295 55.2614H164.25V61.6705H145.295V55.2614ZM175.986 69V34.0909H184.423V62.1477H198.946V69H175.986Z" fill="black"/>
<path d="M2.64205 69H1.64205V70H2.64205V69ZM2.64205 34.0909V33.0909H1.64205V34.0909H2.64205ZM11.0795 34.0909H12.0795V33.0909H11.0795V34.0909ZM11.0795 62.1477H10.0795V63.1477H11.0795V62.1477ZM25.6023 62.1477H26.6023V61.1477H25.6023V62.1477ZM25.6023 69V70H26.6023V69H25.6023ZM3.64205 69V34.0909H1.64205V69H3.64205ZM2.64205 35.0909H11.0795V33.0909H2.64205V35.0909ZM10.0795 34.0909V62.1477H12.0795V34.0909H10.0795ZM11.0795 63.1477H25.6023V61.1477H11.0795V63.1477ZM24.6023 62.1477V69H26.6023V62.1477H24.6023ZM25.6023 68H2.64205V70H25.6023V68ZM34.9858 34.0909H35.9858V33.0909H34.9858V34.0909ZM34.3381 41.25L33.407 40.8852L33.405 40.8904L34.3381 41.25ZM32.6847 44.3182L33.4984 44.8994L33.4984 44.8994L32.6847 44.3182ZM30.5199 46.7386L30.0393 47.6156L30.6488 47.9497L31.1744 47.4947L30.5199 46.7386ZM26.9744 44.7955L26.1189 44.2777L25.5784 45.1707L26.4938 45.6724L26.9744 44.7955ZM28.3722 41.8807L29.3073 42.235L29.3085 42.2318L28.3722 41.8807ZM28.9858 34.0909V33.0909H27.9858V34.0909H28.9858ZM33.9858 34.0909V37.9773H35.9858V34.0909H33.9858ZM33.9858 37.9773C33.9858 38.9205 33.7977 39.8879 33.407 40.8852L35.2692 41.6148C35.7421 40.4075 35.9858 39.1932 35.9858 37.9773H33.9858ZM33.405 40.8904C33.0149 41.9024 32.5039 42.8507 31.8709 43.7369L33.4984 44.8994C34.229 43.8766 34.8203 42.7794 35.2712 41.6096L33.405 40.8904ZM31.8709 43.7369C31.2277 44.6374 30.5581 45.3829 29.8654 45.9826L31.1744 47.4947C32.0044 46.7762 32.7779 45.908 33.4984 44.8994L31.8709 43.7369ZM31.0005 45.8617L27.4551 43.9185L26.4938 45.6724L30.0393 47.6156L31.0005 45.8617ZM27.8299 45.3133C28.3882 44.3909 28.8797 43.3635 29.3073 42.235L27.437 41.5263C27.0465 42.557 26.6061 43.4727 26.1189 44.2777L27.8299 45.3133ZM29.3085 42.2318C29.7698 41.0015 29.9858 39.5814 29.9858 37.9943H27.9858C27.9858 39.4072 27.7927 40.578 27.4358 41.5296L29.3085 42.2318ZM29.9858 37.9943V34.0909H27.9858V37.9943H29.9858ZM28.9858 35.0909H34.9858V33.0909H28.9858V35.0909ZM70.4062 61.3125L69.5312 60.8284L69.5312 60.8284L70.4062 61.3125ZM64.4062 67.3977L63.9246 66.5213L63.923 66.5223L64.4062 67.3977ZM47.4801 67.3807L47.9664 66.5069L47.9664 66.5069L47.4801 67.3807ZM41.4972 61.2955L40.6205 61.7767L40.623 61.7811L41.4972 61.2955ZM41.4972 41.7784L40.6221 41.2943L40.6205 41.2972L41.4972 41.7784ZM47.4801 35.6932L47.9634 36.5686L47.9634 36.5686L47.4801 35.6932ZM64.4062 35.6932L63.923 36.5686L63.9246 36.5696L64.4062 35.6932ZM70.4062 41.7784L69.5312 42.2625L69.5312 42.2625L70.4062 41.7784ZM63.0256 45.7841L62.0989 46.1601L62.1013 46.1659L63.0256 45.7841ZM60.2642 42.2216L59.7041 43.05L59.7077 43.0524L60.2642 42.2216ZM51.6392 42.2216L52.1957 43.0524L52.1957 43.0524L51.6392 42.2216ZM48.8608 45.7841L47.9365 45.4023L47.9342 45.4081L48.8608 45.7841ZM48.8608 57.3068L47.9342 57.6828L47.9365 57.6886L48.8608 57.3068ZM51.6392 60.8693L52.1957 60.0385L52.1957 60.0385L51.6392 60.8693ZM60.2642 60.8693L59.7077 60.0385L59.7041 60.0409L60.2642 60.8693ZM63.0256 57.3068L62.1013 56.925L62.099 56.9308L63.0256 57.3068ZM71.6222 51.5455C71.6222 55.26 70.908 58.3397 69.5312 60.8284L71.2813 61.7966C72.8591 58.9444 73.6222 55.5127 73.6222 51.5455H71.6222ZM69.5312 60.8284C68.1396 63.344 66.2717 65.2315 63.9246 66.5213L64.8879 68.2741C67.5863 66.7912 69.7183 64.6219 71.2813 61.7966L69.5312 60.8284ZM63.923 66.5223C61.5726 67.8198 58.9232 68.4773 55.9517 68.4773V70.4773C59.2302 70.4773 62.2172 69.7484 64.8895 68.2732L63.923 66.5223ZM55.9517 68.4773C52.9696 68.4773 50.3157 67.8144 47.9664 66.5069L46.9938 68.2545C49.6672 69.7424 52.6611 70.4773 55.9517 70.4773V68.4773ZM47.9664 66.5069C45.6277 65.2052 43.7636 63.3158 42.3713 60.8098L40.623 61.7811C42.1853 64.5933 44.3098 66.7607 46.9938 68.2545L47.9664 66.5069ZM42.3738 60.8143C41.007 58.3245 40.2983 55.2492 40.2983 51.5455H38.2983C38.2983 55.5008 39.0555 58.9255 40.6205 61.7767L42.3738 60.8143ZM40.2983 51.5455C40.2983 47.8297 41.0073 44.749 42.3738 42.2596L40.6205 41.2972C39.0552 44.1488 38.2983 47.5794 38.2983 51.5455H40.2983ZM42.3722 42.2625C43.7644 39.7458 45.6275 37.8581 47.9634 36.5686L46.9968 34.8177C44.31 36.301 42.1845 38.4701 40.6221 41.2943L42.3722 42.2625ZM47.9634 36.5686C50.3132 35.2714 52.9682 34.6136 55.9517 34.6136V32.6136C52.6625 32.6136 49.6697 33.3422 46.9968 34.8177L47.9634 36.5686ZM55.9517 34.6136C58.9232 34.6136 61.5726 35.2711 63.923 36.5686L64.8895 34.8177C62.2172 33.3425 59.2302 32.6136 55.9517 32.6136V34.6136ZM63.9246 36.5696C66.2717 37.8594 68.1396 39.7469 69.5312 42.2625L71.2813 41.2943C69.7183 38.469 67.5863 36.2997 64.8879 34.8168L63.9246 36.5696ZM69.5312 42.2625C70.908 44.7512 71.6222 47.8309 71.6222 51.5455H73.6222C73.6222 47.5782 72.8591 44.1465 71.2813 41.2943L69.5312 42.2625ZM64.9972 51.5455C64.9972 49.1837 64.6614 47.1251 63.9498 45.4023L62.1013 46.1659C62.6852 47.5794 62.9972 49.3618 62.9972 51.5455H64.9972ZM63.9522 45.4081C63.2536 43.6865 62.2177 42.3264 60.8207 41.3907L59.7077 43.0524C60.7198 43.7304 61.5248 44.7453 62.099 46.1601L63.9522 45.4081ZM60.8244 41.3932C59.4395 40.4568 57.7989 40.0114 55.9517 40.0114V42.0114C57.4682 42.0114 58.7026 42.3728 59.7041 43.05L60.8244 41.3932ZM55.9517 40.0114C54.1141 40.0114 52.4759 40.4576 51.0827 41.3907L52.1957 43.0524C53.2116 42.372 54.4484 42.0114 55.9517 42.0114V40.0114ZM51.0827 41.3907C49.6874 42.3253 48.6466 43.6832 47.9365 45.4023L49.7851 46.1659C50.3704 44.7486 51.1819 43.7315 52.1957 43.0524L51.0827 41.3907ZM47.9342 45.4081C47.2358 47.129 46.9062 49.1855 46.9062 51.5455H48.9062C48.9062 49.36 49.213 47.5755 49.7874 46.1601L47.9342 45.4081ZM46.9062 51.5455C46.9062 53.9054 47.2358 55.9619 47.9342 57.6828L49.7874 56.9308C49.213 55.5154 48.9062 53.7309 48.9062 51.5455H46.9062ZM47.9365 57.6886C48.6466 59.4077 49.6874 60.7656 51.0827 61.7002L52.1957 60.0385C51.1819 59.3594 50.3704 58.3423 49.7851 56.9251L47.9365 57.6886ZM51.0827 61.7002C52.4759 62.6333 54.1141 63.0795 55.9517 63.0795V61.0795C54.4484 61.0795 53.2116 60.7189 52.1957 60.0385L51.0827 61.7002ZM55.9517 63.0795C57.7989 63.0795 59.4395 62.6342 60.8244 61.6977L59.7041 60.0409C58.7026 60.7181 57.4682 61.0795 55.9517 61.0795V63.0795ZM60.8207 61.7002C62.2177 60.7645 63.2536 59.4044 63.9522 57.6828L62.099 56.9308C61.5248 58.3456 60.7198 59.3605 59.7077 60.0385L60.8207 61.7002ZM63.9498 57.6886C64.6614 55.9658 64.9972 53.9072 64.9972 51.5455H62.9972C62.9972 53.7292 62.6852 55.5115 62.1013 56.9251L63.9498 57.6886ZM77.5483 69H76.5483V70H77.5483V69ZM77.5483 34.0909V33.0909H76.5483V34.0909H77.5483ZM98.7358 35.5057L98.2907 36.4012L98.2972 36.4043L98.7358 35.5057ZM103.151 39.5284L102.29 40.0371L102.291 40.0396L103.151 39.5284ZM103.116 51.8864L103.963 52.4184L103.965 52.4159L103.116 51.8864ZM98.6165 55.7386L99.0271 56.6505L99.0315 56.6485L98.6165 55.7386ZM82.5938 57.0511H81.5938V58.0511H82.5938V57.0511ZM82.5938 50.4034V49.4034H81.5938V50.4034H82.5938ZM93.3324 49.9091L93.693 50.8418L93.6996 50.8392L93.3324 49.9091ZM95.2926 48.375L96.1311 48.92L96.1351 48.9137L95.2926 48.375ZM95.2926 43.0398L94.4423 43.5661L94.4462 43.5722L95.2926 43.0398ZM93.3324 41.4375L92.9443 42.3592L92.9547 42.3634L93.3324 41.4375ZM85.9858 40.892V39.892H84.9858V40.892H85.9858ZM85.9858 69V70H86.9858V69H85.9858ZM97.2017 53.0455L98.0798 52.567L97.7956 52.0455H97.2017V53.0455ZM105.895 69V70H107.579L106.773 68.5215L105.895 69ZM96.6903 69L95.8083 69.4712L96.0908 70H96.6903V69ZM88.1676 53.0455V52.0455H86.4997L87.2856 53.5166L88.1676 53.0455ZM78.5483 69V34.0909H76.5483V69H78.5483ZM77.5483 35.0909H91.9688V33.0909H77.5483V35.0909ZM91.9688 35.0909C94.4633 35.0909 96.5598 35.5409 98.2907 36.4012L99.1809 34.6102C97.1163 33.5841 94.7015 33.0909 91.9688 33.0909V35.0909ZM98.2972 36.4043C100.039 37.2544 101.36 38.4635 102.29 40.0371L104.011 39.0197C102.873 37.0933 101.251 35.6206 99.1744 34.607L98.2972 36.4043ZM102.291 40.0396C103.218 41.5978 103.702 43.4769 103.702 45.7159H105.702C105.702 43.1822 105.151 40.9363 104.01 39.0172L102.291 40.0396ZM103.702 45.7159C103.702 47.9892 103.207 49.8533 102.268 51.3569L103.965 52.4159C105.14 50.533 105.702 48.2836 105.702 45.7159H103.702ZM102.27 51.3543C101.325 52.8582 99.9809 54.0171 98.2015 54.8288L99.0315 56.6485C101.138 55.6874 102.795 54.2782 103.963 52.4184L102.27 51.3543ZM98.2059 54.8268C96.4196 55.6312 94.2647 56.0511 91.7131 56.0511V58.0511C94.4797 58.0511 96.927 57.5961 99.0271 56.6505L98.2059 54.8268ZM91.7131 56.0511H82.5938V58.0511H91.7131V56.0511ZM83.5938 57.0511V50.4034H81.5938V57.0511H83.5938ZM82.5938 51.4034H90.1449V49.4034H82.5938V51.4034ZM90.1449 51.4034C91.496 51.4034 92.6902 51.2296 93.693 50.8418L92.9717 48.9764C92.2701 49.2477 91.3392 49.4034 90.1449 49.4034V51.4034ZM93.6996 50.8392C94.728 50.4333 95.559 49.8 96.1311 48.92L94.4542 47.83C94.1398 48.3136 93.664 48.7031 92.9652 48.9789L93.6996 50.8392ZM96.1351 48.9137C96.7087 48.0166 96.9574 46.9279 96.9574 45.7159H94.9574C94.9574 46.663 94.7629 47.347 94.4501 47.8363L96.1351 48.9137ZM96.9574 45.7159C96.9574 44.503 96.7083 43.4123 96.1391 42.5073L94.4462 43.5722C94.7633 44.0764 94.9574 44.7697 94.9574 45.7159H96.9574ZM96.1429 42.5134C95.5764 41.5984 94.7474 40.9347 93.7101 40.5116L92.9547 42.3634C93.6447 42.6449 94.1224 43.0494 94.4423 43.5661L96.1429 42.5134ZM93.7204 40.5159C92.6994 40.0859 91.496 39.892 90.1449 39.892V41.892C91.3165 41.892 92.2381 42.0618 92.9443 42.3591L93.7204 40.5159ZM90.1449 39.892H85.9858V41.892H90.1449V39.892ZM84.9858 40.892V69H86.9858V40.892H84.9858ZM85.9858 68H77.5483V70H85.9858V68ZM96.3236 53.5239L105.017 69.4785L106.773 68.5215L98.0798 52.567L96.3236 53.5239ZM105.895 68H96.6903V70H105.895V68ZM97.5724 68.5288L89.0497 52.5743L87.2856 53.5166L95.8083 69.4712L97.5724 68.5288ZM88.1676 54.0455H97.2017V52.0455H88.1676V54.0455ZM109.33 69H108.33V70H109.33V69ZM109.33 34.0909V33.0909H108.33V34.0909H109.33ZM133.67 34.0909H134.67V33.0909H133.67V34.0909ZM133.67 40.9432V41.9432H134.67V40.9432H133.67ZM117.767 40.9432V39.9432H116.767V40.9432H117.767ZM117.767 48.1023H116.767V49.1023H117.767V48.1023ZM132.426 48.1023H133.426V47.1023H132.426V48.1023ZM132.426 54.9716V55.9716H133.426V54.9716H132.426ZM117.767 54.9716V53.9716H116.767V54.9716H117.767ZM117.767 62.1477H116.767V63.1477H117.767V62.1477ZM133.67 62.1477H134.67V61.1477H133.67V62.1477ZM133.67 69V70H134.67V69H133.67ZM110.33 69V34.0909H108.33V69H110.33ZM109.33 35.0909H133.67V33.0909H109.33V35.0909ZM132.67 34.0909V40.9432H134.67V34.0909H132.67ZM133.67 39.9432H117.767V41.9432H133.67V39.9432ZM116.767 40.9432V48.1023H118.767V40.9432H116.767ZM117.767 49.1023H132.426V47.1023H117.767V49.1023ZM131.426 48.1023V54.9716H133.426V48.1023H131.426ZM132.426 53.9716H117.767V55.9716H132.426V53.9716ZM116.767 54.9716V62.1477H118.767V54.9716H116.767ZM117.767 63.1477H133.67V61.1477H117.767V63.1477ZM132.67 62.1477V69H134.67V62.1477H132.67ZM133.67 68H109.33V70H133.67V68ZM146.506 69V70H147.24L147.46 69.299L146.506 69ZM137.438 69L136.49 68.6803L136.045 70H137.438V69ZM149.216 34.0909V33.0909H148.498L148.268 33.7712L149.216 34.0909ZM160.449 34.0909L161.396 33.7712L161.167 33.0909H160.449V34.0909ZM172.227 69V70H173.62L173.175 68.6803L172.227 69ZM163.159 69L162.205 69.2996L162.425 70H163.159V69ZM154.96 42.8864L155.914 42.5868L155.694 41.8864H154.96V42.8864ZM154.688 42.8864V41.8864H153.953L153.733 42.5874L154.688 42.8864ZM145.295 55.2614V54.2614H144.295V55.2614H145.295ZM164.25 55.2614H165.25V54.2614H164.25V55.2614ZM164.25 61.6705V62.6705H165.25V61.6705H164.25ZM145.295 61.6705H144.295V62.6705H145.295V61.6705ZM146.506 68H137.438V70H146.506V68ZM138.385 69.3197L150.163 34.4106L148.268 33.7712L136.49 68.6803L138.385 69.3197ZM149.216 35.0909H160.449V33.0909H149.216V35.0909ZM159.501 34.4106L171.28 69.3197L173.175 68.6803L161.396 33.7712L159.501 34.4106ZM172.227 68H163.159V70H172.227V68ZM164.113 68.7004L155.914 42.5868L154.006 43.1859L162.205 69.2996L164.113 68.7004ZM154.96 41.8864H154.688V43.8864H154.96V41.8864ZM153.733 42.5874L145.551 68.701L147.46 69.299L155.642 43.1853L153.733 42.5874ZM145.295 56.2614H164.25V54.2614H145.295V56.2614ZM163.25 55.2614V61.6705H165.25V55.2614H163.25ZM164.25 60.6705H145.295V62.6705H164.25V60.6705ZM146.295 61.6705V55.2614H144.295V61.6705H146.295ZM175.986 69H174.986V70H175.986V69ZM175.986 34.0909V33.0909H174.986V34.0909H175.986ZM184.423 34.0909H185.423V33.0909H184.423V34.0909ZM184.423 62.1477H183.423V63.1477H184.423V62.1477ZM198.946 62.1477H199.946V61.1477H198.946V62.1477ZM198.946 69V70H199.946V69H198.946ZM176.986 69V34.0909H174.986V69H176.986ZM175.986 35.0909H184.423V33.0909H175.986V35.0909ZM183.423 34.0909V62.1477H185.423V34.0909H183.423ZM184.423 63.1477H198.946V61.1477H184.423V63.1477ZM197.946 62.1477V69H199.946V62.1477H197.946ZM198.946 68H175.986V70H198.946V68Z" fill="black" mask="url(#path-1-outside-1_135_134)"/>
<path d="M2.64205 69H1.64205V70H2.64205V69ZM2.64205 34.0909V33.0909H1.64205V34.0909H2.64205ZM11.0795 34.0909H12.0795V33.0909H11.0795V34.0909ZM11.0795 62.1477H10.0795V63.1477H11.0795V62.1477ZM25.6023 62.1477H26.6023V61.1477H25.6023V62.1477ZM25.6023 69V70H26.6023V69H25.6023ZM3.64205 69V34.0909H1.64205V69H3.64205ZM2.64205 35.0909H11.0795V33.0909H2.64205V35.0909ZM10.0795 34.0909V62.1477H12.0795V34.0909H10.0795ZM11.0795 63.1477H25.6023V61.1477H11.0795V63.1477ZM24.6023 62.1477V69H26.6023V62.1477H24.6023ZM25.6023 68H2.64205V70H25.6023V68ZM34.9858 34.0909H35.9858V33.0909H34.9858V34.0909ZM34.3381 41.25L33.407 40.8852L33.405 40.8904L34.3381 41.25ZM32.6847 44.3182L33.4984 44.8994L33.4984 44.8994L32.6847 44.3182ZM30.5199 46.7386L30.0393 47.6156L30.6488 47.9497L31.1744 47.4947L30.5199 46.7386ZM26.9744 44.7955L26.1189 44.2777L25.5784 45.1707L26.4938 45.6724L26.9744 44.7955ZM28.3722 41.8807L29.3073 42.235L29.3085 42.2318L28.3722 41.8807ZM28.9858 34.0909V33.0909H27.9858V34.0909H28.9858ZM33.9858 34.0909V37.9773H35.9858V34.0909H33.9858ZM33.9858 37.9773C33.9858 38.9205 33.7977 39.8879 33.407 40.8852L35.2692 41.6148C35.7421 40.4075 35.9858 39.1932 35.9858 37.9773H33.9858ZM33.405 40.8904C33.0149 41.9024 32.5039 42.8507 31.8709 43.7369L33.4984 44.8994C34.229 43.8766 34.8203 42.7794 35.2712 41.6096L33.405 40.8904ZM31.8709 43.7369C31.2277 44.6374 30.5581 45.3829 29.8654 45.9826L31.1744 47.4947C32.0044 46.7762 32.7779 45.908 33.4984 44.8994L31.8709 43.7369ZM31.0005 45.8617L27.4551 43.9185L26.4938 45.6724L30.0393 47.6156L31.0005 45.8617ZM27.8299 45.3133C28.3882 44.3909 28.8797 43.3635 29.3073 42.235L27.437 41.5263C27.0465 42.557 26.6061 43.4727 26.1189 44.2777L27.8299 45.3133ZM29.3085 42.2318C29.7698 41.0015 29.9858 39.5814 29.9858 37.9943H27.9858C27.9858 39.4072 27.7927 40.578 27.4358 41.5296L29.3085 42.2318ZM29.9858 37.9943V34.0909H27.9858V37.9943H29.9858ZM28.9858 35.0909H34.9858V33.0909H28.9858V35.0909ZM70.4062 61.3125L69.5312 60.8284L69.5312 60.8284L70.4062 61.3125ZM64.4062 67.3977L63.9246 66.5213L63.923 66.5223L64.4062 67.3977ZM47.4801 67.3807L47.9664 66.5069L47.9664 66.5069L47.4801 67.3807ZM41.4972 61.2955L40.6205 61.7767L40.623 61.7811L41.4972 61.2955ZM41.4972 41.7784L40.6221 41.2943L40.6205 41.2972L41.4972 41.7784ZM47.4801 35.6932L47.9634 36.5686L47.9634 36.5686L47.4801 35.6932ZM64.4062 35.6932L63.923 36.5686L63.9246 36.5696L64.4062 35.6932ZM70.4062 41.7784L69.5312 42.2625L69.5312 42.2625L70.4062 41.7784ZM63.0256 45.7841L62.0989 46.1601L62.1013 46.1659L63.0256 45.7841ZM60.2642 42.2216L59.7041 43.05L59.7077 43.0524L60.2642 42.2216ZM51.6392 42.2216L52.1957 43.0524L52.1957 43.0524L51.6392 42.2216ZM48.8608 45.7841L47.9365 45.4023L47.9342 45.4081L48.8608 45.7841ZM48.8608 57.3068L47.9342 57.6828L47.9365 57.6886L48.8608 57.3068ZM51.6392 60.8693L52.1957 60.0385L52.1957 60.0385L51.6392 60.8693ZM60.2642 60.8693L59.7077 60.0385L59.7041 60.0409L60.2642 60.8693ZM63.0256 57.3068L62.1013 56.925L62.099 56.9308L63.0256 57.3068ZM71.6222 51.5455C71.6222 55.26 70.908 58.3397 69.5312 60.8284L71.2813 61.7966C72.8591 58.9444 73.6222 55.5127 73.6222 51.5455H71.6222ZM69.5312 60.8284C68.1396 63.344 66.2717 65.2315 63.9246 66.5213L64.8879 68.2741C67.5863 66.7912 69.7183 64.6219 71.2813 61.7966L69.5312 60.8284ZM63.923 66.5223C61.5726 67.8198 58.9232 68.4773 55.9517 68.4773V70.4773C59.2302 70.4773 62.2172 69.7484 64.8895 68.2732L63.923 66.5223ZM55.9517 68.4773C52.9696 68.4773 50.3157 67.8144 47.9664 66.5069L46.9938 68.2545C49.6672 69.7424 52.6611 70.4773 55.9517 70.4773V68.4773ZM47.9664 66.5069C45.6277 65.2052 43.7636 63.3158 42.3713 60.8098L40.623 61.7811C42.1853 64.5933 44.3098 66.7607 46.9938 68.2545L47.9664 66.5069ZM42.3738 60.8143C41.007 58.3245 40.2983 55.2492 40.2983 51.5455H38.2983C38.2983 55.5008 39.0555 58.9255 40.6205 61.7767L42.3738 60.8143ZM40.2983 51.5455C40.2983 47.8297 41.0073 44.749 42.3738 42.2596L40.6205 41.2972C39.0552 44.1488 38.2983 47.5794 38.2983 51.5455H40.2983ZM42.3722 42.2625C43.7644 39.7458 45.6275 37.8581 47.9634 36.5686L46.9968 34.8177C44.31 36.301 42.1845 38.4701 40.6221 41.2943L42.3722 42.2625ZM47.9634 36.5686C50.3132 35.2714 52.9682 34.6136 55.9517 34.6136V32.6136C52.6625 32.6136 49.6697 33.3422 46.9968 34.8177L47.9634 36.5686ZM55.9517 34.6136C58.9232 34.6136 61.5726 35.2711 63.923 36.5686L64.8895 34.8177C62.2172 33.3425 59.2302 32.6136 55.9517 32.6136V34.6136ZM63.9246 36.5696C66.2717 37.8594 68.1396 39.7469 69.5312 42.2625L71.2813 41.2943C69.7183 38.469 67.5863 36.2997 64.8879 34.8168L63.9246 36.5696ZM69.5312 42.2625C70.908 44.7512 71.6222 47.8309 71.6222 51.5455H73.6222C73.6222 47.5782 72.8591 44.1465 71.2813 41.2943L69.5312 42.2625ZM64.9972 51.5455C64.9972 49.1837 64.6614 47.1251 63.9498 45.4023L62.1013 46.1659C62.6852 47.5794 62.9972 49.3618 62.9972 51.5455H64.9972ZM63.9522 45.4081C63.2536 43.6865 62.2177 42.3264 60.8207 41.3907L59.7077 43.0524C60.7198 43.7304 61.5248 44.7453 62.099 46.1601L63.9522 45.4081ZM60.8244 41.3932C59.4395 40.4568 57.7989 40.0114 55.9517 40.0114V42.0114C57.4682 42.0114 58.7026 42.3728 59.7041 43.05L60.8244 41.3932ZM55.9517 40.0114C54.1141 40.0114 52.4759 40.4576 51.0827 41.3907L52.1957 43.0524C53.2116 42.372 54.4484 42.0114 55.9517 42.0114V40.0114ZM51.0827 41.3907C49.6874 42.3253 48.6466 43.6832 47.9365 45.4023L49.7851 46.1659C50.3704 44.7486 51.1819 43.7315 52.1957 43.0524L51.0827 41.3907ZM47.9342 45.4081C47.2358 47.129 46.9062 49.1855 46.9062 51.5455H48.9062C48.9062 49.36 49.213 47.5755 49.7874 46.1601L47.9342 45.4081ZM46.9062 51.5455C46.9062 53.9054 47.2358 55.9619 47.9342 57.6828L49.7874 56.9308C49.213 55.5154 48.9062 53.7309 48.9062 51.5455H46.9062ZM47.9365 57.6886C48.6466 59.4077 49.6874 60.7656 51.0827 61.7002L52.1957 60.0385C51.1819 59.3594 50.3704 58.3423 49.7851 56.9251L47.9365 57.6886ZM51.0827 61.7002C52.4759 62.6333 54.1141 63.0795 55.9517 63.0795V61.0795C54.4484 61.0795 53.2116 60.7189 52.1957 60.0385L51.0827 61.7002ZM55.9517 63.0795C57.7989 63.0795 59.4395 62.6342 60.8244 61.6977L59.7041 60.0409C58.7026 60.7181 57.4682 61.0795 55.9517 61.0795V63.0795ZM60.8207 61.7002C62.2177 60.7645 63.2536 59.4044 63.9522 57.6828L62.099 56.9308C61.5248 58.3456 60.7198 59.3605 59.7077 60.0385L60.8207 61.7002ZM63.9498 57.6886C64.6614 55.9658 64.9972 53.9072 64.9972 51.5455H62.9972C62.9972 53.7292 62.6852 55.5115 62.1013 56.9251L63.9498 57.6886ZM77.5483 69H76.5483V70H77.5483V69ZM77.5483 34.0909V33.0909H76.5483V34.0909H77.5483ZM98.7358 35.5057L98.2907 36.4012L98.2972 36.4043L98.7358 35.5057ZM103.151 39.5284L102.29 40.0371L102.291 40.0396L103.151 39.5284ZM103.116 51.8864L103.963 52.4184L103.965 52.4159L103.116 51.8864ZM98.6165 55.7386L99.0271 56.6505L99.0315 56.6485L98.6165 55.7386ZM82.5938 57.0511H81.5938V58.0511H82.5938V57.0511ZM82.5938 50.4034V49.4034H81.5938V50.4034H82.5938ZM93.3324 49.9091L93.693 50.8418L93.6996 50.8392L93.3324 49.9091ZM95.2926 48.375L96.1311 48.92L96.1351 48.9137L95.2926 48.375ZM95.2926 43.0398L94.4423 43.5661L94.4462 43.5722L95.2926 43.0398ZM93.3324 41.4375L92.9443 42.3592L92.9547 42.3634L93.3324 41.4375ZM85.9858 40.892V39.892H84.9858V40.892H85.9858ZM85.9858 69V70H86.9858V69H85.9858ZM97.2017 53.0455L98.0798 52.567L97.7956 52.0455H97.2017V53.0455ZM105.895 69V70H107.579L106.773 68.5215L105.895 69ZM96.6903 69L95.8083 69.4712L96.0908 70H96.6903V69ZM88.1676 53.0455V52.0455H86.4997L87.2856 53.5166L88.1676 53.0455ZM78.5483 69V34.0909H76.5483V69H78.5483ZM77.5483 35.0909H91.9688V33.0909H77.5483V35.0909ZM91.9688 35.0909C94.4633 35.0909 96.5598 35.5409 98.2907 36.4012L99.1809 34.6102C97.1163 33.5841 94.7015 33.0909 91.9688 33.0909V35.0909ZM98.2972 36.4043C100.039 37.2544 101.36 38.4635 102.29 40.0371L104.011 39.0197C102.873 37.0933 101.251 35.6206 99.1744 34.607L98.2972 36.4043ZM102.291 40.0396C103.218 41.5978 103.702 43.4769 103.702 45.7159H105.702C105.702 43.1822 105.151 40.9363 104.01 39.0172L102.291 40.0396ZM103.702 45.7159C103.702 47.9892 103.207 49.8533 102.268 51.3569L103.965 52.4159C105.14 50.533 105.702 48.2836 105.702 45.7159H103.702ZM102.27 51.3543C101.325 52.8582 99.9809 54.0171 98.2015 54.8288L99.0315 56.6485C101.138 55.6874 102.795 54.2782 103.963 52.4184L102.27 51.3543ZM98.2059 54.8268C96.4196 55.6312 94.2647 56.0511 91.7131 56.0511V58.0511C94.4797 58.0511 96.927 57.5961 99.0271 56.6505L98.2059 54.8268ZM91.7131 56.0511H82.5938V58.0511H91.7131V56.0511ZM83.5938 57.0511V50.4034H81.5938V57.0511H83.5938ZM82.5938 51.4034H90.1449V49.4034H82.5938V51.4034ZM90.1449 51.4034C91.496 51.4034 92.6902 51.2296 93.693 50.8418L92.9717 48.9764C92.2701 49.2477 91.3392 49.4034 90.1449 49.4034V51.4034ZM93.6996 50.8392C94.728 50.4333 95.559 49.8 96.1311 48.92L94.4542 47.83C94.1398 48.3136 93.664 48.7031 92.9652 48.9789L93.6996 50.8392ZM96.1351 48.9137C96.7087 48.0166 96.9574 46.9279 96.9574 45.7159H94.9574C94.9574 46.663 94.7629 47.347 94.4501 47.8363L96.1351 48.9137ZM96.9574 45.7159C96.9574 44.503 96.7083 43.4123 96.1391 42.5073L94.4462 43.5722C94.7633 44.0764 94.9574 44.7697 94.9574 45.7159H96.9574ZM96.1429 42.5134C95.5764 41.5984 94.7474 40.9347 93.7101 40.5116L92.9547 42.3634C93.6447 42.6449 94.1224 43.0494 94.4423 43.5661L96.1429 42.5134ZM93.7204 40.5159C92.6994 40.0859 91.496 39.892 90.1449 39.892V41.892C91.3165 41.892 92.2381 42.0618 92.9443 42.3591L93.7204 40.5159ZM90.1449 39.892H85.9858V41.892H90.1449V39.892ZM84.9858 40.892V69H86.9858V40.892H84.9858ZM85.9858 68H77.5483V70H85.9858V68ZM96.3236 53.5239L105.017 69.4785L106.773 68.5215L98.0798 52.567L96.3236 53.5239ZM105.895 68H96.6903V70H105.895V68ZM97.5724 68.5288L89.0497 52.5743L87.2856 53.5166L95.8083 69.4712L97.5724 68.5288ZM88.1676 54.0455H97.2017V52.0455H88.1676V54.0455ZM109.33 69H108.33V70H109.33V69ZM109.33 34.0909V33.0909H108.33V34.0909H109.33ZM133.67 34.0909H134.67V33.0909H133.67V34.0909ZM133.67 40.9432V41.9432H134.67V40.9432H133.67ZM117.767 40.9432V39.9432H116.767V40.9432H117.767ZM117.767 48.1023H116.767V49.1023H117.767V48.1023ZM132.426 48.1023H133.426V47.1023H132.426V48.1023ZM132.426 54.9716V55.9716H133.426V54.9716H132.426ZM117.767 54.9716V53.9716H116.767V54.9716H117.767ZM117.767 62.1477H116.767V63.1477H117.767V62.1477ZM133.67 62.1477H134.67V61.1477H133.67V62.1477ZM133.67 69V70H134.67V69H133.67ZM110.33 69V34.0909H108.33V69H110.33ZM109.33 35.0909H133.67V33.0909H109.33V35.0909ZM132.67 34.0909V40.9432H134.67V34.0909H132.67ZM133.67 39.9432H117.767V41.9432H133.67V39.9432ZM116.767 40.9432V48.1023H118.767V40.9432H116.767ZM117.767 49.1023H132.426V47.1023H117.767V49.1023ZM131.426 48.1023V54.9716H133.426V48.1023H131.426ZM132.426 53.9716H117.767V55.9716H132.426V53.9716ZM116.767 54.9716V62.1477H118.767V54.9716H116.767ZM117.767 63.1477H133.67V61.1477H117.767V63.1477ZM132.67 62.1477V69H134.67V62.1477H132.67ZM133.67 68H109.33V70H133.67V68ZM146.506 69V70H147.24L147.46 69.299L146.506 69ZM137.438 69L136.49 68.6803L136.045 70H137.438V69ZM149.216 34.0909V33.0909H148.498L148.268 33.7712L149.216 34.0909ZM160.449 34.0909L161.396 33.7712L161.167 33.0909H160.449V34.0909ZM172.227 69V70H173.62L173.175 68.6803L172.227 69ZM163.159 69L162.205 69.2996L162.425 70H163.159V69ZM154.96 42.8864L155.914 42.5868L155.694 41.8864H154.96V42.8864ZM154.688 42.8864V41.8864H153.953L153.733 42.5874L154.688 42.8864ZM145.295 55.2614V54.2614H144.295V55.2614H145.295ZM164.25 55.2614H165.25V54.2614H164.25V55.2614ZM164.25 61.6705V62.6705H165.25V61.6705H164.25ZM145.295 61.6705H144.295V62.6705H145.295V61.6705ZM146.506 68H137.438V70H146.506V68ZM138.385 69.3197L150.163 34.4106L148.268 33.7712L136.49 68.6803L138.385 69.3197ZM149.216 35.0909H160.449V33.0909H149.216V35.0909ZM159.501 34.4106L171.28 69.3197L173.175 68.6803L161.396 33.7712L159.501 34.4106ZM172.227 68H163.159V70H172.227V68ZM164.113 68.7004L155.914 42.5868L154.006 43.1859L162.205 69.2996L164.113 68.7004ZM154.96 41.8864H154.688V43.8864H154.96V41.8864ZM153.733 42.5874L145.551 68.701L147.46 69.299L155.642 43.1853L153.733 42.5874ZM145.295 56.2614H164.25V54.2614H145.295V56.2614ZM163.25 55.2614V61.6705H165.25V55.2614H163.25ZM164.25 60.6705H145.295V62.6705H164.25V60.6705ZM146.295 61.6705V55.2614H144.295V61.6705H146.295ZM175.986 69H174.986V70H175.986V69ZM175.986 34.0909V33.0909H174.986V34.0909H175.986ZM184.423 34.0909H185.423V33.0909H184.423V34.0909ZM184.423 62.1477H183.423V63.1477H184.423V62.1477ZM198.946 62.1477H199.946V61.1477H198.946V62.1477ZM198.946 69V70H199.946V69H198.946ZM176.986 69V34.0909H174.986V69H176.986ZM175.986 35.0909H184.423V33.0909H175.986V35.0909ZM183.423 34.0909V62.1477H185.423V34.0909H183.423ZM184.423 63.1477H198.946V61.1477H184.423V63.1477ZM197.946 62.1477V69H199.946V62.1477H197.946ZM198.946 68H175.986V70H198.946V68Z" fill="black" fill-opacity="0.2" mask="url(#path-1-outside-1_135_134)"/>
</g>
<a href="https://raw.githubusercontent.com/pkasaragod24/Brand_Images/refs/heads/main/TWB.svg?token=GHSAT0AAAAAADAURL55YRDVRZNFNQ3S52GMZ6YAJ7Q">
<rect fill="black" fill-opacity="0" y="-0.0454559" width="27.3239" height="58.0909"/>
</a>
</g>
<defs>
<filter id="filter0_dd_135_134" x="-2.35791" y="32.6136" width="206.304" height="45.8636" filterUnits="userSpaceOnUse" color-interpolation-filters="sRGB">
<feFlood flood-opacity="0" result="BackgroundImageFix"/>
<feColorMatrix in="SourceAlpha" type="matrix" values="0 0 0 0 0 0 0 0 0 0 0 0 0 0 0 0 0 0 127 0" result="hardAlpha"/>
<feOffset dy="4"/>
<feGaussianBlur stdDeviation="2"/>
<feComposite in2="hardAlpha" operator="out"/>
<feColorMatrix type="matrix" values="0 0 0 0 0 0 0 0 0 0 0 0 0 0 0 0 0 0 0.25 0"/>
<feBlend mode="normal" in2="BackgroundImageFix" result="effect1_dropShadow_135_134"/>
<feColorMatrix in="SourceAlpha" type="matrix" values="0 0 0 0 0 0 0 0 0 0 0 0 0 0 0 0 0 0 127 0" result="hardAlpha"/>
<feOffset dy="4"/>
<feGaussianBlur stdDeviation="2"/>
<feComposite in2="hardAlpha" operator="out"/>
<feColorMatrix type="matrix" values="0 0 0 0 0 0 0 0 0 0 0 0 0 0 0 0 0 0 0.25 0"/>
<feBlend mode="normal" in2="effect1_dropShadow_135_134" result="effect2_dropShadow_135_134"/>
<feBlend mode="normal" in="SourceGraphic" in2="effect2_dropShadow_135_134" result="shape"/>
</filter>
<clipPath id="clip0_135_134">
<rect width="322" height="117" fill="white"/>
</clipPath>
</defs>
</svg>
