<?xml version="1.0" encoding="UTF-8"?>
<svg version="1.1" xmlns="http://www.w3.org/2000/svg" width="322" height="117">
<path d="M0 0 C106.26 0 212.52 0 322 0 C322 38.61 322 77.22 322 117 C215.74 117 109.48 117 0 117 C0 78.39 0 39.78 0 0 Z " fill="#FDFCFC" transform="translate(0,0)"/>
<path d="M0 0 C0.66 0.66 1.32 1.32 2 2 C2.33 2 2.66 2 3 2 C2.505 1.01 2.505 1.01 2 0 C9.26457399 -0.48430493 9.26457399 -0.48430493 12.5625 1.6875 C14 4 14 4 14.125 6.5 C13 9 13 9 10.16015625 10.7421875 C6.48310952 13.36929876 5.26664514 15.58916644 3.3125 19.625 C0.29166667 25.80555556 0.29166667 25.80555556 -3 28 C-2.505 29.010625 -2.01 30.02125 -1.5 31.0625 C0.09865171 34.86698364 0.61526738 37.84694521 0 42 C-3.32564636 46.43419514 -6.95764725 48.12147643 -12 50 C-12.2532832 53.03939845 -12.36762594 54.50983207 -10.5 57 C-9 59 -9 59 -8.5 61.375 C-9.37456235 65.96645234 -12.78947763 68.78947763 -16 72 C-16.37311779 67.64695917 -15.24707038 65.65148937 -13 62 C-13 60.68 -13 59.36 -13 58 C-14.94125344 56.26526288 -16.94272868 54.5954349 -19 53 C-19.33 52.34 -19.66 51.68 -20 51 C-20.33 53.31 -20.66 55.62 -21 58 C-22.32 58 -23.64 58 -25 58 C-25.12375 58.763125 -25.2475 59.52625 -25.375 60.3125 C-26 63 -26 63 -28 66 C-29.26493447 62.20519658 -28.89988258 59.87641726 -28 56 C-26 54.3125 -26 54.3125 -24 53 C-23.61614523 51.68032413 -23.28913158 50.34361148 -23 49 C-22.53996799 47.70139536 -22.06034105 46.40958467 -21.5625 45.125 C-20.28358965 41.77726408 -19.10790033 38.4089241 -18 35 C-16.35 35 -14.7 35 -13 35 C-13.33 33.68 -13.66 32.36 -14 31 C-14.5878125 31.7115625 -14.5878125 31.7115625 -15.1875 32.4375 C-17.40808374 34.35179633 -19.13375709 34.61266988 -22 35 C-22.06058594 35.63808594 -22.12117188 36.27617188 -22.18359375 36.93359375 C-22.26738281 37.75988281 -22.35117187 38.58617187 -22.4375 39.4375 C-22.51871094 40.26121094 -22.59992187 41.08492187 -22.68359375 41.93359375 C-23 44 -23 44 -24 45 C-25.99958364 45.04080783 -28.00045254 45.04254356 -30 45 C-29.773125 45.763125 -29.54625 46.52625 -29.3125 47.3125 C-29.1578125 48.6428125 -29.1578125 48.6428125 -29 50 C-30.3125 51.625 -30.3125 51.625 -32 53 C-32.66 53.99 -33.32 54.98 -34 56 C-34.08226668 52.95613276 -33.97608217 50.92824652 -33 48 C-32.96079185 46.00038436 -32.95556653 43.99950636 -33 42 C-30.03 41.505 -30.03 41.505 -27 41 C-27.33 39.02 -27.66 37.04 -28 35 C-30.0162233 35.71563266 -30.0162233 35.71563266 -32 37 C-32.80528889 39.05000871 -32.80528889 39.05000871 -33 41 C-34.65 41 -36.3 41 -38 41 C-36.515 40.505 -36.515 40.505 -35 40 C-34.8453125 38.824375 -34.8453125 38.824375 -34.6875 37.625 C-34 35 -34 35 -31 33 C-30.835 32.01 -30.67 31.02 -30.5 30 C-30.2525 28.515 -30.2525 28.515 -30 27 C-29.01 26.34 -28.02 25.68 -27 25 C-27.99 24.01 -28.98 23.02 -30 22 C-28.02 22.33 -26.04 22.66 -24 23 C-24 20.69 -24 18.38 -24 16 C-23.37351562 15.74347656 -22.74703125 15.48695312 -22.1015625 15.22265625 C-17.06797498 12.9755622 -17.06797498 12.9755622 -13.95703125 8.6640625 C-13.48849533 6.43059051 -13.15370205 4.27578196 -13 2 C-3.92307692 -0.46153846 -3.92307692 -0.46153846 0 0 Z " fill="#EDEDED" transform="translate(39,25)"/>
<path d="M0 0 C3.37881283 -0.28526562 6.6296604 -0.4294465 10 0 C13.03825942 3.13032789 13.7195175 6.6992684 14 11 C13.01 12.485 13.01 12.485 12 14 C12.845625 13.4225 13.69125 12.845 14.5625 12.25 C18 11 18 11 19.95703125 11.69140625 C21.69274465 12.70596785 23.3529493 13.84706451 25 15 C25 16.98 25 18.96 25 21 C26.65 20.67 28.3 20.34 30 20 C30 20.66 30 21.32 30 22 C27.69 22.33 25.38 22.66 23 23 C22.71125 22.360625 22.4225 21.72125 22.125 21.0625 C21.17176549 18.84793921 21.17176549 18.84793921 19 18 C19 18.66 19 19.32 19 20 C18.34 20 17.68 20 17 20 C17.33 21.65 17.66 23.3 18 25 C19.093125 24.938125 20.18625 24.87625 21.3125 24.8125 C25 25 25 25 26.9375 26.125 C28.42170077 28.74417783 28 31.02598736 28 34 C28.9793879 35.02019573 29.97895449 36.02149805 31 37 C31.1875 39.6875 31.1875 39.6875 31 42 C30.443125 41.21625 29.88625 40.4325 29.3125 39.625 C26.92331435 36.91295142 25.39926587 36.03866457 22 35 C21.67 36.32 21.34 37.64 21 39 C22.65 39 24.3 39 26 39 C26.33 41.64 26.66 44.28 27 47 C25.68 46.34 24.36 45.68 23 45 C23 44.01 23 43.02 23 42 C21.68 42 20.36 42 19 42 C18.896875 40.906875 18.79375 39.81375 18.6875 38.6875 C18.02692273 35.14440371 17.7972908 34.06756277 15 32 C12.36201092 34.3906776 11.05271595 36.10768614 10.83984375 39.7109375 C10.90402185 41.66708603 11.00708102 43.62241583 11.15234375 45.57421875 C11.10207031 46.37472656 11.05179688 47.17523438 11 48 C10.01 48.66 9.02 49.32 8 50 C8.0928125 48.3603125 8.0928125 48.3603125 8.1875 46.6875 C7.97851185 42.57739978 7.70603668 42.58838291 5 40 C5.28736849 37.12631508 6.08596715 34.74209856 7 32 C4.36 31.01 1.72 30.02 -1 29 C-1.68041782 23.72676192 0.75213663 19.60611289 3 15 C4.65 15 6.3 15 8 15 C7.401875 14.9175 6.80375 14.835 6.1875 14.75 C3.37067727 13.78423221 2.52200868 12.51131433 1 10 C1 9.34 1 8.68 1 8 C1.66 8 2.32 8 3 8 C2.690625 7.236875 2.38125 6.47375 2.0625 5.6875 C1.32106407 3.81210323 0.63771783 1.91315348 0 0 Z " fill="#BE7D77" transform="translate(53,26)"/>
<path d="M0 0 C6 0 6 0 8.8515625 2.5546875 C9.79310332 3.64698064 10.71727515 4.75444701 11.625 5.875 C15.60049154 10.8309394 15.60049154 10.8309394 21 14 C22.06345325 12.79250553 23.12570461 11.58395254 24.1875 10.375 C25.15042969 9.28832031 25.15042969 9.28832031 26.1328125 8.1796875 C27.7115095 6.33677343 29.13108108 4.45533696 30.5625 2.5 C31.366875 1.675 32.17125 0.85 33 0 C34.98 0 36.96 0 39 0 C39 12.54 39 25.08 39 38 C37.02 38 35.04 38 33 38 C32.67 29.09 32.34 20.18 32 11 C26.08650009 16.66101116 26.08650009 16.66101116 21 23 C18 23 18 23 16.31640625 21.42578125 C15.73761719 20.72839844 15.15882812 20.03101562 14.5625 19.3125 C13.98628906 18.62800781 13.41007812 17.94351563 12.81640625 17.23828125 C10.86600694 14.83488597 8.93356654 12.41695817 7 10 C6.67 19.24 6.34 28.48 6 38 C4.02 38 2.04 38 0 38 C0 25.46 0 12.92 0 0 Z " fill="#E7227B" transform="translate(91,46)"/>
<path d="M0 0 C2.97 0.33 5.94 0.66 9 1 C11.17087257 6.15582235 12.85824 10.31416003 12 16 C8.67435364 20.43419514 5.04235275 22.12147643 0 24 C-0.2532832 27.03939845 -0.36762594 28.50983207 1.5 31 C3 33 3 33 3.5 35.375 C2.62543765 39.96645234 -0.78947763 42.78947763 -4 46 C-4.37311779 41.64695917 -3.24707038 39.65148937 -1 36 C-1 34.68 -1 33.36 -1 32 C-2.94125344 30.26526288 -4.94272868 28.5954349 -7 27 C-7.33 26.34 -7.66 25.68 -8 25 C-8.33 27.31 -8.66 29.62 -9 32 C-10.32 32 -11.64 32 -13 32 C-13.12375 32.763125 -13.2475 33.52625 -13.375 34.3125 C-14 37 -14 37 -16 40 C-17.26493447 36.20519658 -16.89988258 33.87641726 -16 30 C-14 28.3125 -14 28.3125 -12 27 C-11.61614523 25.68032413 -11.28913158 24.34361148 -11 23 C-10.53996799 21.70139536 -10.06034105 20.40958467 -9.5625 19.125 C-8.28358965 15.77726408 -7.10790033 12.4089241 -6 9 C-4.35 9 -2.7 9 -1 9 C-1.20625 8.071875 -1.4125 7.14375 -1.625 6.1875 C-2 3 -2 3 0 0 Z " fill="#F4F4F4" transform="translate(27,51)"/>
<path d="M0 0 C7.92 0 15.84 0 24 0 C24 1.32 24 2.64 24 4 C18.06 4 12.12 4 6 4 C6 7.63 6 11.26 6 15 C11.94 15 17.88 15 24 15 C24 16.65 24 18.3 24 20 C18.06 20 12.12 20 6 20 C6 23.96 6 27.92 6 32 C11.94 32 17.88 32 24 32 C24 33.32 24 34.64 24 36 C16.08 36 8.16 36 0 36 C0 24.12 0 12.24 0 0 Z " fill="#EA207A" transform="translate(259,47)"/>
<path d="M0 0 C7.59 0 15.18 0 23 0 C23 1.32 23 2.64 23 4 C17.39 4 11.78 4 6 4 C6 7.63 6 11.26 6 15 C11.61 15 17.22 15 23 15 C23 16.65 23 18.3 23 20 C17.39 20 11.78 20 6 20 C6 23.96 6 27.92 6 32 C11.94 32 17.88 32 24 32 C24 33.32 24 34.64 24 36 C16.08 36 8.16 36 0 36 C0 24.12 0 12.24 0 0 Z " fill="#E91C78" transform="translate(160,47)"/>
<path d="M0 0 C1.98 0 3.96 0 6 0 C6 10.56 6 21.12 6 32 C12.27 32 18.54 32 25 32 C25 33.32 25 34.64 25 36 C16.75 36 8.5 36 0 36 C0 24.12 0 12.24 0 0 Z " fill="#E81976" transform="translate(226,47)"/>
<path d="M0 0 C1.98 0 3.96 0 6 0 C6 10.56 6 21.12 6 32 C12.27 32 18.54 32 25 32 C25 33.32 25 34.64 25 36 C16.75 36 8.5 36 0 36 C0 24.12 0 12.24 0 0 Z " fill="#E91875" transform="translate(193,47)"/>
<path d="M0 0 C2.375 -0.1875 2.375 -0.1875 5 0 C5.66 0.99 6.32 1.98 7 3 C6.34 3 5.68 3 5 3 C5 3.66 5 4.32 5 5 C4.34 5 3.68 5 3 5 C3.33 6.65 3.66 8.3 4 10 C5.093125 9.938125 6.18625 9.87625 7.3125 9.8125 C11 10 11 10 12.9375 11.125 C14.42170077 13.74417783 14 16.02598736 14 19 C14.9793879 20.02019573 15.97895449 21.02149805 17 22 C17.1875 24.6875 17.1875 24.6875 17 27 C16.443125 26.21625 15.88625 25.4325 15.3125 24.625 C12.92331435 21.91295142 11.39926587 21.03866457 8 20 C7.67 21.32 7.34 22.64 7 24 C8.65 24 10.3 24 12 24 C12.33 26.64 12.66 29.28 13 32 C11.68 31.34 10.36 30.68 9 30 C9 29.01 9 28.02 9 27 C7.68 27 6.36 27 5 27 C4.896875 25.906875 4.79375 24.81375 4.6875 23.6875 C3.9907232 19.95024259 3.78636825 19.2505282 1 17 C0.566875 16.34 0.13375 15.68 -0.3125 15 C-1.9677452 12.74075013 -1.9677452 12.74075013 -5.125 11.625 C-8 10 -8 10 -9 6.9375 C-9 4 -9 4 -7 2 C-6.01 2 -5.02 2 -4 2 C-4.33 3.98 -4.66 5.96 -5 8 C-4.34 7.67 -3.68 7.34 -3 7 C-3 5.35 -3 3.7 -3 2 C-2.01 2 -1.02 2 0 2 C0 1.34 0 0.68 0 0 Z " fill="#F1F2EF" transform="translate(67,41)"/>
<path d="M0 0 C7.26457399 -0.48430493 7.26457399 -0.48430493 10.5625 1.6875 C12 4 12 4 12.125 6.5 C11 9 11 9 8.1640625 10.73828125 C4.47263953 13.37696508 3.2259248 15.64047971 1.25 19.6875 C-1.82422452 25.91211226 -1.82422452 25.91211226 -4 27 C-5.62626103 26.91783699 -7.25130642 26.81036109 -8.875 26.6875 C-11.54059954 26.56221007 -11.54059954 26.56221007 -14 27 C-16.71036916 29.80996083 -16.71036916 29.80996083 -18 33 C-18.66 32.67 -19.32 32.34 -20 32 C-19.00123262 29.05957297 -17.88375931 26.48313728 -16 24 C-13.9765625 23.29296875 -13.9765625 23.29296875 -11.6875 22.875 C-7.92506198 21.96682531 -7.14207509 21.22737664 -5.03515625 17.85546875 C-4.1116646 15.98492575 -3.26767612 14.10530183 -2.47143555 12.17724609 C-0.67876896 7.90834129 1.16821164 5.6001421 5 3 C3.35 2.34 1.7 1.68 0 1 C0 0.67 0 0.34 0 0 Z " fill="#25221D" transform="translate(41,25)"/>
<path d="M0 0 C-0.06960937 0.556875 -0.13921875 1.11375 -0.2109375 1.6875 C-0.56559524 6.6864853 -0.15381125 9.36824764 3.0625 13.3125 C3.63097656 13.92738281 4.19945312 14.54226562 4.78515625 15.17578125 C6 17 6 17 5.875 19.12109375 C4.47766064 22.1216305 1.9333152 22.75178077 -1 24 C-1 24.66 -1 25.32 -1 26 C-0.01 26.66 0.98 27.32 2 28 C1.125 32.875 1.125 32.875 0 34 C-0.04080783 35.99958364 -0.04254356 38.00045254 0 40 C-0.99 39.67 -1.98 39.34 -3 39 C-3.12375 37.9275 -3.2475 36.855 -3.375 35.75 C-3.91682099 32.49907407 -4.54350842 30.82195244 -6 28 C-6.875 25 -6.875 25 -7 22 C-5.125 19.9375 -5.125 19.9375 -3 18 C-2.20318682 15.35815459 -2.20318682 15.35815459 -2 13 C-2.928125 12.566875 -2.928125 12.566875 -3.875 12.125 C-6 11 -6 11 -8 9 C-8.5 6.625 -8.5 6.625 -8 4 C-3.02702703 0 -3.02702703 0 0 0 Z " fill="#2A2723" transform="translate(38,72)"/>
<path d="M0 0 C1.98 0 3.96 0 6 0 C6 12.54 6 25.08 6 38 C4.02 38 2.04 38 0 38 C0 25.46 0 12.92 0 0 Z " fill="#E7217B" transform="translate(142,46)"/>
<path d="M0 0 C2.97162859 2.97162859 2.92364384 5.30006858 3.375 9.4375 C3 13 3 13 0.9375 15.75 C-2.3327396 18.25486438 -5.15761444 19.56852303 -9 21 C-9.2532832 24.03939845 -9.36762594 25.50983207 -7.5 28 C-6 30 -6 30 -5.5 32.375 C-6.37456235 36.96645234 -9.78947763 39.78947763 -13 43 C-13.37311779 38.64695917 -12.24707038 36.65148937 -10 33 C-10 31.68 -10 30.36 -10 29 C-10.825 28.360625 -11.65 27.72125 -12.5 27.0625 C-15 25 -15 25 -15.3125 22.25 C-15.209375 21.5075 -15.10625 20.765 -15 20 C-13.906875 19.5875 -12.81375 19.175 -11.6875 18.75 C-8.84470059 17.17762998 -8.11227485 16.32811752 -7.04296875 13.203125 C-6.59829646 11.07077835 -6.16854522 8.93526463 -5.75390625 6.796875 C-5 4 -5 4 -2.3125 1.25 C-1.549375 0.8375 -0.78625 0.425 0 0 Z " fill="#26231E" transform="translate(36,54)"/>
<path d="M0 0 C-3 2 -3 2 -5.046875 2.78515625 C-7.80842796 4.50284219 -8.17340348 6.41258516 -9.25 9.4375 C-11.43415897 14.6903683 -11.43415897 14.6903683 -14.02734375 16.109375 C-15.44197121 16.48797331 -16.85993828 16.85435502 -18.28125 17.20703125 C-20.16376269 17.84616685 -20.16376269 17.84616685 -20.78125 19.76171875 C-21.05265163 21.17352913 -21.29740884 22.5907159 -21.515625 24.01171875 C-22.29925175 27.22838017 -24.60393813 28.83770026 -27 31 C-28.01656081 32.65661761 -29.02065076 34.32111559 -30 36 C-30.99 36.495 -30.99 36.495 -32 37 C-32.65213292 39.02463255 -32.65213292 39.02463255 -33 41 C-34.65 41 -36.3 41 -38 41 C-36.515 40.505 -36.515 40.505 -35 40 C-34.8453125 38.824375 -34.8453125 38.824375 -34.6875 37.625 C-34 35 -34 35 -31 33 C-30.835 32.01 -30.67 31.02 -30.5 30 C-30.2525 28.515 -30.2525 28.515 -30 27 C-29.01 26.34 -28.02 25.68 -27 25 C-27.99 24.01 -28.98 23.02 -30 22 C-28.02 22.33 -26.04 22.66 -24 23 C-24 20.69 -24 18.38 -24 16 C-23.37351562 15.74347656 -22.74703125 15.48695312 -22.1015625 15.22265625 C-17.06797498 12.9755622 -17.06797498 12.9755622 -13.95703125 8.6640625 C-13.48849533 6.43059051 -13.15370205 4.27578196 -13 2 C-4.57142857 -0.28571429 -4.57142857 -0.28571429 0 0 Z " fill="#2A2924" transform="translate(39,25)"/>
<path d="M0 0 C0.66 0 1.32 0 2 0 C2.20625 0.928125 2.4125 1.85625 2.625 2.8125 C4.37217066 6.86275925 6.15444827 7.11813426 10 9 C11.0625 11.4375 11.0625 11.4375 11 14 C10.50371094 14.59683594 10.00742188 15.19367187 9.49609375 15.80859375 C7.56911448 18.63114041 7.78203465 20.25561893 8 23.625 C8.1875 26.5390625 8.1875 26.5390625 8 29 C7.01 29.66 6.02 30.32 5 31 C5.0928125 29.3603125 5.0928125 29.3603125 5.1875 27.6875 C4.97851185 23.57739978 4.70603668 23.58838291 2 21 C2.28736849 18.12631508 3.08596715 15.74209856 4 13 C1.36 12.01 -1.28 11.02 -4 10 C-4.4025937 6.47730515 -4.13372795 5.20059192 -2.125 2.1875 C-1.42375 1.465625 -0.7225 0.74375 0 0 Z " fill="#231F1B" transform="translate(56,45)"/>
<path d="M0 0 C1.216875 0.268125 2.43375 0.53625 3.6875 0.8125 C2.6046875 1.67875 2.6046875 1.67875 1.5 2.5625 C-2.0738554 6.04549467 -3.35981096 10.5542619 -5.00390625 15.16796875 C-6.3125 17.8125 -6.3125 17.8125 -8.23828125 19.125 C-10.3125 19.8125 -10.3125 19.8125 -13.9375 20.625 C-17.49661589 21.45504135 -17.49661589 21.45504135 -18.75 24.4375 C-18.935625 25.22125 -19.12125 26.005 -19.3125 26.8125 C-19.6425 26.8125 -19.9725 26.8125 -20.3125 26.8125 C-20.24160226 23.73811638 -20.05491032 20.80335301 -19.3125 17.8125 C-16.86727027 15.74345946 -15.52158881 14.8125 -12.3125 14.8125 C-12.15394531 14.14863281 -11.99539062 13.48476563 -11.83203125 12.80078125 C-8.19706948 -0.95584202 -8.19706948 -0.95584202 0 0 Z " fill="#211E19" transform="translate(40.3125,27.1875)"/>
<path d="M0 0 C2.475 0.99 2.475 0.99 5 2 C4.01 2.495 4.01 2.495 3 3 C3.66 4.65 4.32 6.3 5 8 C4.34 8 3.68 8 3 8 C3.495 8.61875 3.99 9.2375 4.5 9.875 C6 12 6 12 6 14 C7.65 14.33 9.3 14.66 11 15 C11 15.33 11 15.66 11 16 C9.35 16 7.7 16 6 16 C5.01 18.475 5.01 18.475 4 21 C3.67 20.01 3.34 19.02 3 18 C2.01 18.66 1.02 19.32 0 20 C-2.6875 20.125 -2.6875 20.125 -5 20 C-5.33 19.01 -5.66 18.02 -6 17 C-6.66 17 -7.32 17 -8 17 C-6.65365543 12.5937814 -4.80625626 10.56922298 -1 8 C-0.34 8 0.32 8 1 8 C1.20970559 3.85906302 1.20970559 3.85906302 0 0 Z " fill="#D0CDCD" transform="translate(51,26)"/>
<path d="M0 0 C2.5 1.6875 2.5 1.6875 5 4 C5.3125 6.5 5.3125 6.5 5 9 C5 10.32 5 11.64 5 13 C5.33 13.33 5.66 13.66 6 14 C6.30055072 17.70679227 5.71817471 19.76578879 4 23 C3.62331656 24.65740715 3.27942455 26.32345271 3 28 C1.59583294 25.37888816 0.3830153 22.96836854 0 20 C0.66 19.01 1.32 18.02 2 17 C-0.475 16.01 -0.475 16.01 -3 15 C-2 10 -1 5 0 0 Z " fill="#2F2D29" transform="translate(60,78)"/>
<path d="M0 0 C2.86724686 0.57344937 3.8614515 0.8614515 6 3 C5.625 6.625 5.625 6.625 5 10 C5.804375 10.226875 6.60875 10.45375 7.4375 10.6875 C10 12 10 12 10.8125 14.0625 C11.37046512 22.80395349 11.37046512 22.80395349 11 26 C10.34 26.66 9.68 27.32 9 28 C8.32741333 25.66836622 7.66152556 23.3347961 7 21 C6.773125 20.21625 6.54625 19.4325 6.3125 18.625 C6.209375 18.08875 6.10625 17.5525 6 17 C6.33 16.67 6.66 16.34 7 16 C6.195625 15.690625 5.39125 15.38125 4.5625 15.0625 C2 14 2 14 1 13 C0.92765321 10.47690571 1.00364978 7.96851553 1.0625 5.4453125 C1.11545494 2.85988991 1.11545494 2.85988991 0 0 Z " fill="#302D29" transform="translate(65,65)"/>
<path d="M0 0 C1.5 1.375 1.5 1.375 3 3 C3 3.66 3 4.32 3 5 C4.093125 4.938125 5.18625 4.87625 6.3125 4.8125 C10 5 10 5 11.9375 6.125 C13.42170077 8.74417783 13 11.02598736 13 14 C13.9793879 15.02019573 14.97895449 16.02149805 16 17 C16.1875 19.6875 16.1875 19.6875 16 22 C15.4225 21.21625 14.845 20.4325 14.25 19.625 C12.17102363 17.19952756 10.90959667 16.14305583 8 15 C8.33 13.35 8.66 11.7 9 10 C6.03 10 3.06 10 0 10 C-0.87890625 3.06640625 -0.87890625 3.06640625 -1 1 C-0.67 0.67 -0.34 0.34 0 0 Z " fill="#2A2623" transform="translate(68,46)"/>
<path d="M0 0 C0.99 0.33 1.98 0.66 3 1 C2.85962479 2.81293089 2.71255111 4.6253443 2.5625 6.4375 C2.48128906 7.44683594 2.40007813 8.45617187 2.31640625 9.49609375 C2 12 2 12 1 13 C-0.99958364 13.04080783 -3.00045254 13.04254356 -5 13 C-4.773125 13.763125 -4.54625 14.52625 -4.3125 15.3125 C-4.209375 16.199375 -4.10625 17.08625 -4 18 C-5.3125 19.625 -5.3125 19.625 -7 21 C-7.66 21.99 -8.32 22.98 -9 24 C-9.08226668 20.95613276 -8.97608217 18.92824652 -8 16 C-7.96079185 14.00038436 -7.95556653 11.99950636 -8 10 C-6.02 9.67 -4.04 9.34 -2 9 C-2.3403125 7.6078125 -2.3403125 7.6078125 -2.6875 6.1875 C-3 3 -3 3 -1.5625 1.125 C-1.046875 0.75375 -0.53125 0.3825 0 0 Z " fill="#2D2B27" transform="translate(14,57)"/>
<path d="M0 0 C0.99 0.33 1.98 0.66 3 1 C2.938125 2.0725 2.87625 3.145 2.8125 4.25 C3.01538828 8.30776562 3.59247659 8.99059574 6 12 C6.5 14.375 6.5 14.375 6 17 C3.83577594 19.9046165 1.55726477 22.44273523 -1 25 C-1.37311779 20.64695917 -0.24707038 18.65148937 2 15 C2 13.68 2 12.36 2 11 C1.175 10.360625 0.35 9.72125 -0.5 9.0625 C-3 7 -3 7 -3.5 4.375 C-3 2 -3 2 0 0 Z " fill="#302D29" transform="translate(24,72)"/>
<path d="M0 0 C1.62463842 -0.05395478 3.24978541 -0.09277195 4.875 -0.125 C5.77992187 -0.14820312 6.68484375 -0.17140625 7.6171875 -0.1953125 C10 0 10 0 12 2 C12.125 5.625 12.125 5.625 12 9 C5.68380463 9.48586118 5.68380463 9.48586118 2.625 7.3125 C0.86565598 4.80881813 0.33533277 3.01799494 0 0 Z " fill="#322D29" transform="translate(53,26)"/>
<path d="M0 0 C1.32 0.33 2.64 0.66 4 1 C3.01 1.495 3.01 1.495 2 2 C2.66 2.66 3.32 3.32 4 4 C4.125 7.125 4.125 7.125 4 10 C1 10 1 10 -2 9 C-1.67 9.99 -1.34 10.98 -1 12 C-1.66 12 -2.32 12 -3 12 C-3.33 12.99 -3.66 13.98 -4 15 C-5.72107623 7.33183857 -5.72107623 7.33183857 -3.953125 4.06640625 C-2.5625 2.4375 -2.5625 2.4375 0 0 Z " fill="#F0F0F0" transform="translate(68,57)"/>
<path d="M0 0 C5.56818182 0.56818182 5.56818182 0.56818182 7 2 C7.25 4.4375 7.25 4.4375 7 7 C4 9 4 9 1.375 8.6875 C-1 8 -1 8 -2 7 C-2.1875 4.5625 -2.1875 4.5625 -2 2 C-1.34 1.34 -0.68 0.68 0 0 Z " fill="#EDC2D8" transform="translate(292,46)"/>
<path d="M0 0 C1.32 0.33 2.64 0.66 4 1 C2.68 3.64 1.36 6.28 0 9 C-1.65 9 -3.3 9 -5 9 C-5.103125 9.639375 -5.20625 10.27875 -5.3125 10.9375 C-5.539375 11.618125 -5.76625 12.29875 -6 13 C-6.99 13.33 -7.98 13.66 -9 14 C-9.33 14.99 -9.66 15.98 -10 17 C-9.32829194 13.1936543 -8.27253436 9.64793184 -7 6 C-5.35 6 -3.7 6 -2 6 C-1.855625 5.195625 -1.71125 4.39125 -1.5625 3.5625 C-1 1 -1 1 0 0 Z " fill="#35332E" transform="translate(28,54)"/>
<path d="M0 0 C0.99 0.33 1.98 0.66 3 1 C2.39542969 1.69867187 1.79085937 2.39734375 1.16796875 3.1171875 C-1.03582965 6.04764375 -2.28062567 8.75357143 -3.6875 12.125 C-6.30489616 17.58739199 -6.30489616 17.58739199 -9.31640625 19.375 C-11.75 20.125 -11.75 20.125 -14.046875 20.5703125 C-16.22471214 20.86560434 -16.22471214 20.86560434 -18 23 C-18.33 22.01 -18.66 21.02 -19 20 C-16.57869669 17.57869669 -15.19888623 17.47159496 -11.875 16.875 C-10.96492188 16.70742188 -10.05484375 16.53984375 -9.1171875 16.3671875 C-8.41851562 16.24601562 -7.71984375 16.12484375 -7 16 C-6.82984375 15.34773438 -6.6596875 14.69546875 -6.484375 14.0234375 C-4.98961902 8.63277496 -3.39793098 4.45246128 0 0 Z " fill="#D5D4D3" transform="translate(41,29)"/>
<path d="M0 0 C0.99 0.33 1.98 0.66 3 1 C2.13375 1.680625 2.13375 1.680625 1.25 2.375 C-1.0163586 5.01908503 -1.78213695 6.83219923 -2.9375 10.0625 C-4.21415559 13.4887812 -4.72101943 14.77415859 -7.625 17.125 C-10 18 -10 18 -12 18 C-12.33 18.99 -12.66 19.98 -13 21 C-13.66 20.67 -14.32 20.34 -15 20 C-14.67 18.35 -14.34 16.7 -14 15 C-8.25 13 -8.25 13 -6 13 C-5.81824219 12.39671875 -5.63648438 11.7934375 -5.44921875 11.171875 C-2.95254833 3.23374341 -2.95254833 3.23374341 0 0 Z " fill="#D8D8D7" transform="translate(33,27)"/>
<path d="M0 0 C0.99 0.33 1.98 0.66 3 1 C2.34 3.97 1.68 6.94 1 10 C-0.32 10 -1.64 10 -3 10 C-3.12375 10.763125 -3.2475 11.52625 -3.375 12.3125 C-4 15 -4 15 -6 18 C-7.26493447 14.20519658 -6.89988258 11.87641726 -6 8 C-4 6.3125 -4 6.3125 -2 5 C-1.27617533 2.94074861 -1.27617533 2.94074861 -1 1 C-0.67 0.67 -0.34 0.34 0 0 Z " fill="#474542" transform="translate(17,73)"/>
<path d="M0 0 C-1.31455342 2.93246533 -2.74873617 4.74873617 -5 7 C-5.515625 7.86625 -6.03125 8.7325 -6.5625 9.625 C-8 12 -8 12 -10 13 C-10.65213292 15.02463255 -10.65213292 15.02463255 -11 17 C-12.65 17 -14.3 17 -16 17 C-15.01 16.67 -14.02 16.34 -13 16 C-12.8453125 14.824375 -12.8453125 14.824375 -12.6875 13.625 C-12 11 -12 11 -9 9 C-8.65977214 7.00116131 -8.32670903 5.00109278 -8 3 C-5.78818899 -0.31771652 -3.83294873 -0.31077963 0 0 Z " fill="#42403D" transform="translate(17,49)"/>
<path d="M0 0 C0.33 0 0.66 0 1 0 C1 1.65 1 3.3 1 5 C-0.65 5.33 -2.3 5.66 -4 6 C-4.99 8.97 -5.98 11.94 -7 15 C-9.45331002 11.32003497 -9.39507893 9.34586828 -9 5 C-6 3 -6 3 -3.9375 2.5 C-1.77936701 2.11802369 -1.77936701 2.11802369 0 0 Z " fill="#F5F5F5" transform="translate(25,55)"/>
<path d="M0 0 C2.97 0.33 5.94 0.66 9 1 C8 5 8 5 6 6.75 C3.09127967 10.02231037 3.28772343 12.68414862 3 17 C2.67 17 2.34 17 2 17 C0.53154579 11.52667068 1.55961274 8.88077452 4 4 C2.35 4.33 0.7 4.66 -1 5 C-1.33 4.34 -1.66 3.68 -2 3 C-1.34 2.01 -0.68 1.02 0 0 Z " fill="#DBDADA" transform="translate(27,51)"/>
<path d="M0 0 C-1.39796892 2.79593783 -3.13474989 2.95173777 -6 4 C-6.99 4.495 -6.99 4.495 -8 5 C-8 6.98 -8 8.96 -8 11 C-11.875 10.125 -11.875 10.125 -13 9 C-13.04063832 7.33382885 -13.042721 5.66611905 -13 4 C-11.40233897 3.13372601 -9.79660056 2.28233535 -8.1875 1.4375 C-7.29417969 0.96183594 -6.40085937 0.48617187 -5.48046875 -0.00390625 C-3 -1 -3 -1 0 0 Z " fill="#E4E4E3" transform="translate(39,71)"/>
<path d="M0 0 C1.9375 0.3125 1.9375 0.3125 4 1 C4.33 1.99 4.66 2.98 5 4 C4.67 4.66 4.34 5.32 4 6 C5.65 6 7.3 6 9 6 C9.33 8.64 9.66 11.28 10 14 C8.68 13.34 7.36 12.68 6 12 C6 11.01 6 10.02 6 9 C4.68 9 3.36 9 2 9 C1.855625 7.88625 1.71125 6.7725 1.5625 5.625 C1.21627965 2.17857953 1.21627965 2.17857953 0 0 Z " fill="#3B3935" transform="translate(70,59)"/>
<path d="M0 0 C2.475 0.99 2.475 0.99 5 2 C5 3.98 5 5.96 5 8 C6.65 7.67 8.3 7.34 10 7 C10 7.66 10 8.32 10 9 C7.69 9.33 5.38 9.66 3 10 C-0.22265625 4.82421875 -0.22265625 4.82421875 -1 3 C-0.67 2.01 -0.34 1.02 0 0 Z " fill="#332D2B" transform="translate(73,39)"/>
<path d="M0 0 C0.71929687 0.29003906 1.43859375 0.58007812 2.1796875 0.87890625 C2.90414062 1.16636719 3.62859375 1.45382813 4.375 1.75 C4.92929687 1.97816406 5.48359375 2.20632812 6.0546875 2.44140625 C6.0546875 3.76140625 6.0546875 5.08140625 6.0546875 6.44140625 C2.89369909 7.49506905 2.04581491 7.65655176 -0.9453125 6.44140625 C-3.9453125 3.11997768 -3.9453125 3.11997768 -3.9453125 0.44140625 C-1.9453125 -0.55859375 -1.9453125 -0.55859375 0 0 Z " fill="#B09B92" transform="translate(57.9453125,33.55859375)"/>
<path d="M0 0 C2.375 -0.1875 2.375 -0.1875 5 0 C5.66 0.99 6.32 1.98 7 3 C6.34 3 5.68 3 5 3 C5 3.66 5 4.32 5 5 C4.38125 5.103125 3.7625 5.20625 3.125 5.3125 C0.63473516 5.87525373 0.63473516 5.87525373 -1 9 C-2.4606285 6.35261084 -3 5.10551666 -3 2 C-2.01 2 -1.02 2 0 2 C0 1.34 0 0.68 0 0 Z " fill="#DABFBB" transform="translate(67,41)"/>
<path d="M0 0 C0.33 0.99 0.66 1.98 1 3 C3.97 3 6.94 3 10 3 C9.67 4.65 9.34 6.3 9 8 C2.25 6.125 2.25 6.125 0 5 C-0.6875 3 -0.6875 3 -1 1 C-0.67 0.67 -0.34 0.34 0 0 Z " fill="#DDDDDC" transform="translate(67,53)"/>
<path d="M0 0 C2.00720923 0.28674418 4.0085944 0.61866701 6 1 C6.33 2.65 6.66 4.3 7 6 C6.34 5.34 5.68 4.68 5 4 C4.34 4.66 3.68 5.32 3 6 C2.34 6 1.68 6 1 6 C1 4.68 1 3.36 1 2 C0.34 1.67 -0.32 1.34 -1 1 C-0.67 0.67 -0.34 0.34 0 0 Z " fill="#E69ABF" transform="translate(292,46)"/>
<path d="M0 0 C0.99 0.33 1.98 0.66 3 1 C2.34 3.64 1.68 6.28 1 9 C-0.32 8.67 -1.64 8.34 -3 8 C-1.125 1.125 -1.125 1.125 0 0 Z " fill="#2C2925" transform="translate(17,73)"/>
<path d="M0 0 C3.125 -0.1875 3.125 -0.1875 6 0 C5.15695313 0.35191406 5.15695313 0.35191406 4.296875 0.7109375 C1.45364109 2.30663 -0.48098127 4.28924543 -2.75 6.625 C-3.54921875 7.44226562 -4.3484375 8.25953125 -5.171875 9.1015625 C-5.77515625 9.72804688 -6.3784375 10.35453125 -7 11 C-7.66 10.67 -8.32 10.34 -9 10 C-8.27683594 9.29423828 -8.27683594 9.29423828 -7.5390625 8.57421875 C-6.90742187 7.95160156 -6.27578125 7.32898437 -5.625 6.6875 C-4.68527344 5.76517578 -4.68527344 5.76517578 -3.7265625 4.82421875 C-1.81913393 2.91187472 -1.81913393 2.91187472 0 0 Z " fill="#E7468F" transform="translate(124,46)"/>
<path d="M0 0 C1.32 0.33 2.64 0.66 4 1 C3.1875 3.4375 3.1875 3.4375 2 6 C1.01 6.33 0.02 6.66 -1 7 C-1.33 7.99 -1.66 8.98 -2 10 C-1.33333333 6.66666667 -0.66666667 3.33333333 0 0 Z " fill="#43413D" transform="translate(20,61)"/>
<path d="M0 0 C1.9375 0.3125 1.9375 0.3125 4 1 C4.33 1.99 4.66 2.98 5 4 C3.35 4.33 1.7 4.66 0 5 C-0.33 4.34 -0.66 3.68 -1 3 C-0.67 2.01 -0.34 1.02 0 0 Z " fill="#81807E" transform="translate(41,51)"/>
<path d="M0 0 C0.66 0.33 1.32 0.66 2 1 C0.02 5.455 0.02 5.455 -2 10 C-2.33 10 -2.66 10 -3 10 C-2.88637738 8.5199159 -2.75877092 7.04089926 -2.625 5.5625 C-2.55539063 4.73878906 -2.48578125 3.91507813 -2.4140625 3.06640625 C-2.27742188 2.38449219 -2.14078125 1.70257813 -2 1 C-1.34 0.67 -0.68 0.34 0 0 Z " fill="#3A3834" transform="translate(23,44)"/>
<path d="M0 0 C0.99 0.33 1.98 0.66 3 1 C2.071875 2.1446875 2.071875 2.1446875 1.125 3.3125 C-1.05597052 5.99625809 -1.05597052 5.99625809 -3 9 C-3.33 8.01 -3.66 7.02 -4 6 C-2.0625 2.8125 -2.0625 2.8125 0 0 Z " fill="#C6C5C4" transform="translate(41,29)"/>
<path d="M0 0 C1.32 0 2.64 0 4 0 C3.25 1.9375 3.25 1.9375 2 4 C-0.125 4.75 -0.125 4.75 -2 5 C-1.34 3.35 -0.68 1.7 0 0 Z " fill="#EFD0DF" transform="translate(67,35)"/>
<path d="M0 0 C0.99 0 1.98 0 3 0 C2.67 1.65 2.34 3.3 2 5 C0.68 4.67 -0.64 4.34 -2 4 C-1.34 2.68 -0.68 1.36 0 0 Z " fill="#EBD3DD" transform="translate(60,43)"/>
</svg>
