<?xml version="1.0" standalone="no"?>
<!DOCTYPE svg PUBLIC "-//W3C//DTD SVG 20010904//EN"
 "http://www.w3.org/TR/2001/REC-SVG-20010904/DTD/svg10.dtd">
<svg version="1.0" xmlns="http://www.w3.org/2000/svg"
 width="322.000000pt" height="117.000000pt" viewBox="0 0 322.000000 117.000000"
 preserveAspectRatio="xMidYMid meet">

<g transform="translate(0.000000,117.000000) scale(0.100000,-0.100000)"
fill="#000000" stroke="none">
<path d="M216 795 c-22 -8 -51 -22 -65 -33 -35 -24 -71 -98 -71 -142 0 -53 38
-120 88 -155 42 -29 48 -30 175 -33 150 -4 191 4 243 50 48 42 64 77 64 140 0
72 -19 98 -72 98 -40 0 -40 0 -25 24 19 28 12 36 -42 55 -48 16 -247 13 -295
-4z m267 -96 c59 -27 70 -104 21 -150 -23 -21 -37 -24 -120 -27 -103 -4 -145
6 -169 42 -25 35 -19 84 14 117 29 28 32 29 130 29 55 0 111 -5 124 -11z"/>
<path d="M1520 620 l0 -190 169 0 169 0 31 39 c17 21 31 42 31 45 0 3 -63 6
-140 6 l-140 0 0 25 c0 25 0 25 99 25 l99 0 32 43 31 42 -128 6 c-70 4 -129 7
-130 8 -2 0 -3 10 -3 21 0 19 7 20 104 20 l105 0 35 44 c20 23 36 46 36 50 0
3 -90 6 -200 6 l-200 0 0 -190z"/>
<path d="M2610 799 c-66 -26 -95 -91 -66 -148 28 -54 64 -65 223 -69 112 -3
145 -7 155 -19 10 -12 9 -18 -7 -29 -14 -10 -56 -14 -165 -14 l-146 0 -32 -42
-33 -43 38 -8 c21 -5 110 -7 198 -5 127 3 167 7 192 21 75 40 96 118 47 176
-42 50 -60 55 -207 61 -184 7 -185 24 0 28 l142 3 36 43 c19 24 35 46 35 50 0
10 -383 6 -410 -5z"/>
<path d="M1020 615 l0 -185 55 0 55 0 0 75 0 76 118 -3 117 -3 3 -72 3 -73 49
0 50 0 0 185 0 185 -50 0 -50 0 0 -70 0 -70 -120 0 -120 0 0 70 0 70 -55 0
-55 0 0 -185z"/>
</g>
</svg>
