<?xml version="1.0" encoding="UTF-8"?>
<svg version="1.1" xmlns="http://www.w3.org/2000/svg" width="322" height="117">
<path d="M0 0 C106.26 0 212.52 0 322 0 C322 38.61 322 77.22 322 117 C215.74 117 109.48 117 0 117 C0 78.39 0 39.78 0 0 Z " fill="#FEFEFE" transform="translate(0,0)"/>
<path d="M0 0 C1.11632812 -0.00257812 2.23265625 -0.00515625 3.3828125 -0.0078125 C4.54039063 -0.00007813 5.69796875 0.00765625 6.890625 0.015625 C8.03273438 0.00789063 9.17484375 0.00015625 10.3515625 -0.0078125 C15.52514222 0.00408079 20.30960451 0.1527518 25.34375 1.40625 C26.59671875 1.68984375 27.8496875 1.9734375 29.140625 2.265625 C29.800625 1.605625 30.460625 0.945625 31.140625 0.265625 C34.08159237 0.09023064 36.92715849 0.03430125 39.8671875 0.0703125 C41.16141129 0.07455734 41.16141129 0.07455734 42.48178101 0.07888794 C45.2432022 0.09010167 48.0043015 0.11520816 50.765625 0.140625 C52.63541199 0.15065327 54.50520405 0.15977938 56.375 0.16796875 C60.96366609 0.19004488 65.55209093 0.22458266 70.140625 0.265625 C67.88950788 3.68111304 65.59689073 6.99060403 63.140625 10.265625 C59.510625 10.265625 55.880625 10.265625 52.140625 10.265625 C52.140625 19.835625 52.140625 29.405625 52.140625 39.265625 C47.850625 39.265625 43.560625 39.265625 39.140625 39.265625 C38.645625 35.305625 38.645625 35.305625 38.140625 31.265625 C37.73972656 31.80832031 37.33882812 32.35101563 36.92578125 32.91015625 C36.35730469 33.62558594 35.78882813 34.34101562 35.203125 35.078125 C34.38521484 36.13966797 34.38521484 36.13966797 33.55078125 37.22265625 C26.88232701 42.87517094 18.42712541 42.76041696 10.078125 42.703125 C9.04107422 42.72310547 8.00402344 42.74308594 6.93554688 42.76367188 C-0.95626486 42.75866756 -6.08420848 41.21402397 -12.28515625 36.37109375 C-17.73415181 30.83184567 -20.90405007 26.16675758 -21.296875 18.203125 C-21.10711117 12.75772819 -19.32582939 9.69153493 -15.43359375 5.86328125 C-10.57797903 1.53463247 -6.43364651 0.01442984 0 0 Z " fill="#0A3E93" transform="translate(28.859375,35.734375)"/>
<path d="M0 0 C0.8850119 0.00141495 1.7700238 0.0028299 2.68185425 0.00428772 C5.51449941 0.00989485 8.34706614 0.02244854 11.1796875 0.03515625 C13.09765511 0.04017033 15.01562396 0.0447334 16.93359375 0.04882812 C21.64065532 0.05986659 26.3476581 0.077136 31.0546875 0.09765625 C29.38220065 3.72137775 27.59866133 7.00993642 25.0546875 10.09765625 C21.93847656 10.77880859 21.93847656 10.77880859 18.3203125 10.68359375 C17.02480469 10.66425781 15.72929687 10.64492188 14.39453125 10.625 C13.03122585 10.57487125 11.66794461 10.52408161 10.3046875 10.47265625 C8.92583885 10.44254756 7.5469276 10.41517328 6.16796875 10.390625 C2.79529019 10.31986951 -0.57422077 10.22117427 -3.9453125 10.09765625 C-3.9453125 11.08765625 -3.9453125 12.07765625 -3.9453125 13.09765625 C-2.86431274 13.07409058 -2.86431274 13.07409058 -1.76147461 13.05004883 C1.53133165 12.98735138 4.82401188 12.9485553 8.1171875 12.91015625 C9.8177832 12.87245117 9.8177832 12.87245117 11.55273438 12.83398438 C19.54445158 12.76408597 24.43331236 13.47793807 30.9921875 18.22265625 C33.4682267 21.67410483 33.78621749 23.70892777 33.54296875 27.87890625 C32.68946396 31.75723203 30.98776376 33.42529788 28.0546875 36.09765625 C23.44024258 38.62204485 18.93169031 38.35515236 13.81640625 38.29296875 C12.49525566 38.28872391 12.49525566 38.28872391 11.14741516 38.28439331 C8.34553205 38.27323458 5.54397334 38.24813796 2.7421875 38.22265625 C0.83789525 38.21262088 -1.06640202 38.203496 -2.97070312 38.1953125 C-7.62903047 38.17330934 -12.28711656 38.13880919 -16.9453125 38.09765625 C-15.39858889 34.61752812 -13.66482683 31.78316237 -10.9453125 29.09765625 C-7.64550781 28.43823242 -7.64550781 28.43823242 -3.7734375 28.390625 C-3.0910199 28.37550369 -2.40860229 28.36038239 -1.70550537 28.34480286 C0.46489595 28.30196231 2.63390573 28.29309286 4.8046875 28.28515625 C6.27998482 28.26200862 7.75524911 28.2366427 9.23046875 28.20898438 C12.83851482 28.14617251 16.44609666 28.11380561 20.0546875 28.09765625 C20.0546875 26.77765625 20.0546875 25.45765625 20.0546875 24.09765625 C19.27343506 24.08307373 18.49218262 24.06849121 17.68725586 24.0534668 C14.12175382 23.97865127 10.55715373 23.88209992 6.9921875 23.78515625 C5.14850586 23.75131836 5.14850586 23.75131836 3.26757812 23.71679688 C-8.35421888 23.37221529 -8.35421888 23.37221529 -13.9453125 20.09765625 C-16.76706597 16.91413952 -17.81383018 14.7670208 -18.6328125 10.59765625 C-17.66712234 5.68141545 -14.98257756 3.81961324 -10.9453125 1.09765625 C-7.56138242 -0.59430879 -3.72053459 -0.02220924 0 0 Z " fill="#B31107" transform="translate(270.9453125,35.90234375)"/>
<path d="M0 0 C1.2698877 0.01232666 2.53977539 0.02465332 3.84814453 0.03735352 C4.53474152 0.03872818 5.2213385 0.04010284 5.92874146 0.04151917 C7.3761558 0.0505492 8.82354418 0.07409839 10.27050781 0.11132812 C12.46802897 0.16593849 14.66173557 0.17285792 16.85986328 0.17211914 C25.34445785 0.26073973 31.83449546 0.44922797 38.48095703 6.22875977 C41.06093979 9.2640336 41.54610684 11.09434772 41.91845703 15.04125977 C41.54446295 19.45438994 40.47768988 21.39134051 37.60595703 24.72875977 C34.85595703 26.10375977 34.85595703 26.10375977 32.60595703 26.72875977 C36.23704466 30.47331888 40.05780621 33.89669067 44.03173828 37.27563477 C44.81097656 37.99493164 44.81097656 37.99493164 45.60595703 38.72875977 C45.60595703 39.05875977 45.60595703 39.38875977 45.60595703 39.72875977 C30.74266427 41.14016271 30.74266427 41.14016271 25.62548828 37.76000977 C23.94189062 36.11034508 22.26221192 34.45667157 20.58642578 32.79907227 C14.7581351 28.75058726 7.47470058 29.52744841 0.60595703 29.72875977 C0.60595703 33.02875977 0.60595703 36.32875977 0.60595703 39.72875977 C-3.35404297 39.72875977 -7.31404297 39.72875977 -11.39404297 39.72875977 C-11.39404297 33.12875977 -11.39404297 26.52875977 -11.39404297 19.72875977 C-7.42244141 19.63788086 -7.42244141 19.63788086 -3.37060547 19.54516602 C-0.81230762 19.48339555 1.74594514 19.42000002 4.30419922 19.35644531 C6.08508306 19.31307647 7.86600901 19.27140283 9.64697266 19.23144531 C12.20374251 19.17378987 14.76030001 19.11008207 17.31689453 19.04516602 C18.11590179 19.02845352 18.91490906 19.01174103 19.73812866 18.99452209 C23.80402071 18.97482985 23.80402071 18.97482985 27.60595703 17.72875977 C27.64867803 16.06264071 27.64659535 14.39493092 27.60595703 12.72875977 C25.54906243 10.67186516 21.25039705 11.471289 18.41455078 11.41235352 C17.18479271 11.38118187 17.18479271 11.38118187 15.93019104 11.34938049 C13.30136802 11.28379483 10.67244199 11.22495851 8.04345703 11.16625977 C6.26545142 11.12308309 4.48745638 11.07946909 2.70947266 11.03540039 C-1.6582593 10.92810434 -6.02609524 10.82686273 -10.39404297 10.72875977 C-8.2348701 5.62526027 -5.62550031 1.20789228 0 0 Z " fill="#E3B31B" transform="translate(205.39404296875,35.271240234375)"/>
<path d="M0 0 C13.2 0 26.4 0 40 0 C39.34 1.32 38.68 2.64 38 4 C37.53078125 5.06476562 37.0615625 6.12953125 36.578125 7.2265625 C33.59028716 10.44075169 32.99143759 10.427515 28.796875 10.5859375 C26.7804167 10.54613898 24.7643854 10.47469674 22.75 10.375 C21.203125 10.33439453 21.203125 10.33439453 19.625 10.29296875 C17.0812125 10.22230799 14.54166901 10.12372078 12 10 C12 11.32 12 12.64 12 14 C20.91 14 29.82 14 39 14 C39 14.66 39 15.32 39 16 C38.34 16 37.68 16 37 16 C36.731875 16.5775 36.46375 17.155 36.1875 17.75 C34.93943732 20.11475034 33.80528584 22.01995941 32 24 C29.82348633 24.45410156 29.82348633 24.45410156 27.33203125 24.390625 C26.43935547 24.37773438 25.54667969 24.36484375 24.62695312 24.3515625 C23.69818359 24.31804688 22.76941406 24.28453125 21.8125 24.25 C20.87212891 24.23195313 19.93175781 24.21390625 18.96289062 24.1953125 C16.64090111 24.1481655 14.3209631 24.08238231 12 24 C12 25.65 12 27.3 12 29 C21.24 29 30.48 29 40 29 C36.43500126 36.12999749 36.43500126 36.12999749 34 39 C31.10932414 39.55073652 29.04545538 39.70953584 26.171875 39.5859375 C25.50752441 39.57989502 24.84317383 39.57385254 24.15869141 39.56762695 C21.68849105 39.53634789 19.21918003 39.45257665 16.75 39.375 C11.2225 39.25125 5.695 39.1275 0 39 C0 26.13 0 13.26 0 0 Z " fill="#0C4094" transform="translate(152,36)"/>
<path d="M0 0 C3.63 0 7.26 0 11 0 C11.33 4.62 11.66 9.24 12 14 C19.26 14.33 26.52 14.66 34 15 C34 10.05 34 5.1 34 0 C37.96 0 41.92 0 46 0 C46 12.87 46 25.74 46 39 C42.04 39 38.08 39 34 39 C34 34.05 34 29.1 34 24 C26.41 24 18.82 24 11 24 C11 28.62 11 33.24 11 38 C7.37 38 3.74 38 0 38 C0 25.46 0 12.92 0 0 Z " fill="#369C35" transform="translate(102,36)"/>
<path d="M0 0 C0.85857101 0.00848969 1.71714203 0.01697937 2.60173035 0.02572632 C5.33344106 0.05920953 8.06215655 0.1344738 10.79296875 0.2109375 C12.64904579 0.24104392 14.50516928 0.26841855 16.36132812 0.29296875 C20.90218882 0.35898355 25.44082171 0.46246569 29.98046875 0.5859375 C27.72935163 4.00142554 25.43673448 7.31091653 22.98046875 10.5859375 C19.35046875 10.5859375 15.72046875 10.5859375 11.98046875 10.5859375 C11.98046875 20.1559375 11.98046875 29.7259375 11.98046875 39.5859375 C7.69046875 39.5859375 3.40046875 39.5859375 -1.01953125 39.5859375 C-1.51453125 35.6259375 -1.51453125 35.6259375 -2.01953125 31.5859375 C-2.42042969 32.12863281 -2.82132813 32.67132813 -3.234375 33.23046875 C-3.80285156 33.94589844 -4.37132812 34.66132812 -4.95703125 35.3984375 C-5.77494141 36.45998047 -5.77494141 36.45998047 -6.609375 37.54296875 C-13.27782924 43.19548344 -21.73303084 43.08072946 -30.08203125 43.0234375 C-31.11908203 43.04341797 -32.15613281 43.06339844 -33.22460938 43.08398438 C-39.93045056 43.0797321 -44.32310818 42.18897542 -50.01953125 38.5859375 C-50.34953125 37.9259375 -50.67953125 37.2659375 -51.01953125 36.5859375 C-50.49262695 36.74529785 -49.96572266 36.9046582 -49.42285156 37.06884766 C-43.99551653 38.23657374 -38.29822694 37.9012558 -32.76953125 37.9609375 C-31.47144531 37.99832031 -30.17335938 38.03570312 -28.8359375 38.07421875 C-21.27844141 38.14355358 -15.75256199 37.82557898 -10.01953125 32.5859375 C-5.9233621 28.06964844 -4.88000392 25.62930516 -4.89453125 19.5859375 C-4.89195313 18.5134375 -4.889375 17.4409375 -4.88671875 16.3359375 C-4.83229715 13.62411698 -4.83229715 13.62411698 -6.01953125 11.5859375 C-8.3755236 11.11841962 -8.3755236 11.11841962 -11.08203125 10.9609375 C-12.00113281 10.88617188 -12.92023437 10.81140625 -13.8671875 10.734375 C-14.57746094 10.68539062 -15.28773437 10.63640625 -16.01953125 10.5859375 C-12.42320706 2.08553488 -8.90019096 -0.33316599 0 0 Z " fill="#BDA681" transform="translate(69.01953125,35.4140625)"/>
<path d="M0 0 C1.98 0.33 3.96 0.66 6 1 C6.495 2.485 6.495 2.485 7 4 C5.5625 6.1875 5.5625 6.1875 4 8 C5.66554932 7.98428955 5.66554932 7.98428955 7.36474609 7.96826172 C11.47587879 7.93212051 15.58699739 7.90912104 19.69824219 7.89013672 C21.47919067 7.88006569 23.26012257 7.86640815 25.04101562 7.84912109 C27.59769783 7.82492087 30.15416185 7.81352816 32.7109375 7.8046875 C33.90944839 7.78920364 33.90944839 7.78920364 35.13217163 7.77340698 C37.0895722 7.77300774 39.04643077 7.87758931 41 8 C43 10 43 10 43.3125 12.5 C43.209375 13.325 43.10625 14.15 43 15 C39.16327717 17.55781522 36.05464013 17.25306456 31.61328125 17.1953125 C30.79627243 17.1924826 29.97926361 17.18965271 29.13749695 17.18673706 C26.52901541 17.17554541 23.9208777 17.1504429 21.3125 17.125 C19.54362475 17.11496888 17.77474412 17.10584326 16.00585938 17.09765625 C11.67044051 17.07560942 7.33527855 17.0410867 3 17 C3.05800781 18.15757813 3.11601562 19.31515625 3.17578125 20.5078125 C3.22270265 22.04683448 3.26820026 23.58590033 3.3125 25.125 C3.35439453 25.88554688 3.39628906 26.64609375 3.43945312 27.4296875 C3.52441109 31.37173697 3.30006475 34.24317276 0.97583008 37.51806641 C-2.70409508 40.5872369 -5.34075714 40.78371894 -9.92578125 40.5859375 C-11.04716743 40.57320297 -11.04716743 40.57320297 -12.19120789 40.56021118 C-14.56647188 40.52676529 -16.93827219 40.45151814 -19.3125 40.375 C-20.92768514 40.3448883 -22.54292381 40.31751458 -24.15820312 40.29296875 C-28.10679239 40.22700501 -32.05281015 40.12355759 -36 40 C-36 39.01 -36 38.02 -36 37 C-25.77 37 -15.54 37 -5 37 C-4.34 35.68 -3.68 34.36 -3 33 C-1.68 31.02 -0.36 29.04 1 27 C-8.24 27 -17.48 27 -27 27 C-27 25.35 -27 23.7 -27 22 C-26.13048706 22.00954712 -26.13048706 22.00954712 -25.2434082 22.01928711 C-22.59848288 22.028011 -19.95702108 21.98325296 -17.3125 21.9375 C-15.94448242 21.95393555 -15.94448242 21.95393555 -14.54882812 21.97070312 C-9.46251296 21.95108398 -9.46251296 21.95108398 -5.31005859 19.37939453 C-4.11897884 17.64329627 -3.05014248 15.8248038 -2 14 C-1.34 14 -0.68 14 0 14 C0 13.34 0 12.68 0 12 C-8.91 12 -17.82 12 -27 12 C-27 10.68 -27 9.36 -27 8 C-19.74 8 -12.48 8 -5 8 C-4.34 6.68 -3.68 5.36 -3 4 C-2.02418241 2.64886795 -1.02970259 1.31053056 0 0 Z " fill="#FDFDFC" transform="translate(191,38)"/>
<path d="M0 0 C0.92425781 -0.01933594 1.84851563 -0.03867187 2.80078125 -0.05859375 C7.22838377 -0.02692277 10.53372191 0.14560082 14.11328125 2.9140625 C17.30567097 6.54011564 17.30567097 6.54011564 17.1875 9.625 C16.9354626 13.04366111 16.4245342 13.71833928 14.125 16.5625 C9.49302518 20.20190879 5.96454434 19.8734356 0.25 19.9375 C-1.02037109 19.98100586 -1.02037109 19.98100586 -2.31640625 20.02539062 C-8.03232928 20.08317212 -11.12674377 19.37847947 -15.5 15.625 C-17.08643982 12.45212035 -17.46799489 9.00385009 -16.5 5.625 C-11.60431522 0.00343115 -7.19244728 -0.15046961 0 0 Z " fill="#F9FAFC" transform="translate(36.5,45.375)"/>
<path d="M0 0 C0.85857101 0.00848969 1.71714203 0.01697937 2.60173035 0.02572632 C5.33344106 0.05920953 8.06215655 0.1344738 10.79296875 0.2109375 C12.64904579 0.24104392 14.50516928 0.26841855 16.36132812 0.29296875 C20.90218882 0.35898355 25.44082171 0.46246569 29.98046875 0.5859375 C27.98046875 3.5859375 25.98046875 6.5859375 23.98046875 9.5859375 C20.94140625 10.09765625 20.94140625 10.09765625 17.35546875 10.2734375 C16.16695312 10.33917969 14.9784375 10.40492187 13.75390625 10.47265625 C12.38105469 10.52873047 12.38105469 10.52873047 10.98046875 10.5859375 C10.32046875 12.5659375 9.66046875 14.5459375 8.98046875 16.5859375 C8.32046875 15.2659375 7.66046875 13.9459375 6.98046875 12.5859375 C6.65046875 12.5859375 6.32046875 12.5859375 5.98046875 12.5859375 C5.65046875 13.2459375 5.32046875 13.9059375 4.98046875 14.5859375 C4.32046875 14.5859375 3.66046875 14.5859375 2.98046875 14.5859375 C2.65046875 15.5759375 2.32046875 16.5659375 1.98046875 17.5859375 C1.32046875 17.5859375 0.66046875 17.5859375 -0.01953125 17.5859375 C-0.34953125 14.2859375 -0.67953125 10.9859375 -1.01953125 7.5859375 C-0.02953125 7.2559375 0.96046875 6.9259375 1.98046875 6.5859375 C0.99046875 5.9259375 0.00046875 5.2659375 -1.01953125 4.5859375 C-1.01953125 5.2459375 -1.01953125 5.9059375 -1.01953125 6.5859375 C-3.65953125 6.2559375 -6.29953125 5.9259375 -9.01953125 5.5859375 C-9.01953125 6.2459375 -9.01953125 6.9059375 -9.01953125 7.5859375 C-7.03953125 7.5859375 -5.05953125 7.5859375 -3.01953125 7.5859375 C-2.68953125 8.2459375 -2.35953125 8.9059375 -2.01953125 9.5859375 C-3.00953125 9.5859375 -3.99953125 9.5859375 -5.01953125 9.5859375 C-5.34953125 10.2459375 -5.67953125 10.9059375 -6.01953125 11.5859375 C-9.31953125 11.2559375 -12.61953125 10.9259375 -16.01953125 10.5859375 C-11.76869979 2.08427459 -9.3735268 -0.35088465 0 0 Z " fill="#BDA481" transform="translate(69.01953125,35.4140625)"/>
<path d="M0 0 C0.495 0.99 0.495 0.99 1 2 C2.32 2 3.64 2 5 2 C5.1356886 4.87659826 5.23440753 7.74673463 5.3125 10.625 C5.35439453 11.43324219 5.39628906 12.24148437 5.43945312 13.07421875 C5.45556641 13.86699219 5.47167969 14.65976563 5.48828125 15.4765625 C5.51446533 16.19924316 5.54064941 16.92192383 5.56762695 17.66650391 C4.69605995 21.24948773 2.88538402 23.78625731 0 26 C-2.93430963 26.54184419 -5.01759563 26.71138616 -7.92578125 26.5859375 C-9.04716743 26.57320297 -9.04716743 26.57320297 -10.19120789 26.56021118 C-12.56647188 26.52676529 -14.93827219 26.45151814 -17.3125 26.375 C-18.92768514 26.3448883 -20.54292381 26.31751458 -22.15820312 26.29296875 C-26.10679239 26.22700501 -30.05281015 26.12355759 -34 26 C-34 25.01 -34 24.02 -34 23 C-23.77 23 -13.54 23 -3 23 C-2.34 21.68 -1.68 20.36 -1 19 C0.32 17.02 1.64 15.04 3 13 C-6.24 13 -15.48 13 -25 13 C-25 11.35 -25 9.7 -25 8 C-24.13048706 8.00954712 -24.13048706 8.00954712 -23.2434082 8.01928711 C-20.59848288 8.028011 -17.95702108 7.98325296 -15.3125 7.9375 C-13.94448242 7.95393555 -13.94448242 7.95393555 -12.54882812 7.97070312 C-7.44579876 7.93031649 -7.44579876 7.93031649 -3.23974609 5.37939453 C-1.66509595 3.2605455 -1.66509595 3.2605455 0 0 Z " fill="#C0CEE3" transform="translate(189,52)"/>
<path d="M0 0 C1.32 0 2.64 0 4 0 C4.10845027 3.04263267 4.18752063 6.08136204 4.25 9.125 C4.30027344 10.40890625 4.30027344 10.40890625 4.3515625 11.71875 C4.43841427 17.36411482 3.78133162 20.52804543 0 25 C-7.50420785 32.33744768 -14.95083142 32.3627389 -24.9375 32.375 C-25.98357422 32.39949219 -27.02964844 32.42398438 -28.10742188 32.44921875 C-34.86476539 32.47470213 -39.26321259 31.64390983 -45 28 C-45.33 27.34 -45.66 26.68 -46 26 C-45.4730957 26.15936035 -44.94619141 26.3187207 -44.40332031 26.48291016 C-38.97598528 27.65063624 -33.27869569 27.3153183 -27.75 27.375 C-26.45191406 27.41238281 -25.15382813 27.44976562 -23.81640625 27.48828125 C-16.25891016 27.55761608 -10.73303074 27.23964148 -5 22 C-0.47455716 17.01040918 0.14136014 13.95072239 0.0625 7.375 C0.05798828 6.66859375 0.05347656 5.9621875 0.04882812 5.234375 C0.03703875 3.48954725 0.01910324 1.744763 0 0 Z " fill="#B7C7DE" transform="translate(64,46)"/>
<path d="M0 0 C2.85185693 2.72786315 3.88631105 4.17169476 4.4375 8.1875 C3.86640136 13.16421674 1.83482812 15.84728881 -2 19 C-6.66772065 21.47776678 -11.09373835 21.25785179 -16.23828125 21.1953125 C-17.55943184 21.19106766 -17.55943184 21.19106766 -18.90727234 21.18673706 C-21.70915545 21.17557833 -24.51071416 21.15048171 -27.3125 21.125 C-29.21679225 21.11496463 -31.12108952 21.10583975 -33.02539062 21.09765625 C-37.68371797 21.07565309 -42.34180406 21.04115294 -47 21 C-46.67 20.01 -46.34 19.02 -46 18 C-47.65 18 -49.3 18 -51 18 C-50.67 17.34 -50.34 16.68 -50 16 C-48.81970215 16.01571045 -47.6394043 16.0314209 -46.42333984 16.04760742 C-42.02887848 16.10205894 -37.63444674 16.13640538 -33.23974609 16.16479492 C-31.34060647 16.17984691 -29.44150141 16.20029316 -27.54248047 16.22631836 C-24.80687919 16.26285992 -22.071739 16.27976238 -19.3359375 16.29296875 C-18.49195404 16.30845261 -17.64797058 16.32393646 -16.77841187 16.33988953 C-10.94438717 16.34154118 -6.68281806 15.40528516 -2.1875 11.375 C-0.37463311 7.74926622 -0.24826333 4.00645647 0 0 Z " fill="#E6B4B1" transform="translate(304,57)"/>
<path d="M0 0 C0.33 0 0.66 0 1 0 C1 12.54 1 25.08 1 38 C4.63 38 8.26 38 12 38 C12 33.38 12 28.76 12 24 C19.59 24 27.18 24 35 24 C35 25.32 35 26.64 35 28 C28.73 28 22.46 28 16 28 C16 32.62 16 37.24 16 42 C12.04 42 8.08 42 4 42 C4 41.01 4 40.02 4 39 C2.68 39 1.36 39 0 39 C0 26.13 0 13.26 0 0 Z " fill="#BEDEBD" transform="translate(101,36)"/>
<path d="M0 0 C1.32 0.33 2.64 0.66 4 1 C3.49142725 5.45001157 2.5155578 8.13849946 -1 11 C-4.96 11 -8.92 11 -13 11 C-13 20.57 -13 30.14 -13 40 C-16.96 40 -20.92 40 -25 40 C-25 39.01 -25 38.02 -25 37 C-22.03 37 -19.06 37 -16 37 C-16 27.43 -16 17.86 -16 8 C-10.555 7.505 -10.555 7.505 -5 7 C-1.75222944 3.65957847 -1.75222944 3.65957847 0 0 Z " fill="#EEE8E0" transform="translate(97,38)"/>
<path d="M0 0 C0.33 0 0.66 0 1 0 C1.02470469 5.49926424 1.04286223 10.99849622 1.05493164 16.49780273 C1.05996279 18.36890221 1.06678835 20.23999775 1.07543945 22.11108398 C1.08755829 24.79932628 1.09324047 27.48751664 1.09765625 30.17578125 C1.10281754 31.01337479 1.10797882 31.85096832 1.11329651 32.71394348 C1.11362064 36.06375742 1.06684515 38.79946456 0 42 C-3.96 42 -7.92 42 -12 42 C-12 41.01 -12 40.02 -12 39 C-9.03 39 -6.06 39 -3 39 C-3 27.12 -3 15.24 -3 3 C-2.01 3 -1.02 3 0 3 C0 2.01 0 1.02 0 0 Z " fill="#BFDACA" transform="translate(151,36)"/>
<path d="M0 0 C0.763125 0.226875 1.52625 0.45375 2.3125 0.6875 C0.64100986 4.63829489 -1.65977848 7.65977848 -4.6875 10.6875 C-11.23402841 12.29291569 -17.94721564 11.58028268 -24.625 11.25 C-25.78580078 11.19779297 -26.94660156 11.14558594 -28.14257812 11.09179688 C-30.99120617 10.96284663 -33.83941787 10.82791411 -36.6875 10.6875 C-36.6875 9.6975 -36.6875 8.7075 -36.6875 7.6875 C-27.1175 7.6875 -17.5475 7.6875 -7.6875 7.6875 C-7.0275 6.0375 -6.3675 4.3875 -5.6875 2.6875 C-3.79368888 -0.01794446 -3.35333463 -0.38992263 0 0 Z " fill="#E9BEBC" transform="translate(303.6875,38.3125)"/>
<path d="M0 0 C1.41152344 -0.01643555 1.41152344 -0.01643555 2.8515625 -0.03320312 C9.69465648 0.03969915 9.69465648 0.03969915 13.0234375 2.59765625 C13.46945313 3.24605469 13.91546875 3.89445312 14.375 4.5625 C13.76503174 4.54155273 13.15506348 4.52060547 12.52661133 4.49902344 C9.74707706 4.41557139 6.9678068 4.36374989 4.1875 4.3125 C3.22779297 4.27898438 2.26808594 4.24546875 1.27929688 4.2109375 C-3.09885046 4.1503403 -5.85011295 4.12418005 -9.71875 6.3125 C-11.64736702 8.58890042 -12.40573156 9.91194489 -12.9375 12.8125 C-13.164375 14.05 -13.39125 15.2875 -13.625 16.5625 C-15.125 15.5625 -15.125 15.5625 -16.625 13.5625 C-17.4271148 8.03682024 -17.4271148 8.03682024 -16.625 5.5625 C-11.68966849 -0.104594 -7.24309879 -0.18507918 0 0 Z " fill="#BAC9E0" transform="translate(36.625,45.4375)"/>
<path d="M0 0 C0.33 0.66 0.66 1.32 1 2 C3.02463255 2.65213292 3.02463255 2.65213292 5 3 C3.34301514 6.08607994 1.61369988 8.64804945 -1 11 C-4.67168473 11.98377284 -8.10671185 11.76551624 -11.875 11.5 C-12.84953125 11.46390625 -13.8240625 11.4278125 -14.828125 11.390625 C-17.22284579 11.29671438 -19.60934709 11.16561944 -22 11 C-22 11.66 -22 12.32 -22 13 C-22.99 13 -23.98 13 -25 13 C-25 11.35 -25 9.7 -25 8 C-24.13048706 8.00954712 -24.13048706 8.00954712 -23.2434082 8.01928711 C-20.59848288 8.028011 -17.95702108 7.98325296 -15.3125 7.9375 C-14.40048828 7.94845703 -13.48847656 7.95941406 -12.54882812 7.97070312 C-7.44579876 7.93031649 -7.44579876 7.93031649 -3.23974609 5.37939453 C-1.66509595 3.2605455 -1.66509595 3.2605455 0 0 Z " fill="#B9C8E0" transform="translate(189,52)"/>
<path d="M0 0 C2.79224073 -0.08071788 5.58216566 -0.14035408 8.375 -0.1875 C9.1690625 -0.21263672 9.963125 -0.23777344 10.78125 -0.26367188 C12.85586148 -0.29004405 14.93100865 -0.15486462 17 0 C17.66 0.99 18.32 1.98 19 3 C14.05 3 9.1 3 4 3 C4 6.3 4 9.6 4 13 C0.04 13 -3.92 13 -8 13 C-8 12.01 -8 11.02 -8 10 C-5.36 10 -2.72 10 0 10 C0 6.7 0 3.4 0 0 Z " fill="#F6E9BE" transform="translate(206,65)"/>
<path d="M0 0 C2.31 0 4.62 0 7 0 C7 0.66 7 1.32 7 2 C7.66 2 8.32 2 9 2 C9 1.34 9 0.68 9 0 C10.65 0.33 12.3 0.66 14 1 C13.02208496 1.53040894 13.02208496 1.53040894 12.02441406 2.0715332 C9.69022758 3.89849036 9.69022758 3.89849036 9.54589844 7.09448242 C9.5668457 8.33560791 9.58779297 9.5767334 9.609375 10.85546875 C9.61503479 11.51710526 9.62069458 12.17874176 9.62652588 12.86042786 C9.64888753 14.97019332 9.69907629 17.07824952 9.75 19.1875 C9.7700656 20.61911606 9.78831628 22.0507588 9.8046875 23.48242188 C9.84874931 26.98883515 9.91777223 30.49425072 10 34 C13.63 34 17.26 34 21 34 C21 24.43 21 14.86 21 5 C24.96 5 28.92 5 33 5 C33 5.33 33 5.66 33 6 C29.37 6 25.74 6 22 6 C22 15.57 22 25.14 22 35 C17.71 35 13.42 35 9 35 C9 25.43 9 15.86 9 6 C7.68 5.67 6.36 5.34 5 5 C5.66 4.67 6.32 4.34 7 4 C4.03 3.505 4.03 3.505 1 3 C0.67 2.01 0.34 1.02 0 0 Z " fill="#D2BBA6" transform="translate(59,40)"/>
<path d="M0 0 C2.475 0.495 2.475 0.495 5 1 C4.39456452 2.36222983 3.70885894 3.68861096 3 5 C2.5771875 5.8559375 2.154375 6.711875 1.71875 7.59375 C-2.76048748 11.5581326 -7.97273259 10.78358153 -13.75 10.8125 C-15.51150391 10.85020508 -15.51150391 10.85020508 -17.30859375 10.88867188 C-20.20606565 10.94756358 -23.10202605 10.98382969 -26 11 C-26 9.68 -26 8.36 -26 7 C-18.74 7 -11.48 7 -4 7 C-3.34 5.68 -2.68 4.36 -2 3 C-1.34 2.01 -0.68 1.02 0 0 Z " fill="#BFCDE2" transform="translate(190,39)"/>
<path d="M0 0 C3.1328125 -0.38818359 3.1328125 -0.38818359 7.125 -0.3984375 C7.8277002 -0.40130768 8.53040039 -0.40417786 9.25439453 -0.40713501 C10.74056809 -0.40917714 12.22676843 -0.40363678 13.71289062 -0.39111328 C15.99149508 -0.37505992 18.2683259 -0.39095499 20.546875 -0.41015625 C21.98958726 -0.40817384 23.43229841 -0.40433021 24.875 -0.3984375 C26.19242188 -0.39505371 27.50984375 -0.39166992 28.8671875 -0.38818359 C30.41792969 -0.19603271 30.41792969 -0.19603271 32 0 C32.66 0.99 33.32 1.98 34 3 C22.12 3 10.24 3 -2 3 C-1.34 2.01 -0.68 1.02 0 0 Z " fill="#F7EBC4" transform="translate(200,46)"/>
<path d="M0 0 C0.53012695 0.15847412 1.06025391 0.31694824 1.60644531 0.48022461 C4.52844192 1.11475447 7.30782847 1.21771132 10.296875 1.31640625 C11.50214844 1.35830078 12.70742188 1.40019531 13.94921875 1.44335938 C15.83060547 1.50233398 15.83060547 1.50233398 17.75 1.5625 C19.65458984 1.62727539 19.65458984 1.62727539 21.59765625 1.69335938 C24.73166365 1.79939722 27.86574933 1.90146058 31 2 C31.66 3.32 32.32 4.64 33 6 C28.41617026 5.89018094 23.83316568 5.7595352 19.25 5.625 C17.94804687 5.5940625 16.64609375 5.563125 15.3046875 5.53125 C14.05429687 5.49257813 12.80390625 5.45390625 11.515625 5.4140625 C9.78747559 5.36693115 9.78747559 5.36693115 8.02441406 5.31884766 C5.11447898 5.0120689 3.38247997 4.67195276 1 3 C0.67 2.01 0.34 1.02 0 0 Z " fill="#EABFBD" transform="translate(260,57)"/>
<path d="M0 0 C2.40566625 1.72907261 3.82155168 3.09574745 4.40625 6.05859375 C4.62539437 11.47328599 3.73833137 14.8575247 0 19 C-2.5625 20.5 -2.5625 20.5 -5 21 C-5.99 20.34 -6.98 19.68 -8 19 C-8 18.34 -8 17.68 -8 17 C-7.05125 16.38125 -6.1025 15.7625 -5.125 15.125 C-2.00637275 13.00433347 -1.26345042 12.36515161 0 9 C0.23979762 6.63777768 0.23979762 6.63777768 0.125 4.25 C0.09792969 3.05117188 0.09792969 3.05117188 0.0703125 1.828125 C0.04710937 1.22484375 0.02390625 0.6215625 0 0 Z " fill="#F6E9BF" transform="translate(246,45)"/>
<path d="M0 0 C0.33 0 0.66 0 1 0 C1 4.29 1 8.58 1 13 C0.34 13 -0.32 13 -1 13 C-1 12.01 -1 11.02 -1 10 C-9.25 10 -17.5 10 -26 10 C-26 9.34 -26 8.68 -26 8 C-25.39003174 8.00636475 -24.78006348 8.01272949 -24.15161133 8.01928711 C-21.37067974 8.02800642 -18.59304684 7.98326279 -15.8125 7.9375 C-14.85279297 7.94845703 -13.89308594 7.95941406 -12.90429688 7.97070312 C-7.61698634 7.96509649 -7.61698634 7.96509649 -3.24365234 5.37939453 C-1.70110187 3.25133263 -1.70110187 3.25133263 0 0 Z " fill="#D3DCEC" transform="translate(193,55)"/>
<path d="M0 0 C0 0.33 0 0.66 0 1 C-0.93972656 1.09087891 -0.93972656 1.09087891 -1.8984375 1.18359375 C-2.71570313 1.26738281 -3.53296875 1.35117187 -4.375 1.4375 C-5.18710938 1.51871094 -5.99921875 1.59992187 -6.8359375 1.68359375 C-9.04272805 1.89090114 -9.04272805 1.89090114 -11 3 C-11.33 3.66 -11.66 4.32 -12 5 C-12.66 5 -13.32 5 -14 5 C-14 5.66 -14 6.32 -14 7 C-12.02 7 -10.04 7 -8 7 C-7.67 7.66 -7.34 8.32 -7 9 C-7.99 9 -8.98 9 -10 9 C-10.33 9.66 -10.66 10.32 -11 11 C-14.3 10.67 -17.6 10.34 -21 10 C-15.60642805 -0.78714389 -11.90172859 -0.86967976 0 0 Z " fill="#BEA787" transform="translate(74,36)"/>
<path d="M0 0 C0.33 0.99 0.66 1.98 1 3 C1.99 3 2.98 3 4 3 C4 6.63 4 10.26 4 14 C10.27 14 16.54 14 23 14 C23 14.33 23 14.66 23 15 C19.35418313 15.02887512 15.70839537 15.04675585 12.0625 15.0625 C10.50112305 15.07506836 10.50112305 15.07506836 8.90820312 15.08789062 C7.91884766 15.09111328 6.92949219 15.09433594 5.91015625 15.09765625 C4.99371338 15.10289307 4.07727051 15.10812988 3.13305664 15.11352539 C1 15 1 15 0 14 C-0.07271741 11.64686445 -0.08370868 9.29166332 -0.0625 6.9375 C-0.05347656 5.64714844 -0.04445313 4.35679688 -0.03515625 3.02734375 C-0.02355469 2.02832031 -0.01195313 1.02929688 0 0 Z " fill="#A6D3A5" transform="translate(113,36)"/>
<path d="M0 0 C2.95887459 -0.08069658 5.9155659 -0.14034665 8.875 -0.1875 C9.71675781 -0.21263672 10.55851563 -0.23777344 11.42578125 -0.26367188 C12.23144531 -0.27333984 13.03710938 -0.28300781 13.8671875 -0.29296875 C14.98262939 -0.31653442 14.98262939 -0.31653442 16.12060547 -0.34057617 C17.05090576 -0.17199097 17.05090576 -0.17199097 18 0 C18.66 0.99 19.32 1.98 20 3 C17.22858283 3.08089542 14.45952181 3.14044062 11.6875 3.1875 C10.90181641 3.21263672 10.11613281 3.23777344 9.30664062 3.26367188 C8.54931641 3.27333984 7.79199219 3.28300781 7.01171875 3.29296875 C6.31522217 3.3086792 5.61872559 3.32438965 4.90112305 3.34057617 C2.45510217 2.90238443 1.57297914 1.86562642 0 0 Z " fill="#F7ECC7" transform="translate(234,75)"/>
<path d="M0 0 C0.66 0 1.32 0 2 0 C2.33 0.66 2.66 1.32 3 2 C4.134375 1.67 5.26875 1.34 6.4375 1 C10 0 10 0 11 0 C10.67 2.64 10.34 5.28 10 8 C6.7 6.35 3.4 4.7 0 3 C0 2.01 0 1.02 0 0 Z " fill="#C1AC88" transform="translate(69,64)"/>
<path d="M0 0 C0.33 0 0.66 0 1 0 C1 4.29 1 8.58 1 13 C0.34 13 -0.32 13 -1 13 C-0.67 11.68 -0.34 10.36 0 9 C-1.98 9 -3.96 9 -6 9 C-5.02501855 7.4972763 -4.04490611 5.99788037 -3.0625 4.5 C-2.51722656 3.6646875 -1.97195312 2.829375 -1.41015625 1.96875 C-0.94480469 1.3190625 -0.47945312 0.669375 0 0 Z " fill="#FAFBFD" transform="translate(193,55)"/>
<path d="M0 0 C2.31 0 4.62 0 7 0 C7 0.66 7 1.32 7 2 C7.66 2 8.32 2 9 2 C9 1.34 9 0.68 9 0 C10.65 0.33 12.3 0.66 14 1 C12 3 12 3 9.3984375 3.1953125 C8.40070313 3.17210937 7.40296875 3.14890625 6.375 3.125 C4.87066406 3.09792969 4.87066406 3.09792969 3.3359375 3.0703125 C2.56507812 3.04710937 1.79421875 3.02390625 1 3 C0.67 2.01 0.34 1.02 0 0 Z " fill="#C5AC88" transform="translate(59,40)"/>
<path d="M0 0 C2 3 2 3 2 5 C3.32 5.33 4.64 5.66 6 6 C2.7 6 -0.6 6 -4 6 C-2 2 -2 2 0 0 Z " fill="#928983" transform="translate(57,40)"/>
<path d="M0 0 C2.97 0.495 2.97 0.495 6 1 C6.33 1.99 6.66 2.98 7 4 C5.71034824 5.37562854 4.37310707 6.70766393 3 8 C2.34 8 1.68 8 1 8 C2 6 3 4 4 2 C2.68 2 1.36 2 0 2 C0 1.34 0 0.68 0 0 Z " fill="#EEEEEC" transform="translate(191,38)"/>
</svg>
