<svg width="322" height="117" viewBox="0 0 322 117" fill="none" xmlns="http://www.w3.org/2000/svg">
<rect width="322" height="117" fill="white"/>
<path d="M55.5909 57.5455C55.5909 61.3864 54.8523 64.642 53.375 67.3125C51.8977 69.983 49.8977 72.0114 47.375 73.3977C44.8636 74.7841 42.0455 75.4773 38.9205 75.4773C35.7841 75.4773 32.9602 74.7784 30.4489 73.3807C27.9375 71.983 25.9432 69.9545 24.4659 67.2955C23 64.625 22.267 61.375 22.267 57.5455C22.267 53.7045 23 50.4489 24.4659 47.7784C25.9432 45.108 27.9375 43.0795 30.4489 41.6932C32.9602 40.3068 35.7841 39.6136 38.9205 39.6136C42.0455 39.6136 44.8636 40.3068 47.375 41.6932C49.8977 43.0795 51.8977 45.108 53.375 47.7784C54.8523 50.4489 55.5909 53.7045 55.5909 57.5455ZM46.9659 57.5455C46.9659 55.2727 46.642 53.3523 45.9943 51.7841C45.358 50.2159 44.4375 49.0284 43.233 48.2216C42.0398 47.4148 40.6023 47.0114 38.9205 47.0114C37.25 47.0114 35.8125 47.4148 34.608 48.2216C33.4034 49.0284 32.4773 50.2159 31.8295 51.7841C31.1932 53.3523 30.875 55.2727 30.875 57.5455C30.875 59.8182 31.1932 61.7386 31.8295 63.3068C32.4773 64.875 33.4034 66.0625 34.608 66.8693C35.8125 67.6761 37.25 68.0795 38.9205 68.0795C40.6023 68.0795 42.0398 67.6761 43.233 66.8693C44.4375 66.0625 45.358 64.875 45.9943 63.3068C46.642 61.7386 46.9659 59.8182 46.9659 57.5455ZM65.4091 75L58.5909 48.8182H66.9602L70.4886 65.5909H70.7102L74.4943 48.8182H82.6591L86.5455 65.4716H86.767L90.1932 48.8182H98.5625L91.7273 75H82.8125L78.7216 59.7443H78.4318L74.3409 75H65.4091ZM110.243 60.0682V75H101.908V48.8182H109.834V53.625H110.124C110.703 52.0227 111.692 50.767 113.089 49.858C114.487 48.9375 116.152 48.4773 118.084 48.4773C119.925 48.4773 121.521 48.892 122.874 49.7216C124.237 50.5398 125.294 51.6875 126.044 53.1648C126.805 54.6307 127.18 56.3466 127.169 58.3125V75H118.834V59.9489C118.845 58.4943 118.476 57.358 117.726 56.5398C116.987 55.7216 115.959 55.3125 114.641 55.3125C113.766 55.3125 112.993 55.5057 112.322 55.892C111.663 56.267 111.152 56.8068 110.788 57.5114C110.436 58.2159 110.254 59.0682 110.243 60.0682ZM142.642 75V40.0909H151.08V68.1477H165.602V75H142.642ZM177.351 75.4432C175.68 75.4432 174.197 75.1648 172.902 74.608C171.618 74.0398 170.601 73.1875 169.851 72.0511C169.112 70.9034 168.743 69.4659 168.743 67.7386C168.743 66.2841 168.999 65.0568 169.51 64.0568C170.021 63.0568 170.726 62.2443 171.624 61.6193C172.521 60.9943 173.555 60.5227 174.726 60.2045C175.896 59.875 177.146 59.6534 178.476 59.5398C179.964 59.4034 181.163 59.2614 182.072 59.1136C182.982 58.9545 183.641 58.733 184.05 58.4489C184.47 58.1534 184.68 57.7386 184.68 57.2045V57.1193C184.68 56.2443 184.379 55.5682 183.777 55.0909C183.175 54.6136 182.362 54.375 181.339 54.375C180.237 54.375 179.351 54.6136 178.68 55.0909C178.01 55.5682 177.584 56.2273 177.402 57.0682L169.714 56.7955C169.942 55.2045 170.527 53.7841 171.47 52.5341C172.425 51.2727 173.732 50.2841 175.391 49.5682C177.061 48.8409 179.067 48.4773 181.408 48.4773C183.078 48.4773 184.618 48.6761 186.027 49.0739C187.436 49.4602 188.663 50.0284 189.709 50.7784C190.754 51.517 191.561 52.4261 192.129 53.5057C192.709 54.5852 192.999 55.8182 192.999 57.2045V75H185.158V71.3523H184.953C184.487 72.2386 183.891 72.9886 183.163 73.6023C182.447 74.2159 181.601 74.6761 180.624 74.983C179.658 75.2898 178.567 75.4432 177.351 75.4432ZM179.925 69.9886C180.822 69.9886 181.629 69.8068 182.345 69.4432C183.072 69.0795 183.652 68.5795 184.084 67.9432C184.516 67.2955 184.732 66.5455 184.732 65.6932V63.2045C184.493 63.3295 184.203 63.4432 183.862 63.5455C183.533 63.6477 183.169 63.7443 182.771 63.8352C182.374 63.9261 181.964 64.0057 181.544 64.0739C181.124 64.142 180.72 64.2045 180.334 64.2614C179.55 64.3864 178.879 64.5795 178.322 64.8409C177.777 65.1023 177.357 65.4432 177.061 65.8636C176.777 66.2727 176.635 66.7614 176.635 67.3295C176.635 68.1932 176.942 68.8523 177.555 69.3068C178.18 69.7614 178.97 69.9886 179.925 69.9886ZM198.095 75V40.0909H206.43V53.3011H206.601C206.942 52.5057 207.425 51.7386 208.05 51C208.686 50.2614 209.493 49.6591 210.47 49.1932C211.459 48.7159 212.641 48.4773 214.016 48.4773C215.834 48.4773 217.533 48.9545 219.112 49.9091C220.703 50.8636 221.987 52.3352 222.964 54.3239C223.942 56.3125 224.43 58.8466 224.43 61.9261C224.43 64.892 223.959 67.375 223.016 69.375C222.084 71.375 220.822 72.875 219.232 73.875C217.652 74.875 215.896 75.375 213.964 75.375C212.646 75.375 211.504 75.1591 210.538 74.7273C209.572 74.2955 208.76 73.7273 208.101 73.0227C207.453 72.3182 206.953 71.5625 206.601 70.7557H206.345V75H198.095ZM206.26 61.9091C206.26 63.3182 206.447 64.5455 206.822 65.5909C207.209 66.6364 207.76 67.4489 208.476 68.0284C209.203 68.5966 210.072 68.8807 211.084 68.8807C212.107 68.8807 212.976 68.5966 213.692 68.0284C214.408 67.4489 214.947 66.6364 215.311 65.5909C215.686 64.5455 215.874 63.3182 215.874 61.9091C215.874 60.5 215.686 59.2784 215.311 58.2443C214.947 57.2102 214.408 56.4091 213.692 55.8409C212.987 55.2727 212.118 54.9886 211.084 54.9886C210.061 54.9886 209.192 55.267 208.476 55.8239C207.76 56.3807 207.209 57.1761 206.822 58.2102C206.447 59.2443 206.26 60.4773 206.26 61.9091ZM241.037 75.4943C238.298 75.4943 235.935 74.9545 233.946 73.875C231.969 72.7841 230.446 71.233 229.378 69.2216C228.321 67.1989 227.793 64.7955 227.793 62.0114C227.793 59.3068 228.327 56.9432 229.395 54.9205C230.463 52.8864 231.969 51.3068 233.912 50.1818C235.855 49.0455 238.145 48.4773 240.781 48.4773C242.645 48.4773 244.349 48.767 245.895 49.3466C247.44 49.9261 248.776 50.7841 249.901 51.9205C251.026 53.0568 251.901 54.4602 252.526 56.1307C253.151 57.7898 253.463 59.6932 253.463 61.8409V63.9205H230.707V59.0795H245.707C245.696 58.1932 245.486 57.4034 245.077 56.7102C244.668 56.017 244.105 55.4773 243.389 55.0909C242.685 54.6932 241.872 54.4943 240.952 54.4943C240.02 54.4943 239.185 54.7045 238.446 55.125C237.707 55.5341 237.122 56.0966 236.69 56.8125C236.259 57.517 236.031 58.3182 236.009 59.2159V64.142C236.009 65.2102 236.219 66.1477 236.639 66.9545C237.06 67.75 237.656 68.3693 238.429 68.8125C239.202 69.2557 240.122 69.4773 241.19 69.4773C241.929 69.4773 242.599 69.375 243.202 69.1705C243.804 68.9659 244.321 68.6648 244.753 68.267C245.185 67.8693 245.509 67.3807 245.724 66.8011L253.378 67.0227C253.06 68.7386 252.361 70.233 251.281 71.5057C250.213 72.767 248.81 73.75 247.071 74.4545C245.332 75.1477 243.321 75.4943 241.037 75.4943ZM266.055 40.0909V75H257.72V40.0909H266.055Z" fill="black"/>
</svg>
