<?xml version="1.0" encoding="UTF-8"?>
<svg version="1.1" xmlns="http://www.w3.org/2000/svg" width="322" height="117">
<path d="M0 0 C106.26 0 212.52 0 322 0 C322 38.61 322 77.22 322 117 C215.74 117 109.48 117 0 117 C0 78.39 0 39.78 0 0 Z " fill="#E97834" transform="translate(0,0)"/>
<path d="M0 0 C106.26 0 212.52 0 322 0 C322 38.61 322 77.22 322 117 C215.74 117 109.48 117 0 117 C0 78.39 0 39.78 0 0 Z M128 23 C126.69970931 23.34560098 125.39891303 23.68930453 124.09765625 24.03125 C120.3943452 25.00580554 116.69704592 26.00192236 113 27 C111.98808594 27.268125 110.97617188 27.53625 109.93359375 27.8125 C100.42489254 30.3516803 91.22640499 33.58560251 82 37 C81.38721191 37.22469971 80.77442383 37.44939941 80.14306641 37.6809082 C42.50457883 51.58549874 42.50457883 51.58549874 15 79 C14.04948828 81.85153516 13.77343321 83.89899741 13.6875 86.875 C13.65011719 87.71804687 13.61273438 88.56109375 13.57421875 89.4296875 C14.28922852 93.74598502 16.78272702 96.11779519 20.2421875 98.625 C35.84454455 106.77341199 54.25106188 109.09861573 71.65625 109.23828125 C73.16841095 109.2527681 73.16841095 109.2527681 74.71112061 109.26754761 C77.97411815 109.29234546 81.23691834 109.3049485 84.5 109.3125 C85.61548218 109.31545074 86.73096436 109.31840149 87.88024902 109.32144165 C105.71529951 109.33215483 122.96870753 108.25856031 140.58203125 105.52148438 C143.86272589 105.02094411 147.14452426 104.58298564 150.4375 104.171875 C159.0198251 103.09618801 167.46769572 101.91979188 175.85546875 99.74609375 C178.58757631 99.09785457 181.28930639 98.59045877 184.0546875 98.11328125 C190.43512373 96.97359109 196.6715584 95.39726701 202.9375 93.75 C204.11320557 93.44280029 205.28891113 93.13560059 206.50024414 92.8190918 C216.74248896 90.11709868 226.89530523 87.17548586 237 84 C238.15757812 83.64164062 239.31515625 83.28328125 240.5078125 82.9140625 C246.31150109 81.05866333 251.82322136 78.85103486 257.33203125 76.24609375 C259.88781697 75.05239588 262.47056719 73.93882204 265.06518555 72.83276367 C294.40565658 60.28955629 294.40565658 60.28955629 315 37 C316.21666102 33.35001694 316.75501773 29.78201543 316 26 C310.09121644 17.12333428 299.63728166 14.63459473 289.8125 12.25 C289.00111572 12.05148438 288.18973145 11.85296875 287.35375977 11.6484375 C273.19063637 8.44531462 258.96643926 7.64620002 244.5 7.75 C243.72108398 7.75310181 242.94216797 7.75620361 242.13964844 7.75939941 C204.09542419 7.93567357 164.69570081 12.83180581 128 23 Z " fill="#FEFEFD" transform="translate(0,0)"/>
<path d="M0 0 C2.44139919 1.43787927 3.99656293 2.94519275 6 5 C6.350625 4.34 6.70125 3.68 7.0625 3 C9 1 9 1 12.5625 0.625 C16 1 16 1 18 3 C18.3267107 6.07108055 18.48138276 8.15050101 16.9375 10.875 C13.99772876 12.58196395 11.32129197 12.18799766 8 12 C7.67 12.66 7.34 13.32 7 14 C4.71484375 14.4140625 4.71484375 14.4140625 1.9375 14.625 C1.01839844 14.69976562 0.09929687 14.77453125 -0.84765625 14.8515625 C-1.91306641 14.92503906 -1.91306641 14.92503906 -3 15 C-3.495 12.525 -3.495 12.525 -4 10 C-5.65 10.33 -7.3 10.66 -9 11 C-9.33 12.65 -9.66 14.3 -10 16 C-9.26394531 16.02578125 -8.52789062 16.0515625 -7.76953125 16.078125 C2.04412324 16.64853556 2.04412324 16.64853556 6 21 C8.01683142 25.03366284 7.7339215 29.63757063 7 34 C4.42193028 38.30599849 1.14653915 41.23564057 -3 44 C-8.08746258 44.6772783 -12.55682364 44.82467221 -17.0625 42.25 C-20.65110378 38.08258916 -21.25157139 35.53457057 -21 30 C-17.52674819 28.8422494 -14.63932552 28.93133348 -11 29 C-10.505 31.475 -10.505 31.475 -10 34 C-7.58354218 34.16687448 -7.58354218 34.16687448 -5 34 C-2.71271266 32.16116119 -2.71271266 32.16116119 -2.875 29.375 C-2.91625 28.59125 -2.9575 27.8075 -3 27 C-5.28378744 25.85810628 -6.77663188 25.86933497 -9.3125 25.75 C-13.02919948 25.37833005 -13.95554667 25.03447401 -17.0625 22.625 C-19 20 -19 20 -19 17 C-19.66 17 -20.32 17 -21 17 C-21.28875 17.61875 -21.5775 18.2375 -21.875 18.875 C-23 21 -23 21 -25 23 C-25.763125 23.04125 -26.52625 23.0825 -27.3125 23.125 C-31.08357174 24.3527908 -31.93379506 26.61784201 -33.7890625 29.9921875 C-34.99593227 31.99325544 -36.28617248 33.42486372 -38 35 C-36.61065083 38.15052041 -34.99788036 40.22003223 -32.5234375 42.6015625 C-31.853125 43.25640625 -31.1828125 43.91125 -30.4921875 44.5859375 C-29.79351562 45.25882813 -29.09484375 45.93171875 -28.375 46.625 C-26.98247895 47.96669911 -25.59421233 49.31283265 -24.2109375 50.6640625 C-23.59524902 51.25654785 -22.97956055 51.8490332 -22.34521484 52.45947266 C-21 54 -21 54 -21 56 C-24.82521202 57.16714146 -28.02761114 57.6018771 -32 57 C-36.01144508 54.22586723 -39.22926618 51.00074101 -42.55712891 47.45996094 C-44.88148487 45.10807453 -47.42757823 43.07465625 -50 41 C-50.03738281 41.69867188 -50.07476562 42.39734375 -50.11328125 43.1171875 C-50.17902344 44.02726562 -50.24476563 44.93734375 -50.3125 45.875 C-50.37050781 46.77992187 -50.42851562 47.68484375 -50.48828125 48.6171875 C-51 51 -51 51 -54 53 C-56.31 53 -58.62 53 -61 53 C-61 39.14 -61 25.28 -61 11 C-58.69 10.34 -56.38 9.68 -54 9 C-53.30777344 8.79890625 -52.61554688 8.5978125 -51.90234375 8.390625 C-46.59832047 7.30150318 -40.88894565 7.15190195 -35.9375 9.375 C-34 11 -34 11 -32 13 C-31.67 10.36 -31.34 7.72 -31 5 C-26.8803623 3.70756464 -23.33168317 2.73747375 -19 3 C-18.505 4.98 -18.505 4.98 -18 7 C-17.67 6.34 -17.34 5.68 -17 5 C-16.34 5 -15.68 5 -15 5 C-15 4.34 -15 3.68 -15 3 C-10.08289263 -0.02591223 -5.66580703 -1.13114151 0 0 Z " fill="#E1D0C8" transform="translate(271,18)"/>
<path d="M0 0 C0 14.19 0 28.38 0 43 C-4.455 43.495 -4.455 43.495 -9 44 C-9.495 35.09 -9.495 35.09 -10 26 C-10.56589844 27.43214844 -11.13179687 28.86429688 -11.71484375 30.33984375 C-12.45559351 32.20578303 -13.19648631 34.07166552 -13.9375 35.9375 C-14.31068359 36.88302734 -14.68386719 37.82855469 -15.06835938 38.80273438 C-15.42607422 39.70185547 -15.78378906 40.60097656 -16.15234375 41.52734375 C-16.48226318 42.35999756 -16.81218262 43.19265137 -17.15209961 44.05053711 C-18 46 -18 46 -19 47 C-20.99958364 47.04080783 -23.00045254 47.04254356 -25 47 C-28 41 -31 35 -34 29 C-34.33 35.93 -34.66 42.86 -35 50 C-38.91383188 50.71532175 -42.82796294 51.42848998 -46.74316406 52.13623047 C-48.07412164 52.37748677 -49.40485441 52.61998685 -50.73535156 52.86376953 C-52.6510921 53.21455909 -54.56772526 53.56046268 -56.484375 53.90625 C-57.63647461 54.11572266 -58.78857422 54.32519531 -59.97558594 54.54101562 C-63 55 -63 55 -67 55 C-67 40.81 -67 26.62 -67 12 C-62.545 11.505 -62.545 11.505 -58 11 C-58 21.89 -58 32.78 -58 44 C-51.07 43.01 -51.07 43.01 -44 42 C-44 30.78 -44 19.56 -44 8 C-40.41996227 6.80665409 -37.75684104 6.66456776 -34 7 C-30.60300719 10.45163613 -28.82733853 15.28198457 -26.8125 19.625 C-26.44447266 20.40101562 -26.07644531 21.17703125 -25.69726562 21.9765625 C-23 27.7414048 -23 27.7414048 -23 30 C-22.34 30 -21.68 30 -21 30 C-20.85884766 28.77990234 -20.85884766 28.77990234 -20.71484375 27.53515625 C-19.84324709 23.2248012 -18.28996885 19.46591514 -16.5625 15.4375 C-15.93869064 13.9570782 -15.31498994 12.47661062 -14.69140625 10.99609375 C-14.39532471 10.30588135 -14.09924316 9.61566895 -13.79418945 8.90454102 C-13.12866959 7.30856179 -12.53224677 5.68400771 -11.953125 4.0546875 C-11 2 -11 2 -8.1875 0.6875 C-5 0 -5 0 0 0 Z " fill="#D9CBC4" transform="translate(181,34)"/>
<path d="M0 0 C1.08539063 -0.01675781 2.17078125 -0.03351562 3.2890625 -0.05078125 C6.76382014 0.3582725 8.59054424 1.22660069 11.375 3.3125 C13.86130165 7.04195248 14.1421941 9.99319722 13.375 14.3125 C11.40537642 18.6380964 9.34545101 21.66553266 5.375 24.3125 C4.385 24.3125 3.395 24.3125 2.375 24.3125 C5.26403993 28.2849299 8.56854957 31.29939429 12.26953125 34.47265625 C14.3642994 36.30314938 16.38394331 38.18240717 18.375 40.125 C18.9525 40.68832031 19.53 41.25164062 20.125 41.83203125 C21.375 43.3125 21.375 43.3125 21.375 45.3125 C14.65641574 46.11783529 14.65641574 46.11783529 11.38916016 44.06445312 C9.39331538 42.30700235 7.53239722 40.47769711 5.6875 38.5625 C4.41409469 37.29553253 3.13938407 36.02987547 1.86328125 34.765625 C1.2698291 34.16814453 0.67637695 33.57066406 0.06494141 32.95507812 C-2.04175568 30.90742456 -4.28400408 29.08503229 -6.625 27.3125 C-6.68558594 28.23933594 -6.74617187 29.16617188 -6.80859375 30.12109375 C-6.93427734 31.91740234 -6.93427734 31.91740234 -7.0625 33.75 C-7.14371094 34.94496094 -7.22492188 36.13992187 -7.30859375 37.37109375 C-7.625 40.3125 -7.625 40.3125 -8.625 41.3125 C-10.275 41.3125 -11.925 41.3125 -13.625 41.3125 C-13.625 28.4425 -13.625 15.5725 -13.625 2.3125 C-8.37649097 0.81292599 -5.20086478 0.01861885 0 0 Z " fill="#362627" transform="translate(225.625,27.6875)"/>
<path d="M0 0 C2.31 0 4.62 0 7 0 C7 12.87 7 25.74 7 39 C5.35 39 3.7 39 2 39 C2 30.09 2 21.18 2 12 C1.34 12 0.68 12 0 12 C-0.0928125 13.36125 -0.0928125 13.36125 -0.1875 14.75 C-0.85374372 19.46129489 -2.77272243 23.58446735 -4.67578125 27.9140625 C-6.25332302 31.59033978 -7.55323635 35.34076535 -8.8125 39.13671875 C-10 41 -10 41 -12.625 41.76953125 C-13.40875 41.84558594 -14.1925 41.92164063 -15 42 C-18.66666667 34.66666667 -22.33333333 27.33333333 -26 20 C-26.33 28.25 -26.66 36.5 -27 45 C-29.97 45.495 -29.97 45.495 -33 46 C-33 32.8 -33 19.6 -33 6 C-30.69 6 -28.38 6 -26 6 C-24.3673917 9.03764089 -22.74530892 12.08078323 -21.125 15.125 C-20.43470703 16.40890625 -20.43470703 16.40890625 -19.73046875 17.71875 C-17.42024407 22.07134722 -15.35883566 26.23626578 -14 31 C-13.34 31 -12.68 31 -12 31 C-11.82984375 30.39414063 -11.6596875 29.78828125 -11.484375 29.1640625 C-9.68218906 22.93310048 -7.47387908 16.99084898 -5 11 C-3.94130241 8.31225012 -2.88532032 5.62346744 -1.83203125 2.93359375 C-1 1 -1 1 0 0 Z " fill="#362728" transform="translate(172,37)"/>
<path d="M0 0 C0.98613281 -0.02835938 1.97226563 -0.05671875 2.98828125 -0.0859375 C6.40712441 0.4978881 7.53262961 1.72209321 9.6875 4.375 C11.29805776 7.59611552 11.14367429 10.88200828 10.6875 14.375 C8.23852214 19.46887395 4.87558077 22.28368062 -0.3125 24.375 C-3.30724227 25.21429083 -6.24753543 25.80916039 -9.3125 26.375 C-9.6425 31.325 -9.9725 36.275 -10.3125 41.375 C-11.9625 41.375 -13.6125 41.375 -15.3125 41.375 C-15.3125 28.505 -15.3125 15.635 -15.3125 2.375 C-4.9181338 0.06514085 -4.9181338 0.06514085 0 0 Z " fill="#322324" transform="translate(75.3125,55.625)"/>
<path d="M0 0 C1.2065625 0.0309375 1.2065625 0.0309375 2.4375 0.0625 C2.46214775 5.59838533 2.48033496 11.134239 2.49243164 16.67016602 C2.49747244 18.5549373 2.50430498 20.43970465 2.51293945 22.32446289 C2.52501617 25.02751636 2.53073068 27.73051831 2.53515625 30.43359375 C2.54031754 31.28150986 2.54547882 32.12942596 2.55079651 33.0030365 C2.55099195 35.02321068 2.49956211 37.04327934 2.4375 39.0625 C2.1075 39.3925 1.7775 39.7225 1.4375 40.0625 C-0.2125 40.0625 -1.8625 40.0625 -3.5625 40.0625 C-3.5625 36.1025 -3.5625 32.1425 -3.5625 28.0625 C-13.3459655 28.76901333 -13.3459655 28.76901333 -21.38671875 33.828125 C-22.87424506 35.91924857 -24.29595551 38.05948735 -25.6328125 40.25 C-27.71184182 43.28016419 -29.19227219 44.63461532 -32.5625 46.0625 C-34.875 45.75 -34.875 45.75 -36.5625 45.0625 C-35.83160156 44.09376953 -35.83160156 44.09376953 -35.0859375 43.10546875 C-30.83349301 37.45358344 -26.61348072 31.77982762 -22.42700195 26.07885742 C-3.33561254 0.0813564 -3.33561254 0.0813564 0 0 Z " fill="#38292A" transform="translate(108.5625,48.9375)"/>
<path d="M0 0 C0 14.19 0 28.38 0 43 C-4.455 43.495 -4.455 43.495 -9 44 C-9 40.04 -9 36.08 -9 32 C-17.41349001 32.98989719 -17.41349001 32.98989719 -23.8125 38.0234375 C-25.12573104 39.76067685 -26.34782346 41.52020037 -27.52490234 43.35229492 C-29.49548406 46.35869523 -30.762739 47.89250993 -34.078125 49.39453125 C-37.13620093 50.02822345 -39.88553555 50.14830783 -43 50 C-41.55049595 45.64352355 -39.32252888 42.68242711 -36.375 39.1875 C-35.55773437 38.21167969 -34.74046875 37.23585937 -33.8984375 36.23046875 C-33.27195312 35.49441406 -32.64546875 34.75835937 -32 34 C-34.79784711 34 -36.9790678 34.37195775 -39.6875 35 C-41.8221875 35.495 -41.8221875 35.495 -44 36 C-44.33 40.95 -44.66 45.9 -45 51 C-49.455 51.495 -49.455 51.495 -54 52 C-54 37.81 -54 23.62 -54 9 C-33.94117647 5.35294118 -33.94117647 5.35294118 -27.875 8.75 C-24.53175741 12.7618911 -23.81153727 15.86492795 -23 21 C-21.43592506 18.98036926 -19.8737245 16.9593325 -18.3125 14.9375 C-17.85278809 14.34420898 -17.39307617 13.75091797 -16.91943359 13.13964844 C-14.55054825 10.069089 -12.27253285 6.9814611 -10.125 3.75 C-7.01301656 -0.27727268 -5.0052998 0 0 0 Z M-7.96484375 3.73828125 C-8.61582031 4.58777344 -9.26679687 5.43726563 -9.9375 6.3125 C-10.71222656 7.31410156 -11.48695312 8.31570312 -12.28515625 9.34765625 C-13.19231358 10.56345876 -14.09706745 11.78105661 -15 13 C-15.52835449 13.70753418 -16.05670898 14.41506836 -16.60107422 15.14404297 C-20.17963224 19.94240115 -23.72241806 24.76613047 -27.25 29.60205078 C-29.46060678 32.63114953 -31.67961412 35.65403442 -33.89892578 38.67675781 C-35.93456227 41.44974857 -37.96735433 44.22481643 -40 47 C-38.25328412 47.79356801 -38.25328412 47.79356801 -36 48 C-31.38867377 46.04629169 -29.6760417 43.18002013 -27.125 39 C-23.82216671 34.3569678 -21.45609239 32.29224229 -16.01318359 31.08984375 C-13.00808054 30.5978297 -10.03650172 30.24003966 -7 30 C-7 33.96 -7 37.92 -7 42 C-5.35 42 -3.7 42 -2 42 C-0.57174014 40.8000901 -0.57174014 40.8000901 -0.88647461 37.30639648 C-0.88663376 35.66128708 -0.89233012 34.01617269 -0.90234375 32.37109375 C-0.9037587 31.50686295 -0.90517365 30.64263214 -0.90663147 29.75221252 C-0.91224761 26.98060708 -0.92480281 24.2090812 -0.9375 21.4375 C-0.94251292 19.5631522 -0.94707619 17.68880315 -0.95117188 15.81445312 C-0.96222228 11.20960456 -0.9794977 6.60481579 -1 2 C-4.84910441 1.69387776 -4.84910441 1.69387776 -7.96484375 3.73828125 Z M-52 11 C-52 23.87 -52 36.74 -52 50 C-50.35 50 -48.7 50 -47 50 C-46.67 45.05 -46.34 40.1 -46 35 C-44.30875 34.5875 -42.6175 34.175 -40.875 33.75 C-35.17688968 32.18265346 -30.9833691 30.38004292 -27.125 25.75 C-25.32755021 21.35623384 -25.2521609 17.18599122 -26.8125 12.625 C-28.07545078 10.70088836 -28.07545078 10.70088836 -31 9 C-33.66702709 8.68093811 -33.66702709 8.68093811 -36.625 8.75 C-38.09839844 8.74226563 -38.09839844 8.74226563 -39.6015625 8.734375 C-43.79003531 9.06174989 -47.89879676 10.0886215 -52 11 Z " fill="#EBD7CD" transform="translate(112,47)"/>
<path d="M0 0 C0 1.98 0 3.96 0 6 C-5.28 6.66 -10.56 7.32 -16 8 C-16 11.63 -16 15.26 -16 19 C-10.72 18.34 -5.44 17.68 0 17 C0 18.65 0 20.3 0 22 C-1.69886789 23.69886789 -4.00005471 23.6490164 -6.3125 24.0625 C-7.76076172 24.32740234 -7.76076172 24.32740234 -9.23828125 24.59765625 C-12 25 -12 25 -16 25 C-16 28.63 -16 32.26 -16 36 C-8.08 35.01 -8.08 35.01 0 34 C0 35.65 0 37.3 0 39 C-1.78907154 39.48876697 -3.5814592 39.96539669 -5.375 40.4375 C-6.37273437 40.70433594 -7.37046875 40.97117188 -8.3984375 41.24609375 C-12.87285129 42.18271182 -17.45129415 42.54512941 -22 43 C-22 30.13 -22 17.26 -22 4 C-3.33333333 0 -3.33333333 0 0 0 Z " fill="#372829" transform="translate(207,31)"/>
<path d="M0 0 C3 1.625 3 1.625 5 4 C5.8125 7.25 5.8125 7.25 6 10 C3.1875 10.25 3.1875 10.25 0 10 C-1.875 8 -1.875 8 -3 6 C-6.93075644 6.57452746 -6.93075644 6.57452746 -10 9 C-10.2500773 11.54190002 -10.2500773 11.54190002 -10 14 C-8.40459193 15.59540807 -6.4431359 15.46536163 -4.25 15.8125 C0.1301385 16.64591691 2.82443522 17.72199765 6 21 C7.76004416 24.52008832 6.92086734 28.27267981 6 32 C3.85744923 35.81165399 1.04879026 38.35240834 -3 40 C-7.02573524 40.68077474 -11.23894094 41.16753139 -14.76171875 38.83203125 C-16.96318213 36.37825115 -17.95724877 34.39331132 -18.3125 31.125 C-18.209375 30.42375 -18.10625 29.7225 -18 29 C-15.1875 28.6875 -15.1875 28.6875 -12 29 C-10.125 31.5 -10.125 31.5 -9 34 C-4.85328647 33.54668639 -4.85328647 33.54668639 -1.125 31.8125 C0.4794051 29.22762511 0.07269723 26.98462498 0 24 C-0.97582031 23.75765625 -1.95164062 23.5153125 -2.95703125 23.265625 C-4.86548828 22.76289062 -4.86548828 22.76289062 -6.8125 22.25 C-8.07707031 21.92515625 -9.34164063 21.6003125 -10.64453125 21.265625 C-14.13403668 19.94944367 -15.30462661 19.25560833 -17 16 C-17.55425081 11.72435092 -17.3051626 9.56673055 -15.25 5.75 C-10.67629865 0.15992057 -7.19413813 -1.14131603 0 0 Z " fill="#372829" transform="translate(270,20)"/>
<path d="M0 0 C0 2.97 0 5.94 0 9 C-5.56069582 11.25433614 -11.0785651 11.59961828 -17 12 C-17 14.64 -17 17.28 -17 20 C-16.030625 19.67 -15.06125 19.34 -14.0625 19 C-9.70233163 17.73126248 -5.50445434 17.81614472 -1 18 C-1 20.64 -1 23.28 -1 26 C-6.07476794 27.26305335 -10.72796354 28.27036084 -16 28 C-16 30.64 -16 33.28 -16 36 C-15.34773437 35.855625 -14.69546875 35.71125 -14.0234375 35.5625 C-9.27379823 34.55372706 -4.88590812 33.74284694 0 34 C0 36.97 0 39.94 0 43 C-3.58227157 43.67245837 -7.1659751 44.33695539 -10.75 45 C-12.27367187 45.28617188 -12.27367187 45.28617188 -13.828125 45.578125 C-14.8078125 45.75859375 -15.7875 45.9390625 -16.796875 46.125 C-18.14797363 46.37636719 -18.14797363 46.37636719 -19.52636719 46.6328125 C-22 47 -22 47 -26 47 C-26 32.81 -26 18.62 -26 4 C-4.66666667 0 -4.66666667 0 0 0 Z M-11.875 3.4375 C-12.59558594 3.57220703 -13.31617188 3.70691406 -14.05859375 3.84570312 C-17.40366204 4.47713867 -20.6960635 5.17401587 -24 6 C-24 18.87 -24 31.74 -24 45 C-15.49460179 44.17582529 -15.49460179 44.17582529 -7.375 42.4375 C-6.35148437 42.16808594 -5.32796875 41.89867187 -4.2734375 41.62109375 C-3.52320313 41.41613281 -2.77296875 41.21117187 -2 41 C-2 39.35 -2 37.7 -2 36 C-9.92 36.99 -9.92 36.99 -18 38 C-18 34.37 -18 30.74 -18 27 C-16.2365625 26.7834375 -16.2365625 26.7834375 -14.4375 26.5625 C-12.95825484 26.37562027 -11.47908957 26.18810721 -10 26 C-8.0509375 25.7525 -8.0509375 25.7525 -6.0625 25.5 C-3.13307539 25.32771855 -3.13307539 25.32771855 -2 24 C-2 22.35 -2 20.7 -2 19 C-7.28 19.66 -12.56 20.32 -18 21 C-18 17.37 -18 13.74 -18 10 C-12.72 9.34 -7.44 8.68 -2 8 C-2 6.02 -2 4.04 -2 2 C-5.34494719 2 -8.59814721 2.81402801 -11.875 3.4375 Z " fill="#DDC8BD" transform="translate(209,29)"/>
<path d="M0 0 C2.01709742 1.76496024 3.53275705 3.51052392 5 5.75 C4.01 6.245 4.01 6.245 3 6.75 C2.566875 6.110625 2.13375 5.47125 1.6875 4.8125 C0.08760823 2.48253997 0.08760823 2.48253997 -3 1.75 C-5.08155401 1.65436103 -7.16625568 1.62015408 -9.25 1.625 C-10.34828125 1.62242188 -11.4465625 1.61984375 -12.578125 1.6171875 C-16.06991596 1.75271363 -19.54070065 2.25581438 -23 2.75 C-23 15.62 -23 28.49 -23 41.75 C-20.525 41.255 -20.525 41.255 -18 40.75 C-17.67 36.13 -17.34 31.51 -17 26.75 C-13.03461556 29.5490949 -9.31998104 32.38335007 -5.85546875 35.78515625 C-5.30205811 36.32301758 -4.74864746 36.86087891 -4.1784668 37.41503906 C-3.07825579 38.49492617 -1.99178131 39.58902934 -0.92114258 40.69824219 C3.23892921 44.75980121 6.19897791 45.51669802 12 45.75 C7.41200398 40.11193447 2.37258495 35.20741445 -3.08691406 30.43237305 C-4.42631042 29.24324315 -5.71781429 28.00060479 -7 26.75 C-7 26.09 -7 25.43 -7 24.75 C-5.906875 24.21375 -4.81375 23.6775 -3.6875 23.125 C0.07802232 20.96457911 1.50692028 18.89744365 3 14.75 C3.70758326 11.5133037 3.70758326 11.5133037 4 8.75 C4.33 8.75 4.66 8.75 5 8.75 C5.98301637 11.77466574 6.39942113 13.86994763 5.05859375 16.82421875 C2.99119759 20.16290927 0.85239795 23.04022195 -2 25.75 C-0.61065083 28.90052041 1.00211964 30.97003223 3.4765625 33.3515625 C4.146875 34.00640625 4.8171875 34.66125 5.5078125 35.3359375 C6.20648438 36.00882813 6.90515625 36.68171875 7.625 37.375 C9.01752105 38.71669911 10.40578767 40.06283265 11.7890625 41.4140625 C12.40475098 42.00654785 13.02043945 42.5990332 13.65478516 43.20947266 C15 44.75 15 44.75 15 46.75 C11.17478798 47.91714146 7.97238886 48.3518771 4 47.75 C-0.01144508 44.97586723 -3.22926618 41.75074101 -6.55712891 38.20996094 C-8.88148487 35.85807453 -11.42757823 33.82465625 -14 31.75 C-14.03738281 32.44867188 -14.07476562 33.14734375 -14.11328125 33.8671875 C-14.17902344 34.77726562 -14.24476563 35.68734375 -14.3125 36.625 C-14.37050781 37.52992187 -14.42851562 38.43484375 -14.48828125 39.3671875 C-15 41.75 -15 41.75 -18 43.75 C-20.31 43.75 -22.62 43.75 -25 43.75 C-25 29.89 -25 16.03 -25 1.75 C-22.69 1.09 -20.38 0.43 -18 -0.25 C-17.30777344 -0.45109375 -16.61554688 -0.6521875 -15.90234375 -0.859375 C-10.65292957 -1.93728346 -4.95562791 -2.06484496 0 0 Z " fill="#E3D1C9" transform="translate(235,27.25)"/>
<path d="M0 0 C7.66816143 -0.76681614 7.66816143 -0.76681614 10.93359375 1.11328125 C12.5625 2.5 12.5625 2.5 15 5 C15.5259375 4.01 15.5259375 4.01 16.0625 3 C18 1 18 1 21.5625 0.625 C25 1 25 1 27 3 C27.3267107 6.07108055 27.48138276 8.15050101 25.9375 10.875 C22.99772876 12.58196395 20.32129197 12.18799766 17 12 C16.67 12.66 16.34 13.32 16 14 C13.71484375 14.4140625 13.71484375 14.4140625 10.9375 14.625 C10.01839844 14.69976562 9.09929687 14.77453125 8.15234375 14.8515625 C7.08693359 14.92503906 7.08693359 14.92503906 6 15 C5.67 13.35 5.34 11.7 5 10 C3.35 10.33 1.7 10.66 0 11 C-0.33 12.65 -0.66 14.3 -1 16 C-0.26394531 16.02578125 0.47210938 16.0515625 1.23046875 16.078125 C11.04412324 16.64853556 11.04412324 16.64853556 15 21 C17.01683142 25.03366284 16.7339215 29.63757063 16 34 C13.42193028 38.30599849 10.14653915 41.23564057 6 44 C0.85506585 44.68492931 -3.58542172 44.82045541 -8.125 42.1875 C-10 40 -10 40 -11 37 C-10.01 36.505 -10.01 36.505 -9 36 C-8.54625 36.825 -8.0925 37.65 -7.625 38.5 C-4.6871544 41.29794819 -4.00894628 41.42796572 -0.125 41.5625 C4.60615484 41.30469038 7.45188472 40.28849709 11 37 C13.61707362 32.98715379 14.81314468 29.77722497 14 25 C11.87806041 21.88782193 10.17831387 20.3237126 6.51171875 19.31640625 C4.75085797 18.98767826 2.98187173 18.6991759 1.20703125 18.45703125 C-1 18 -1 18 -3 16 C-3.52588107 12.66941989 -3.28406594 11.39979651 -1.3125 8.625 C1 7 1 7 3.625 7 C6 8 6 8 7.3125 10.0625 C7.539375 10.701875 7.76625 11.34125 8 12 C9.98 12 11.96 12 14 12 C12.07608351 6.68588506 12.07608351 6.68588506 8 3 C6.80375 2.835 5.6075 2.67 4.375 2.5 C2.704375 2.2525 2.704375 2.2525 1 2 C0.67 1.34 0.34 0.68 0 0 Z " fill="#EED7CA" transform="translate(262,18)"/>
<path d="M0 0 C0 11.22 0 22.44 0 34 C4.29 33.01 8.58 32.02 13 31 C13.99 31 14.98 31 16 31 C16 32.98 16 34.96 16 37 C13.43850372 37.50567729 10.87600535 38.00470132 8.3125 38.5 C7.59126953 38.64308594 6.87003906 38.78617188 6.12695312 38.93359375 C5.06831055 39.13662109 5.06831055 39.13662109 3.98828125 39.34375 C3.34415283 39.46943359 2.70002441 39.59511719 2.03637695 39.72460938 C0 40 0 40 -5 40 C-5 27.13 -5 14.26 -5 1 C-3 0 -3 0 0 0 Z " fill="#322324" transform="translate(121,47)"/>
<path d="M0 0 C0 14.19 0 28.38 0 43 C-4.455 43.495 -4.455 43.495 -9 44 C-9.19656362 39.72953289 -9.38070249 35.45861919 -9.5625 31.1875 C-9.61857422 29.97255859 -9.67464844 28.75761719 -9.73242188 27.50585938 C-9.78076172 26.34248047 -9.82910156 25.17910156 -9.87890625 23.98046875 C-9.9260376 22.90692139 -9.97316895 21.83337402 -10.02172852 20.72729492 C-10 18 -10 18 -9 15 C-8.34 15 -7.68 15 -7 15 C-7 23.91 -7 32.82 -7 42 C-5.35 42 -3.7 42 -2 42 C-2 29.13 -2 16.26 -2 3 C-4.31 3.33 -6.62 3.66 -9 4 C-9.30292969 4.88300781 -9.60585937 5.76601563 -9.91796875 6.67578125 C-16.29425028 24.94137542 -16.29425028 24.94137542 -21 32 C-21.66 31.34 -22.32 30.68 -23 30 C-22.34 30 -21.68 30 -21 30 C-20.90589844 29.18660156 -20.81179687 28.37320313 -20.71484375 27.53515625 C-19.84324709 23.2248012 -18.28996885 19.46591514 -16.5625 15.4375 C-15.93869064 13.9570782 -15.31498994 12.47661062 -14.69140625 10.99609375 C-14.39532471 10.30588135 -14.09924316 9.61566895 -13.79418945 8.90454102 C-13.12866959 7.30856179 -12.53224677 5.68400771 -11.953125 4.0546875 C-11 2 -11 2 -8.1875 0.6875 C-5 0 -5 0 0 0 Z " fill="#D8C2B7" transform="translate(181,34)"/>
<path d="M0 0 C1.14662109 -0.03867187 1.14662109 -0.03867187 2.31640625 -0.078125 C4.98714714 0.33502829 5.83109476 1.11147302 7.4375 3.25 C8.00569707 6.98386644 7.74299314 8.73301162 5.8125 12 C1.29402894 16.2806568 -2.40830519 16.25 -8.5625 16.25 C-8.5625 11.3 -8.5625 6.35 -8.5625 1.25 C-5.4522946 0.47244865 -3.13572083 0.06366946 0 0 Z " fill="#EA7D3B" transform="translate(225.5625,32.75)"/>
<path d="M0 0 C0.99 0.66 1.98 1.32 3 2 C3.50034373 5.85979449 3.64896527 8.0764725 1.375 11.3125 C-3.08176111 14.47914605 -6.5495623 15 -12 15 C-12 10.71 -12 6.42 -12 2 C-4.73684211 -0.42105263 -4.73684211 -0.42105263 0 0 Z " fill="#E97B38" transform="translate(77,61)"/>
<path d="M0 0 C0.33 0 0.66 0 1 0 C1 12.87 1 25.74 1 39 C2.65 39 4.3 39 6 39 C6 34.05 6 29.1 6 24 C8.94109559 22.52945221 10.92444002 21.65232742 14 20.9375 C14.66 20.78152344 15.32 20.62554687 16 20.46484375 C16.66 20.31144531 17.32 20.15804687 18 20 C19.33387644 19.66884665 20.66736952 19.33613224 22 19 C22.66 20.32 23.32 21.64 24 23 C23.44570312 23.68707031 22.89140625 24.37414062 22.3203125 25.08203125 C21.59585938 25.98308594 20.87140625 26.88414063 20.125 27.8125 C19.40570313 28.70582031 18.68640625 29.59914063 17.9453125 30.51953125 C15.92059294 33.03570953 15.92059294 33.03570953 14 36 C15.98 36.33 17.96 36.66 20 37 C16.5980513 39.09350689 13.94727588 39.17942163 10 39 C11.44950405 34.64352355 13.67747112 31.68242711 16.625 28.1875 C17.85089844 26.72376953 17.85089844 26.72376953 19.1015625 25.23046875 C19.72804688 24.49441406 20.35453125 23.75835937 21 23 C18.20215289 23 16.0209322 23.37195775 13.3125 24 C11.889375 24.33 10.46625 24.66 9 25 C8.67 29.95 8.34 34.9 8 40 C3.545 40.495 3.545 40.495 -1 41 C-0.67 27.47 -0.34 13.94 0 0 Z " fill="#DDD3CE" transform="translate(59,58)"/>
<path d="M0 0 C2.92358138 1.23098163 3.07318515 2.22279499 4.375 5 C6.42500871 5.80528889 6.42500871 5.80528889 8.375 6 C7.715 6.66 7.055 7.32 6.375 8 C5.055 8 3.735 8 2.375 8 C2.045 6.35 1.715 4.7 1.375 3 C-0.275 3.33 -1.925 3.66 -3.625 4 C-3.955 5.65 -4.285 7.3 -4.625 9 C-3.88894531 9.02578125 -3.15289062 9.0515625 -2.39453125 9.078125 C7.41912324 9.64853556 7.41912324 9.64853556 11.375 14 C13.39183142 18.03366284 13.1089215 22.63757063 12.375 27 C9.79693028 31.30599849 6.52153915 34.23564057 2.375 37 C-2.76993415 37.68492931 -7.21042172 37.82045541 -11.75 35.1875 C-13.625 33 -13.625 33 -14.625 30 C-13.965 29.67 -13.305 29.34 -12.625 29 C-12.17125 29.825 -11.7175 30.65 -11.25 31.5 C-8.3121544 34.29794819 -7.63394628 34.42796572 -3.75 34.5625 C0.98115484 34.30469038 3.82688472 33.28849709 7.375 30 C9.99207362 25.98715379 11.18814468 22.77722497 10.375 18 C8.25306041 14.88782193 6.55331387 13.3237126 2.88671875 12.31640625 C1.12585797 11.98767826 -0.64312827 11.6991759 -2.41796875 11.45703125 C-4.625 11 -4.625 11 -6.625 9 C-7.15088107 5.66941989 -6.90906594 4.39979651 -4.9375 1.625 C-2.625 0 -2.625 0 0 0 Z " fill="#E2D1C8" transform="translate(265.625,25)"/>
<path d="M0 0 C0.99 0.495 0.99 0.495 2 1 C1.67 3.64 1.34 6.28 1 9 C1.969375 8.67 2.93875 8.34 3.9375 8 C8.29766837 6.73126248 12.49554566 6.81614472 17 7 C17 9.64 17 12.28 17 15 C11.92523206 16.26305335 7.27203646 17.27036084 2 17 C2 19.64 2 22.28 2 25 C2.65226563 24.855625 3.30453125 24.71125 3.9765625 24.5625 C8.72620177 23.55372706 13.11409188 22.74284694 18 23 C18 25.64 18 28.28 18 31 C17.67 31 17.34 31 17 31 C17 29.02 17 27.04 17 25 C16.443125 25.144375 15.88625 25.28875 15.3125 25.4375 C10.05863683 26.71546672 5.40291471 27.19646963 0 27 C0 23.37 0 19.74 0 16 C7.425 14.515 7.425 14.515 15 13 C15.33 11.35 15.66 9.7 16 8 C15.34773437 8.144375 14.69546875 8.28875 14.0234375 8.4375 C9.27379823 9.44627294 4.88590812 10.25715306 0 10 C0 6.7 0 3.4 0 0 Z " fill="#EAD8CF" transform="translate(191,40)"/>
<path d="M0 0 C0 2.31 0 4.62 0 7 C-10.37357631 10.44419134 -10.37357631 10.44419134 -16 10 C-16 7.36 -16 4.72 -16 2 C-14.08404518 1.66259915 -12.16720278 1.33023588 -10.25 1 C-9.18265625 0.814375 -8.1153125 0.62875 -7.015625 0.4375 C-4 0 -4 0 0 0 Z " fill="#E97935" transform="translate(209,55)"/>
<path d="M0 0 C0.33 0 0.66 0 1 0 C1 8.58 1 17.16 1 26 C-1.97 26.33 -4.94 26.66 -8 27 C-8 23.04 -8 19.08 -8 15 C-15.36026188 15.94142884 -19.74974823 16.95815728 -24.32275391 22.81176758 C-25.59093531 24.57756872 -26.82352666 26.36168984 -28.0390625 28.1640625 C-30 31 -30 31 -32 32 C-32.99 31.34 -33.98 30.68 -35 30 C-34.26136719 29.63003906 -33.52273437 29.26007813 -32.76171875 28.87890625 C-29.46229855 26.63418049 -27.97445671 24.27575586 -25.8125 20.9375 C-22.78426304 16.74650094 -20.9145928 14.27368233 -15.75 13.25 C-12.48137656 12.92954672 -9.29606795 13 -6 13 C-6 16.96 -6 20.92 -6 25 C-4.35 24.67 -2.7 24.34 -1 24 C-0.67 16.08 -0.34 8.16 0 0 Z " fill="#E2D7D2" transform="translate(111,64)"/>
<path d="M0 0 C0 4.23283537 -2.39352378 6.40769184 -4.9375 9.5625 C-8.27061301 13.58162517 -8.27061301 13.58162517 -11 18 C-10.34 18.33 -9.68 18.66 -9 19 C-10.32 19 -11.64 19 -13 19 C-13.02685095 16.52076199 -13.04676547 14.0418116 -13.0625 11.5625 C-13.07506836 10.50192383 -13.07506836 10.50192383 -13.08789062 9.41992188 C-13.09653588 7.61306441 -13.05220011 5.80612397 -13 4 C-11.46657025 2.46657025 -9.72524299 2.43500179 -7.625 2 C-4.99239863 1.45118408 -2.55817615 0.85272538 0 0 Z " fill="#EB8344" transform="translate(80,79)"/>
<path d="M0 0 C1.14662109 -0.03867187 1.14662109 -0.03867187 2.31640625 -0.078125 C4.98714714 0.33502829 5.83109476 1.11147302 7.4375 3.25 C8.00569707 6.98386644 7.74299314 8.73301162 5.8125 12 C1.29402894 16.2806568 -2.40830519 16.25 -8.5625 16.25 C-8.5625 11.3 -8.5625 6.35 -8.5625 1.25 C-5.4522946 0.47244865 -3.13572083 0.06366946 0 0 Z M-6.5625 3.25 C-6.63476502 5.10287502 -6.6463122 6.95833878 -6.625 8.8125 C-6.61597656 9.82441406 -6.60695312 10.83632813 -6.59765625 11.87890625 C-6.58605469 12.66136719 -6.57445312 13.44382812 -6.5625 14.25 C-0.77237067 13.63977709 -0.77237067 13.63977709 4.4375 11.25 C5.80373674 8.51752652 5.565926 6.26801098 5.4375 3.25 C4.40716611 1.99826221 4.40716611 1.99826221 2.1875 2.1171875 C0.82625 2.12105469 0.82625 2.12105469 -0.5625 2.125 C-1.47 2.12242188 -2.3775 2.11984375 -3.3125 2.1171875 C-5.53216611 1.99826221 -5.53216611 1.99826221 -6.5625 3.25 Z " fill="#D2C4BE" transform="translate(225.5625,32.75)"/>
<path d="M0 0 C0.99 0.66 1.98 1.32 3 2 C3.50034373 5.85979449 3.64896527 8.0764725 1.375 11.3125 C-3.08176111 14.47914605 -6.5495623 15 -12 15 C-12 10.71 -12 6.42 -12 2 C-4.73684211 -0.42105263 -4.73684211 -0.42105263 0 0 Z M-10 3 C-10 6.3 -10 9.6 -10 13 C-8.55625 12.71125 -7.1125 12.4225 -5.625 12.125 C-4.40683594 11.88136719 -4.40683594 11.88136719 -3.1640625 11.6328125 C-0.81326077 11.13341068 -0.81326077 11.13341068 1 9 C1.25005386 5.95817107 1.25005386 5.95817107 1 3 C-0.09631369 1.67868182 -0.09631369 1.67868182 -2.8125 1.875 C-6.17087213 1.89798162 -6.17087213 1.89798162 -10 3 Z " fill="#D6CBC7" transform="translate(77,61)"/>
<path d="M0 0 C2.31 0 4.62 0 7 0 C7.08142927 1.7492214 7.13938541 3.49954542 7.1875 5.25 C7.22230469 6.22453125 7.25710937 7.1990625 7.29296875 8.203125 C6.95438313 11.43548903 6.35601509 12.77634531 4 15 C2.68 15 1.36 15 0 15 C0.33 13.35 0.66 11.7 1 10 C1.66 10 2.32 10 3 10 C3 9.01 3 8.02 3 7 C2.01 7 1.02 7 0 7 C0 4.69 0 2.38 0 0 Z " fill="#322223" transform="translate(242,24)"/>
<path d="M0 0 C0.33 0 0.66 0 1 0 C1 12.87 1 25.74 1 39 C2.65 39 4.3 39 6 39 C6 34.05 6 29.1 6 24 C6.33 24 6.66 24 7 24 C7.33 29.28 7.66 34.56 8 40 C3.545 40.495 3.545 40.495 -1 41 C-0.67 27.47 -0.34 13.94 0 0 Z " fill="#BCB0AC" transform="translate(59,58)"/>
<path d="M0 0 C2.92358138 1.23098163 3.07318515 2.22279499 4.375 5 C6.42500871 5.80528889 6.42500871 5.80528889 8.375 6 C7.715 6.66 7.055 7.32 6.375 8 C5.055 8 3.735 8 2.375 8 C2.045 6.35 1.715 4.7 1.375 3 C-0.275 3.33 -1.925 3.66 -3.625 4 C-3.955 5.65 -4.285 7.3 -4.625 9 C-3.52091797 9.02126953 -3.52091797 9.02126953 -2.39453125 9.04296875 C6.56808276 9.48103575 6.56808276 9.48103575 9.5625 12.5625 C10.4596875 13.7690625 10.4596875 13.7690625 11.375 15 C8.375 15 8.375 15 6.1875 13.5625 C3.48831432 12.0629524 2.16203186 11.72848681 -0.8125 11.4375 C-4.625 11 -4.625 11 -6.625 9 C-7.15088107 5.66941989 -6.90906594 4.39979651 -4.9375 1.625 C-2.625 0 -2.625 0 0 0 Z " fill="#DCC8BE" transform="translate(265.625,25)"/>
<path d="M0 0 C0.33 0 0.66 0 1 0 C1 13.86 1 27.72 1 42 C1.99 42.33 2.98 42.66 4 43 C2.68 43 1.36 43 0 43 C0 40.03 0 37.06 0 34 C-0.66 33.67 -1.32 33.34 -2 33 C-1.34 33 -0.68 33 0 33 C-0.165 32.01 -0.33 31.02 -0.5 30 C-1.08474517 25.97267058 -1.07132024 22.06525377 -1 18 C-2.65 18 -4.3 18 -6 18 C-5.34 17.34 -4.68 16.68 -4 16 C-2.68 16 -1.36 16 0 16 C0 14.02 0 12.04 0 10 C-1.32 9.67 -2.64 9.34 -4 9 C-2.68 9 -1.36 9 0 9 C0 6.03 0 3.06 0 0 Z " fill="#EC8F57" transform="translate(209,29)"/>
<path d="M0 0 C1.20577428 4.94367454 0.6290678 8.20862412 -1 13 C-1.66 13 -2.32 13 -3 13 C-3 9.7 -3 6.4 -3 3 C-5.31 3 -7.62 3 -10 3 C-10 5.31 -10 7.62 -10 10 C-9.01 10 -8.02 10 -7 10 C-7.33 10.99 -7.66 11.98 -8 13 C-8 12.34 -8 11.68 -8 11 C-8.99 11 -9.98 11 -11 11 C-11.33 8.03 -11.66 5.06 -12 2 C-7.8803623 0.70756464 -4.33168317 -0.26252625 0 0 Z " fill="#C8AFA2" transform="translate(252,21)"/>
<path d="M0 0 C3.3125 -0.25 3.3125 -0.25 7 0 C10.3901898 3.41723919 12.17448705 8.24890083 14.1875 12.5625 C14.55552734 13.33013672 14.92355469 14.09777344 15.30273438 14.88867188 C15.82383789 15.99758789 15.82383789 15.99758789 16.35546875 17.12890625 C16.67153076 17.79994385 16.98759277 18.47098145 17.31323242 19.16235352 C18 21 18 21 18 24 C18.66 24 19.32 24 20 24 C20 24.99 20 25.98 20 27 C19.34 27 18.68 27 18 27 C17.66790527 26.28344238 17.33581055 25.56688477 16.99365234 24.82861328 C15.4752161 21.58369975 13.92566204 18.35462944 12.375 15.125 C11.85292969 13.99707031 11.33085937 12.86914062 10.79296875 11.70703125 C10.00986328 10.09248047 10.00986328 10.09248047 9.2109375 8.4453125 C8.73962402 7.45031738 8.26831055 6.45532227 7.78271484 5.43017578 C5.53278541 2.3630986 3.63754907 1.85720021 0 1 C0 0.67 0 0.34 0 0 Z " fill="#E6D1C5" transform="translate(140,41)"/>
<path d="M0 0 C0.66 0 1.32 0 2 0 C2.33 9.57 2.66 19.14 3 29 C2.01 29 1.02 29 0 29 C-0.19656362 24.72953289 -0.38070249 20.45861919 -0.5625 16.1875 C-0.61857422 14.97255859 -0.67464844 13.75761719 -0.73242188 12.50585938 C-0.78076172 11.34248047 -0.82910156 10.17910156 -0.87890625 8.98046875 C-0.9260376 7.90692139 -0.97316895 6.83337402 -1.02172852 5.72729492 C-1 3 -1 3 0 0 Z " fill="#C2B8B5" transform="translate(172,49)"/>
<path d="M0 0 C0.6875 1.75 0.6875 1.75 1 4 C-0.125 6.25 -0.125 6.25 -2 8 C-4.625 8.3125 -4.625 8.3125 -7 8 C-7.33 7.67 -7.66 7.34 -8 7 C-7.6875 3.5 -7.6875 3.5 -7 0 C-4.3333581 -1.33332095 -2.83319697 -0.67102033 0 0 Z " fill="#989091" transform="translate(287,21)"/>
<path d="M0 0 C0.17691295 11.69591188 -0.37160039 23.32446893 -1 35 C-0.34 35.33 0.32 35.66 1 36 C0.01 36 -0.98 36 -2 36 C-2 24.78 -2 13.56 -2 2 C-3.65 2.33 -5.3 2.66 -7 3 C-7.66 2.34 -8.32 1.68 -9 1 C-5.846632 0.29925156 -3.27275026 0 0 0 Z " fill="#CCBDB5" transform="translate(123,45)"/>
<path d="M0 0 C0.33 0 0.66 0 1 0 C1 3.63 1 7.26 1 11 C-5.75 13 -5.75 13 -8 13 C-6.42903279 7.97290493 -3.38006951 3.97133531 0 0 Z " fill="#DEBCA9" transform="translate(104,60)"/>
<path d="M0 0 C2.625 0.375 2.625 0.375 5 1 C5 2.65 5 4.3 5 6 C5.99 6.33 6.98 6.66 8 7 C7.67 7.33 7.34 7.66 7 8 C5.47480724 7.91062197 3.95318071 7.75462854 2.4375 7.5625 C1.19806641 7.40974609 1.19806641 7.40974609 -0.06640625 7.25390625 C-0.70449219 7.17011719 -1.34257812 7.08632813 -2 7 C-2.125 4.625 -2.125 4.625 -2 2 C-1.34 1.34 -0.68 0.68 0 0 Z " fill="#EA8040" transform="translate(263,27)"/>
<path d="M0 0 C0.33 0 0.66 0 1 0 C1.98301637 3.02466574 2.39942113 5.11994763 1.05859375 8.07421875 C-0.64469248 10.8248989 -2.31551473 13.32700489 -4.62890625 15.6015625 C-6.30414146 17.31020696 -6.59910451 18.67480614 -7 21 C-9 19.625 -9 19.625 -11 18 C-11 17.34 -11 16.68 -11 16 C-9.906875 15.46375 -8.81375 14.9275 -7.6875 14.375 C-3.92197768 12.21457911 -2.49307972 10.14744365 -1 6 C-0.29241674 2.7633037 -0.29241674 2.7633037 0 0 Z " fill="#DED3CE" transform="translate(239,36)"/>
<path d="M0 0 C0 3.83764027 -1.26535335 5.11486085 -3.5 8.1875 C-4.1496875 9.08855469 -4.799375 9.98960938 -5.46875 10.91796875 C-5.9740625 11.60503906 -6.479375 12.29210937 -7 13 C-4.03 13.495 -4.03 13.495 -1 14 C-4.4019487 16.09350689 -7.05272412 16.17942163 -11 16 C-9.55049595 11.64352355 -7.32252888 8.68242711 -4.375 5.1875 C-3.55773437 4.21167969 -2.74046875 3.23585938 -1.8984375 2.23046875 C-1.27195312 1.49441406 -0.64546875 0.75835937 0 0 Z " fill="#E6D5CC" transform="translate(80,81)"/>
<path d="M0 0 C0.99 0 1.98 0 3 0 C3 0.66 3 1.32 3 2 C1.89187812 3.10812188 0.77848779 4.21129839 -0.35546875 5.29296875 C-3.86375145 8.93458286 -6.88648962 13.02119641 -10 17 C-11.32 16.34 -12.64 15.68 -14 15 C-13.27039063 14.63261719 -12.54078125 14.26523438 -11.7890625 13.88671875 C-7.95120319 11.29051981 -5.80763156 7.91062764 -3.21875 4.11914062 C-2.21168246 2.6970918 -1.11123585 1.34222308 0 0 Z " fill="#D8C7BF" transform="translate(90,79)"/>
<path d="M0 0 C2.71554058 3.29107306 4.34432137 6.73163359 6.0625 10.625 C7.98782288 15.18403305 7.98782288 15.18403305 11 19 C9.68 19 8.36 19 7 19 C5.82379175 16.58757287 4.6589044 14.17072309 3.5 11.75 C2.99919922 10.72712891 2.99919922 10.72712891 2.48828125 9.68359375 C0.80625256 6.1479008 0 3.98070714 0 0 Z " fill="#D0C2BC" transform="translate(148,61)"/>
<path d="M0 0 C0.99 0.99 1.98 1.98 3 3 C2.70727539 4.88964844 2.70727539 4.88964844 2 7 C1.8578299 8.58567839 1.75495959 10.17518632 1.68359375 11.765625 C1.64169922 12.65507813 1.59980469 13.54453125 1.55664062 14.4609375 C1.49766602 15.84152344 1.49766602 15.84152344 1.4375 17.25 C1.39431641 18.18585938 1.35113281 19.12171875 1.30664062 20.0859375 C1.2008195 22.39048641 1.09873443 24.69513839 1 27 C0.34 26.67 -0.32 26.34 -1 26 C-0.67 17.42 -0.34 8.84 0 0 Z " fill="#F2EAE6" transform="translate(145,56)"/>
<path d="M0 0 C0.33 0 0.66 0 1 0 C1 6.6 1 13.2 1 20 C0.67 20 0.34 20 0 20 C-0.33 16.04 -0.66 12.08 -1 8 C-1.99 8.495 -1.99 8.495 -3 9 C-2.01 6.03 -1.02 3.06 0 0 Z " fill="#EC8E55" transform="translate(171,58)"/>
<path d="M0 0 C0.33 0 0.66 0 1 0 C1 2.64 1 5.28 1 8 C1.99 8 2.98 8 4 8 C3.67 8.99 3.34 9.98 3 11 C2.34 11 1.68 11 1 11 C1 12.65 1 14.3 1 16 C1.99 16.33 2.98 16.66 4 17 C2.68 17 1.36 17 0 17 C-0.97040422 11.06975197 -0.89316269 5.93609666 0 0 Z " fill="#F7F2F0" transform="translate(240,24)"/>
<path d="M0 0 C1.0625 1.8125 1.0625 1.8125 0.75 4.5 C0.523125 5.263125 0.29625 6.02625 0.0625 6.8125 C-0.2675 6.8125 -0.5975 6.8125 -0.9375 6.8125 C-1.2675 5.1625 -1.5975 3.5125 -1.9375 1.8125 C-2.87722656 1.84730469 -2.87722656 1.84730469 -3.8359375 1.8828125 C-5.06183594 1.90988281 -5.06183594 1.90988281 -6.3125 1.9375 C-7.12460938 1.96070312 -7.93671875 1.98390625 -8.7734375 2.0078125 C-10.9375 1.8125 -10.9375 1.8125 -12.9375 -0.1875 C-3.80998322 -2.33515101 -3.80998322 -2.33515101 0 0 Z " fill="#DBC2B5" transform="translate(78.9375,62.1875)"/>
<path d="M0 0 C8.03501094 -0.78774617 8.03501094 -0.78774617 12.0625 2.5 C12.701875 3.325 13.34125 4.15 14 5 C11 5 11 5 8 3 C6.80375 2.835 5.6075 2.67 4.375 2.5 C2.704375 2.2525 2.704375 2.2525 1 2 C0.67 1.34 0.34 0.68 0 0 Z " fill="#D9C3B7" transform="translate(262,18)"/>
<path d="M0 0 C5 1 5 1 6.8125 3.0625 C7.204375 3.701875 7.59625 4.34125 8 5 C7.01 5 6.02 5 5 5 C4.01 4.01 3.02 3.02 2 2 C1.67 5.3 1.34 8.6 1 12 C0.67 12 0.34 12 0 12 C0 8.04 0 4.08 0 0 Z " fill="#EAC1A9" transform="translate(219,57)"/>
<path d="M0 0 C0.99 0 1.98 0 3 0 C2.45773019 3.79588866 0.79872437 5.47211993 -2 8 C-2.6875 6.25 -2.6875 6.25 -3 4 C-1.75 1.75 -1.75 1.75 0 0 Z " fill="#E7E3E3" transform="translate(84,72)"/>
<path d="M0 0 C0.33 0 0.66 0 1 0 C1 3.63 1 7.26 1 11 C0.34 11 -0.32 11 -1 11 C-1.22174933 9.54364629 -1.42698698 8.08477044 -1.625 6.625 C-1.74101563 5.81289062 -1.85703125 5.00078125 -1.9765625 4.1640625 C-1.98429687 3.44992188 -1.99203125 2.73578125 -2 2 C-1.34 1.34 -0.68 0.68 0 0 Z " fill="#CCC5C3" transform="translate(104,60)"/>
<path d="M0 0 C1.65 0 3.3 0 5 0 C4.401875 0.515625 3.80375 1.03125 3.1875 1.5625 C0.4926464 4.56533687 -0.55720619 7.24873609 -2 11 C-2.95465783 8.83032311 -3.14401212 7.43671207 -2.3984375 5.17578125 C-1.64129615 3.4315257 -0.82390802 1.71372869 0 0 Z " fill="#E9D6CC" transform="translate(170,36)"/>
<path d="M0 0 C0.33 0.66 0.66 1.32 1 2 C3.31 2 5.62 2 8 2 C4.5980513 4.09350689 1.94727588 4.17942163 -2 4 C-1.34 2.68 -0.68 1.36 0 0 Z " fill="#F0E1D9" transform="translate(71,93)"/>
<path d="M0 0 C0.66 0.66 1.32 1.32 2 2 C1.625 4.125 1.625 4.125 1 6 C-1 4.625 -1 4.625 -3 3 C-3 2.34 -3 1.68 -3 1 C-2.01 0.67 -1.02 0.34 0 0 Z " fill="#D7C5BD" transform="translate(231,51)"/>
</svg>
