<svg width="322" height="117" viewBox="0 0 322 117" fill="none" xmlns="http://www.w3.org/2000/svg">
<g clip-path="url(#clip0_134_87)">
<rect width="322" height="117" fill="white"/>
<path d="M29.4053 39.4648C33.2453 42.3319 34.4539 44.5668 35.2864 49.0757C32.3753 49.0757 29.4641 49.0757 26.4648 49.0757C26.4648 47.7164 26.4648 46.3572 26.4648 44.9567C23.5537 44.9567 20.6425 44.9567 17.6432 44.9567C18.6238 49.2123 18.6238 49.2123 22.0482 50.6792C23.8251 51.3721 23.8251 51.3721 25.6378 52.079C26.8185 52.5516 27.9993 53.0241 29.2158 53.511C32.2521 54.7231 32.2521 54.7231 35.2864 54.5675C36.3478 53.4348 37.4091 52.3021 38.5026 51.1351C42.6378 47.7027 42.6378 47.7027 47.9675 47.102C52.9297 47.7027 52.9297 47.7027 57.3405 50.4486C57.8257 46.824 58.3108 43.1993 58.8107 39.4648C61.2367 39.4648 63.6626 39.4648 66.1621 39.4648C66.8899 43.5426 66.8899 43.5426 67.6324 47.7027C69.6792 47.5752 69.6792 47.5752 71.7675 47.4452C76.454 47.7027 76.454 47.7027 78.8891 49.1615C81.8747 53.1813 81.6383 56.8599 81.8756 61.6898C82.0206 64.3101 82.0206 64.3101 82.1685 66.9833C82.2509 68.993 82.2509 68.993 82.3351 71.0432C79.4239 71.0432 76.5128 71.0432 73.5134 71.0432C73.5134 65.1532 73.5134 59.2631 73.5134 53.1946C71.5727 53.6476 69.6319 54.1007 67.6324 54.5675C67.1472 60.0045 66.662 65.4415 66.1621 71.0432C63.7361 71.0432 61.3102 71.0432 58.8107 71.0432C58.083 69.684 58.083 69.684 57.3405 68.2973C55.8849 69.2034 54.4293 70.1096 52.9297 71.0432C46.588 71.7012 43.6583 71.6921 38.3188 68.2973C36.8178 66.938 36.8178 66.938 35.2864 65.5513C34.316 66.4575 33.3457 67.3636 32.3459 68.2973C26.2907 72.0669 23.367 71.7897 16.1729 71.0432C12.4972 69.4128 12.4972 69.4128 10.2918 66.9243C9.92425 63.2344 9.92425 63.2344 10.2918 60.0594C12.7178 60.0594 15.1437 60.0594 17.6432 60.0594C18.1284 61.4187 18.6136 62.7779 19.1134 64.1784C21.5394 64.1784 23.9653 64.1784 26.4648 64.1784C25.4911 59.907 25.4911 59.907 22.008 58.5041C20.8102 58.0546 19.6124 57.605 18.3783 57.1419C11.8564 54.6556 11.8564 54.6556 10.2918 53.1946C9.4446 44.6501 9.4446 44.6501 12.4053 40.9236C17.9303 38.7844 23.5165 38.4319 29.4053 39.4648ZM45.5783 51.8216C42.0332 54.5076 42.0332 54.5076 42.454 59.5446C42.5146 61.0737 42.5753 62.6029 42.6378 64.1784C45.4065 65.7001 45.4065 65.7001 48.5188 66.9243C49.4892 66.4712 50.4596 66.0181 51.4594 65.5513C51.9446 64.1921 52.4298 62.8328 52.9297 61.4324C54.8704 61.4324 56.8112 61.4324 58.8107 61.4324C58.8107 60.0732 58.8107 58.7139 58.8107 57.3135C56.3848 57.3135 53.9588 57.3135 51.4594 57.3135C51.4594 55.9542 51.4594 54.595 51.4594 53.1946C48.6779 52.2589 48.6779 52.2589 45.5783 51.8216Z" fill="black"/>
<path d="M173.492 39.4648C176.403 39.4648 179.314 39.4648 182.314 39.4648C182.314 43.9957 182.314 48.5265 182.314 53.1946C183.132 52.2884 183.951 51.3822 184.795 50.4486C188.195 47.7027 188.195 47.7027 192.238 47.3594C193.33 47.4727 194.421 47.586 195.546 47.7027C193.529 51.7586 191.152 55.1718 188.195 58.6865C188.831 59.3484 189.468 60.0103 190.124 60.6923C190.943 61.5595 191.762 62.4267 192.605 63.3202C193.424 64.1804 194.243 65.0405 195.087 65.9268C197.016 68.2973 197.016 68.2973 197.016 71.0432C192.973 71.4723 192.973 71.4723 188.195 71.0432C184.703 67.6108 184.703 67.6108 182.314 64.1784C182.314 66.4438 182.314 68.7092 182.314 71.0432C172.61 71.0432 162.906 71.0432 152.908 71.0432C154.258 64.7385 154.878 62.9497 158.881 58.2574C159.687 57.2999 160.492 56.3424 161.322 55.3559C161.942 54.6427 162.562 53.9294 163.2 53.1946C161.29 53.3928 159.379 53.591 157.411 53.7952C156.336 53.9067 155.262 54.0182 154.154 54.1331C151.421 54.3189 151.421 54.3189 149.968 55.9405C149.624 58.479 149.36 61.0272 149.141 63.5777C149.017 64.967 148.894 66.3563 148.767 67.7878C148.678 68.8621 148.589 69.9364 148.497 71.0432C146.071 71.0432 143.645 71.0432 141.146 71.0432C141.146 63.3408 141.146 55.6385 141.146 47.7027C151.82 47.7027 162.494 47.7027 173.492 47.7027C171.838 55.4257 171.838 55.4257 168.254 59.802C167.585 60.6321 166.916 61.4621 166.227 62.3173C165.713 62.9315 165.2 63.5456 164.67 64.1784C167.581 64.6314 170.493 65.0845 173.492 65.5513C173.492 56.9428 173.492 48.3342 173.492 39.4648Z" fill="black"/>
<path d="M248.476 39.4649C257.521 39.3308 257.521 39.3308 260.238 39.4649C261.708 40.8379 261.708 40.8379 261.8 44.3561C261.77 45.4605 261.739 46.5649 261.708 47.7027C260.738 47.7027 259.767 47.7027 258.768 47.7027C258.768 49.515 258.768 51.3274 258.768 53.1946C256.827 53.1946 254.886 53.1946 252.887 53.1946C252.887 59.0847 252.887 64.9747 252.887 71.0433C250.461 71.0433 248.035 71.0433 245.535 71.0433C245.535 65.1532 245.535 59.2631 245.535 53.1946C245.05 53.6477 244.565 54.1008 244.065 54.5676C244.156 56.0401 244.247 57.5126 244.341 59.0297C244.065 64.1784 244.065 64.1784 241.768 68.2115C238.184 71.0433 238.184 71.0433 232.67 71.4723C231.093 71.3307 229.517 71.1891 227.892 71.0433C227.892 72.8556 227.892 74.6679 227.892 76.5351C224.981 76.5351 222.07 76.5351 219.07 76.5351C219.07 67.0204 219.07 57.5057 219.07 47.7027C233.716 47.4346 233.716 47.4346 238.184 47.7027C239.154 48.6089 240.125 49.515 241.124 50.4487C241.61 49.5425 242.095 48.6363 242.595 47.7027C243.565 47.7027 244.535 47.7027 245.535 47.7027C246.506 44.9842 247.476 42.2657 248.476 39.4649ZM252.887 43.5838C252.887 44.943 252.887 46.3023 252.887 47.7027C254.342 47.2496 255.798 46.7966 257.297 46.3297C256.812 45.4236 256.327 44.5174 255.827 43.5838C254.857 43.5838 253.886 43.5838 252.887 43.5838Z" fill="#040404"/>
<path d="M80.8647 47.7027C83.7759 47.7027 86.687 47.7027 89.6864 47.7027C90.1716 50.8743 90.6567 54.0458 91.1566 57.3135C92.127 57.3135 93.0974 57.3135 94.0972 57.3135C94.5824 54.1419 95.0676 50.9704 95.5674 47.7027C97.9934 47.7027 100.419 47.7027 102.919 47.7027C103.889 50.4212 104.86 53.1397 105.859 55.9405C106.83 53.222 107.8 50.5036 108.8 47.7027C111.226 47.7027 113.652 47.7027 116.151 47.7027C114.21 55.4051 112.27 63.1075 110.27 71.0432C107.844 71.0432 105.418 71.0432 102.919 71.0432C101.463 67.8717 100.008 64.7001 98.508 61.4324C97.5376 64.604 96.5672 67.7756 95.5674 71.0432C93.1415 71.0432 90.7156 71.0432 88.2161 71.0432C85.7902 63.3409 83.3642 55.6385 80.8647 47.7027Z" fill="black"/>
<path d="M213.189 47.7027C218.08 51.3788 218.921 53.5924 219.805 59.373C218.921 65.1536 218.08 67.3671 213.189 71.0432C206.899 72.2719 201.815 72.0168 196.189 69.0696C193.025 63.8024 192.975 59.0887 194.075 53.1946C198.225 46.2878 205.498 46.2004 213.189 47.7027Z" fill="#080808"/>
<path d="M127.086 47.2736C128.237 47.2223 129.387 47.171 130.572 47.1181C133.794 47.7027 133.794 47.7027 136.402 49.8962C138.797 54.2765 138.638 57.5704 138.481 62.4621C138.441 64.0692 138.401 65.6762 138.36 67.3319C138.309 68.5566 138.258 69.7814 138.205 71.0432C135.112 71.1174 132.018 71.1706 128.924 71.2149C127.201 71.2467 125.479 71.2786 123.704 71.3114C119.092 71.0432 119.092 71.0432 114.681 68.2973C114.405 64.2642 114.405 64.2642 114.681 60.0594C114.681 58.7002 114.681 57.341 114.681 55.9405C115.967 52.3365 115.967 52.3365 117.621 49.0757C121.024 47.4869 123.298 47.384 127.086 47.2736ZM124.973 51.8216C124.488 53.1809 124.002 54.5401 123.502 55.9405C122.047 56.3936 120.591 56.8467 119.092 57.3135C122.973 56.8604 126.855 56.4073 130.854 55.9405C130.369 54.5813 129.883 53.222 129.384 51.8216C127.928 51.8216 126.472 51.8216 124.973 51.8216Z" fill="#050505"/>
<path d="M207.4 50.7061C210.249 51.8216 210.249 51.8216 213.189 54.5676C214.006 62.958 214.006 62.958 211.352 66.9243C208.779 68.2973 208.779 68.2973 205.746 68.0399C202.897 66.9243 202.897 66.9243 199.957 64.1784C199.14 55.788 199.14 55.788 201.795 51.8216C204.368 50.4487 204.368 50.4487 207.4 50.7061Z" fill="#EDEDED"/>
<path d="M232.487 51.65C233.882 51.7067 235.277 51.7633 236.714 51.8216C238.929 55.9587 238.445 59.6241 238.184 64.1784C235.243 66.9243 235.243 66.9243 231.568 67.3534C229.748 67.141 229.748 67.141 227.892 66.9243C224.508 62.1842 224.444 60.1317 224.952 54.5676C227.892 51.8216 227.892 51.8216 232.487 51.65Z" fill="#EDEDED"/>
<path d="M122.032 60.0594C125.429 60.0594 128.825 60.0594 132.324 60.0594C131.038 65.3797 131.038 65.3797 129.384 66.9243C126.444 66.9803 123.502 66.9827 120.562 66.9243C121.047 64.6589 121.532 62.3935 122.032 60.0594Z" fill="#E0E0E0"/>
</g>
<defs>
<clipPath id="clip0_134_87">
<rect width="322" height="117" fill="white"/>
</clipPath>
</defs>
</svg>
