<svg width="322" height="117" viewBox="0 0 322 117" fill="none" xmlns="http://www.w3.org/2000/svg">
<g clip-path="url(#clip0_150_2)">
<rect width="322" height="117" fill="white"/>
<g clip-path="url(#clip1_150_2)">
<path d="M0 0C109.89 0 219.78 0 333 0C333 49.17 333 98.34 333 149C223.11 149 113.22 149 0 149C0 99.83 0 50.66 0 0Z" fill="#FECED1"/>
<path d="M199.8 39.4412C200.125 40.6191 200.183 41.6803 200.184 42.9068C200.186 43.3143 200.187 43.7219 200.188 44.1418C200.188 44.5872 200.188 45.0327 200.188 45.4917C200.19 46.2138 200.192 46.9359 200.193 47.6581C200.195 48.4336 200.196 49.2091 200.197 49.9846C200.199 51.6022 200.205 53.2198 200.211 54.8374C200.213 55.3916 200.215 55.9458 200.217 56.5C200.219 56.7775 200.22 57.055 200.221 57.341C200.235 61.106 200.246 64.8711 200.25 68.6362C200.253 71.1772 200.261 73.7181 200.274 76.2591C200.281 77.603 200.285 78.9469 200.283 80.2908C200.281 81.7903 200.29 83.2894 200.299 84.7888C200.297 85.2328 200.295 85.6768 200.293 86.1343C200.316 88.4461 200.369 89.9179 201.839 91.6642C202.144 91.958 202.144 91.958 202.455 92.2577C202.588 92.4234 202.721 92.5891 202.858 92.7598C202.773 93.5404 202.702 94.0231 202.178 94.5858C200.885 94.6879 199.588 94.6704 198.292 94.6771C197.744 94.6884 197.744 94.6884 197.184 94.6999C196.661 94.7027 196.661 94.7027 196.127 94.7056C195.805 94.709 195.484 94.7124 195.152 94.716C194.892 94.673 194.631 94.63 194.363 94.5858C193.632 93.407 193.615 93.0213 193.684 91.6642C193.264 91.9615 193.264 91.9615 192.837 92.2648C188.807 95.0668 185.211 96.4773 180.319 95.4417C176.079 94.1877 172.303 91.6339 169.906 87.6171C167.982 83.963 167.4 80.8763 167.413 76.714C167.408 76.3762 167.402 76.0385 167.396 75.6904C167.393 70.6328 169.315 66.5588 172.478 62.8779C176.281 59.182 180.209 58.182 185.197 58.2901C188.321 58.4656 190.701 60.0946 193.344 61.7181C193.354 59.6909 193.349 57.6646 193.329 55.6375C193.325 54.9489 193.325 54.2604 193.329 53.5718C193.544 49.1128 193.544 49.1128 191.795 45.2957C191.577 45.1133 191.359 44.9309 191.135 44.7429C190.625 44.1887 190.625 44.1887 190.507 43.2449C190.625 42.3627 190.625 42.3627 191.343 41.7493C192.359 41.2502 193.362 40.8522 194.427 40.4911C196.435 39.8046 197.68 39.4044 199.8 39.4412Z" fill="#F3354C"/>
<path d="M105.676 58.4313C106.63 59.2158 106.996 59.6505 107.207 60.9354C107.208 61.3386 107.209 61.7417 107.21 62.1571C107.217 62.8447 107.217 62.8447 107.224 63.5462C107.222 64.0457 107.221 64.5453 107.219 65.0448C107.222 65.5597 107.226 66.0747 107.231 66.5896C107.242 67.9453 107.246 69.301 107.247 70.6567C107.25 72.8213 107.262 74.9857 107.278 77.1502C107.282 77.9027 107.282 78.6551 107.282 79.4076C107.3 83.0275 107.499 86.8728 109.908 89.6841C111.494 91.1823 112.966 91.4514 115.017 91.4259C116.96 91.1369 118.647 90.0876 120.075 88.6741C121.692 85.6672 122.197 83.0285 122.191 79.5742C122.195 78.9588 122.195 78.9588 122.2 78.3309C122.204 77.4694 122.204 76.608 122.201 75.7465C122.199 74.4311 122.215 73.1169 122.232 71.8016C122.234 70.9612 122.234 70.1207 122.234 69.2802C122.24 68.8895 122.246 68.4987 122.253 68.0962C122.231 66.194 122.158 64.9851 120.962 63.5236C120.777 63.3369 120.592 63.1501 120.402 62.9577C119.948 62.4485 119.948 62.4485 119.778 61.4214C119.948 60.6225 119.948 60.6225 120.628 59.8921C123.272 59.1263 126.043 58.502 128.783 58.7965C129.364 59.1726 129.364 59.1726 129.802 59.8921C129.9 60.8812 129.937 61.7867 129.927 62.7758C129.929 63.216 129.929 63.216 129.931 63.665C129.933 64.3023 129.933 64.9396 129.931 65.5768C129.928 66.5853 129.932 67.5935 129.937 68.6019C129.95 71.4689 129.951 74.3359 129.95 77.203C129.95 78.9565 129.957 80.71 129.967 82.4635C129.971 83.4573 129.966 84.4508 129.962 85.4445C129.965 86.0538 129.969 86.6632 129.972 87.2724C129.969 87.5489 129.966 87.8254 129.962 88.1102C129.979 89.3838 130.055 90.0794 130.778 91.1098C131.67 91.7939 132.125 91.8123 133.2 91.6642C133.536 91.5436 133.873 91.4231 134.219 91.299C134.661 90.1169 134.609 88.8825 134.619 87.6228C134.624 87.1755 134.628 86.7282 134.633 86.2674C134.635 85.7854 134.638 85.3034 134.64 84.8068C134.642 84.4375 134.642 84.4375 134.644 84.0607C134.651 82.7587 134.656 81.4566 134.659 80.1545C134.663 78.8118 134.675 77.4694 134.688 76.1268C134.697 75.092 134.7 74.0572 134.701 73.0223C134.704 72.2874 134.713 71.5525 134.722 70.8176C134.721 70.3691 134.72 69.9207 134.719 69.4586C134.722 68.868 134.722 68.868 134.725 68.2654C134.482 66.6986 133.704 65.8341 132.605 64.8223C132.181 64.2745 132.181 64.2745 132.032 63.3615C132.181 62.4485 132.181 62.4485 132.701 61.9292C133.832 61.152 135.011 60.5671 136.237 59.9834C136.476 59.8634 136.715 59.7433 136.961 59.6196C138.033 59.108 138.77 58.7881 139.955 58.8365C140.675 59.1617 140.675 59.1617 141.355 60.2573C141.538 61.2288 141.604 62.1901 141.695 63.1789C141.913 62.9807 142.13 62.7825 142.355 62.5783C145.751 59.559 148.491 58.5417 152.908 58.7965C156.052 59.2282 159.288 61.008 161.403 63.5441C164.429 67.8541 165.107 72.9324 165.287 78.1762C165.312 78.8041 165.337 79.432 165.362 80.0599C165.401 81.0366 165.438 82.0134 165.472 82.9903C165.505 83.9422 165.544 84.8937 165.584 85.8453C165.593 86.1345 165.601 86.4236 165.61 86.7216C165.709 88.9141 166.093 90.7233 167.456 92.4402C167.589 92.6662 167.722 92.8921 167.859 93.1249C167.545 94.0807 167.545 94.0807 167.18 94.9509C165.637 94.9599 164.095 94.9666 162.553 94.971C162.027 94.9728 161.502 94.9753 160.977 94.9785C160.224 94.9829 159.471 94.985 158.718 94.9866C158.364 94.9894 158.364 94.9894 158.002 94.9923C157.437 94.9924 156.871 94.9735 156.306 94.9509C155.966 94.5857 155.966 94.5857 155.839 93.5586C155.881 93.1745 155.923 92.7903 155.966 92.3946C156.247 92.2143 156.527 92.034 156.816 91.8482C157.803 90.7853 157.796 90.5455 157.843 89.1021C157.835 88.343 157.818 87.584 157.793 86.8253C157.785 86.4225 157.778 86.0197 157.77 85.6046C157.752 84.7604 157.73 83.9162 157.704 83.0722C157.667 81.8501 157.642 80.6284 157.619 79.4058C157.528 73.9346 157.528 73.9346 156.306 68.6568C156.191 68.3249 156.076 67.993 155.957 67.6511C155.048 65.3924 153.979 64.1894 151.889 63.1789C149.58 62.3516 147.56 62.7809 145.433 63.9093C143.576 65.0692 142.742 66.9046 142.035 69.022C141.809 70.6905 141.813 72.3311 141.83 74.0149C141.826 74.7298 141.822 75.4447 141.817 76.1596C141.813 77.1508 141.816 78.142 141.82 79.1332C141.825 80.8742 141.824 82.6151 141.815 84.3561C141.811 85.2803 141.812 86.2046 141.819 87.1289C141.811 89.5772 141.787 91.4805 140.154 93.3603C137.784 95.3078 135.689 95.0691 132.81 95.0988C132.238 95.1067 131.665 95.1191 131.093 95.1363C125.726 95.2956 125.726 95.2956 124.167 93.9367C123.453 93.1142 123.204 92.3978 123.006 91.299C122.784 91.4708 122.563 91.6426 122.334 91.8197C117.972 95.1599 114.081 96.0077 108.781 95.1606C105.614 94.175 102.909 91.3708 101.197 88.4131C99.6741 85.386 99.4606 82.2732 99.4434 78.888C99.4384 78.516 99.4334 78.144 99.4283 77.7607C99.4073 76.1825 99.3937 74.6041 99.3795 73.0258C99.368 71.868 99.3527 70.7104 99.3372 69.5527C99.3354 69.197 99.3336 68.8413 99.3317 68.4748C99.2998 66.1395 99.1835 64.6493 97.6488 62.8821C97.3825 62.6185 97.1162 62.3549 96.8418 62.0833C96.9958 61.0419 96.9958 61.0419 97.5214 59.8921C98.4702 59.3868 99.4566 59.2172 100.495 59.0248C100.766 58.965 101.038 58.9052 101.318 58.8436C104.242 58.2284 104.242 58.2284 105.676 58.4313Z" fill="#F4364C"/>
<path d="M224.711 60.7509C227.604 62.8587 229.325 65.8658 230.382 69.3873C230.491 69.749 230.601 70.1106 230.714 70.4833C231.173 72.2257 231.306 73.9932 231.463 75.791C231.534 76.5383 231.604 77.2856 231.675 78.0329C231.783 79.2019 231.89 80.3711 231.995 81.5405C232.097 82.6753 232.205 83.8095 232.313 84.9438C232.358 85.466 232.358 85.466 232.403 85.9987C232.583 87.852 232.813 89.3345 233.78 90.9338C234.615 91.3841 234.615 91.3841 235.479 91.6642C236.095 92.1664 236.095 92.1664 236.498 92.7598C236.498 93.2419 236.498 93.7239 236.498 94.2206C234.125 95.6882 231.574 95.7524 228.912 95.1322C227.543 94.5736 226.771 93.6773 225.964 92.3946C225.762 92.5401 225.56 92.6855 225.352 92.8354C221.495 95.4852 217.61 96.3235 213.057 95.4974C209.639 94.5894 206.474 93.1503 204.557 89.8382C203.12 86.4744 202.691 83.6098 203.771 80.0921C204.828 77.2541 206.37 75.4184 208.975 74.1348C214.241 72.1142 218.756 72.254 223.926 74.5C223.295 68.2776 223.295 68.2776 220.188 63.1789C218.408 61.8125 216.521 61.7962 214.411 62.0833C212.544 62.6797 211.693 63.9064 210.761 65.674C210.303 66.5225 209.795 67.2991 209.251 68.0863C209.085 68.3268 208.919 68.5674 208.748 68.8152C208.295 69.3873 208.295 69.3873 207.615 69.7525C205.13 69.922 205.13 69.922 204.314 69.3288C203.358 67.8575 203.605 65.9675 203.878 64.2745C205.213 61.5016 208.075 59.7744 210.724 58.7466C215.551 57.5838 220.442 58.0694 224.711 60.7509Z" fill="#F3354C"/>
<path d="M260.39 61.604C262.213 63.2731 263.935 65.3158 264.361 67.9265C264.4 68.5341 264.421 69.1434 264.425 69.7525C264.43 70.0613 264.435 70.3701 264.439 70.6883C264.354 71.6551 264.162 72.2217 263.682 73.0392C261.089 75.2685 257.826 76.1184 254.688 77.0826C252.713 77.694 250.788 78.4147 248.858 79.1734C243.898 81.0735 243.898 81.0735 242.614 81.0735C243.771 84.8427 245.391 87.2815 248.692 89.1407C251.106 90.2581 254.25 90.3249 256.716 89.3589C257.72 88.8384 258.657 88.276 259.604 87.6471C259.828 87.6471 260.053 87.6471 260.284 87.6471C260.374 87.438 260.464 87.229 260.557 87.0137C260.983 86.147 261.471 85.4113 262.025 84.6342C262.208 84.3762 262.391 84.1182 262.58 83.8524C262.719 83.6585 262.858 83.4645 263.002 83.2647C263.675 83.3852 264.348 83.5057 265.041 83.6299C264.788 87.4352 263.306 90.232 260.623 92.7598C257.483 94.862 254.485 95.8104 250.812 95.7955C250.524 95.8014 250.236 95.8073 249.94 95.8133C245.629 95.8169 242.081 93.8466 238.988 90.7213C234.949 86.213 234.311 80.8078 234.389 74.8153C234.517 70.369 236.511 66.8434 239.216 63.5441C239.924 62.9454 240.617 62.3939 241.361 61.8551C241.546 61.7157 241.73 61.5764 241.921 61.4328C247.252 57.5095 255.19 57.468 260.39 61.604Z" fill="#F3354C"/>
<path d="M81.445 58.2259C81.8018 58.2297 82.1586 58.2334 82.5262 58.2373C86.9037 58.3649 90.5393 59.4901 93.7839 62.8137C94.0279 63.058 94.2718 63.3024 94.5232 63.5541C95.6772 64.8953 95.6186 66.4092 95.5997 68.1504C95.4829 69.0221 95.4829 69.0221 94.7608 69.9807C93.6046 70.575 93.0087 70.7375 91.7451 70.4828C90.405 69.2332 89.6011 67.9208 88.7507 66.2603C87.4944 63.9762 87.4944 63.9762 85.4483 62.6126C83.1067 62.1547 80.2724 61.8334 78.0896 63.042C76.6523 64.3464 75.8748 65.3477 75.6048 67.3787C75.8088 68.9138 76.2087 69.6655 77.1339 70.848C78.4283 71.8134 79.7784 72.3315 81.2751 72.811C81.5095 72.8887 81.7439 72.9664 81.9854 73.0464C83.2723 73.4677 84.5634 73.8568 85.8664 74.2161C90.0351 75.371 93.4935 76.5245 95.8227 80.7083C96.8415 82.6495 96.7664 84.7528 96.2447 86.8625C95.0912 90.4842 93.5372 92.1271 90.3859 93.8554C85.4338 96.0932 78.8023 96.0873 73.7359 94.2206C71.196 92.9108 69.2077 90.776 67.7895 88.172C67.5425 86.878 67.6155 85.996 67.9594 84.7255C68.9732 83.7373 69.6401 83.3089 71.003 83.1406C72.289 83.295 72.5805 83.6243 73.3961 84.6798C73.627 84.9778 73.8578 85.2758 74.0956 85.5828C74.7362 86.5234 75.2685 87.4743 75.7959 88.4916C76.4904 89.7612 77.0978 90.8113 78.3882 91.4631C81.1951 92.1828 84.7641 92.1413 87.3278 90.5686C88.5353 89.2384 89.0761 88.2773 89.0904 86.4373C89.0725 85.1064 89.0035 84.0635 88.3471 82.8995C87.1685 82.137 85.8519 81.7383 84.5457 81.3018C84.1897 81.1813 84.1897 81.1813 83.8266 81.0585C82.3331 80.5653 80.8392 80.1582 79.312 79.8054C75.8786 79.0109 72.2526 78.0168 70.0592 74.8295C68.5519 72.2172 67.8763 69.9341 68.2992 66.8309C69.2652 63.6107 71.3604 61.4519 74.0757 59.8922C76.5482 58.5777 78.6988 58.1825 81.445 58.2259Z" fill="#F3364C"/>
<path d="M187.631 62.4257C190.235 64.0194 192.456 66.2493 193.344 69.3872C193.483 70.5568 193.487 71.7114 193.479 72.8894C193.48 73.2193 193.481 73.5492 193.482 73.8891C193.483 74.5837 193.481 75.2782 193.477 75.9728C193.471 77.0291 193.477 78.0849 193.483 79.1412C193.482 79.8191 193.481 80.4969 193.479 81.1748C193.482 81.6434 193.482 81.6434 193.485 82.1215C193.454 85.0134 192.78 87.4587 190.916 89.6157C188.974 91.4263 186.869 92.3248 184.297 92.1563C181.684 91.7453 179.799 90.5059 178.053 88.3774C175.275 84.0842 174.471 80.4834 174.464 75.2988C174.451 74.8278 174.439 74.3568 174.426 73.8716C174.411 70.2589 175.09 67.282 177.387 64.5437C180.248 61.6277 183.954 60.6465 187.631 62.4257Z" fill="#FECDD0"/>
<path d="M221.929 77.2847C223.519 78.5412 224.473 79.9951 224.86 82.085C224.897 82.5765 224.925 83.0688 224.945 83.5615C224.956 83.8192 224.967 84.0768 224.978 84.3423C225.022 86.4743 224.882 88.173 223.586 89.8383C221.901 91.4995 220.233 92.1745 217.958 92.3034C215.274 92.1639 213.709 90.9376 211.884 88.9253C210.366 86.3142 210.287 83.3288 210.673 80.3432C211.489 78.5839 212.921 77.1204 214.681 76.4758C217.191 75.9744 219.706 75.7772 221.929 77.2847Z" fill="#FECDD0"/>
<path d="M253.679 63.3159C255.421 64.5638 257.084 66.4127 257.565 68.6569C257.735 69.9579 257.735 69.9579 257.565 71.2133C256.196 72.3799 254.835 73.0066 253.181 73.5771C252.855 73.6917 252.855 73.6917 252.521 73.8086C251.832 74.0499 251.142 74.2866 250.451 74.5229C249.762 74.7612 249.073 75.0005 248.384 75.2411C247.759 75.4592 247.133 75.6745 246.506 75.8896C245.663 76.2033 244.887 76.5332 244.079 76.9272C242.954 77.4216 242.954 77.4216 241.595 77.4216C241.415 72.8275 241.469 68.7611 244.313 65.005C247.139 61.9234 250.057 61.2269 253.679 63.3159Z" fill="#FDCCCF"/>
<path d="M192.665 46.7451C192.889 46.8656 193.113 46.9861 193.344 47.1103C193.344 51.9309 193.344 56.7515 193.344 61.7182C193.008 61.5976 192.671 61.4771 192.325 61.353C192.437 56.5324 192.549 51.7118 192.665 46.7451Z" fill="#FEB8BF"/>
<path d="M76.4541 64.2745C76.7905 64.2745 77.1269 64.2745 77.4735 64.2745C77.0645 65.1852 76.6396 65.9842 76.1144 66.8309C75.9835 67.4355 75.867 68.0442 75.7746 68.6569C75.6624 68.6569 75.5503 68.6569 75.4348 68.6569C75.3362 66.8565 75.3678 65.7015 76.4541 64.2745Z" fill="#F2B2B8"/>
<path d="M193.684 91.6642C193.684 92.3873 193.684 93.1104 193.684 93.8554C193.347 93.6143 193.011 93.3733 192.664 93.125C191.765 93.239 191.765 93.239 190.965 93.4902C192.61 91.6642 192.61 91.6642 193.684 91.6642Z" fill="#FABEC3"/>
<path d="M148.831 59.527C148.494 60.0693 148.494 60.0693 148.151 60.6226C147.416 60.7296 147.416 60.7296 146.579 60.6911C146.302 60.6812 146.024 60.6713 145.738 60.6611C145.419 60.6421 145.419 60.6421 145.093 60.6226C146.22 59.4115 147.299 58.9172 148.831 59.527Z" fill="#E84255"/>
<path d="M70.3379 74.5C70.7864 74.5 71.235 74.5 71.6971 74.5C71.8092 75.1026 71.9213 75.7051 72.0369 76.326C72.3733 76.4465 72.7097 76.567 73.0563 76.6912C72.7199 76.8719 72.7199 76.8719 72.3767 77.0564C71.6831 76.4662 71.0036 75.8565 70.3379 75.2304C70.3379 74.9894 70.3379 74.7483 70.3379 74.5Z" fill="#E6394B"/>
<path d="M94.8029 89.8383C94.915 90.1998 95.0272 90.5613 95.1427 90.9338C94.582 91.5364 94.0214 92.139 93.4437 92.7598C93.1073 92.6393 92.7709 92.5188 92.4243 92.3946C92.6906 92.1762 92.9569 91.9578 93.2313 91.7327C94.1728 90.9664 94.1728 90.9664 94.8029 89.8383Z" fill="#FEC2C8"/>
</g>
</g>
<defs>
<clipPath id="clip0_150_2">
<rect width="322" height="117" fill="white"/>
</clipPath>
<clipPath id="clip1_150_2">
<rect width="333" height="149" fill="white"/>
</clipPath>
</defs>
</svg>
