<svg width="322" height="117" viewBox="0 0 322 117" fill="none" xmlns="http://www.w3.org/2000/svg">
<g clip-path="url(#clip0_23_2)">
<rect width="322" height="117" fill="white"/>
<g clip-path="url(#clip1_23_2)">
<path d="M12.0898 76.7742C107.609 76.7742 203.128 76.7742 301.542 76.7742C301.542 83.2145 301.542 89.6548 301.542 96.2903C206.022 96.2903 110.503 96.2903 12.0898 96.2903C12.0898 89.85 12.0898 83.4097 12.0898 76.7742Z" fill="#8B2130"/>
<path d="M12.0898 76.7742C50.1673 76.7742 88.2447 76.7742 127.476 76.7742C127.476 83.2145 127.476 89.6548 127.476 96.2903C89.3986 96.2903 51.3212 96.2903 12.0898 96.2903C12.0898 89.85 12.0898 83.4097 12.0898 76.7742Z" fill="#8B2030"/>
<path d="M121.559 31C121.558 31.4317 121.557 31.8634 121.555 32.3082C121.545 36.3755 121.538 40.4428 121.533 44.51C121.531 46.6011 121.527 48.6921 121.522 50.7832C121.516 52.8009 121.513 54.8187 121.512 56.8364C121.511 57.6065 121.509 58.3765 121.507 59.1465C121.503 60.2246 121.503 61.3026 121.503 62.3806C121.5 62.8588 121.5 62.8588 121.497 63.3466C121.501 64.7944 121.543 66.1362 122.052 67.5484C122.54 67.5484 123.028 67.5484 123.531 67.5484C123.544 68.1323 123.554 68.7164 123.562 69.3004C123.568 69.6256 123.573 69.9508 123.579 70.2859C123.531 71.0968 123.531 71.0968 123.038 71.4516C119.077 71.6875 115.483 71.783 112.19 70.0322C110.957 69.2782 110.957 69.2782 110.217 68.6129C110.217 68.3787 110.217 68.1445 110.217 67.9032C109.96 68.0404 109.703 68.1776 109.437 68.319C103.751 71.2143 98.5593 71.998 91.6509 71.2589C86.5139 70.5324 81.8531 69.6232 78.1657 66.8387C77.9134 66.6553 77.661 66.4718 77.401 66.2829C71.6691 61.5186 71.2022 54.3386 71.7554 48.3871C72.7927 42.8874 76.4392 38.0131 82.542 34.6371C92.4883 29.5436 109.946 26.8217 121.559 31ZM90.3854 38.1661C85.3854 41.8114 84.474 46.5742 84.422 51.4254C84.4077 51.8601 84.3933 52.2949 84.3786 52.7429C84.3389 56.8738 85.6012 60.1978 89.5071 63.2903C92.2471 65.262 95.0485 66.0019 98.8452 66.2621C101.997 66.1489 105.192 65.6682 107.536 64.0665C110.543 61.0282 109.299 55.6596 109.279 52.0824C109.278 51.5724 109.278 51.0624 109.277 50.5524C109.275 49.2282 109.271 47.9041 109.265 46.5799C109.26 45.2215 109.258 43.863 109.255 42.5045C109.25 39.8525 109.242 37.2004 109.231 34.5484C108.229 34.476 107.226 34.4086 106.223 34.3432C105.664 34.3051 105.106 34.2671 104.53 34.2278C99.2845 34.1225 94.1917 35.6272 90.3854 38.1661Z" fill="#20593E"/>
<path d="M181.163 32.0798C181.508 32.3089 181.854 32.5381 182.211 32.7742C182.211 33.0084 182.211 33.2426 182.211 33.4839C182.504 33.5598 182.798 33.6357 183.1 33.714C184.572 34.3659 184.976 35.0764 185.724 36.1895C185.969 36.5454 186.215 36.9012 186.467 37.2679C187.827 39.6557 188.273 41.7983 188.24 44.3487C188.24 44.6399 188.24 44.931 188.24 45.231C188.24 46.1832 188.232 47.1354 188.224 48.0877C188.222 48.7519 188.221 49.4161 188.22 50.0803C188.216 51.821 188.206 53.5617 188.196 55.3024C188.185 57.0816 188.181 58.8609 188.176 60.6401C188.165 64.1257 188.148 67.6112 188.128 71.0968C183.897 71.0968 179.666 71.0968 175.307 71.0968C175.312 70.2984 175.317 69.5001 175.323 68.6775C175.339 66.0291 175.35 63.3806 175.358 60.7322C175.363 59.1276 175.37 57.5231 175.381 55.9186C175.392 54.3679 175.398 52.8172 175.401 51.2665C175.402 50.6772 175.406 50.0878 175.411 49.4985C175.613 43.6419 175.613 43.6419 172.348 38.4516C172.348 38.2174 172.348 37.9832 172.348 37.7419C172.064 37.6395 171.779 37.537 171.486 37.4315C170.376 37.0323 170.376 37.0323 169.525 36.6622C166.664 35.7956 162.93 35.9985 160.021 36.658C156.488 37.8612 154.91 39.1849 153.518 41.8004C152.277 44.3021 152.053 46.6499 152.048 49.2797C152.046 49.6066 152.044 49.9336 152.042 50.2704C152.038 51.3281 152.038 52.3858 152.039 53.4435C152.038 53.9804 152.038 53.9804 152.038 54.528C152.038 60.0979 152.361 65.5504 153.117 71.0968C148.561 71.0968 144.005 71.0968 139.311 71.0968C139.391 70.2981 139.471 69.4994 139.553 68.6765C139.856 65.3586 139.875 62.0483 139.869 58.7245C139.869 58.0956 139.87 57.4667 139.871 56.8377C139.871 55.5286 139.87 54.2195 139.868 52.9104C139.865 51.2517 139.867 49.593 139.87 47.9342C139.871 46.6379 139.871 45.3415 139.87 44.0452C139.869 43.4344 139.87 42.8237 139.871 42.213C139.877 38.1083 139.684 34.0315 139.311 29.9355C139.773 29.9932 140.236 30.0509 140.712 30.1104C142.085 30.2691 143.329 30.3315 144.715 30.325C145.151 30.3238 145.586 30.3227 146.035 30.3215C146.703 30.3171 146.703 30.3171 147.385 30.3125C148.071 30.3101 148.071 30.3101 148.77 30.3076C149.89 30.3035 151.011 30.2971 152.131 30.2903C152.131 31.5784 152.131 32.8665 152.131 34.1935C152.67 33.8203 153.209 33.4471 153.765 33.0625C161.308 28.3412 172.969 27.8897 181.163 32.0798Z" fill="#20593E"/>
<path d="M265.545 29.9355C265.5 30.5358 265.5 30.5358 265.455 31.1483C265.366 32.3426 265.28 33.5369 265.194 34.7314C265.108 35.9331 265.014 37.1342 264.909 38.3352C264.592 42.1745 264.481 46.0156 264.445 49.861C264.439 50.4235 264.43 50.9859 264.419 51.5483C264.338 55.8984 264.325 60.1983 268.504 63.6452C270.748 65.1135 272.878 65.1196 275.839 65.131C276.427 65.1361 277.016 65.1411 277.622 65.1463C280.683 65.0016 282.455 64.3274 284.776 62.9355C285.102 62.9355 285.427 62.9355 285.762 62.9355C285.803 62.7086 285.844 62.4817 285.886 62.248C286.255 61.1613 286.255 61.1613 286.712 60.5804C288.882 57.7917 288.526 54.6988 288.528 51.6014C288.536 50.9855 288.544 50.3695 288.553 49.7535C288.574 48.1418 288.584 46.5301 288.592 44.9183C288.601 43.2697 288.622 41.6213 288.642 39.9728C288.679 36.7454 288.704 33.5179 288.721 30.2903C289.15 30.2931 289.15 30.2931 289.587 30.296C290.891 30.3034 292.194 30.308 293.498 30.3125C294.172 30.317 294.172 30.317 294.861 30.3215C295.516 30.3232 295.516 30.3232 296.185 30.325C296.585 30.3268 296.985 30.3287 297.398 30.3306C298.619 30.3114 298.619 30.3114 299.935 30.0886C300.302 30.038 300.67 29.9875 301.048 29.9355C301.542 30.2903 301.542 30.2903 301.553 31.0229C301.53 31.3509 301.507 31.679 301.483 32.017C301.447 32.5881 301.447 32.5881 301.411 33.1709C301.384 33.5975 301.356 34.0242 301.328 34.4638C301.07 39.0638 300.998 43.6575 301 48.261C301 48.5943 301.001 48.9275 301.001 49.2709C301.002 51.3251 301.008 53.3792 301.015 55.4333C301.02 57.2061 301.022 58.9789 301.024 60.7517C301.03 64.2001 301.038 67.6484 301.048 71.0968C296.98 71.0968 292.912 71.0968 288.721 71.0968C288.721 69.9258 288.721 68.7548 288.721 67.5484C288.121 67.9216 287.521 68.2949 286.903 68.6794C282.424 71.1932 276.651 72.5117 270.969 72.1613C263.994 71.4545 259.518 69.7821 255.19 65.7742C251.845 62.164 252.527 56.974 252.58 52.8143C252.583 52.1611 252.585 51.5078 252.586 50.8546C252.592 49.1524 252.606 47.4503 252.623 45.7482C252.638 44.0044 252.645 42.2607 252.652 40.5169C252.668 37.108 252.693 33.6992 252.724 30.2903C253.013 30.2922 253.301 30.294 253.598 30.296C254.91 30.3033 256.221 30.308 257.532 30.3125C257.986 30.3155 258.44 30.3184 258.907 30.3215C259.346 30.3227 259.785 30.3238 260.236 30.325C260.841 30.3278 260.841 30.3278 261.457 30.3306C262.866 30.2803 264.142 29.9355 265.545 29.9355Z" fill="#20593E"/>
<path d="M252.724 76.7742C268.834 76.7742 284.944 76.7742 301.541 76.7742C301.541 83.2145 301.541 89.6548 301.541 96.2903C285.432 96.2903 269.322 96.2903 252.724 96.2903C252.724 89.85 252.724 83.4097 252.724 76.7742Z" fill="#E53B2D"/>
<path d="M12.0898 76.7742C28.0368 76.7742 43.9838 76.7742 60.414 76.7742C60.414 83.2145 60.414 89.6548 60.414 96.2903C44.467 96.2903 28.5201 96.2903 12.0898 96.2903C12.0898 89.85 12.0898 83.4097 12.0898 76.7742Z" fill="#E53B2D"/>
<path d="M41.9781 29.2133C46.0813 29.2531 49.8761 29.7149 53.8183 30.5343C54.4312 30.6575 54.4312 30.6575 55.0565 30.7831C57.8802 31.4155 59.8009 32.3404 61.8929 33.8387C60.9067 35.6129 60.9067 35.6129 60.4136 36.4113C59.7262 37.7716 59.3373 39.1646 58.9343 40.5806C57.4241 40.7802 57.4241 40.7802 55.4825 40.5806C54.5339 39.8485 53.79 39.0562 52.992 38.2368C50.7551 36.2594 47.1191 34.9294 43.6481 34.5484C38.5858 34.4256 34.3923 35.2974 30.3805 37.5631C26.0766 40.7313 25.2805 45.5278 25.2306 49.7202C25.2225 50.2149 25.2092 50.7097 25.1901 51.2043C25.0239 55.5608 26.0451 59.6945 30.0222 63.1697C33.2274 65.3149 37.5492 66.1573 41.8606 66.3286C46.6072 66.1932 51.1203 64.8377 54.9894 62.9355C55.3149 62.9355 55.6403 62.9355 55.9756 62.9355C56.0875 62.7232 56.1994 62.511 56.3146 62.2923C57.1558 61.2835 57.9317 60.9129 59.4274 60.4516C60.4945 60.7815 60.4945 60.7815 61.3998 61.1613C61.6283 63.0759 61.8016 64.9982 60.9067 66.8387C56.4033 70.4126 47.9961 71.8722 41.562 72.2209C34.2241 72.2736 26.1854 70.8489 20.5935 67.2864C17.1435 64.7865 14.559 62.4115 13.0756 59.0322C12.9097 58.7178 12.7438 58.4034 12.5729 58.0795C11.6485 55.8303 11.8259 53.4462 11.8121 51.1149C11.8101 50.8432 11.8082 50.5716 11.8062 50.2917C11.8063 44.1494 13.6137 39.5113 19.8038 35.0252C20.6498 34.4663 21.518 33.972 22.4446 33.4839C22.7809 33.3055 23.1171 33.1271 23.4636 32.9433C28.8352 30.3663 35.5964 29.258 41.9781 29.2133Z" fill="#20593E"/>
<path d="M224.617 20C224.685 22.4375 224.579 24.8628 224.402 27.2964C224.382 27.5795 224.363 27.8625 224.343 28.1542C224.184 30.2049 224.184 30.2049 223.631 31C224.115 30.9744 224.599 30.9488 225.097 30.9224C229.717 30.6897 234.285 30.6131 238.917 30.6452C238.917 32.5187 238.917 34.3923 238.917 36.3226C233.873 36.2055 228.828 36.0884 223.631 35.9678C223.598 39.3947 223.571 42.8217 223.555 46.2487C223.547 47.8402 223.536 49.4316 223.52 51.023C223.503 52.5599 223.495 54.0968 223.491 55.6337C223.488 56.219 223.483 56.8042 223.475 57.3894C223.464 58.2116 223.463 59.0335 223.463 59.8557C223.46 60.323 223.457 60.7902 223.453 61.2716C223.715 63.1983 224.545 64.545 226.22 66.0847C227.926 67.0334 228.876 67.1678 231.028 67.1936C232.18 67.0379 233.296 66.8475 234.424 66.6169C235.466 66.4839 235.466 66.4839 237.438 66.8387C237.275 68.1268 237.113 69.4149 236.945 70.7419C230.538 72.0425 224.753 72.9584 218.423 70.8528C214.885 69.4241 213.291 67.9792 212.082 65.1865C210.629 60.9474 211.307 56.4412 211.519 52.1157C211.541 51.6502 211.563 51.1846 211.586 50.705C211.643 49.4858 211.702 48.2667 211.761 47.0476C211.821 45.7962 211.88 44.5447 211.939 43.2932C212.055 40.8514 212.172 38.4096 212.29 35.9678C209.035 35.9678 205.781 35.9678 202.428 35.9678C202.428 34.0942 202.428 32.2207 202.428 30.2903C205.519 30.4074 208.611 30.5245 211.797 30.6452C211.797 28.069 211.797 25.4929 211.797 22.8387C213.424 22.3703 215.051 21.9019 216.728 21.4194C217.491 21.1559 218.253 20.8924 219.039 20.621C221.014 19.9736 222.465 19.8682 224.617 20Z" fill="#20593E"/>
<path d="M127.476 76.7742C133.985 76.7742 140.494 76.7742 147.2 76.7742C147.2 83.2145 147.2 89.6548 147.2 96.2903C140.691 96.2903 134.182 96.2903 127.476 96.2903C127.476 89.85 127.476 83.4097 127.476 76.7742Z" fill="#FCEB01"/>
<path d="M233.493 76.7742C239.839 76.7742 246.186 76.7742 252.724 76.7742C252.724 83.2145 252.724 89.6548 252.724 96.2903C246.378 96.2903 240.032 96.2903 233.493 96.2903C233.493 89.85 233.493 83.4097 233.493 76.7742Z" fill="#24583E"/>
<path d="M214.262 76.7742C220.608 76.7742 226.955 76.7742 233.493 76.7742C233.493 83.2145 233.493 89.6548 233.493 96.2903C227.147 96.2903 220.801 96.2903 214.262 96.2903C214.262 89.85 214.262 83.4097 214.262 76.7742Z" fill="#FCEF00"/>
<path d="M60.4136 76.7742C66.7598 76.7742 73.1061 76.7742 79.6446 76.7742C79.6446 83.2145 79.6446 89.6548 79.6446 96.2903C73.2984 96.2903 66.9521 96.2903 60.4136 96.2903C60.4136 89.85 60.4136 83.4097 60.4136 76.7742Z" fill="#22593E"/>
<path d="M147.2 76.7742C153.384 76.7742 159.567 76.7742 165.938 76.7742C165.938 83.2145 165.938 89.6548 165.938 96.2903C159.755 96.2903 153.571 96.2903 147.2 96.2903C147.2 89.85 147.2 83.4097 147.2 76.7742Z" fill="#E53B2D"/>
<path d="M308.938 65.0645C310.032 65.4707 310.032 65.4707 310.91 66.1291C311.345 67.5713 311.274 68.9378 310.91 70.3871C309.647 71.3851 309.647 71.3851 307.952 71.8065C305.844 71.8326 304.894 71.6985 303.298 70.6976C302.325 69.4098 302.276 68.6421 302.528 67.1936C303.95 65.0539 305.715 64.697 308.938 65.0645ZM308.938 67.5484C308.775 68.1339 308.613 68.7194 308.445 69.3226C308.77 69.2055 309.096 69.0884 309.431 68.9678C309.268 68.4994 309.106 68.031 308.938 67.5484ZM304.5 67.9033C304.993 68.6129 304.993 68.6129 304.993 68.6129L304.5 67.9033Z" fill="#20593E"/>
</g>
</g>
<defs>
<clipPath id="clip0_23_2">
<rect width="322" height="117" fill="white"/>
</clipPath>
<clipPath id="clip1_23_2">
<rect width="429" height="77" fill="white" transform="translate(-53 20)"/>
</clipPath>
</defs>
</svg>
