<svg width="322" height="117" viewBox="0 0 322 117" fill="none" xmlns="http://www.w3.org/2000/svg">
<g clip-path="url(#clip0_145_1924)">
<rect width="322" height="117" fill="white"/>
<g clip-path="url(#clip1_145_1924)">
<path d="M-36 14C104.91 14 245.82 14 391 14C391 55.25 391 96.5 391 139C250.09 139 109.18 139 -36 139C-36 97.75 -36 56.5 -36 14Z" fill="#FEFEFE"/>
<path d="M167.27 31.1875C167.755 31.184 168.239 31.1806 168.739 31.177C174.666 31.1422 180.254 31.4527 186.04 32.75C186.04 33.4375 186.04 34.125 186.04 34.8333C187.449 34.8333 188.858 34.8333 190.31 34.8333C190.31 37.5833 190.31 40.3333 190.31 43.1667C188.196 43.1667 186.083 43.1667 183.905 43.1667C185.702 44.0433 186.974 43.9296 188.976 43.9045C189.947 43.8951 189.947 43.8951 190.938 43.8855C191.436 43.8775 191.933 43.8694 192.445 43.8611C192.797 45.5799 192.797 45.5799 193.157 47.3333C193.392 43.4375 193.626 39.5417 193.868 35.5278C208.182 29.9411 225.879 31.4873 240.972 32.6632C242.049 32.7449 242.049 32.7449 243.149 32.8282C243.82 32.8865 244.492 32.9449 245.183 33.005C245.772 33.0559 246.36 33.1068 246.966 33.1593C248.667 33.4445 248.667 33.4445 252.225 34.8333C252.225 40.7917 252.225 46.75 252.225 52.8889C251.755 52.8889 251.286 52.8889 250.802 52.8889C250.81 53.2774 250.818 53.6659 250.827 54.0662C251.006 69.6233 251.006 69.6233 248.667 72.3333C246.398 72.884 246.398 72.884 243.685 73.158C240.371 73.4062 240.371 73.4062 237.28 74.4167C235.378 74.5098 233.492 74.4467 231.587 74.4167C231.587 74.875 231.587 75.3333 231.587 75.8056C228.539 75.858 225.491 75.8953 222.443 75.92C221.412 75.9303 220.38 75.9444 219.349 75.9627C212.803 76.0758 206.816 75.6428 200.428 74.203C195.003 73.0636 190.73 73.5581 185.453 75.1165C177.607 77.1982 169.641 76.8258 161.577 76.717C160.029 76.709 158.482 76.7022 156.934 76.6967C155.466 76.6874 153.998 76.677 152.531 76.6655C151.842 76.6603 151.153 76.6552 150.444 76.6499C149.495 76.6366 149.495 76.6366 148.526 76.6229C147.691 76.6127 147.691 76.6127 146.839 76.6022C145.475 76.5 145.475 76.5 144.052 75.8056C144.052 75.3472 144.052 74.8889 144.052 74.4167C142.877 74.4167 141.703 74.4167 140.493 74.4167C140.493 73.9583 140.493 73.5 140.493 73.0278C139.569 72.9275 138.644 72.8273 137.691 72.724C134.889 72.4201 134.889 72.4201 134.088 71.6389C134.022 70.5092 134.005 69.3767 134.008 68.2452C134.008 67.5223 134.008 66.7993 134.008 66.0545C134.011 65.2682 134.015 64.4819 134.019 63.6718C134.02 62.8712 134.021 62.0707 134.022 61.2459C134.026 58.6772 134.035 56.1086 134.044 53.5399C134.047 51.8034 134.051 50.0668 134.054 48.3302C134.062 44.0627 134.073 39.7953 134.088 35.5278C136.377 34.3155 137.875 33.9969 140.493 34.1389C140.493 33.6806 140.493 33.2222 140.493 32.75C149.417 31.6518 158.282 31.2098 167.27 31.1875Z" fill="#F9F9F9"/>
<path d="M240.972 32.6632C242.049 32.7449 242.049 32.7449 243.149 32.8282C243.82 32.8865 244.492 32.9449 245.184 33.005C246.066 33.0814 246.066 33.0814 246.966 33.1593C248.667 33.4444 248.667 33.4444 252.225 34.8333C252.225 40.7917 252.225 46.75 252.225 52.8889C251.756 52.8889 251.286 52.8889 250.802 52.8889C250.81 53.2774 250.818 53.6659 250.827 54.0662C251.006 69.6233 251.006 69.6233 248.667 72.3333C246.398 72.884 246.398 72.884 243.685 73.158C240.371 73.4062 240.371 73.4062 237.28 74.4167C235.378 74.5098 233.492 74.4467 231.587 74.4167C231.587 74.875 231.587 75.3333 231.587 75.8056C218.343 76.2017 205.95 76.2627 193.157 72.3333C191.94 71.1456 192.327 69.635 192.31 68.0482C192.311 67.5144 192.311 66.9805 192.312 66.4306C192.311 65.873 192.311 65.3155 192.31 64.7411C192.39 54.9938 193.198 45.2498 193.869 35.5278C208.106 29.8712 225.944 31.4923 240.972 32.6632Z" fill="#0B0B0B"/>
<path d="M103.072 31.8506C104.504 31.8426 105.935 31.8283 107.367 31.8079C115.707 31.6891 122.674 31.8504 130.53 34.8333C130.53 37.3542 130.53 39.875 130.53 42.4722C125.598 42.1285 125.598 42.1285 120.567 41.7778C120.567 41.3194 120.567 40.8611 120.567 40.3889C108.355 40.6181 96.1424 40.8472 83.5601 41.0833C83.5601 43.6042 83.5601 46.125 83.5601 48.7222C106.106 49.066 106.106 49.066 129.107 49.4167C129.107 52.1667 129.107 54.9167 129.107 57.75C128.395 58.4444 128.395 58.4444 126.607 58.5279C125.813 58.5264 125.018 58.5249 124.199 58.5233C123.301 58.5232 122.403 58.5232 121.479 58.5231C120.492 58.5196 119.505 58.5159 118.518 58.5123C117.514 58.511 116.51 58.51 115.505 58.5093C112.858 58.5066 110.21 58.4998 107.562 58.4921C104.863 58.485 102.163 58.4818 99.4628 58.4783C94.1619 58.4709 88.861 58.459 83.5601 58.4444C84.0298 60.7361 84.4995 63.0278 84.9834 65.3889C86.3734 65.3663 87.7634 65.3437 89.1534 65.3211C90.6768 65.3889 90.6768 65.3889 91.8768 65.7331C96.0828 66.6278 100.654 66.2175 104.955 66.2135C105.771 66.2143 105.771 66.2143 106.603 66.2151C114.892 66.2142 123.03 65.8784 131.242 64.6944C131.242 67.4444 131.242 70.1944 131.242 73.0278C127.565 74.4161 124.058 74.8556 120.166 75.1979C119.515 75.2564 118.863 75.3148 118.191 75.3751C106.204 76.3603 92.3188 77.1889 80.7134 73.7222C80.7134 73.2639 80.7134 72.8055 80.7134 72.3333C79.5392 72.3333 78.3649 72.3333 77.1551 72.3333C75.334 68.1868 74.7032 64.7967 74.6198 60.3108C74.4364 54.8716 74.0141 49.5122 73.3547 44.1085C72.9839 40.9901 72.8213 37.9733 72.8851 34.8333C74.0086 34.4902 75.1364 34.1603 76.2655 33.8351C76.893 33.6498 77.5205 33.4645 78.167 33.2735C86.3028 31.6008 94.7936 31.8828 103.072 31.8506Z" fill="#0C0C0C"/>
<path d="M168.248 81.3611C168.96 82.0556 168.96 82.0556 169.041 83.4093C169.035 84.2767 169.035 84.2767 169.029 85.1616C169.028 85.7238 169.026 86.286 169.024 86.8653C169.018 87.5841 169.011 88.3028 169.004 89.0434C168.99 91.3207 168.975 93.5981 168.96 95.9444C174.831 96.1736 180.702 96.4028 186.752 96.6389C186.752 94.3472 186.752 92.0556 186.752 89.6944C187.463 89 187.463 89 188.934 88.9322C189.813 88.9443 189.813 88.9443 190.71 88.9566C191.298 88.9629 191.886 88.9691 192.492 88.9756C192.946 88.9836 193.4 88.9917 193.868 89C193.868 87.1667 193.868 85.3333 193.868 83.4444C196.861 82.0386 199.327 81.8768 202.631 81.8711C203.123 81.8698 203.615 81.8684 204.122 81.8671C205.158 81.8661 206.193 81.8687 207.229 81.8745C208.808 81.8819 210.387 81.8745 211.966 81.8657C212.976 81.8666 213.986 81.8684 214.996 81.8711C215.909 81.8727 216.821 81.8742 217.762 81.8758C220.099 82.0481 221.627 82.5698 223.758 83.4444C225.186 82.9937 226.608 82.5283 228.028 82.0556C230.476 81.8593 232.913 81.8931 235.367 81.9253C236.007 81.9258 236.647 81.9262 237.306 81.9267C248.608 81.9985 248.608 81.9985 250.09 83.4444C250.152 84.529 250.166 85.6162 250.159 86.7024C250.157 87.3581 250.155 88.0138 250.152 88.6894C250.147 89.3791 250.141 90.0689 250.134 90.7795C250.131 91.4719 250.128 92.1644 250.125 92.8778C250.116 94.5945 250.105 96.3111 250.09 98.0278C251.015 98.0135 251.939 97.9991 252.892 97.9844C253.856 97.9694 254.821 97.9781 255.783 98.0278C256.495 98.7222 256.495 98.7222 256.539 100.849C256.525 101.522 256.51 102.195 256.495 102.889C255.79 102.431 255.086 101.972 254.36 101.5C253.655 101.729 252.951 101.958 252.225 102.194C252.225 101.736 252.225 101.278 252.225 100.806C251.755 100.806 251.286 100.806 250.802 100.806C251.506 101.722 252.211 102.639 252.937 103.583C251.997 103.354 251.058 103.125 250.09 102.889C250.09 102.201 250.09 101.514 250.09 100.806C248.681 100.806 247.272 100.806 245.82 100.806C245.585 98.7431 245.35 96.6806 245.108 94.5556C239.472 94.3264 233.835 94.0972 228.028 93.8611C228.028 95.9236 228.028 97.9861 228.028 100.111C226.384 100.34 224.74 100.569 223.047 100.806C223.047 96.2222 223.047 91.6389 223.047 86.9167C221.96 86.931 220.874 86.9453 219.755 86.9601C212.78 86.9683 205.814 86.5633 198.85 86.2222C198.85 87.1389 198.85 88.0556 198.85 89C204.251 89 209.653 89 215.218 89C215.218 90.375 215.218 91.75 215.218 93.1667C209.347 93.1667 203.476 93.1667 197.427 93.1667C197.427 94.0833 197.427 95 197.427 95.9444C205.412 95.7153 213.396 95.4861 221.623 95.25C221.623 96.625 221.623 98 221.623 99.4167C218.924 101.148 216.188 100.995 213.075 100.966C212.254 100.965 212.254 100.965 211.417 100.965C210.264 100.963 209.112 100.957 207.959 100.948C206.188 100.936 204.417 100.934 202.646 100.934C201.526 100.931 200.406 100.927 199.286 100.922C198.488 100.921 198.488 100.921 197.674 100.92C193.951 100.886 193.951 100.886 193.157 100.111C193.106 99.0561 193.097 97.9988 193.112 96.9427C193.119 96.3689 193.125 95.7951 193.132 95.2039C193.14 94.7608 193.148 94.3177 193.157 93.8611C192.452 93.8611 191.747 93.8611 191.022 93.8611C191.022 95.6944 191.022 97.5278 191.022 99.4167C186.297 101.108 181.734 101.012 176.744 100.979C175.92 100.985 175.095 100.99 174.246 100.995C173.447 100.994 172.649 100.992 171.826 100.99C171.105 100.988 170.384 100.987 169.641 100.985C167.338 100.789 165.425 100.206 163.267 99.4167C163.267 97.125 163.267 94.8333 163.267 92.4722C159.979 93.1597 156.691 93.8472 153.303 94.5556C153.201 95.5725 153.098 96.5894 152.992 97.6371C152.681 100.719 152.681 100.719 151.88 101.5C149.389 101.587 149.389 101.587 146.898 101.5C146.187 100.806 146.187 100.806 146.117 99.0667C146.125 98.3658 146.134 97.6649 146.142 96.9427C146.149 96.24 146.155 95.5373 146.162 94.8133C146.17 94.2699 146.178 93.7265 146.187 93.1667C145.35 93.1953 144.513 93.224 143.651 93.2535C140.716 93.2382 138.249 92.8995 135.512 91.7778C134.711 90.0417 134.711 90.0417 134.088 88.3056C131.546 87.0409 129.219 86.6819 126.393 86.4826C125.175 86.3967 123.957 86.3108 122.702 86.2222C122.702 90.5764 122.702 94.9306 122.702 99.4167C121.527 99.4167 120.353 99.4167 119.143 99.4167C119.143 95.0625 119.143 90.7083 119.143 86.2222C115.621 86.2222 112.098 86.2222 108.468 86.2222C108.703 85.3056 108.938 84.3889 109.18 83.4444C110.119 83.4444 111.059 83.4444 112.027 83.4444C112.027 82.9861 112.027 82.5278 112.027 82.0556C114.769 82.0353 117.512 82.023 120.255 82.0122C121.028 82.0063 121.801 82.0005 122.597 81.9945C129.053 81.9754 129.053 81.9754 132.062 82.4923C133.065 82.6199 133.065 82.6199 134.088 82.75C134.558 82.2917 135.028 81.8333 135.512 81.3611C137.691 81.2309 137.691 81.2309 139.782 81.3611C140.493 82.0556 140.493 82.0556 140.563 83.3386C140.54 84.7628 140.516 86.187 140.493 87.6111C142.372 87.6111 144.251 87.6111 146.187 87.6111C146.421 86.6944 146.656 85.7778 146.898 84.8333C148.542 84.8333 150.186 84.8333 151.88 84.8333C151.88 85.9792 151.88 87.125 151.88 88.3056C154.346 87.9618 154.346 87.9618 156.862 87.6111C156.862 85.7778 156.862 83.9444 156.862 82.0556C160.745 80.3604 164.158 80.617 168.248 81.3611Z" fill="#171717"/>
<path d="M167.27 31.1875C167.755 31.184 168.239 31.1806 168.739 31.177C174.666 31.1422 180.254 31.4527 186.04 32.75C186.04 33.4375 186.04 34.125 186.04 34.8333C187.449 34.8333 188.858 34.8333 190.31 34.8333C190.31 37.5833 190.31 40.3333 190.31 43.1667C188.738 43.0679 187.167 42.966 185.595 42.8629C184.72 42.8065 183.845 42.7501 182.943 42.692C180.347 42.4722 180.347 42.4722 178.434 42.117C175.575 41.7055 172.805 41.6782 169.919 41.6856C169.337 41.6849 168.754 41.6842 168.154 41.6835C166.928 41.6831 165.701 41.6843 164.474 41.6872C162.608 41.691 160.742 41.6873 158.876 41.6828C157.679 41.6833 156.482 41.6842 155.285 41.6856C154.733 41.6841 154.181 41.6827 153.611 41.6813C148.111 41.4107 148.111 41.4107 143.34 43.1667C143.277 44.758 143.264 46.3512 143.271 47.9437C143.272 48.659 143.272 48.659 143.274 49.3887C143.278 50.9171 143.287 52.4455 143.296 53.974C143.299 55.0079 143.302 56.0419 143.305 57.0759C143.313 59.6154 143.325 62.1549 143.34 64.6945C156.601 66.8101 170.756 67.4974 183.902 64.4557C186.04 64 186.04 64 189.598 64C189.598 66.75 189.598 69.5 189.598 72.3333C171.047 75.2132 152.256 77.5483 134.088 71.6389C134.088 59.7222 134.088 47.8056 134.088 35.5278C136.769 34.2198 137.668 33.9857 140.493 34.1389C140.493 33.6806 140.493 33.2222 140.493 32.75C149.417 31.6518 158.282 31.2098 167.27 31.1875Z" fill="#060606"/>
<path d="M208.813 40.3889C217.503 40.3889 226.192 40.3889 235.145 40.3889C235.145 40.8472 235.145 41.3056 235.145 41.7778C236.535 41.7326 237.925 41.6874 239.315 41.6422C241.053 41.7969 242.181 42.327 243.685 43.1667C243.899 50.4769 243.266 57.4632 242.262 64.6945C241.484 64.9093 240.706 65.1242 239.904 65.3455C238.309 65.794 236.72 66.2655 235.145 66.7778C233.224 66.8536 231.322 66.8917 229.402 66.8945C228.835 66.8968 228.269 66.8991 227.686 66.9015C226.486 66.905 225.286 66.9066 224.086 66.9065C222.268 66.908 220.45 66.9206 218.632 66.9338C217.463 66.9358 216.293 66.9372 215.124 66.9379C214.587 66.9428 214.051 66.9478 213.499 66.953C203.971 66.9138 203.971 66.9138 201.697 64.6945C201.524 61.6392 201.534 58.5801 201.526 55.5207C201.519 53.9827 201.497 52.4452 201.474 50.9073C201.469 49.9339 201.466 48.9605 201.463 47.9871C201.456 47.0969 201.45 46.2067 201.443 45.2895C201.527 44.589 201.61 43.8885 201.697 43.1667C204.29 41.4796 205.762 41.6654 208.813 41.7778C208.813 41.3195 208.813 40.8611 208.813 40.3889Z" fill="#FDFDFD"/>
<path d="M126.972 33.4445C128.616 33.4445 130.26 33.4445 131.953 33.4445C131.953 33.9028 131.953 34.3611 131.953 34.8334C132.57 34.6042 133.186 34.375 133.822 34.1389C136.193 33.4533 138.039 33.3304 140.493 33.4445C140.493 33.6736 140.493 33.9028 140.493 34.1389C138.615 34.5972 136.736 35.0556 134.8 35.5278C134.8 47.4445 134.8 59.3611 134.8 71.6389C136.679 72.0972 138.558 72.5556 140.493 73.0278C137.357 73.793 136.3 73.4355 133.377 72.3334C133.142 70.0417 132.907 67.75 132.665 65.3889C132.313 68.8264 132.313 68.8264 131.953 72.3334C131.719 72.3334 131.484 72.3334 131.242 72.3334C131.242 69.8125 131.242 67.2917 131.242 64.6945C130.546 64.8449 129.851 64.9952 129.135 65.1502C121.189 66.6924 113.383 66.9931 105.31 66.9948C104.792 66.9971 104.274 66.9993 103.74 67.0016C89.6143 67.0388 89.6143 67.0388 84.9834 65.3889C83.1149 63.0347 83.5601 61.6547 83.5601 58.4445C98.3556 58.2153 113.151 57.9861 128.395 57.75C128.63 55 128.865 52.25 129.107 49.4167C127.731 49.4203 126.355 49.424 124.937 49.4277C120.401 49.4389 115.864 49.4469 111.328 49.4527C108.576 49.4563 105.825 49.4612 103.073 49.4691C100.42 49.4766 97.7669 49.4808 95.1137 49.4826C94.0992 49.4839 93.0848 49.4864 92.0704 49.4901C90.6542 49.4951 89.2381 49.4954 87.8219 49.4955C87.0144 49.4971 86.2068 49.4986 85.3748 49.5002C83.5601 49.4167 83.5601 49.4167 82.8484 48.7222C82.7785 47.6969 82.7561 46.6682 82.7595 45.6406C82.7576 45.0829 82.7558 44.5253 82.7539 43.9507C82.8484 42.4722 82.8484 42.4722 83.5601 41.0834C87.923 40.3112 92.2362 40.2969 96.6592 40.3211C97.3462 40.3221 98.0332 40.3231 98.741 40.3241C100.916 40.3279 103.091 40.3366 105.266 40.3455C106.749 40.349 108.231 40.3522 109.714 40.355C113.331 40.3626 116.949 40.3746 120.567 40.3889C120.567 40.8472 120.567 41.3056 120.567 41.7778C121.047 41.7697 121.528 41.7617 122.023 41.7534C122.658 41.7471 123.293 41.7409 123.947 41.7344C124.888 41.7223 124.888 41.7223 125.849 41.71C127.683 41.7778 127.683 41.7778 130.53 42.4722C130.53 39.9514 130.53 37.4306 130.53 34.8334C129.356 34.6042 128.182 34.375 126.972 34.1389C126.972 33.9097 126.972 33.6806 126.972 33.4445Z" fill="#F5F5F5"/>
<path d="M168.248 81.3611C168.96 82.0556 168.96 82.0556 169.041 83.4093C169.035 84.2767 169.035 84.2767 169.029 85.1616C169.028 85.7238 169.026 86.286 169.024 86.8653C169.018 87.5841 169.011 88.3028 169.004 89.0434C168.99 91.3207 168.975 93.5981 168.96 95.9444C176.71 96.2882 176.71 96.2882 184.617 96.6389C184.617 96.8681 184.617 97.0972 184.617 97.3333C182.155 97.3534 179.694 97.3658 177.233 97.3767C176.532 97.3826 175.831 97.3884 175.109 97.3944C174.105 97.3977 174.105 97.3977 173.08 97.4011C172.152 97.4066 172.152 97.4066 171.205 97.4122C169.672 97.3333 169.672 97.3333 168.248 96.6389C168.248 92.0556 168.248 87.4722 168.248 82.75C167.074 82.75 165.9 82.75 164.69 82.75C164.69 88.0208 164.69 93.2917 164.69 98.7222C167.665 98.7382 170.641 98.752 173.616 98.7604C174.627 98.7638 175.639 98.7686 176.65 98.7746C178.107 98.7831 179.565 98.787 181.022 98.79C181.898 98.7937 182.774 98.7973 183.676 98.8011C185.75 98.7319 187.586 98.4986 189.598 98.0278C189.598 96.4236 189.598 94.8194 189.598 93.1667C191.007 93.1667 192.416 93.1667 193.868 93.1667C193.868 95.2292 193.868 97.2917 193.868 99.4167C197.275 99.4338 200.682 99.4464 204.089 99.4548C205.248 99.4583 206.407 99.463 207.566 99.4691C209.232 99.4775 210.898 99.4814 212.563 99.4845C213.082 99.4881 213.6 99.4916 214.134 99.4953C216.354 99.4956 218.077 99.4129 220.2 98.7222C220.722 97.3229 220.722 97.3229 220.912 95.9444C220.346 96.1142 220.346 96.1142 219.768 96.2874C217.671 96.7202 215.728 96.7166 213.584 96.7067C212.726 96.7045 211.868 96.7022 210.984 96.6999C210.092 96.6941 209.199 96.6883 208.28 96.6823C207.376 96.6792 206.472 96.676 205.541 96.6728C203.311 96.6646 201.08 96.6532 198.85 96.6389C198.85 96.4097 198.85 96.1806 198.85 95.9444C206.365 95.7153 213.88 95.4861 221.623 95.25C221.623 96.625 221.623 98 221.623 99.4167C218.924 101.148 216.188 100.995 213.075 100.966C212.254 100.965 212.254 100.965 211.417 100.965C210.264 100.963 209.112 100.957 207.959 100.948C206.188 100.936 204.417 100.934 202.646 100.934C201.526 100.931 200.406 100.927 199.286 100.922C198.488 100.921 198.488 100.921 197.674 100.92C193.951 100.886 193.951 100.886 193.157 100.111C193.105 99.0561 193.097 97.9988 193.112 96.9427C193.119 96.3689 193.125 95.7951 193.132 95.2039C193.14 94.7608 193.148 94.3177 193.157 93.8611C192.452 93.8611 191.747 93.8611 191.022 93.8611C191.022 95.6944 191.022 97.5278 191.022 99.4167C186.297 101.108 181.734 101.012 176.744 100.979C175.92 100.985 175.095 100.99 174.246 100.995C173.447 100.994 172.649 100.992 171.826 100.99C171.105 100.988 170.384 100.987 169.641 100.985C167.338 100.789 165.425 100.206 163.267 99.4167C163.267 97.125 163.267 94.8333 163.267 92.4722C159.979 93.1597 156.691 93.8472 153.303 94.5556C153.201 95.5725 153.098 96.5894 152.992 97.6372C152.681 100.719 152.681 100.719 151.88 101.5C149.389 101.587 149.389 101.587 146.898 101.5C146.187 100.806 146.187 100.806 146.117 99.0667C146.125 98.3658 146.134 97.6649 146.142 96.9427C146.149 96.24 146.155 95.5373 146.162 94.8133C146.17 94.2699 146.178 93.7265 146.187 93.1667C145.35 93.1953 144.513 93.224 143.651 93.2535C140.716 93.2382 138.249 92.8995 135.512 91.7778C134.711 90.0417 134.711 90.0417 134.088 88.3056C131.546 87.0409 129.219 86.6819 126.393 86.4826C125.175 86.3967 123.957 86.3108 122.702 86.2222C122.702 90.5764 122.702 94.9306 122.702 99.4167C121.527 99.4167 120.353 99.4167 119.143 99.4167C119.143 95.0625 119.143 90.7083 119.143 86.2222C115.621 86.2222 112.098 86.2222 108.468 86.2222C108.703 85.3056 108.938 84.3889 109.18 83.4444C110.119 83.4444 111.059 83.4444 112.027 83.4444C112.027 82.9861 112.027 82.5278 112.027 82.0556C114.769 82.0353 117.512 82.023 120.255 82.0122C121.028 82.0063 121.801 82.0005 122.597 81.9945C129.053 81.9754 129.053 81.9754 132.062 82.4923C133.065 82.6199 133.065 82.6199 134.088 82.75C134.558 82.2917 135.028 81.8333 135.512 81.3611C137.691 81.2309 137.691 81.2309 139.782 81.3611C140.493 82.0556 140.493 82.0556 140.563 83.3386C140.54 84.7628 140.516 86.187 140.493 87.6111C142.372 87.6111 144.251 87.6111 146.187 87.6111C146.421 86.6944 146.656 85.7778 146.898 84.8333C148.542 84.8333 150.186 84.8333 151.88 84.8333C151.88 85.9792 151.88 87.125 151.88 88.3056C154.346 87.9618 154.346 87.9618 156.862 87.6111C156.862 85.7778 156.862 83.9444 156.862 82.0556C160.745 80.3604 164.158 80.617 168.248 81.3611Z" fill="#A1A1A1"/>
<path d="M164.69 82.75C165.864 82.75 167.038 82.75 168.248 82.75C168.248 87.3333 168.248 91.9167 168.248 96.6389C174.354 96.6389 180.46 96.6389 186.752 96.6389C186.752 94.3472 186.752 92.0555 186.752 89.6944C187.463 89 187.463 89 188.934 88.9322C189.813 88.9443 189.813 88.9443 190.71 88.9566C191.298 88.9628 191.886 88.9691 192.492 88.9756C192.946 88.9836 193.4 88.9917 193.868 89C193.854 88.0976 193.839 87.1953 193.824 86.2656C193.809 85.3252 193.817 84.3836 193.868 83.4444C195.071 82.2704 196.563 82.6611 198.168 82.6535C198.92 82.6556 198.92 82.6556 199.687 82.6578C200.2 82.6571 200.714 82.6564 201.243 82.6557C202.332 82.6553 203.422 82.6566 204.511 82.6595C206.175 82.6631 207.838 82.6595 209.501 82.655C210.559 82.6555 211.617 82.6564 212.675 82.6578C213.42 82.6556 213.42 82.6556 214.18 82.6535C216.527 82.6645 218.667 82.7391 220.912 83.4444C220.912 84.1319 220.912 84.8194 220.912 85.5278C213.631 85.5278 206.351 85.5278 198.85 85.5278C198.85 86.6736 198.85 87.8194 198.85 89C204.251 89 209.653 89 215.218 89C215.218 90.375 215.218 91.75 215.218 93.1667C209.347 93.1667 203.476 93.1667 197.427 93.1667C197.427 94.0833 197.427 95 197.427 95.9444C205.177 95.9444 212.927 95.9444 220.912 95.9444C220.559 97.6632 220.559 97.6632 220.2 99.4167C218.055 100.114 216.612 100.201 214.37 100.203C213.639 100.204 212.907 100.205 212.153 100.206C211.006 100.202 211.006 100.202 209.836 100.198C209.091 100.201 208.346 100.203 207.578 100.206C202.957 100.2 198.458 99.9387 193.868 99.4167C193.868 97.3542 193.868 95.2917 193.868 93.1667C192.459 93.1667 191.05 93.1667 189.598 93.1667C189.598 94.7708 189.598 96.375 189.598 98.0278C186.088 99.8484 182.61 99.5971 178.745 99.5469C178.102 99.5464 177.459 99.546 176.797 99.5455C172.666 99.5194 168.848 99.1731 164.69 98.7222C164.69 93.4514 164.69 88.1805 164.69 82.75Z" fill="#1D1D1D"/>
<path d="M83.5598 82.0555C89.1962 82.0555 94.8326 82.0555 100.64 82.0555C100.64 82.5139 100.64 82.9722 100.64 83.4444C101.814 83.4444 102.988 83.4444 104.198 83.4444C104.198 84.3611 104.198 85.2778 104.198 86.2222C97.3875 86.4514 90.5768 86.6805 83.5598 86.9167C83.5598 87.6042 83.5598 88.2917 83.5598 89C90.6053 89 97.6508 89 104.91 89C104.91 92.4375 104.91 95.875 104.91 99.4167C101.838 99.9162 99.3299 100.2 96.2753 100.203C95.4671 100.204 94.6588 100.205 93.8261 100.206C92.5753 100.202 92.5753 100.202 91.2992 100.198C90.0401 100.202 90.0401 100.202 88.7555 100.206C87.9491 100.205 87.1428 100.204 86.3119 100.203C85.5788 100.203 84.8457 100.202 84.0904 100.201C82.3706 100.122 80.9314 99.8989 79.2898 99.4167C79.2898 98.0417 79.2898 96.6667 79.2898 95.25C79.82 95.3637 80.3503 95.4774 80.8966 95.5945C84.6078 96.0821 88.2712 96.017 92.0108 95.9878C92.7723 95.9847 93.5337 95.9816 94.3182 95.9783C96.1882 95.9702 98.0581 95.9588 99.9281 95.9444C100.163 95.0278 100.398 94.1111 100.64 93.1667C93.3594 93.1667 86.0791 93.1667 78.5781 93.1667C78.5781 84.1389 78.5781 84.1389 79.2898 83.4444C80.7128 83.4161 82.1368 83.4149 83.5598 83.4444C83.5598 82.9861 83.5598 82.5278 83.5598 82.0555Z" fill="#111111"/>
<path d="M126.972 33.4445C129.085 33.7882 129.085 33.7882 131.242 34.1389C131.242 37.1181 131.242 40.0972 131.242 43.1667C127.087 43.2222 123.017 43.1566 118.877 42.8195C113.346 42.4304 107.829 42.3936 102.286 42.3854C100.98 42.3807 100.98 42.3807 99.648 42.3759C94.2502 42.3845 88.9307 42.6373 83.5601 43.1667C83.5601 44.7708 83.5601 46.375 83.5601 48.0278C98.8253 48.0278 114.091 48.0278 129.818 48.0278C130.845 50.0307 130.597 51.7897 130.575 54.0174C130.568 54.8427 130.562 55.6681 130.555 56.5185C130.547 57.154 130.539 57.7896 130.53 58.4445C128.591 59.3906 127.065 59.222 124.895 59.2177C124.012 59.2177 123.128 59.2176 122.218 59.2176C121.251 59.214 120.283 59.2104 119.316 59.2067C118.329 59.2054 117.341 59.2044 116.354 59.2037C113.754 59.2011 111.155 59.1943 108.555 59.1866C105.903 59.1795 103.251 59.1763 100.598 59.1728C95.3934 59.1654 90.1884 59.1535 84.9834 59.1389C84.9834 60.7431 84.9834 62.3472 84.9834 64C84.5137 63.5417 84.044 63.0833 83.5601 62.6111C83.5601 61.2361 83.5601 59.8611 83.5601 58.4445C98.3556 58.2153 113.151 57.9861 128.395 57.75C128.63 55 128.865 52.25 129.107 49.4167C127.731 49.4203 126.355 49.424 124.937 49.4277C120.401 49.4389 115.864 49.4469 111.328 49.4527C108.576 49.4563 105.825 49.4612 103.073 49.4691C100.42 49.4766 97.7669 49.4808 95.1137 49.4826C94.0992 49.4839 93.0848 49.4864 92.0704 49.4901C90.6542 49.4951 89.2381 49.4954 87.8219 49.4955C87.0144 49.4971 86.2068 49.4986 85.3748 49.5002C83.5601 49.4167 83.5601 49.4167 82.8484 48.7222C82.7785 47.6969 82.7561 46.6682 82.7595 45.6406C82.7576 45.0829 82.7558 44.5252 82.7539 43.9506C82.8484 42.4722 82.8484 42.4722 83.5601 41.0833C87.923 40.3111 92.2362 40.2969 96.6592 40.3211C97.3462 40.3221 98.0332 40.3231 98.741 40.3241C100.916 40.3279 103.091 40.3366 105.266 40.3455C106.749 40.349 108.231 40.3522 109.714 40.355C113.331 40.3626 116.949 40.3746 120.567 40.3889C120.567 40.8472 120.567 41.3056 120.567 41.7778C121.047 41.7697 121.528 41.7617 122.023 41.7534C122.658 41.7471 123.293 41.7408 123.947 41.7344C124.888 41.7223 124.888 41.7223 125.849 41.71C127.683 41.7778 127.683 41.7778 130.53 42.4722C130.53 39.9514 130.53 37.4306 130.53 34.8333C129.356 34.6042 128.182 34.375 126.972 34.1389C126.972 33.9097 126.972 33.6806 126.972 33.4445Z" fill="#D8D8D8"/>
<path d="M164.69 82.75C165.864 82.75 167.038 82.75 168.248 82.75C168.248 87.3333 168.248 91.9167 168.248 96.6389C174.354 96.6389 180.46 96.6389 186.752 96.6389C186.752 94.3472 186.752 92.0556 186.752 89.6944C187.463 89 187.463 89 188.934 88.9322C189.813 88.9443 189.813 88.9443 190.71 88.9566C191.298 88.9629 191.886 88.9691 192.492 88.9756C192.946 88.9836 193.4 88.9917 193.868 89C193.868 87.1667 193.868 85.3333 193.868 83.4444C194.103 83.4444 194.338 83.4444 194.58 83.4444C194.618 84.5727 194.646 85.7012 194.669 86.8299C194.685 87.4583 194.702 88.0867 194.719 88.7342C194.58 90.3889 194.58 90.3889 193.157 91.7778C193.626 92.0069 194.096 92.2361 194.58 92.4722C194.58 94.5347 194.58 96.5972 194.58 98.7222C202.565 98.7222 210.55 98.7222 218.777 98.7222C218.777 98.2639 218.777 97.8056 218.777 97.3333C211.966 97.3333 205.155 97.3333 198.138 97.3333C197.786 96.6458 197.786 96.6458 197.427 95.9444C205.177 95.9444 212.927 95.9444 220.912 95.9444C220.559 97.6632 220.559 97.6632 220.2 99.4167C218.055 100.114 216.612 100.201 214.37 100.203C213.639 100.204 212.907 100.205 212.153 100.206C211.006 100.202 211.006 100.202 209.836 100.198C209.091 100.201 208.346 100.203 207.578 100.206C202.957 100.2 198.458 99.9387 193.868 99.4167C193.868 97.3542 193.868 95.2917 193.868 93.1667C192.459 93.1667 191.05 93.1667 189.598 93.1667C189.598 94.7708 189.598 96.375 189.598 98.0278C186.088 99.8484 182.61 99.5971 178.745 99.5469C178.102 99.5464 177.459 99.546 176.797 99.5455C172.666 99.5194 168.848 99.1731 164.69 98.7222C164.69 93.4514 164.69 88.1806 164.69 82.75Z" fill="#252525"/>
<path d="M100.64 82.75C104.398 82.75 108.155 82.75 112.027 82.75C110.618 83.4375 110.618 83.4375 109.18 84.1389C108.945 84.8264 108.71 85.5139 108.468 86.2222C111.991 86.2222 115.514 86.2222 119.143 86.2222C119.143 90.5764 119.143 94.9306 119.143 99.4167C120.318 99.4167 121.492 99.4167 122.702 99.4167C122.702 95.0625 122.702 90.7083 122.702 86.2222C125.285 86.2222 127.868 86.2222 130.53 86.2222C130.53 86.4514 130.53 86.6806 130.53 86.9167C128.182 86.9167 125.833 86.9167 123.413 86.9167C123.422 87.8611 123.43 88.8055 123.438 89.7785C123.445 91.0092 123.452 92.2398 123.458 93.4705C123.464 94.094 123.47 94.7175 123.476 95.3599C123.478 95.9529 123.481 96.546 123.483 97.157C123.487 97.7061 123.49 98.2553 123.494 98.8211C123.413 100.111 123.413 100.111 122.702 100.806C120.567 100.892 120.567 100.892 118.432 100.806C117.72 100.111 117.72 100.111 117.639 98.8211C117.643 98.2719 117.647 97.7228 117.651 97.157C117.653 96.564 117.655 95.9709 117.657 95.3599C117.666 94.4246 117.666 94.4246 117.676 93.4705C117.679 92.8443 117.682 92.2181 117.685 91.573C117.694 90.0208 117.705 88.4688 117.72 86.9167C116.966 87.025 116.212 87.1333 115.435 87.2449C114.447 87.3817 113.459 87.5182 112.471 87.6545C111.726 87.7626 111.726 87.7626 110.965 87.8729C107.206 88.3842 107.206 88.3842 105.622 87.6111C105.974 88.2986 105.974 88.2986 106.333 89C106.422 90.7453 106.465 92.463 106.467 94.2083C106.476 94.6873 106.484 95.1662 106.493 95.6596C106.497 96.913 106.42 98.1661 106.333 99.4167C104.048 101.647 101.738 101.588 98.6107 101.592C97.613 101.594 97.613 101.594 96.5952 101.595C95.559 101.591 95.559 101.591 94.5019 101.587C93.8276 101.589 93.1534 101.592 92.4587 101.595C88.0282 101.589 83.6887 101.32 79.29 100.806C79.29 100.347 79.29 99.8889 79.29 99.4167C87.7446 99.4167 96.1992 99.4167 104.91 99.4167C104.91 95.9792 104.91 92.5417 104.91 89C97.8645 89 90.819 89 83.56 89C83.56 88.3125 83.56 87.625 83.56 86.9167C85.5286 85.9562 87.1256 86.1444 89.3257 86.1544C90.188 86.1566 91.0503 86.1589 91.9388 86.1612C92.8433 86.167 93.7479 86.1728 94.6798 86.1788C95.5899 86.182 96.4999 86.1851 97.4375 86.1883C99.6912 86.1965 101.945 86.208 104.198 86.2222C104.198 85.3056 104.198 84.3889 104.198 83.4444C103.024 83.4444 101.85 83.4444 100.64 83.4444C100.64 83.2153 100.64 82.9861 100.64 82.75Z" fill="#B3B3B3"/>
<path d="M135.512 82.75C136.686 82.75 137.86 82.75 139.07 82.75C139.305 84.5833 139.54 86.4167 139.782 88.3056C142.365 88.5347 144.949 88.7639 147.61 89C147.61 87.8542 147.61 86.7083 147.61 85.5278C149.372 85.8715 149.372 85.8715 151.169 86.2222C151.169 87.1389 151.169 88.0556 151.169 89C153.517 89 155.866 89 158.285 89C158.285 86.9375 158.285 84.875 158.285 82.75C159.459 82.75 160.634 82.75 161.844 82.75C161.844 85.7292 161.844 88.7083 161.844 91.7778C158.115 92.5539 154.993 93.1667 151.169 93.1667C151.169 95.4583 151.169 97.75 151.169 100.111C149.759 100.111 148.35 100.111 146.899 100.111C146.899 97.5903 146.899 95.0694 146.899 92.4722C145.755 92.4843 145.755 92.4843 144.588 92.4966C143.594 92.5031 142.6 92.5095 141.606 92.5156C141.102 92.5214 140.599 92.5273 140.081 92.5333C138.795 92.5393 137.509 92.5085 136.224 92.4722C135.512 91.7778 135.512 91.7778 135.442 89.7351C135.451 88.9053 135.459 88.0755 135.467 87.2205C135.474 86.3889 135.48 85.5572 135.487 84.7004C135.495 84.0568 135.503 83.4131 135.512 82.75Z" fill="#424242"/>
<path d="M197.427 82.0556C200.605 82.0211 203.783 81.996 206.961 81.9793C208.041 81.9723 209.122 81.9628 210.202 81.9508C211.758 81.9339 213.314 81.926 214.871 81.9199C215.806 81.9127 216.742 81.9054 217.706 81.8979C220.087 82.0484 221.595 82.5471 223.758 83.4445C225.183 82.9864 226.606 82.5224 228.028 82.0556C230.61 81.8774 233.181 81.9243 235.768 81.9688C236.461 81.975 237.155 81.9813 237.869 81.9877C239.571 82.004 241.272 82.0268 242.973 82.0556C242.973 82.2847 242.973 82.5139 242.973 82.75C241.864 82.8131 241.864 82.8131 240.733 82.8775C239.73 82.9362 238.728 82.995 237.725 83.0538C237.241 83.0811 236.758 83.1084 236.26 83.1366C232.31 83.3707 228.417 83.7538 224.47 84.1389C224.47 89.1806 224.47 94.2222 224.47 99.4167C225.175 99.4167 225.879 99.4167 226.605 99.4167C226.605 97.125 226.605 94.8333 226.605 92.4722C228.725 92.5712 230.846 92.6728 232.966 92.776C233.852 92.817 233.852 92.817 234.757 92.8588C238.706 93.0537 242.606 93.4011 246.532 93.8611C246.532 95.6945 246.532 97.5278 246.532 99.4167C247.471 99.4167 248.411 99.4167 249.378 99.4167C249.378 94.375 249.378 89.3333 249.378 84.1389C248.204 83.9097 247.03 83.6806 245.82 83.4445C245.82 83.2153 245.82 82.9861 245.82 82.75C247.006 82.7203 248.193 82.7218 249.378 82.75C250.09 83.4445 250.09 83.4445 250.171 84.862C250.165 85.773 250.165 85.773 250.16 86.7024C250.156 87.686 250.156 87.686 250.153 88.6894C250.144 89.724 250.144 89.724 250.135 90.7795C250.131 91.4719 250.128 92.1644 250.125 92.8778C250.116 94.5945 250.105 96.3111 250.09 98.0278C251.015 98.0135 251.94 97.9991 252.892 97.9844C253.856 97.9695 254.821 97.9781 255.783 98.0278C256.495 98.7222 256.495 98.7222 256.54 100.849C256.525 101.522 256.51 102.195 256.495 102.889C255.791 102.431 255.086 101.972 254.36 101.5C253.303 101.844 253.303 101.844 252.225 102.194C252.225 101.736 252.225 101.278 252.225 100.806C251.755 100.806 251.286 100.806 250.802 100.806C251.506 101.722 252.211 102.639 252.937 103.583C251.997 103.354 251.058 103.125 250.09 102.889C250.09 102.201 250.09 101.514 250.09 100.806C248.681 100.806 247.272 100.806 245.82 100.806C245.468 97.7118 245.468 97.7118 245.108 94.5556C239.472 94.3264 233.836 94.0972 228.028 93.8611C228.028 95.9236 228.028 97.9861 228.028 100.111C226.384 100.34 224.741 100.569 223.047 100.806C223.047 96.2222 223.047 91.6389 223.047 86.9167C221.417 86.9382 221.417 86.9382 219.755 86.9601C212.78 86.9683 205.815 86.5633 198.85 86.2222C198.85 85.9931 198.85 85.7639 198.85 85.5278C206.13 85.5278 213.411 85.5278 220.912 85.5278C220.912 84.8403 220.912 84.1528 220.912 83.4445C213.162 83.2153 205.412 82.9861 197.427 82.75C197.427 82.5208 197.427 82.2917 197.427 82.0556Z" fill="#808080"/>
<path d="M198.85 86.2222C215.155 86.0842 215.155 86.0842 223.047 86.9166C223.047 91.2708 223.047 95.625 223.047 100.111C222.342 99.8819 221.638 99.6528 220.912 99.4166C221.147 98.0416 221.381 96.6666 221.623 95.25C220.882 95.3637 220.141 95.4774 219.377 95.5945C215.037 96.1239 210.689 96.0183 206.323 95.9878C205.037 95.9831 205.037 95.9831 203.726 95.9783C201.626 95.9702 199.527 95.9588 197.427 95.9444C197.427 95.0278 197.427 94.1111 197.427 93.1666C203.298 93.1666 209.169 93.1666 215.218 93.1666C215.218 91.7916 215.218 90.4166 215.218 89C209.817 89 204.415 89 198.85 89C198.85 88.0833 198.85 87.1666 198.85 86.2222Z" fill="#D3D3D3"/>
<path d="M112.027 82.0556C114.784 82.015 117.542 81.9905 120.3 81.9687C121.468 81.9513 121.468 81.9513 122.66 81.9335C129.805 81.8912 129.805 81.8912 133.377 83.4444C133.729 85.1632 133.729 85.1632 134.088 86.9167C130.331 86.6875 126.573 86.4583 122.702 86.2222C122.702 90.5764 122.702 94.9306 122.702 99.4167C121.527 99.4167 120.353 99.4167 119.143 99.4167C119.143 95.0625 119.143 90.7083 119.143 86.2222C115.621 86.2222 112.098 86.2222 108.468 86.2222C108.703 85.3056 108.938 84.3889 109.18 83.4444C110.119 83.4444 111.059 83.4444 112.027 83.4444C112.027 82.9861 112.027 82.5278 112.027 82.0556Z" fill="#292929"/>
<path d="M163.979 82.0555C165.622 82.0555 167.266 82.0555 168.96 82.0555C168.96 86.6389 168.96 91.2222 168.96 95.9444C174.127 96.1736 179.294 96.4028 184.617 96.6389C184.617 96.868 184.617 97.0972 184.617 97.3333C182.156 97.3534 179.695 97.3658 177.233 97.3767C176.532 97.3825 175.832 97.3884 175.109 97.3944C174.105 97.3977 174.105 97.3977 173.08 97.4011C172.152 97.4066 172.152 97.4066 171.205 97.4122C169.672 97.3333 169.672 97.3333 168.249 96.6389C168.249 92.0555 168.249 87.4722 168.249 82.75C167.074 82.75 165.9 82.75 164.69 82.75C164.69 88.0208 164.69 93.2917 164.69 98.7222C167.666 98.7382 170.641 98.752 173.616 98.7604C174.628 98.7638 175.639 98.7686 176.65 98.7746C178.107 98.7831 179.565 98.787 181.022 98.79C181.898 98.7937 182.774 98.7973 183.676 98.801C185.75 98.7319 187.587 98.4986 189.599 98.0278C189.599 96.4236 189.599 94.8194 189.599 93.1667C191.008 93.1667 192.417 93.1667 193.869 93.1667C193.869 95.2292 193.869 97.2917 193.869 99.4167C197.275 99.4338 200.682 99.4464 204.089 99.4548C205.248 99.4583 206.407 99.463 207.566 99.469C209.232 99.4775 210.898 99.4814 212.564 99.4845C213.082 99.4881 213.6 99.4916 214.134 99.4953C216.354 99.4956 218.077 99.4129 220.2 98.7222C220.722 97.3228 220.722 97.3228 220.912 95.9444C220.535 96.0576 220.157 96.1708 219.769 96.2874C217.671 96.7202 215.728 96.7166 213.584 96.7067C212.726 96.7045 211.868 96.7022 210.985 96.6999C210.092 96.6941 209.199 96.6883 208.28 96.6823C207.376 96.6791 206.473 96.676 205.542 96.6728C203.311 96.6646 201.081 96.6532 198.85 96.6389C198.85 96.4097 198.85 96.1805 198.85 95.9444C206.365 95.7153 213.881 95.4861 221.624 95.25C221.624 96.625 221.624 98 221.624 99.4167C218.924 101.148 216.188 100.995 213.075 100.966C212.254 100.965 212.254 100.965 211.417 100.965C210.264 100.963 209.112 100.957 207.959 100.948C206.188 100.936 204.417 100.934 202.646 100.934C201.526 100.931 200.406 100.927 199.287 100.922C198.488 100.921 198.488 100.921 197.674 100.92C193.951 100.886 193.951 100.886 193.157 100.111C193.106 99.056 193.097 97.9988 193.112 96.9427C193.119 96.3689 193.125 95.7951 193.132 95.2039C193.14 94.7608 193.148 94.3176 193.157 93.8611C192.452 93.8611 191.748 93.8611 191.022 93.8611C191.022 95.6944 191.022 97.5278 191.022 99.4167C186.286 101.114 181.702 101.012 176.7 100.979C175.869 100.985 175.039 100.99 174.184 100.995C173.383 100.994 172.582 100.992 171.757 100.99C171.032 100.988 170.307 100.987 169.56 100.985C167.537 100.806 167.537 100.806 163.979 99.4167C163.979 93.6875 163.979 87.9583 163.979 82.0555Z" fill="#787878"/>
<path d="M167.27 31.1875C167.755 31.184 168.239 31.1806 168.739 31.177C174.666 31.1422 180.254 31.4527 186.04 32.75C186.04 32.9792 186.04 33.2083 186.04 33.4445C185.237 33.4408 184.435 33.4372 183.608 33.4334C180.573 33.4207 177.538 33.4128 174.503 33.4063C173.2 33.4029 171.898 33.3981 170.595 33.3921C152.952 32.4943 152.952 32.4943 136.223 36.2222C136.187 41.1418 136.162 46.0612 136.145 50.9809C136.138 52.6555 136.128 54.3301 136.116 56.0047C136.099 58.4076 136.091 60.8104 136.084 63.2133C136.077 63.9657 136.07 64.718 136.062 65.4931C136.062 66.1882 136.062 66.8833 136.062 67.5994C136.059 68.2131 136.055 68.8269 136.052 69.4592C136.08 71.0936 136.08 71.0936 137.647 72.3333C136.472 72.1042 135.298 71.875 134.088 71.6389C134.088 59.7222 134.088 47.8056 134.088 35.5278C136.769 34.2198 137.668 33.9857 140.493 34.1389C140.493 33.6806 140.493 33.2222 140.493 32.75C149.417 31.6518 158.282 31.2098 167.27 31.1875Z" fill="#3F3F3F"/>
<path d="M82.1366 41.7778C82.6063 42.0069 83.076 42.2361 83.56 42.4722C83.56 44.5347 83.56 46.5972 83.56 48.7222C106.106 49.066 106.106 49.066 129.107 49.4167C129.107 52.1667 129.107 54.9167 129.107 57.75C128.395 58.4444 128.395 58.4444 126.607 58.5279C125.812 58.5264 125.017 58.5249 124.198 58.5233C123.301 58.5232 122.403 58.5232 121.479 58.5231C120.492 58.5196 119.505 58.5159 118.518 58.5123C117.514 58.511 116.509 58.51 115.505 58.5093C112.858 58.5066 110.21 58.4998 107.562 58.4921C104.862 58.485 102.163 58.4818 99.4627 58.4783C94.1617 58.4709 88.8609 58.459 83.56 58.4444C84.0297 60.7361 84.4994 63.0278 84.9833 65.3889C84.0439 65.3889 83.1045 65.3889 82.1366 65.3889C82.1366 62.6389 82.1366 59.8889 82.1366 57.0555C97.4019 57.0555 112.667 57.0555 128.395 57.0555C128.395 54.7639 128.395 52.4722 128.395 50.1111C127.828 50.1126 127.26 50.1142 126.675 50.1158C121.335 50.1297 115.994 50.1403 110.653 50.1471C107.907 50.1507 105.161 50.1556 102.415 50.1635C99.7667 50.171 97.118 50.1752 94.4694 50.177C93.4575 50.1783 92.4457 50.1808 91.4338 50.1845C90.0195 50.1895 88.6052 50.1899 87.1909 50.1899C85.982 50.1923 85.982 50.1923 84.7486 50.1946C82.8483 50.1111 82.8483 50.1111 81.425 49.4167C81.4058 48.2738 81.392 47.1308 81.3805 45.9878C81.3722 45.3514 81.364 44.7149 81.3555 44.0591C81.425 42.4722 81.425 42.4722 82.1366 41.7778Z" fill="#606060"/>
<path d="M85.2087 85.449C85.9206 85.4526 86.6324 85.4562 87.3658 85.46C88.1341 85.4622 88.9024 85.4645 89.694 85.4668C90.907 85.4755 90.907 85.4755 92.1445 85.4844C93.3617 85.4891 93.3617 85.4891 94.6034 85.4939C96.6156 85.5021 98.6278 85.5136 100.64 85.5278C100.64 85.757 100.64 85.9861 100.64 86.2223C95.0036 86.4514 89.3672 86.6806 83.56 86.9167C83.56 87.6042 83.56 88.2917 83.56 89C90.6055 89 97.651 89 104.91 89C104.91 92.4375 104.91 95.875 104.91 99.4167C101.838 99.9163 99.3302 100.2 96.2755 100.203C95.4673 100.204 94.6591 100.205 93.8264 100.206C92.5755 100.202 92.5755 100.202 91.2994 100.198C90.0403 100.202 90.0403 100.202 88.7558 100.206C87.9494 100.205 87.143 100.204 86.3122 100.203C85.5791 100.203 84.846 100.202 84.0907 100.201C82.3708 100.122 80.9317 99.8989 79.29 99.4167C79.29 98.0417 79.29 96.6667 79.29 95.25C79.8203 95.3566 80.3505 95.4631 80.8968 95.5728C84.5938 96.0887 88.2819 96.1984 92.0111 96.3351C92.7725 96.3651 93.5339 96.3951 94.3184 96.426C96.1883 96.4993 98.0583 96.5702 99.9284 96.6389C99.9284 96.8681 99.9284 97.0973 99.9284 97.3334C98.2844 97.3334 96.6405 97.3334 94.9467 97.3334C94.9467 97.7917 94.9467 98.25 94.9467 98.7223C97.9998 98.7223 101.053 98.7223 104.198 98.7223C104.198 95.9723 104.198 93.2223 104.198 90.3889C103.272 90.3998 103.272 90.3998 102.326 90.411C100.037 90.4346 97.7482 90.452 95.4589 90.4652C94.4676 90.4722 93.4763 90.4817 92.4851 90.4937C91.0613 90.5105 89.6375 90.5177 88.2137 90.5246C87.3565 90.5318 86.4993 90.5391 85.6162 90.5466C83.56 90.3889 83.56 90.3889 82.1367 89C82.6692 85.5704 82.6692 85.5704 85.2087 85.449Z" fill="#353535"/>
<path d="M191.733 61.9167C191.968 61.9167 192.203 61.9167 192.445 61.9167C192.485 62.9453 192.485 62.9453 192.525 63.9946C192.572 64.8844 192.619 65.7742 192.667 66.691C192.709 67.5772 192.75 68.4635 192.792 69.3765C192.973 70.4964 192.973 70.4964 193.156 71.6389C193.861 72.0972 194.566 72.5556 195.291 73.0278C194.846 73.1083 194.401 73.1888 193.942 73.2718C191.93 73.6368 189.919 74.005 187.908 74.3733C187.207 74.5 186.506 74.6266 185.784 74.7571C185.114 74.8802 184.445 75.0033 183.755 75.1301C183.136 75.2429 182.517 75.3556 181.88 75.4717C180.322 75.7477 180.322 75.7477 178.923 76.5C177.855 76.5658 176.784 76.5889 175.714 76.5899C175.049 76.5921 174.384 76.5943 173.699 76.5965C172.619 76.5944 172.619 76.5944 171.517 76.5923C170.78 76.5929 170.043 76.5936 169.284 76.5943C167.724 76.5947 166.164 76.5935 164.603 76.5906C162.209 76.5868 159.815 76.5905 157.42 76.595C155.907 76.5945 154.394 76.5936 152.881 76.5923C152.161 76.5937 151.441 76.5951 150.699 76.5965C150.034 76.5943 149.369 76.5921 148.684 76.5899C148.098 76.5893 147.511 76.5888 146.906 76.5882C145.475 76.5 145.475 76.5 144.051 75.8056C144.051 75.3472 144.051 74.8889 144.051 74.4167C142.877 74.4167 141.703 74.4167 140.493 74.4167C140.493 74.1875 140.493 73.9584 140.493 73.7222C141.117 73.7724 141.741 73.8225 142.384 73.8742C155.288 74.7955 167.896 74.9091 180.68 72.7891C183.691 72.3078 186.551 72.2515 189.598 72.3334C189.598 69.5834 189.598 66.8334 189.598 64C188.424 64 187.25 64 186.04 64C186.04 63.7709 186.04 63.5417 186.04 63.3056C187.919 63.3056 189.797 63.3056 191.733 63.3056C191.733 62.8472 191.733 62.3889 191.733 61.9167Z" fill="#A9A9A9"/>
<path d="M189.598 34.8333C189.833 34.8333 190.068 34.8333 190.31 34.8333C190.31 37.5833 190.31 40.3333 190.31 43.1666C188.738 43.0679 187.167 42.966 185.595 42.8628C184.72 42.8064 183.845 42.75 182.943 42.6919C180.347 42.4722 180.347 42.4722 178.434 42.117C175.575 41.7055 172.805 41.6782 169.919 41.6855C169.337 41.6849 168.754 41.6842 168.154 41.6835C166.928 41.683 165.701 41.6843 164.474 41.6872C162.608 41.6909 160.742 41.6873 158.876 41.6828C157.679 41.6833 156.482 41.6842 155.286 41.6855C154.733 41.6841 154.181 41.6827 153.612 41.6813C148.111 41.4106 148.111 41.4106 143.34 43.1666C143.278 44.758 143.264 46.3512 143.271 47.9437C143.272 48.4205 143.273 48.8974 143.274 49.3887C143.278 50.9171 143.287 52.4455 143.296 53.9739C143.299 55.0079 143.302 56.0419 143.305 57.0759C143.313 59.6154 143.326 62.1549 143.34 64.6944C153.745 66.2393 164.142 66.5118 174.653 66.7778C174.653 67.0069 174.653 67.2361 174.653 67.4722C171.109 67.4895 167.565 67.502 164.02 67.5104C162.816 67.5138 161.613 67.5186 160.409 67.5246C158.671 67.5331 156.932 67.537 155.194 67.54C154.663 67.5436 154.132 67.5472 153.585 67.5509C150.109 67.5512 146.77 67.3557 143.34 66.7778C141.586 65.0664 141.749 64.1087 141.737 61.7731C141.742 61.2834 141.748 60.7936 141.753 60.289C141.753 59.7856 141.753 59.2822 141.754 58.7636C141.756 57.6988 141.762 56.6341 141.77 55.5693C141.783 53.937 141.785 52.305 141.785 50.6726C141.788 49.6391 141.792 48.6056 141.797 47.572C141.798 46.8374 141.798 46.8374 141.8 46.0879C141.834 42.6334 141.834 42.6334 142.628 41.0833C144.285 40.8236 145.946 40.5919 147.61 40.3889C147.845 40.1597 148.08 39.9305 148.322 39.6944C149.482 39.6249 150.645 39.6036 151.808 39.6022C152.539 39.6007 153.271 39.5992 154.024 39.5976C154.814 39.6009 155.603 39.6042 156.417 39.6076C157.222 39.6105 158.027 39.6133 158.856 39.6163C169.36 39.6835 179.381 39.886 189.598 42.4722C189.598 39.9514 189.598 37.4305 189.598 34.8333Z" fill="#575757"/>
<path d="M77.1549 82.75C79.2686 82.75 81.3822 82.75 83.5599 82.75C83.5599 82.9792 83.5599 83.2083 83.5599 83.4444C82.1508 83.6736 80.7417 83.9028 79.2899 84.1389C79.0551 87.1181 78.8202 90.0972 78.5783 93.1667C85.8586 93.1667 93.139 93.1667 100.64 93.1667C100.288 94.8854 100.288 94.8854 99.9283 96.6389C97.2892 96.6794 94.6502 96.704 92.011 96.7257C90.8936 96.7431 90.8936 96.7431 89.7537 96.761C85.9848 96.7842 82.8076 96.7584 79.2899 95.25C79.2899 96.625 79.2899 98 79.2899 99.4167C78.8202 99.4167 78.3505 99.4167 77.8666 99.4167C76.8806 96.5301 76.8659 93.7174 76.7101 90.6927C76.6734 90.0844 76.6367 89.4762 76.5989 88.8494C76.5677 88.268 76.5366 87.6866 76.5044 87.0876C76.4754 86.5553 76.4464 86.0231 76.4165 85.4747C76.4433 84.1389 76.4433 84.1389 77.1549 82.75Z" fill="#919191"/>
<path d="M126.972 33.4445C129.085 33.7882 129.085 33.7882 131.242 34.1389C131.242 37.1181 131.242 40.0972 131.242 43.1667C127.087 43.2222 123.017 43.1566 118.876 42.8195C113.346 42.4304 107.829 42.3936 102.286 42.3854C100.98 42.3807 100.98 42.3807 99.6479 42.3759C94.2501 42.3845 88.9306 42.6373 83.56 43.1667C83.56 45 83.56 46.8333 83.56 48.7222C83.3251 48.7222 83.0903 48.7222 82.8483 48.7222C82.8291 47.7096 82.8153 46.6968 82.8038 45.684C82.7956 45.1201 82.7873 44.5561 82.7788 43.9751C82.8483 42.4722 82.8483 42.4722 83.56 41.0833C87.9229 40.3111 92.2361 40.2969 96.6591 40.3211C97.3461 40.3221 98.033 40.3231 98.7408 40.3241C100.916 40.3279 103.091 40.3366 105.266 40.3455C106.748 40.349 108.231 40.3522 109.714 40.355C113.331 40.3626 116.949 40.3746 120.567 40.3889C120.567 40.8472 120.567 41.3056 120.567 41.7778C121.047 41.7697 121.528 41.7617 122.023 41.7534C122.658 41.7471 123.293 41.7408 123.947 41.7344C124.888 41.7223 124.888 41.7223 125.849 41.71C127.683 41.7778 127.683 41.7778 130.53 42.4722C130.53 39.9514 130.53 37.4306 130.53 34.8333C129.356 34.6042 128.181 34.375 126.972 34.1389C126.972 33.9097 126.972 33.6806 126.972 33.4445Z" fill="#ABABAB"/>
<path d="M164.69 82.75C165.864 82.75 167.038 82.75 168.248 82.75C168.248 87.3333 168.248 91.9167 168.248 96.6389C172.241 96.8681 176.233 97.0972 180.347 97.3333C180.347 97.7917 180.347 98.25 180.347 98.7222C182.225 98.7222 184.104 98.7222 186.04 98.7222C186.04 98.9514 186.04 99.1806 186.04 99.4167C183.683 99.4371 181.325 99.4493 178.968 99.4601C177.979 99.4688 177.979 99.4688 176.97 99.4777C175.99 99.4811 175.99 99.4811 174.99 99.4845C174.101 99.4899 174.101 99.4899 173.194 99.4955C170.349 99.3887 167.519 99.029 164.69 98.7222C164.69 93.4514 164.69 88.1806 164.69 82.75Z" fill="#151515"/>
<path d="M193.869 35.5278C194.103 35.5278 194.338 35.5278 194.58 35.5278C194.598 38.8847 194.611 42.2416 194.619 45.5986C194.623 46.7352 194.628 47.8718 194.634 49.0084C194.674 56.585 194.461 64.0822 193.869 71.6389C194.627 71.63 195.385 71.6211 196.167 71.6119C198.188 71.6322 199.96 71.7236 201.933 72.0702C202.457 72.1611 202.98 72.2519 203.519 72.3455C204.312 72.4899 204.312 72.4899 205.122 72.6371C205.664 72.7307 206.207 72.8242 206.766 72.9206C210.75 73.6252 210.75 73.6252 212.372 74.4167C213.817 74.5237 215.266 74.5901 216.714 74.6364C217.576 74.6655 218.439 74.6946 219.327 74.7245C220.232 74.7518 221.136 74.7792 222.068 74.8073C222.978 74.8373 223.888 74.8673 224.826 74.8982C227.08 74.972 229.333 75.0429 231.587 75.1111C231.587 75.3403 231.587 75.5694 231.587 75.8055C218.343 76.2017 205.95 76.2627 193.157 72.3333C191.94 71.1456 192.327 69.635 192.31 68.0481C192.311 67.5143 192.311 66.9805 192.312 66.4305C192.311 65.873 192.311 65.3155 192.31 64.7411C192.39 54.9938 193.198 45.2498 193.869 35.5278Z" fill="#595959"/>
<path d="M207.079 80.5364C208.393 80.5237 208.393 80.5237 209.735 80.5107C210.997 80.5087 210.997 80.5087 212.285 80.5066C213.053 80.5038 213.82 80.5009 214.611 80.498C216.617 80.6646 217.786 81.0433 219.488 82.0555C218.835 82.0729 218.181 82.0903 217.508 82.1083C215.078 82.1744 212.649 82.2433 210.219 82.3141C209.168 82.3441 208.118 82.3731 207.067 82.4009C205.555 82.4411 204.043 82.4853 202.531 82.5303C201.621 82.5557 200.712 82.5812 199.775 82.6074C197.911 82.7206 196.352 82.9093 194.58 83.4444C194.345 85.2778 194.11 87.1111 193.868 89C190.698 89.3437 190.698 89.3437 187.463 89.6944C187.228 91.9861 186.994 94.2778 186.752 96.6389C184.32 96.6576 181.889 96.6714 179.457 96.6823C178.768 96.6881 178.079 96.6939 177.369 96.6999C176.704 96.7022 176.039 96.7044 175.354 96.7067C174.743 96.7103 174.131 96.714 173.502 96.7177C171.807 96.6389 171.807 96.6389 168.96 95.9444C168.96 91.5903 168.96 87.2361 168.96 82.75C169.195 82.75 169.43 82.75 169.672 82.75C169.906 86.6458 170.141 90.5417 170.383 94.5555C175.55 94.5555 180.717 94.5555 186.04 94.5555C186.04 92.7222 186.04 90.8889 186.04 89C186.752 88.3055 186.752 88.3055 188.222 88.2377C189.102 88.2498 189.102 88.2498 189.999 88.2621C190.587 88.2684 191.175 88.2747 191.781 88.2811C192.235 88.2892 192.689 88.2972 193.157 88.3055C193.142 87.4175 193.127 86.5295 193.112 85.6146C193.068 82.9236 193.068 82.9236 193.868 81.3611C198.135 80.183 202.685 80.5387 207.079 80.5364Z" fill="#C6C6C6"/>
<path d="M201.697 43.1667C201.931 43.1667 202.166 43.1667 202.408 43.1667C202.408 50.0417 202.408 56.9167 202.408 64C210.018 65.1747 210.018 65.1747 217.545 65.6765C218.037 65.6899 218.53 65.7033 219.037 65.7172C220.566 65.7578 222.095 65.7905 223.625 65.8229C224.68 65.8495 225.735 65.8767 226.79 65.9043C229.337 65.97 231.885 66.0287 234.433 66.0834C234.433 65.625 234.433 65.1667 234.433 64.6945C237.251 64.3507 237.251 64.3507 240.127 64C240.221 63.1559 240.315 62.3117 240.413 61.442C240.54 60.3415 240.667 59.2411 240.794 58.1406C240.856 57.5834 240.918 57.0261 240.981 56.452C241.469 52.2731 241.469 52.2731 242.262 51.5C242.428 50.1001 242.556 48.6955 242.662 47.29C242.721 46.5228 242.781 45.7556 242.843 44.9652C242.907 44.0749 242.907 44.0749 242.973 43.1667C243.208 43.1667 243.443 43.1667 243.685 43.1667C243.899 50.4769 243.266 57.4632 242.262 64.6945C241.095 65.0167 241.095 65.0167 239.904 65.3455C238.309 65.794 236.72 66.2655 235.145 66.7778C233.224 66.8535 231.322 66.8917 229.401 66.8944C228.835 66.8968 228.269 66.8991 227.686 66.9014C226.486 66.905 225.286 66.9066 224.086 66.9065C222.268 66.908 220.45 66.9206 218.632 66.9338C217.463 66.9358 216.293 66.9372 215.124 66.9378C214.587 66.9428 214.051 66.9478 213.499 66.953C203.971 66.9138 203.971 66.9138 201.697 64.6945C201.634 63.1031 201.62 61.5099 201.627 59.9174C201.628 59.4406 201.629 58.9637 201.63 58.4724C201.634 56.944 201.643 55.4156 201.652 53.8872C201.656 52.8532 201.659 51.8192 201.662 50.7852C201.67 48.2457 201.682 45.7062 201.697 43.1667Z" fill="#A1A1A1"/>
<path d="M158.285 82.75C159.459 82.75 160.634 82.75 161.843 82.75C161.843 85.7292 161.843 88.7083 161.843 91.7778C158.115 92.5539 154.993 93.1667 151.168 93.1667C151.168 95.4583 151.168 97.75 151.168 100.111C149.759 100.111 148.35 100.111 146.898 100.111C146.898 97.5903 146.898 95.0694 146.898 92.4722C147.603 92.816 147.603 92.816 148.322 93.1667C148.322 95 148.322 96.8333 148.322 98.7222C148.791 98.7222 149.261 98.7222 149.745 98.7222C149.701 97.3902 149.701 97.3902 149.656 96.0312C149.606 94.5176 149.606 94.5176 149.745 93.1667C151.168 91.7778 151.168 91.7778 153.392 91.691C154.068 91.7196 154.743 91.7483 155.438 91.7778C155.438 91.3194 155.438 90.8611 155.438 90.3889C154.029 90.3889 152.62 90.3889 151.168 90.3889C151.168 89.9306 151.168 89.4722 151.168 89C153.517 89 155.865 89 158.285 89C158.285 86.9375 158.285 84.875 158.285 82.75Z" fill="#2B2B2B"/>
<path d="M131.242 64.6945C131.242 67.4445 131.242 70.1945 131.242 73.0278C127.735 74.3965 124.993 74.5417 121.278 74.4167C123.417 73.0258 124.63 72.6856 127.105 72.2465C127.746 72.1302 128.388 72.0138 129.048 71.8939C129.537 71.8097 130.026 71.7256 130.53 71.6389C130.53 69.5764 130.53 67.5139 130.53 65.3889C129.591 65.7183 128.651 66.0478 127.683 66.3872C122.531 67.8718 117.358 68.0348 112.027 68.1667C111.359 68.1856 110.691 68.2045 110.003 68.224C101.394 68.4391 93.3107 68.4867 84.9834 66.0833C84.9834 65.8542 84.9834 65.625 84.9834 65.3889C85.8641 65.3746 86.7448 65.3603 87.6521 65.3455C88.1475 65.3374 88.6429 65.3294 89.1533 65.3211C90.6767 65.3889 90.6767 65.3889 91.8705 65.7331C95.639 66.5317 99.6421 66.2124 103.49 66.212C105.1 66.2135 106.71 66.2261 108.32 66.2393C114.391 66.2615 120.223 65.9018 126.224 64.9937C128.395 64.6945 128.395 64.6945 131.242 64.6945Z" fill="#959595"/>
<path d="M231.907 83.3522C232.627 83.3513 233.348 83.3504 234.09 83.3495C234.835 83.3522 235.579 83.3549 236.346 83.3576C237.099 83.3549 237.852 83.3523 238.627 83.3495C239.704 83.3508 239.704 83.3508 240.802 83.3522C241.786 83.3534 241.786 83.3534 242.789 83.3546C244.397 83.4444 244.397 83.4444 245.82 84.1389C245.585 84.5972 245.351 85.0555 245.109 85.5278C244.376 85.5223 244.376 85.5223 243.629 85.5167C241.424 85.5023 239.218 85.4933 237.013 85.4844C235.86 85.4756 235.86 85.4756 234.684 85.4667C233.95 85.4645 233.216 85.4623 232.46 85.4599C231.442 85.4545 231.442 85.4545 230.404 85.4489C228.724 85.4191 228.724 85.4191 227.317 86.2222C227.317 87.368 227.317 88.5139 227.317 89.6944C228.726 90.1528 230.135 90.6111 231.587 91.0833C231.587 91.3125 231.587 91.5417 231.587 91.7778C230.178 92.0069 228.769 92.2361 227.317 92.4722C227.082 94.7639 226.847 97.0555 226.605 99.4167C225.901 99.4167 225.196 99.4167 224.47 99.4167C224.47 94.375 224.47 89.3333 224.47 84.1389C227.163 83.6133 229.221 83.3554 231.907 83.3522Z" fill="#030303"/>
<path d="M164.868 80.9271C165.503 81.004 166.137 81.081 166.791 81.1603C167.272 81.2266 167.753 81.2928 168.248 81.3611C168.248 81.5902 168.248 81.8194 168.248 82.0555C166.839 82.0555 165.43 82.0555 163.978 82.0555C163.978 87.7847 163.978 93.5139 163.978 99.4166C163.743 99.4166 163.508 99.4166 163.266 99.4166C163.266 97.125 163.266 94.8333 163.266 92.4722C159.979 93.1597 156.691 93.8472 153.303 94.5555C153.2 95.5725 153.098 96.5894 152.992 97.6371C152.68 100.719 152.68 100.719 151.88 101.5C149.389 101.587 149.389 101.587 146.898 101.5C146.186 100.806 146.186 100.806 146.117 99.0667C146.125 98.3658 146.134 97.6648 146.142 96.9427C146.148 96.24 146.155 95.5372 146.161 94.8132C146.17 94.2699 146.178 93.7265 146.186 93.1666C144.308 93.1666 142.429 93.1666 140.493 93.1666C140.493 92.9375 140.493 92.7083 140.493 92.4722C142.607 92.4722 144.72 92.4722 146.898 92.4722C146.898 94.993 146.898 97.5139 146.898 100.111C148.307 100.111 149.716 100.111 151.168 100.111C151.168 97.8194 151.168 95.5278 151.168 93.1666C154.691 92.4791 158.214 91.7916 161.843 91.0833C162.078 88.1041 162.313 85.125 162.555 82.0555C161.146 82.0555 159.737 82.0555 158.285 82.0555C160.644 80.6465 162.15 80.5782 164.868 80.9271Z" fill="#CCCCCC"/>
<path d="M186.04 33.4445C187.078 33.5237 188.116 33.6123 189.154 33.7049C190.02 33.7774 190.02 33.7774 190.905 33.8514C192.445 34.1389 192.445 34.1389 193.868 35.5278C193.995 37.3212 194.034 39.0309 194.002 40.8229C193.997 41.3425 193.993 41.8621 193.988 42.3975C193.914 47.7583 193.57 53.0997 193.157 58.4445C192.922 58.4445 192.687 58.4445 192.445 58.4445C192.093 51.5695 192.093 51.5695 191.733 44.5556C189.62 44.5556 187.506 44.5556 185.328 44.5556C182.437 43.8611 182.437 43.8611 180.347 43.1667C180.347 42.9375 180.347 42.7083 180.347 42.4722C183.786 42.4144 186.92 42.5051 190.31 43.1667C190.31 40.4167 190.31 37.6667 190.31 34.8333C188.901 34.8333 187.492 34.8333 186.04 34.8333C186.04 34.375 186.04 33.9167 186.04 33.4445Z" fill="#D3D3D3"/>
<path d="M248.667 33.4445C252.759 34.0521 252.759 34.0521 254.36 34.8333C254.379 36.5261 254.393 38.2187 254.404 39.9115C254.41 40.3908 254.416 40.8702 254.422 41.3641C254.433 43.5474 254.361 45.246 253.648 47.3333C253.506 48.3441 253.39 49.3585 253.292 50.3743C253.234 50.9566 253.175 51.5389 253.114 52.1388C252.996 53.365 252.877 54.5911 252.759 55.8172C252.7 56.3987 252.641 56.9801 252.581 57.5791C252.529 58.1114 252.478 58.6436 252.425 59.192C252.225 60.5278 252.225 60.5278 251.513 61.9167C251.348 63.6848 251.215 65.4403 251.113 67.2118C251.082 67.7024 251.051 68.1929 251.02 68.6984C250.944 69.9099 250.873 71.1216 250.802 72.3333C250.097 72.1042 249.392 71.875 248.667 71.6389C248.901 70.9514 249.136 70.2639 249.378 69.5556C249.531 68.2752 249.655 66.9913 249.759 65.7063C249.821 64.961 249.883 64.2158 249.947 63.448C250.009 62.6705 250.071 61.8931 250.134 61.092C250.199 60.3065 250.264 59.521 250.33 58.7117C250.49 56.7709 250.647 54.83 250.802 52.8889C251.271 52.8889 251.741 52.8889 252.225 52.8889C252.225 46.9306 252.225 40.9722 252.225 34.8333C251.051 34.6042 249.876 34.375 248.667 34.1389C248.667 33.9097 248.667 33.6806 248.667 33.4445Z" fill="#A5A5A5"/>
<path d="M245.82 82.75C247.006 82.7203 248.192 82.7218 249.378 82.75C250.09 83.4444 250.09 83.4444 250.171 84.862C250.167 85.4693 250.163 86.0766 250.159 86.7023C250.157 87.3581 250.155 88.0138 250.152 88.6894C250.146 89.3791 250.14 90.0689 250.134 90.7795C250.131 91.4719 250.128 92.1643 250.125 92.8777C250.116 94.5945 250.104 96.3111 250.09 98.0278C251.015 98.0134 251.939 97.9991 252.892 97.9844C253.856 97.9694 254.821 97.9781 255.783 98.0278C256.495 98.7222 256.495 98.7222 256.539 100.849C256.525 101.522 256.51 102.195 256.495 102.889C255.79 102.431 255.086 101.972 254.36 101.5C253.655 101.729 252.951 101.958 252.225 102.194C252.225 101.736 252.225 101.278 252.225 100.806C251.755 100.806 251.285 100.806 250.801 100.806C251.506 101.722 252.211 102.639 252.936 103.583C251.997 103.354 251.058 103.125 250.09 102.889C250.09 102.201 250.09 101.514 250.09 100.806C248.681 100.806 247.272 100.806 245.82 100.806C245.585 98.743 245.35 96.6805 245.108 94.5555C243.567 94.5985 243.567 94.5985 241.995 94.6423C240.243 94.6912 240.243 94.6912 238.703 94.5555C238.233 94.0972 237.764 93.6389 237.28 93.1666C240.333 93.3958 243.386 93.625 246.531 93.8611C246.531 95.6944 246.531 97.5278 246.531 99.4166C247.471 99.4166 248.41 99.4166 249.378 99.4166C249.378 94.375 249.378 89.3333 249.378 84.1389C248.204 83.9097 247.03 83.6805 245.82 83.4444C245.82 83.2153 245.82 82.9861 245.82 82.75Z" fill="#737373"/>
<path d="M248.667 72.3333C248.667 72.7916 248.667 73.25 248.667 73.7222C248.176 73.8063 247.685 73.8905 247.179 73.9772C246.176 74.1518 246.176 74.1518 245.153 74.3298C244.5 74.4426 243.848 74.5554 243.176 74.6716C241.921 74.9076 240.666 75.1524 239.425 75.4505C235.663 76.3464 232.157 76.7135 228.292 76.7089C227.728 76.7118 227.164 76.7148 226.583 76.7179C225.396 76.7218 224.208 76.7222 223.021 76.7192C221.244 76.717 219.468 76.7333 217.691 76.7509C211.994 76.7728 206.489 76.5404 200.876 75.5316C200.393 75.4449 199.909 75.3581 199.41 75.2688C198.262 75.0376 197.13 74.7337 196.003 74.4166C195.768 73.9583 195.533 73.5 195.292 73.0278C196.478 73.1086 197.664 73.197 198.85 73.2882C199.51 73.3365 200.171 73.3849 200.851 73.4347C203.12 73.7222 203.12 73.7222 205.762 74.4166C208.64 75.1303 211.375 75.3284 214.351 75.3986C215.097 75.4188 215.097 75.4188 215.858 75.4394C217.424 75.4804 218.99 75.5129 220.556 75.5451C221.627 75.5717 222.698 75.5988 223.769 75.6265C226.375 75.6927 228.981 75.7512 231.587 75.8055C231.587 75.3472 231.587 74.8889 231.587 74.4166C237.259 73.2037 242.849 72.3333 248.667 72.3333Z" fill="#B0B0B0"/>
<path d="M107.757 82.75C109.166 82.75 110.575 82.75 112.027 82.75C111.572 82.9362 111.117 83.1224 110.648 83.3142C108.944 84.0602 108.944 84.0602 108.469 86.2222C111.991 86.2222 115.514 86.2222 119.144 86.2222C119.144 90.5764 119.144 94.9306 119.144 99.4167C120.318 99.4167 121.492 99.4167 122.702 99.4167C122.702 95.0625 122.702 90.7083 122.702 86.2222C125.285 86.2222 127.869 86.2222 130.53 86.2222C130.53 86.4514 130.53 86.6806 130.53 86.9167C128.182 86.9167 125.833 86.9167 123.414 86.9167C123.422 87.8611 123.43 88.8055 123.439 89.7785C123.445 91.0092 123.452 92.2398 123.458 93.4705C123.464 94.094 123.47 94.7175 123.476 95.3599C123.479 96.2495 123.479 96.2495 123.483 97.157C123.489 97.9807 123.489 97.9807 123.494 98.8211C123.414 100.111 123.414 100.111 122.702 100.806C120.567 100.892 120.567 100.892 118.432 100.806C117.72 100.111 117.72 100.111 117.639 98.8211C117.643 98.2719 117.647 97.7228 117.651 97.157C117.653 96.564 117.655 95.9709 117.658 95.3599C117.664 94.7364 117.67 94.1129 117.676 93.4705C117.679 92.8443 117.682 92.2181 117.685 91.573C117.694 90.0208 117.707 88.4688 117.72 86.9167C114.432 86.9167 111.144 86.9167 107.757 86.9167C107.757 85.5417 107.757 84.1667 107.757 82.75Z" fill="#999999"/>
<path d="M208.813 40.3889C217.503 40.3889 226.192 40.3889 235.145 40.3889C235.145 40.8472 235.145 41.3056 235.145 41.7778C236.558 41.7326 237.971 41.6874 239.385 41.6422C240.838 41.7778 240.838 41.7778 242.973 43.1667C242.391 43.1166 241.808 43.0664 241.208 43.0148C234.485 42.5171 227.787 42.3955 221.045 42.3854C220.172 42.3823 219.299 42.3792 218.4 42.3759C213.267 42.3841 208.222 42.6073 203.12 43.1667C203.355 42.7084 203.59 42.25 203.832 41.7778C205.476 41.7778 207.12 41.7778 208.813 41.7778C208.813 41.3195 208.813 40.8611 208.813 40.3889Z" fill="#BDBDBD"/>
<path d="M190.31 92.4722C191.719 92.4722 193.128 92.4722 194.58 92.4722C194.58 94.5347 194.58 96.5972 194.58 98.7222C202.565 98.7222 210.55 98.7222 218.777 98.7222C218.777 98.2639 218.777 97.8056 218.777 97.3333C211.966 97.3333 205.155 97.3333 198.138 97.3333C197.904 96.875 197.669 96.4167 197.427 95.9445C205.177 95.9445 212.927 95.9445 220.912 95.9445C220.677 97.0903 220.442 98.2361 220.2 99.4167C218.056 100.114 216.612 100.201 214.371 100.203C213.639 100.204 212.907 100.205 212.154 100.206C211.007 100.202 211.007 100.202 209.836 100.198C209.091 100.201 208.346 100.203 207.578 100.206C202.957 100.2 198.458 99.9387 193.868 99.4167C193.868 97.3542 193.868 95.2917 193.868 93.1667C192.694 93.1667 191.52 93.1667 190.31 93.1667C190.31 92.9375 190.31 92.7083 190.31 92.4722Z" fill="#313131"/>
<path d="M165.436 31.2324C166.917 31.2309 168.399 31.2182 169.88 31.2051C175.411 31.1833 180.641 31.5218 186.04 32.75C186.04 32.9792 186.04 33.2083 186.04 33.4445C172.74 33.5659 159.475 33.2156 146.187 32.75C146.187 32.5208 146.187 32.2917 146.187 32.0556C152.605 31.4719 158.992 31.2317 165.436 31.2324Z" fill="#7F7F7F"/>
<path d="M75.0199 66.7778C75.8784 68.3973 76.561 69.9003 77.1549 71.6389C78.3292 71.868 79.5034 72.0972 80.7133 72.3333C80.7133 72.7917 80.7133 73.25 80.7133 73.7222C96.0148 75.2639 110.918 75.3171 126.26 74.4167C116.032 80.1395 92.4837 77.6826 81.4546 74.7971C75.98 73.2702 75.98 73.2702 75.0199 72.3333C74.9195 70.4788 74.9897 68.6359 75.0199 66.7778Z" fill="#CCCCCC"/>
<path d="M80.7134 73.0278C83.5316 73.0278 86.3498 73.0278 89.2534 73.0278C89.2534 73.4861 89.2534 73.9444 89.2534 74.4167C99.8216 74.4167 110.39 74.4167 121.278 74.4167C121.278 74.6458 121.278 74.875 121.278 75.1111C108.409 76.4158 93.1907 77.4494 80.7134 73.7222C80.7134 73.493 80.7134 73.2639 80.7134 73.0278Z" fill="#646464"/>
<path d="M148.322 86.2222C149.261 86.2222 150.201 86.2222 151.168 86.2222C151.168 87.5972 151.168 88.9722 151.168 90.3889C152.578 90.3889 153.987 90.3889 155.438 90.3889C155.438 90.8472 155.438 91.3056 155.438 91.7778C153.794 92.2361 152.151 92.6945 150.457 93.1667C150.222 95 149.987 96.8333 149.745 98.7222C149.275 98.7222 148.806 98.7222 148.322 98.7222C148.087 96.8889 147.852 95.0556 147.61 93.1667C145.966 92.7083 144.322 92.25 142.628 91.7778C142.863 91.3195 143.098 90.8611 143.34 90.3889C144.992 90.1061 146.654 89.872 148.322 89.6945C148.322 88.5486 148.322 87.4028 148.322 86.2222Z" fill="#080808"/>
<path d="M194.58 83.4444C197.771 83.41 200.962 83.3849 204.154 83.3681C205.239 83.3611 206.324 83.3517 207.409 83.3396C208.971 83.3228 210.532 83.3149 212.094 83.3088C213.033 83.3015 213.972 83.2942 214.94 83.2867C217.163 83.432 218.354 83.6763 220.2 84.8333C219.214 84.8594 219.214 84.8594 218.209 84.886C215.77 84.9521 213.331 85.021 210.892 85.0919C209.836 85.1219 208.781 85.1509 207.725 85.1787C206.208 85.2188 204.69 85.263 203.173 85.308C202.26 85.3335 201.347 85.3589 200.406 85.3852C198.123 85.4344 198.123 85.4344 196.003 86.2222C195.769 87.368 195.534 88.5139 195.292 89.6944C195.057 89.6944 194.822 89.6944 194.58 89.6944C194.58 87.6319 194.58 85.5694 194.58 83.4444Z" fill="#040404"/>
<path d="M105.622 89C105.857 89 106.091 89 106.333 89C106.372 90.7074 106.4 92.4139 106.422 94.1215C106.434 94.6067 106.446 95.0919 106.458 95.5918C106.471 96.8673 106.407 98.1431 106.333 99.4167C104.048 101.647 101.738 101.588 98.6107 101.592C97.613 101.594 97.613 101.594 96.5952 101.595C95.559 101.591 95.559 101.591 94.5019 101.587C93.8276 101.589 93.1534 101.592 92.4587 101.595C88.0282 101.589 83.6887 101.32 79.29 100.806C79.29 100.347 79.29 99.8889 79.29 99.4167C79.9144 99.4203 80.5388 99.4239 81.1821 99.4277C83.5138 99.4396 85.8455 99.4483 88.1772 99.4548C89.1835 99.4583 90.1899 99.463 91.1962 99.4691C92.6484 99.4775 94.1005 99.4814 95.5527 99.4845C96.4248 99.4881 97.2969 99.4918 98.1954 99.4955C100.959 99.4588 100.959 99.4588 104.91 98.7222C105.145 95.5139 105.38 92.3056 105.622 89Z" fill="#BEBEBE"/>
<path d="M215.218 87.6111C217.567 87.6111 219.915 87.6111 222.335 87.6111C222.335 89.9028 222.335 92.1944 222.335 94.5555C220.221 94.5555 218.108 94.5555 215.93 94.5555C215.953 93.154 215.976 91.7524 215.999 90.3509C216.02 88.9431 216.02 88.9431 215.218 87.6111Z" fill="#FAFAFA"/>
<path d="M235.145 81.2743C235.954 81.2716 236.763 81.2689 237.597 81.2662C249.295 81.2794 249.295 81.2794 250.802 82.75C250.864 83.8345 250.878 84.9217 250.871 86.0079C250.869 86.6636 250.867 87.3194 250.864 87.995C250.855 89.0296 250.855 89.0296 250.846 90.0851C250.843 90.7775 250.84 91.4699 250.837 92.1833C250.828 93.9 250.816 95.6167 250.802 97.3333C251.976 97.3333 253.15 97.3333 254.36 97.3333C254.36 97.5625 254.36 97.7917 254.36 98.0278C252.951 98.0278 251.542 98.0278 250.09 98.0278C249.738 90.809 249.738 90.809 249.379 83.4445C244.622 82.9287 240.201 82.6232 235.457 82.6198C234.82 82.6113 234.184 82.6028 233.529 82.594C230.481 82.5875 227.756 82.7267 224.807 83.5123C223.583 83.8224 223.583 83.8224 222.335 84.1389C220.912 83.184 220.912 83.184 220.2 82.0556C225.194 81.3032 230.099 81.2576 235.145 81.2743Z" fill="#C3C3C3"/>
<path d="M239.415 94.5555C241.294 94.5555 243.173 94.5555 245.108 94.5555C246.16 96.6088 245.863 98.5432 245.82 100.806C247.229 100.806 248.638 100.806 250.09 100.806C250.325 101.264 250.56 101.722 250.802 102.194C250.802 101.736 250.802 101.278 250.802 100.806C251.271 100.806 251.741 100.806 252.225 100.806C252.225 101.264 252.225 101.722 252.225 102.194C253.164 101.507 254.104 100.819 255.072 100.111C255.307 100.799 255.541 101.486 255.783 102.194C256.253 101.278 256.723 100.361 257.207 99.4167C257.207 100.792 257.207 102.167 257.207 103.583C256.267 103.812 255.328 104.042 254.36 104.278C254.36 104.736 254.36 105.194 254.36 105.667C252.714 105.493 252.714 105.493 250.802 104.972C250.464 104.528 250.127 104.084 249.779 103.627C248.278 101.694 246.748 101.417 244.397 100.806C244.397 99.2014 244.397 97.5972 244.397 95.9444C242.753 95.7153 241.109 95.4861 239.415 95.25C239.415 95.0208 239.415 94.7917 239.415 94.5555Z" fill="#C8C8C8"/>
<path d="M191.021 93.8611C191.726 93.8611 192.431 93.8611 193.156 93.8611C193.391 95.9236 193.626 97.9861 193.868 100.111C205.141 100.455 205.141 100.455 216.641 100.806C215.218 102.194 215.218 102.194 213.874 102.363C213.335 102.36 212.796 102.357 212.241 102.354C211.642 102.354 211.044 102.353 210.428 102.352C209.792 102.343 209.157 102.334 208.502 102.325C207.86 102.32 207.218 102.316 206.557 102.311C202.065 102.261 197.615 102.059 193.156 101.5C192.922 100.812 192.687 100.125 192.445 99.4166C191.975 99.4166 191.505 99.4166 191.021 99.4166C191.021 97.5833 191.021 95.75 191.021 93.8611Z" fill="#DADADA"/>
<path d="M237.369 86.1354C237.888 86.1327 238.406 86.13 238.94 86.1273C242.793 86.1342 242.793 86.1342 244.397 86.9167C244.397 87.375 244.397 87.8333 244.397 88.3055C242.688 89.1391 241.626 89.0796 239.721 89.0678C239.083 89.0656 238.446 89.0633 237.789 89.061C237.122 89.0552 236.455 89.0494 235.768 89.0434C235.096 89.0403 234.423 89.0371 233.73 89.0339C232.067 89.0257 230.404 89.0143 228.74 89C228.74 88.3125 228.74 87.625 228.74 86.9167C231.566 86.0071 234.43 86.12 237.369 86.1354Z" fill="#D7D7D7"/>
<path d="M198.138 93.8611C201.074 93.8209 204.009 93.7961 206.945 93.7743C207.782 93.7627 208.618 93.751 209.48 93.739C210.678 93.7323 210.678 93.7323 211.899 93.7255C212.637 93.7182 213.375 93.7109 214.135 93.7034C215.93 93.8611 215.93 93.8611 217.353 95.25C215.496 96.1561 214.131 96.0229 212.055 96.0123C210.906 96.0089 210.906 96.0089 209.733 96.0055C208.931 95.9997 208.128 95.9938 207.301 95.9878C206.493 95.9847 205.684 95.9816 204.852 95.9783C202.851 95.9701 200.85 95.9587 198.85 95.9444C198.615 95.2569 198.38 94.5694 198.138 93.8611Z" fill="#E5E5E5"/>
<path d="M80.0015 93.8611C86.5773 93.8611 93.1531 93.8611 99.9281 93.8611C99.6933 94.5486 99.4584 95.2361 99.2165 95.9444C97.2 95.9633 95.1838 95.977 93.1673 95.9878C92.3224 95.9965 92.3224 95.9965 91.4604 96.0055C87.8134 96.02 84.3087 95.8782 80.7131 95.25C80.4783 94.7916 80.2434 94.3333 80.0015 93.8611Z" fill="#E0E0E0"/>
<path d="M139.782 81.3611C140.493 82.0555 140.493 82.0555 140.563 83.4905C140.54 85.0955 140.517 86.7005 140.493 88.3055C142.607 88.3055 144.721 88.3055 146.898 88.3055C147.133 87.618 147.368 86.9305 147.61 86.2222C147.61 87.1389 147.61 88.0555 147.61 89C146.32 89.0186 145.03 89.0322 143.74 89.0434C143.022 89.0514 142.304 89.0595 141.564 89.0678C139.782 89 139.782 89 139.07 88.3055C138.97 86.451 139.04 84.6081 139.07 82.75C137.896 82.75 136.722 82.75 135.512 82.75C135.512 85.5 135.512 88.25 135.512 91.0833C135.042 90.1667 134.572 89.25 134.088 88.3055C132.641 87.425 132.641 87.425 131.242 86.9167C132.181 86.9167 133.12 86.9167 134.088 86.9167C133.619 85.5417 133.149 84.1667 132.665 82.75C135.082 81.2986 136.972 81.1783 139.782 81.3611Z" fill="#838383"/>
<path d="M131.242 64.6945C131.242 67.4445 131.242 70.1945 131.242 73.0278C127.735 74.3965 124.993 74.5417 121.279 74.4167C123.417 73.0258 124.63 72.6856 127.105 72.2465C127.747 72.1302 128.388 72.0138 129.049 71.8939C129.537 71.8097 130.026 71.7256 130.53 71.6389C130.53 69.5764 130.53 67.5139 130.53 65.3889C129.859 65.6145 129.859 65.6145 129.174 65.8446C125.182 67.1115 121.912 67.6995 117.72 67.4722C117.72 67.0139 117.72 66.5556 117.72 66.0833C119.44 65.8496 121.16 65.6185 122.88 65.3889C123.608 65.2895 123.608 65.2895 124.35 65.1882C126.683 64.8788 128.882 64.6945 131.242 64.6945Z" fill="#5A5A5A"/>
<path d="M242.973 43.1667C243.208 43.1667 243.443 43.1667 243.685 43.1667C243.845 48.6309 243.673 53.9318 243.018 59.3559C242.956 59.8746 242.894 60.3933 242.83 60.9277C242.357 64.6015 242.357 64.6015 241.55 65.3889C240.35 65.4389 239.148 65.4471 237.947 65.4323C237.293 65.426 236.639 65.4198 235.965 65.4133C235.459 65.4053 234.954 65.3972 234.433 65.3889C234.433 65.1597 234.433 64.9306 234.433 64.6945C237.251 64.3507 237.251 64.3507 240.126 64C240.221 63.1559 240.315 62.3117 240.413 61.442C240.54 60.3415 240.667 59.2411 240.794 58.1406C240.887 57.3048 240.887 57.3048 240.981 56.452C241.469 52.2731 241.469 52.2731 242.261 51.5C242.428 50.1001 242.556 48.6955 242.662 47.29C242.721 46.5228 242.781 45.7556 242.842 44.9652C242.886 44.3717 242.929 43.7782 242.973 43.1667Z" fill="#B3B3B3"/>
<path d="M233.144 85.3677C233.7 85.3691 234.256 85.3704 234.828 85.3718C235.403 85.3803 235.977 85.3888 236.569 85.3976C237.143 85.398 237.717 85.3985 238.309 85.3989C240.947 85.418 243.268 85.5208 245.82 86.2222C245.585 87.368 245.351 88.5139 245.109 89.6944C239.472 89.6944 233.836 89.6944 228.029 89.6944C227.794 88.7778 227.559 87.8611 227.317 86.9167C229.354 85.7898 230.807 85.3545 233.144 85.3677ZM228.74 86.9167C228.74 87.6042 228.74 88.2917 228.74 89C231.083 89.0201 233.425 89.0325 235.768 89.0434C236.435 89.0492 237.102 89.055 237.789 89.061C238.427 89.0633 239.064 89.0655 239.721 89.0678C240.31 89.0714 240.899 89.0751 241.505 89.0788C243.019 89.0927 243.019 89.0927 244.397 88.3055C244.397 87.8472 244.397 87.3889 244.397 86.9167C242.171 85.8307 239.809 86.1228 237.369 86.1354C236.856 86.1327 236.344 86.13 235.815 86.1273C233.36 86.1317 231.086 86.1618 228.74 86.9167Z" fill="#6E6E6E"/>
<path d="M153.176 91.6422C153.952 91.6583 154.728 91.6744 155.527 91.691C156.307 91.7035 157.087 91.716 157.89 91.729C158.49 91.7451 159.09 91.7612 159.708 91.7778C159.708 92.007 159.708 92.2361 159.708 92.4722C155.481 92.816 155.481 92.816 151.168 93.1667C151.168 95.4583 151.168 97.75 151.168 100.111C149.759 100.111 148.35 100.111 146.898 100.111C146.898 97.5903 146.898 95.0695 146.898 92.4722C147.603 92.816 147.603 92.816 148.322 93.1667C148.322 95 148.322 96.8333 148.322 98.7222C148.791 98.7222 149.261 98.7222 149.745 98.7222C149.701 97.3902 149.701 97.3902 149.656 96.0313C149.606 94.5176 149.606 94.5176 149.745 93.1667C151.168 91.7778 151.168 91.7778 153.176 91.6422Z" fill="#4C4C4C"/>
<path d="M140.493 92.4722C142.607 92.4722 144.72 92.4722 146.898 92.4722C146.898 94.9931 146.898 97.5139 146.898 100.111C148.307 100.111 149.716 100.111 151.168 100.111C151.168 97.8195 151.168 95.5278 151.168 93.1667C153.282 93.1667 155.395 93.1667 157.573 93.1667C157.573 93.3958 157.573 93.625 157.573 93.8611C156.164 94.0903 154.755 94.3195 153.303 94.5556C153.238 95.2202 153.238 95.2202 153.173 95.8983C153.113 96.4721 153.053 97.046 152.992 97.6372C152.934 98.2092 152.876 98.7812 152.817 99.3706C152.591 100.806 152.591 100.806 151.88 101.5C149.389 101.587 149.389 101.587 146.898 101.5C146.186 100.806 146.186 100.806 146.117 99.0667C146.125 98.3658 146.134 97.6649 146.142 96.9427C146.148 96.24 146.155 95.5373 146.161 94.8133C146.17 94.2699 146.178 93.7265 146.186 93.1667C144.308 93.1667 142.429 93.1667 140.493 93.1667C140.493 92.9375 140.493 92.7083 140.493 92.4722Z" fill="#BDBDBD"/>
<path d="M83.56 82.0555C89.1964 82.0555 94.8328 82.0555 100.64 82.0555C100.64 82.5139 100.64 82.9722 100.64 83.4444C101.814 83.4444 102.989 83.4444 104.198 83.4444C104.198 83.6736 104.198 83.9028 104.198 84.1389C95.9786 84.1389 87.7589 84.1389 79.29 84.1389C79.29 83.9097 79.29 83.6805 79.29 83.4444C80.6991 83.4444 82.1082 83.4444 83.56 83.4444C83.56 82.9861 83.56 82.5278 83.56 82.0555Z" fill="#444444"/>
<path d="M140.493 73.7222C144.251 73.9514 148.008 74.1806 151.88 74.4167C151.88 74.875 151.88 75.3333 151.88 75.8056C156.577 75.8056 161.274 75.8056 166.113 75.8056C166.113 76.0347 166.113 76.2639 166.113 76.5C163.2 76.5172 160.287 76.5298 157.374 76.5382C156.382 76.5416 155.391 76.5464 154.4 76.5524C152.976 76.5608 151.552 76.5644 150.128 76.5678C149.271 76.5715 148.414 76.5751 147.531 76.5788C145.475 76.5 145.475 76.5 144.051 75.8056C144.051 75.3472 144.051 74.8889 144.051 74.4167C142.877 74.4167 141.703 74.4167 140.493 74.4167C140.493 74.1875 140.493 73.9583 140.493 73.7222Z" fill="#BEBEBE"/>
<path d="M86.4065 83.4445C88.4378 83.4256 90.4688 83.4119 92.5001 83.4011C93.0694 83.3952 93.6386 83.3894 94.2251 83.3834C97.6306 83.3699 100.84 83.5803 104.198 84.1389C104.198 84.8264 104.198 85.5139 104.198 86.2222C98.0921 85.7639 91.986 85.3056 85.6948 84.8333C85.9297 84.375 86.1645 83.9167 86.4065 83.4445Z" fill="#040404"/>
<path d="M136.223 82.75C137.163 82.75 138.102 82.75 139.07 82.75C139.129 83.6094 139.187 84.4687 139.248 85.3542C139.522 87.6034 139.71 88.2216 141.249 90.0417C141.704 90.3854 142.159 90.7292 142.628 91.0833C140.514 90.8542 138.401 90.625 136.223 90.3889C136.223 87.8681 136.223 85.3472 136.223 82.75Z" fill="#0A0A0A"/>
<path d="M186.04 33.4444C187.463 33.4149 188.887 33.4161 190.31 33.4444C191.022 34.1389 191.022 34.1389 191.091 36.4853C191.086 37.4538 191.078 38.4222 191.066 39.3906C191.063 39.8843 191.06 40.378 191.056 40.8867C191.048 42.1096 191.035 43.3326 191.022 44.5555C187.088 44.6902 184.079 44.3805 180.347 43.1667C180.347 42.9375 180.347 42.7083 180.347 42.4722C183.786 42.4143 186.92 42.5051 190.31 43.1667C190.31 40.4167 190.31 37.6667 190.31 34.8333C188.901 34.8333 187.492 34.8333 186.04 34.8333C186.04 34.375 186.04 33.9167 186.04 33.4444Z" fill="#ADADAD"/>
<path d="M231.587 32.75C246.867 32.5367 246.867 32.5367 252.225 34.8334C252.225 35.0625 252.225 35.2917 252.225 35.5278C247.847 35.5956 247.847 35.5956 246.532 35.5278C246.297 35.2986 246.062 35.0695 245.82 34.8334C244.814 34.7249 243.804 34.6594 242.793 34.6136C242.185 34.5845 241.577 34.5554 240.951 34.5255C240.312 34.4982 239.673 34.4709 239.015 34.4427C238.373 34.4127 237.732 34.3827 237.07 34.3519C235.48 34.2779 233.889 34.2071 232.299 34.1389C232.064 33.6806 231.829 33.2222 231.587 32.75Z" fill="#262626"/>
<path d="M77.1549 82.75C79.2685 82.75 81.3822 82.75 83.5599 82.75C83.5599 82.9792 83.5599 83.2083 83.5599 83.4444C82.1508 83.6736 80.7417 83.9028 79.2899 84.1389C79.255 84.8586 79.2201 85.5783 79.1842 86.3199C79.1308 87.2711 79.077 88.2224 79.023 89.1736C79.001 89.6472 78.979 90.1207 78.9563 90.6086C78.8009 93.2117 78.4356 95.0619 77.1549 97.3333C77.0151 95.1635 76.884 92.9933 76.7546 90.8229C76.7146 90.2052 76.6747 89.5876 76.6336 88.9512C76.5992 88.3604 76.5648 87.7695 76.5294 87.1608C76.4958 86.6153 76.4623 86.0698 76.4277 85.5078C76.4432 84.1389 76.4432 84.1389 77.1549 82.75Z" fill="#C8C8C8"/>
<path d="M75.0202 66.7778C75.8787 68.3973 76.5613 69.9003 77.1552 71.6389C78.3294 71.868 79.5037 72.0972 80.7135 72.3333C80.7135 72.7917 80.7135 73.25 80.7135 73.7222C84.4711 74.1805 88.2287 74.6389 92.1002 75.1111C92.1002 75.3403 92.1002 75.5694 92.1002 75.8055C86.2666 76.1981 81.242 74.8668 75.7318 73.0278C75.0202 72.3333 75.0202 72.3333 74.9507 71.0502C74.9738 69.6261 74.997 68.2019 75.0202 66.7778Z" fill="#D8D8D8"/>
<path d="M140.493 32.75C146.13 32.75 151.766 32.75 157.573 32.75C157.573 32.9792 157.573 33.2083 157.573 33.4444C156.538 33.4955 156.538 33.4955 155.483 33.5475C148.539 33.9165 141.688 34.6071 134.8 35.5278C137.097 34.0334 137.849 33.9994 140.493 34.1389C140.493 33.6806 140.493 33.2222 140.493 32.75Z" fill="#575757"/>
<path d="M224.47 84.1389C224.705 84.1389 224.94 84.1389 225.182 84.1389C225.182 86.8889 225.182 89.6389 225.182 92.4722C225.652 92.4722 226.121 92.4722 226.605 92.4722C226.605 94.7639 226.605 97.0556 226.605 99.4167C225.901 99.4167 225.196 99.4167 224.47 99.4167C224.47 94.375 224.47 89.3334 224.47 84.1389Z" fill="#191919"/>
<path d="M78.5782 93.1667C83.2752 93.1667 87.9722 93.1667 92.8116 93.1667C92.8116 93.3959 92.8116 93.625 92.8116 93.8611C91.5263 93.9242 91.5263 93.9242 90.2151 93.9886C89.0938 94.0472 87.9726 94.106 86.8513 94.165C86.2862 94.1923 85.7211 94.2196 85.1389 94.2477C82.118 94.3396 82.118 94.3396 79.2899 95.25C79.2899 96.625 79.2899 98 79.2899 99.4167C78.8202 99.4167 78.3505 99.4167 77.8666 99.4167C77.7776 94.7292 77.7776 94.7292 78.5782 93.1667Z" fill="#A9A9A9"/>
<path d="M193.157 71.6389C197.34 71.5276 201.152 71.9103 205.255 72.6806C206.082 72.8296 206.082 72.8296 206.926 72.9817C208.268 73.2241 209.608 73.4726 210.948 73.7222C210.948 73.9514 210.948 74.1806 210.948 74.4167C204.745 74.7502 199.172 73.773 193.157 72.3334C193.157 72.1042 193.157 71.875 193.157 71.6389Z" fill="#333333"/>
<path d="M174.654 97.3333C176.532 97.3333 178.411 97.3333 180.347 97.3333C180.347 97.7916 180.347 98.25 180.347 98.7222C182.226 98.7222 184.104 98.7222 186.04 98.7222C186.04 98.9514 186.04 99.1805 186.04 99.4166C181.108 99.4166 176.177 99.4166 171.095 99.4166C171.095 99.1875 171.095 98.9583 171.095 98.7222C172.269 98.7222 173.444 98.7222 174.654 98.7222C174.654 98.2639 174.654 97.8055 174.654 97.3333Z" fill="#101010"/>
<path d="M139.782 81.3611C139.782 81.5903 139.782 81.8194 139.782 82.0555C138.607 82.2847 137.433 82.5139 136.223 82.75C135.989 85.5 135.754 88.25 135.512 91.0833C135.042 90.1667 134.572 89.25 134.088 88.3055C132.641 87.425 132.641 87.425 131.242 86.9167C132.181 86.9167 133.12 86.9167 134.088 86.9167C133.619 85.5417 133.149 84.1667 132.665 82.75C135.086 81.2962 136.973 81.2365 139.782 81.3611Z" fill="#ACACAC"/>
<path d="M256.495 99.4167C256.73 99.4167 256.965 99.4167 257.207 99.4167C257.237 100.805 257.236 102.195 257.207 103.583C256.495 104.278 256.495 104.278 253.96 104.321C253.152 104.307 252.345 104.293 251.513 104.278C251.279 103.132 251.044 101.986 250.802 100.806C251.271 100.806 251.741 100.806 252.225 100.806C252.225 101.264 252.225 101.722 252.225 102.194C253.164 101.507 254.104 100.819 255.072 100.111C255.307 100.799 255.541 101.486 255.783 102.194C256.018 101.278 256.253 100.361 256.495 99.4167Z" fill="#A8A8A8"/>
<path d="M82.1367 57.0555C83.0761 57.2847 84.0155 57.5139 84.9834 57.75C84.5137 57.75 84.044 57.75 83.5601 57.75C84.0298 60.2708 84.4995 62.7917 84.9834 65.3889C84.044 65.3889 83.1046 65.3889 82.1367 65.3889C82.1367 62.6389 82.1367 59.8889 82.1367 57.0555Z" fill="#4A4A4A"/>
<path d="M251.513 45.25C251.748 45.25 251.983 45.25 252.225 45.25C252.225 47.7708 252.225 50.2917 252.225 52.8889C251.755 52.8889 251.286 52.8889 250.802 52.8889C250.802 55.1806 250.802 57.4722 250.802 59.8333C250.567 59.8333 250.332 59.8333 250.09 59.8333C249.93 54.7204 250.16 50.201 251.513 45.25Z" fill="#333333"/>
<path d="M104.91 82.75C105.85 82.75 106.789 82.75 107.757 82.75C107.757 84.125 107.757 85.5 107.757 86.9167C108.931 86.9167 110.105 86.9167 111.315 86.9167C109.18 88.3056 109.18 88.3056 107.268 88.0451C106.724 87.9019 106.181 87.7587 105.622 87.6111C105.387 86.0069 105.152 84.4028 104.91 82.75Z" fill="#BFBFBF"/>
<path d="M158.997 83.4445C159.467 83.4445 159.936 83.4445 160.42 83.4445C160.42 85.7361 160.42 88.0278 160.42 90.3889C159.246 90.6181 158.072 90.8472 156.862 91.0833C157.082 90.7253 157.302 90.3672 157.529 89.9983C158.492 87.8426 158.722 85.77 158.997 83.4445Z" fill="#010101"/>
<path d="M109.18 83.4445C110.589 83.4445 111.998 83.4445 113.45 83.4445C113.685 84.132 113.92 84.8195 114.162 85.5278C112.283 85.757 110.404 85.9861 108.468 86.2222C108.703 85.3056 108.938 84.3889 109.18 83.4445Z" fill="#101010"/>
<path d="M131.242 72.3333C131.007 72.7916 130.772 73.25 130.53 73.7222C127.479 74.6245 124.434 74.4688 121.278 74.4166C124.657 72.2189 127.198 72.2574 131.242 72.3333Z" fill="#7E7E7E"/>
<path d="M105.622 87.6111C107.383 87.9548 107.383 87.9548 109.18 88.3055C108.71 88.7639 108.241 89.2222 107.757 89.6944C107.426 91.8624 107.426 91.8624 107.312 94.2951C107.259 95.1205 107.205 95.9458 107.151 96.7962C107.116 97.4318 107.081 98.0674 107.045 98.7222C106.81 98.7222 106.575 98.7222 106.333 98.7222C106.098 95.0555 105.864 91.3889 105.622 87.6111Z" fill="#EDEDED"/>
<path d="M229.452 81.3611C227.431 83.3332 225.16 83.8853 222.335 84.1389C220.912 83.1841 220.912 83.1841 220.2 82.0556C223.314 81.6436 226.303 81.2651 229.452 81.3611Z" fill="#D3D3D3"/>
<path d="M242.973 33.4445C246.475 33.3286 249.025 33.272 252.225 34.8333C252.225 35.0625 252.225 35.2917 252.225 35.5278C248.723 35.6436 246.173 35.7002 242.973 34.1389C242.973 33.9097 242.973 33.6806 242.973 33.4445Z" fill="#3F3F3F"/>
<path d="M75.0202 66.7778C75.8787 68.3973 76.5613 69.9003 77.1552 71.6389C78.3294 71.868 79.5037 72.0972 80.7135 72.3333C80.7135 72.5625 80.7135 72.7917 80.7135 73.0278C79.0532 73.0572 77.3921 73.0562 75.7318 73.0278C75.0202 72.3333 75.0202 72.3333 74.9507 71.0502C74.9738 69.6261 74.997 68.2019 75.0202 66.7778Z" fill="#9E9E9E"/>
<path d="M252.225 98.7222C252.93 98.7222 253.634 98.7222 254.36 98.7222C254.125 99.8681 253.89 101.014 253.648 102.194C253.179 102.194 252.709 102.194 252.225 102.194C252.225 101.736 252.225 101.278 252.225 100.806C251.755 100.576 251.286 100.347 250.802 100.111C251.271 99.6528 251.741 99.1945 252.225 98.7222Z" fill="#919191"/>
</g>
</g>
<defs>
<clipPath id="clip0_145_1924">
<rect width="322" height="117" fill="white"/>
</clipPath>
<clipPath id="clip1_145_1924">
<rect width="427" height="125" fill="white" transform="translate(-36 14)"/>
</clipPath>
</defs>
</svg>
