<svg width="322" height="117" viewBox="0 0 322 117" fill="none" xmlns="http://www.w3.org/2000/svg">
<g clip-path="url(#clip0_94_101)">
<rect width="322" height="117" fill="white"/>
<path d="M43.833 28.5412C43.833 30.4554 44.083 30.6219 47.9997 30.6219H52.1663V40.6091V50.5964H54.2497H56.333V40.6923V30.7051L60.333 30.4554C63.6664 30.2057 64.2497 29.9561 64.4997 28.2915C64.7497 26.4605 64.6664 26.4605 54.333 26.4605H43.833V28.5412Z" fill="black"/>
<path d="M85.6662 37.6962C82.8328 43.855 80.4995 49.2647 80.4995 49.7641C80.4995 50.1802 81.4162 50.5964 82.4995 50.5964C83.9162 50.5964 84.7495 49.8473 85.4995 48.0996C86.4995 45.686 86.7495 45.6027 91.4162 45.6027C95.9995 45.6027 96.3329 45.7692 97.5829 48.0996C98.4995 49.8473 99.4995 50.5964 100.916 50.5964C102.083 50.5964 103 50.2635 103 49.8473C103 48.4325 92.2495 26.4605 91.4995 26.4605C91.1662 26.4605 88.4995 31.5374 85.6662 37.6962ZM94.1662 40.3594C94.7495 42.1072 94.4995 42.2737 91.8329 42.2737C88.4162 42.2737 88.3328 41.8575 90.1662 37.4465L91.4162 34.3671L92.4995 36.4478C93.1662 37.6129 93.9162 39.3607 94.1662 40.3594Z" fill="black"/>
<path d="M118.833 28.458C118.833 30.3722 119.25 30.5386 122.833 30.7883L126.75 31.038L127 40.7756L127.25 50.5964H129.25H131.333V40.6091V30.6219H135.083C138.5 30.6219 138.833 30.4554 138.833 28.5412V26.4605H128.833H118.833V28.458Z" fill="black"/>
<path d="M156.5 28.2915C156.75 29.956 157.333 30.2057 160.75 30.4554L164.667 30.7051V40.6923V50.5964H166.75H168.833V40.6923V30.7051L172.833 30.4554C176.083 30.2057 176.75 29.956 176.75 28.5412C176.75 26.9599 176.083 26.8766 166.5 26.627L156.25 26.3773L156.5 28.2915Z" fill="black"/>
<path d="M197.167 38.5284V50.5964H199.25H201.333V38.5284V26.4605H199.25H197.167V38.5284Z" fill="black"/>
<path d="M18 77.6453V89.7132H26C33.75 89.7132 33.9167 89.63 33.6667 87.799C33.4167 86.1344 32.9167 85.968 27.8333 85.7183L22.1667 85.4686V75.5646V65.5773H20.0833H18V77.6453Z" fill="black"/>
<path d="M59.5835 71.1534C54.3335 82.3891 51.3335 88.964 51.3335 89.3802C51.3335 89.5466 52.2502 89.7131 53.4168 89.7131C54.7502 89.7131 55.8335 88.964 56.6668 87.4659C57.6668 85.4685 58.3335 85.1356 62.5835 84.9691C67.0002 84.8027 67.4168 84.9691 68.6668 87.2162C70.0835 89.7131 73.8335 90.795 73.8335 88.7976C73.8335 87.5492 63.2502 65.5772 62.6668 65.5772C62.4168 65.5772 61.0835 68.074 59.5835 71.1534ZM64.2502 77.229C66.0835 80.7245 65.8335 81.3904 62.5835 81.3904C61.0002 81.3904 59.6668 81.2239 59.6668 81.0574C59.6668 80.3084 62.2502 74.7322 62.5835 74.7322C62.7502 74.7322 63.5002 75.8141 64.2502 77.229Z" fill="black"/>
<path d="M97.5832 66.576C95.1665 67.9909 93.9165 69.9051 93.8332 72.2355C93.8332 75.3149 94.9165 76.5633 100.167 79.3098C102.833 80.6414 105.083 82.2227 105.25 82.7221C105.75 84.3034 102.917 86.5505 101 86.1344C93.4165 84.3866 93.8332 84.3866 93.8332 86.5505C93.8332 88.2983 94.4165 88.7977 97.5832 89.7132C104.083 91.5442 109.667 88.6312 109.667 83.3879C109.667 80.1421 108.333 78.644 103 75.9807C100.833 74.8987 98.8332 73.4007 98.5832 72.7348C97.8332 70.7374 100.167 69.489 103.833 69.9883C106.583 70.3213 107.333 70.1548 108 68.8232C108.667 67.658 108.5 67.1586 107.25 66.4096C105.083 65.3276 99.6665 65.4109 97.5832 66.576Z" fill="black"/>
<path d="M131.917 66.1599C131.583 66.4096 131.333 71.9026 131.333 78.2279V89.7132H133.333C135.25 89.7132 135.417 89.3803 135.667 85.3022L135.917 80.9743L141.584 80.7247L147.167 80.475V85.1357C147.167 89.7132 147.167 89.7132 149.667 89.7132H152.25L152 77.8117L151.75 65.9935H149.667C147.667 65.9935 147.584 66.2432 147.334 71.2368L147.084 76.4801L141.5 76.2304L135.917 75.9807L135.667 70.7374C135.5 66.4096 135.167 65.5773 133.917 65.5773C133.083 65.5773 132.167 65.827 131.917 66.1599Z" fill="black"/>
<path d="M175.5 77.6453V89.7132H183.5C191.25 89.7132 191.417 89.63 191.167 87.799C190.917 86.1344 190.417 85.968 185.333 85.7183C179.667 85.4686 179.667 85.4686 179.667 83.055C179.667 80.5582 179.667 80.5582 184.667 80.5582C189.417 80.5582 189.667 80.475 189.667 78.4775C189.667 76.4801 189.417 76.3969 184.667 76.3969H179.667V73.0678V69.8219L185.333 69.5722C190.25 69.3226 190.917 69.1561 190.917 67.658C190.917 66.1599 190.25 65.9935 183.25 65.7438L175.5 65.4941V77.6453Z" fill="black"/>
<path d="M214.583 67.991C210.166 72.402 211.666 75.8975 219.666 79.9757C223.916 82.0563 224.833 84.137 222.083 85.5519C220.666 86.3842 219.5 86.3842 216.916 85.5519C211.166 83.8873 210.166 87.799 215.916 89.7132C221.916 91.7107 228 88.7977 228 83.9706C228 79.9757 227.166 78.8937 222 76.3137C217.916 74.3162 217.083 73.484 217.333 71.9859C217.583 70.3213 218.083 70.1549 221.916 70.2381C225.5 70.3213 226.25 70.0716 226.583 68.8232C227.166 66.7426 224.916 65.5774 220.5 65.5774C217.75 65.5774 216.5 66.0767 214.583 67.991Z" fill="black"/>
</g>
<defs>
<clipPath id="clip0_94_101">
<rect width="322" height="117" fill="white"/>
</clipPath>
</defs>
</svg>
