<svg width="322" height="117" viewBox="0 0 322 117" fill="none" xmlns="http://www.w3.org/2000/svg">
<rect width="322" height="117" fill="white"/>
<g clip-path="url(#clip0_127_50)">
<path d="M0 0C57.42 0 114.84 0 174 0C174 38.61 174 77.22 174 117C116.58 117 59.16 117 0 117C0 78.39 0 39.78 0 0Z" fill="#050403"/>
<path d="M0 0C57.42 0 114.84 0 174 0C174 38.61 174 77.22 174 117C116.58 117 59.16 117 0 117C0 78.39 0 39.78 0 0ZM81.5467 3.97154C75.1353 4.16772 68.823 5.0029 62.7722 6.41772C62.3567 6.49981 61.9412 6.58191 61.5132 6.66649C41.8913 10.6335 25.3503 20.8674 15.7848 32.8291C15.5941 33.0672 15.5941 33.0672 15.3994 33.3101C9.68848 40.5224 6.41153 48.813 6.53877 56.9881C6.54203 57.338 6.54523 57.6878 6.54836 58.0377C6.68942 70.4722 12.5908 82.7108 24.5949 92.3165C24.9077 92.5725 25.2203 92.8287 25.5327 93.0849C28.9019 95.8285 32.5327 98.2644 36.7089 100.462C37.0913 100.668 37.4737 100.873 37.856 101.079C40.537 102.508 43.3038 103.735 46.2532 104.905C46.525 105.018 46.7968 105.132 47.0769 105.248C49.2693 106.155 51.4993 106.928 53.8473 107.636C54.3798 107.796 54.3798 107.796 54.9229 107.96C59.1263 109.211 63.3738 110.089 67.8196 110.86C68.16 110.92 68.5004 110.979 68.8512 111.041C74.7931 112.035 80.6339 112.456 86.7476 112.434C87.0809 112.433 87.4142 112.432 87.7576 112.432C100.589 112.387 112.913 110.354 124.282 106.294C124.618 106.174 124.954 106.055 125.3 105.931C127.66 105.084 129.958 104.209 132.152 103.177C132.456 103.034 132.456 103.034 132.767 102.889C140.778 99.1024 147.388 94.7322 153.076 89.3544C153.287 89.1629 153.497 88.9713 153.714 88.774C160.25 82.7322 164.396 75.3976 166.658 68.1266C166.718 67.951 166.777 67.7754 166.839 67.5945C167.869 64.4891 167.864 61.3573 167.874 58.1915C167.876 57.9805 167.877 57.7695 167.878 57.5521C167.891 53.763 167.433 50.1293 166.085 46.4359C165.99 46.1765 165.896 45.9171 165.798 45.6498C161.607 34.5492 152.944 24.4651 139.861 17.0316C139.512 16.8318 139.512 16.8318 139.156 16.6278C136.316 15.0132 133.481 13.531 130.268 12.2656C129.354 11.9033 128.497 11.5191 127.632 11.1076C123.375 9.18882 118.643 7.97016 113.797 6.91139C113.516 6.84839 113.234 6.78539 112.944 6.72048C110.914 6.26665 108.875 5.83728 106.823 5.43038C106.571 5.38003 106.32 5.32967 106.061 5.27779C98.1533 3.73694 89.7079 3.84366 81.5467 3.97154Z" fill="#FDFDFD"/>
<path d="M109.759 11.8481C110.257 11.9563 110.756 12.0633 111.255 12.1692C116.64 13.3362 121.498 15.1504 126.301 17.1396C126.672 17.2925 126.672 17.2925 127.05 17.4484C128.162 17.9209 128.843 18.2604 129.582 19.0063C129.288 19.0071 128.994 19.008 128.691 19.0088C121.514 19.0289 114.338 19.0516 107.162 19.0773C103.691 19.0896 100.221 19.1011 96.7503 19.1105C93.7234 19.1186 90.6966 19.1285 87.6697 19.1403C86.0688 19.1465 84.4679 19.1519 82.867 19.1553C81.3563 19.1584 79.8456 19.1639 78.3349 19.1711C77.7841 19.1733 77.2334 19.1747 76.6827 19.1752C69.0771 19.1213 69.0771 19.1213 62.4739 21.3204C60.5806 22.8481 60.3738 24.14 60.4406 26.0768C60.6571 27.4664 61.3746 28.145 62.7722 29.1729C65.983 30.4773 69.6354 30.8897 73.3337 30.8934C73.611 30.8946 73.8883 30.8959 74.174 30.8972C74.7737 30.8998 75.3734 30.9019 75.973 30.9036C76.9278 30.9065 77.8825 30.9113 78.8373 30.9167C81.5512 30.9318 84.2651 30.9452 86.979 30.9535C88.643 30.9587 90.3069 30.9675 91.9708 30.9784C92.5991 30.9818 93.2274 30.984 93.8558 30.9848C99 30.992 104.429 31.0907 109.025 32.8291C109.593 33.0429 109.593 33.0429 110.172 33.2611C112.947 34.721 114.652 36.4314 115.541 38.7223C115.571 38.9769 115.602 39.2314 115.633 39.4937C115.66 39.6855 115.688 39.8774 115.716 40.0751C115.991 43.4507 113.283 46.1208 110.647 48.8307C109.741 49.7649 108.856 50.7077 107.97 51.6503C107.786 51.8457 107.602 52.0411 107.413 52.2424C104.142 55.7307 101.038 59.2756 98.0926 62.8925C97.645 63.4374 97.1893 63.9788 96.7307 64.5195C94.7214 66.8977 92.9106 69.3171 91.1928 71.7963C90.5576 72.7119 89.8937 73.6157 89.2154 74.5173C88.1242 75.9776 87.1233 77.4589 86.1511 78.9565C85.9788 79.2211 85.8066 79.4857 85.6291 79.7584C82.387 84.7027 82.387 84.7027 79.6697 89.7835C79.3446 90.475 79.0058 91.1619 78.6602 91.8488C78.5453 92.0777 78.4304 92.3066 78.3119 92.5425C78.0834 92.9973 77.8544 93.452 77.6247 93.9065C76.2072 96.746 75.5569 99.3761 75.5285 102.375C75.5171 102.68 75.5171 102.68 75.5055 102.991C75.494 104.198 75.67 104.875 76.7215 105.892C76.6004 106.055 76.4792 106.218 76.3544 106.386C68.1671 105.46 60.6208 103.734 53.2278 101.203C52.5876 100.987 52.5876 100.987 51.9344 100.768C51.6344 100.667 51.3344 100.566 51.0253 100.462C51.0253 100.299 51.0253 100.136 51.0253 99.9683C50.8166 99.94 50.608 99.9117 50.393 99.8825C45.0952 98.8621 40.2324 95.3122 36.3418 92.8101C36.0929 92.6529 35.844 92.4958 35.5875 92.3338C33.7028 91.1132 32.0798 89.7506 30.4684 88.3671C30.3131 88.2348 30.1578 88.1025 29.9978 87.9662C26.9024 85.3079 24.4102 82.4476 22.0253 79.481C21.8999 79.3322 21.7746 79.1834 21.6454 79.0301C20.3651 77.4374 19.5831 75.699 18.7411 73.9857C18.4694 73.434 18.1924 72.8837 17.9149 72.3334C17.7385 71.9777 17.5623 71.6219 17.3865 71.266C17.3047 71.1042 17.2229 70.9424 17.1386 70.7757C16.733 69.9412 16.4527 69.1392 16.3042 68.2698C16.2979 67.4331 16.2979 67.4331 15.7848 67.1392C14.6281 61.5359 14.4926 55.7014 15.7848 50.1076C15.8114 49.93 15.8379 49.7523 15.8653 49.5693C15.9374 49.0887 16.0422 48.6103 16.1519 48.1329C16.3942 48.0514 16.6365 47.97 16.8861 47.8861C17.4429 49.0266 17.9978 50.1676 18.5508 51.309C18.7386 51.6959 18.9269 52.0827 19.1158 52.4694C20.0911 54.4669 21.0189 56.4515 21.7436 58.4979C22.3266 60.0346 23.0753 61.5406 23.7919 63.051C24.7887 65.1606 25.7691 67.2678 26.6275 69.4052C27.8353 72.8138 27.8353 72.8138 30.9659 75.4728C32.7411 76.1319 34.3024 76.4965 36.3418 76.2721C37.2207 76.0497 38.0617 75.8017 38.9057 75.5249C39.6456 75.2848 39.6456 75.2848 40.7468 75.038C41.4376 74.1114 41.783 73.1112 42.1722 72.1116C42.2353 71.9502 42.2983 71.7888 42.3633 71.6225C42.9259 70.1774 43.468 68.7287 44.0104 67.2801C44.6167 65.6665 45.248 64.0574 45.8861 62.4494C45.9836 62.2017 46.0812 61.9541 46.1816 61.699C47.1482 59.3071 48.0747 57.3882 51.3924 56.0316C51.6124 55.9368 51.8325 55.842 52.0592 55.7443C53.7659 55.1319 55.4561 55.2093 57.2658 55.538C60.9297 56.886 62.2772 58.8948 63.5063 61.462C63.9697 62.5521 64.3982 63.6472 64.8113 64.7463C64.9966 65.2388 65.185 65.7308 65.374 66.2228C66.0809 68.0764 66.7164 69.9337 67.2601 71.8127C67.6328 72.8052 68.2456 73.6554 68.9811 74.5472C69.3798 75.038 69.3798 75.038 69.7468 75.7785C72.265 76.4219 74.576 76.5086 77.055 75.7919C79.7492 74.8786 80.9094 73.5964 81.9067 71.7365C82.0307 71.5169 82.1547 71.2972 82.2824 71.0709C83.0721 69.6512 83.784 68.2194 84.4307 66.7674C85.1451 65.1687 85.9552 63.5939 86.7706 62.0174C86.9152 61.7376 87.0598 61.4579 87.2088 61.1696C87.8346 59.9619 88.4632 58.7549 89.0979 57.5493C90.5618 54.765 91.9646 51.9677 93.3552 49.1665C93.4532 48.9695 93.5512 48.7725 93.6521 48.5696C93.9348 48.0009 94.2166 47.432 94.4981 46.8631C94.5825 46.6933 94.6669 46.5235 94.7539 46.3486C96.2986 43.5175 96.2986 43.5175 95.8331 40.6044C94.5628 39.9832 93.2805 40.0761 91.7722 40.2342C90.4809 40.4766 90.4809 40.4766 89.5696 41.2215C89.181 41.8748 89.181 41.8748 88.8684 42.6331C88.7431 42.9203 88.6177 43.2075 88.4885 43.5035C87.8345 45.0688 87.2035 46.6378 86.587 48.21C86.4585 48.5355 86.33 48.8609 86.2013 49.1863C85.4797 51.0166 84.7613 52.8462 84.1278 54.6914C83.0177 57.7649 81.6304 60.7888 77.4156 62.5207C75.8242 62.9231 74.1294 62.8781 72.5502 62.4744C71.8463 62.2374 71.1615 61.9751 70.481 61.7089C70.481 61.5459 70.481 61.383 70.481 61.2152C70.1176 61.1337 69.7542 61.0523 69.3798 60.9683C66.1112 58.3451 65.7073 54.2428 64.7911 51.0024C63.6214 45.4477 63.6214 45.4477 60.2025 40.481C57.8633 39.6384 55.4841 39.4916 52.8608 39.7405C50.8532 40.2336 49.7992 40.949 48.7769 42.2172C48.231 43.0421 48.0302 43.8833 47.8133 44.7698C47.1665 47.1638 46.3371 49.5199 45.4731 51.8817C45.4085 52.0585 45.3438 52.2352 45.2772 52.4173C45.2138 52.5909 45.1503 52.7644 45.0849 52.9432C45.0228 53.1129 44.9608 53.2827 44.8969 53.4575C44.7757 53.7886 44.6541 54.1197 44.5321 54.4506C44.2141 55.3173 43.9221 56.185 43.6563 57.0595C42.9163 59.1212 41.1443 60.7652 38.5443 61.9557C36.8601 62.629 34.9395 62.653 33.038 62.4494C30.5048 61.8288 29.3133 60.2599 28.1922 58.7115C26.1273 55.6136 25.3787 52.2216 24.6539 48.8864C24.327 47.4365 23.8734 46.0207 23.3331 44.6001C23.2621 44.4069 23.1911 44.2137 23.118 44.0147C22.5621 42.6127 21.739 41.5227 20.1899 40.481C20.2904 39.1476 20.9142 38.0851 21.8188 36.9173C21.9478 36.7478 22.0767 36.5783 22.2096 36.4037C28.8309 27.8673 38.4435 21.0215 50.6582 16.0443C50.8667 15.9582 51.0751 15.872 51.2899 15.7832C54.5045 14.4612 57.7719 13.4646 61.3038 12.5886C61.7529 12.4737 62.2019 12.3589 62.6646 12.2405C64.8509 11.6942 66.9703 11.222 69.2765 10.9736C70.1557 10.8679 70.1557 10.8679 71.1363 10.6265C82.6948 8.08613 98.5393 9.10825 109.759 11.8481Z" fill="#FCFCFB"/>
<path d="M147.57 31.8418C147.812 31.8418 148.054 31.8418 148.304 31.8418C157.89 42.936 157.89 42.936 157.481 47.8861C157.723 47.8861 157.966 47.8861 158.215 47.8861C160.277 57.4242 160.043 67.0176 154.544 76.0253C154.369 76.3355 154.194 76.6459 154.021 76.9567C150.423 83.0792 144.493 88.4136 137.658 93.057C137.333 93.2819 137.333 93.2819 137.002 93.5114C134.951 94.9189 132.667 96.0841 130.316 97.2532C130.095 97.3639 129.873 97.4747 129.645 97.5888C128.976 97.9214 128.305 98.2512 127.632 98.5799C127.43 98.6797 127.228 98.7796 127.02 98.8825C125.504 99.6142 123.921 100.168 122.24 100.709C121.763 100.87 121.287 101.031 120.811 101.194C120.331 101.356 119.852 101.518 119.373 101.681C119.14 101.76 118.907 101.84 118.666 101.921C117.903 102.179 117.136 102.433 116.367 102.684C116.059 102.785 115.75 102.886 115.432 102.99C113.006 103.76 110.573 104.325 107.993 104.812C107.609 104.886 107.226 104.96 106.831 105.036C99.7079 106.386 99.7079 106.386 96.9114 106.386C96.9114 106.223 96.9114 106.06 96.9114 105.892C97.1764 105.719 97.4414 105.546 97.7144 105.368C101.224 103.035 101.99 99.703 102.945 96.5589C103.45 94.8999 104.135 93.2884 104.842 91.6645C105.433 90.2995 105.981 88.9312 106.494 87.552C107.701 84.3163 109.233 81.1727 110.843 78.0184C111.288 77.1399 111.72 76.2586 112.15 75.3766C113.346 72.927 114.547 70.4746 116.338 68.1883C116.806 67.5318 117.175 66.8627 117.55 66.1799C118.552 64.4148 119.709 62.7146 120.933 61.0146C121.098 60.7848 121.098 60.7848 121.266 60.5503C123.549 57.3828 126.114 54.3432 128.848 51.3418C129.026 51.1461 129.204 50.9504 129.388 50.7488C130.29 49.7614 131.205 48.7796 132.131 47.8023C132.498 47.4145 132.861 47.025 133.224 46.6355C134.422 45.3544 135.666 44.1027 136.966 42.8674C137.761 42.1109 138.548 41.3506 139.333 40.589C139.474 40.4518 139.616 40.3146 139.761 40.1732C140.733 39.2277 141.686 38.2745 142.627 37.3146C143.223 36.72 143.848 36.1411 144.472 35.5597C145.711 34.3811 146.671 33.15 147.57 31.8418Z" fill="#FCFCFC"/>
<path d="M149.405 47.3924C151.3 48.2629 152.404 49.0858 153.076 50.6013C153.296 51.9552 153.009 53.1326 151.975 54.3038C150.5 55.3779 148.855 56.3978 146.646 56.6169C144.1 56.6585 142.567 56.3792 140.595 55.2911C140.163 55.0544 140.163 55.0544 139.723 54.8129C138.186 53.5013 138.158 51.9554 138.392 50.3544C139.124 48.6178 140.681 47.67 142.958 46.8062C145.397 46.4062 147.211 46.5876 149.405 47.3924Z" fill="#F0F0F0"/>
<path d="M149.405 47.3924C151.3 48.2629 152.404 49.0858 153.076 50.6013C153.296 51.9552 153.009 53.1326 151.975 54.3038C150.5 55.3779 148.855 56.3978 146.646 56.6169C144.1 56.6585 142.567 56.3792 140.595 55.2911C140.163 55.0544 140.163 55.0544 139.723 54.8129C138.186 53.5013 138.158 51.9554 138.392 50.3544C139.124 48.6178 140.681 47.67 142.958 46.8062C145.397 46.4062 147.211 46.5876 149.405 47.3924ZM139.861 49.3671C139.172 50.5952 139.192 52.0368 139.494 53.3165C140.447 54.4406 141.723 55.3099 143.532 55.7848C145.694 55.9696 147.585 55.9063 149.405 55.0443C151.12 53.9207 151.863 53.1219 152.089 51.5115C151.91 50.0857 150.945 49.2301 149.634 48.1638C148.492 47.5418 147.926 47.449 146.468 47.3924C146.093 47.3523 146.093 47.3523 145.71 47.3114C143.052 47.1249 141.5 48.0192 139.861 49.3671Z" fill="#1A1A1A"/>
<path d="M142.43 48.6266C143.187 48.6164 143.945 48.6062 144.725 48.5957C145.363 48.5871 145.363 48.5871 146.015 48.5784C147.146 48.6243 147.745 48.6964 148.671 49.1203C149.168 49.7889 149.062 50.3567 149.038 51.0949C148.311 51.3393 148.311 51.3393 147.57 51.5886C147.676 51.7226 147.782 51.8565 147.891 51.9945C148.095 52.2594 148.095 52.2594 148.304 52.5297C148.508 52.7917 148.508 52.7917 148.717 53.059C149.038 53.5633 149.038 53.5633 149.038 54.3038C148.432 54.3038 147.827 54.3038 147.203 54.3038C147.114 54.1641 147.025 54.0244 146.933 53.8805C146.81 53.6995 146.687 53.5184 146.56 53.3319C146.441 53.1515 146.322 52.9711 146.199 52.7852C145.725 52.2115 145.725 52.2115 144.266 52.0823C144.266 52.8154 144.266 53.5485 144.266 54.3038C143.66 54.3038 143.054 54.3038 142.43 54.3038C142.43 52.4303 142.43 50.5568 142.43 48.6266Z" fill="#2F2F2F"/>
<path d="M146.468 47.3924C147.57 47.593 147.57 47.593 148.304 47.8861C148.425 48.1304 148.546 48.3748 148.671 48.6266C148.436 48.5808 148.201 48.5349 147.96 48.4877C147.585 48.4343 147.585 48.4343 147.203 48.3797C147.081 48.4612 146.96 48.5427 146.835 48.6266C145.366 48.662 143.901 48.637 142.43 48.6266C142.43 50.5001 142.43 52.3735 142.43 54.3038C141.946 54.3853 141.461 54.4667 140.962 54.5506C139.967 53.9651 139.527 53.5056 139.37 52.6184C139.342 51.0951 139.351 49.851 140.826 48.6218C142.67 47.472 143.964 47.0909 146.468 47.3924Z" fill="#F6F6F6"/>
<path d="M147.937 47.6392C149.082 47.975 149.775 48.3384 150.575 48.9814C150.762 49.1287 150.949 49.276 151.142 49.4278C152.134 50.3494 152.005 51.2333 151.975 52.3291C151.732 52.1662 151.49 52.0033 151.241 51.8354C150.998 51.9984 150.756 52.1613 150.506 52.3291C150.264 52.0847 150.022 51.8404 149.772 51.5886C149.53 51.5886 149.288 51.5886 149.038 51.5886C148.917 52.1588 148.796 52.729 148.671 53.3165C147.57 52.4217 147.57 52.4217 147.57 51.5886C147.933 51.4257 148.296 51.2628 148.671 51.0949C148.804 50.6068 148.804 50.6068 148.74 50.0767C148.717 49.7611 148.694 49.4455 148.671 49.1202C147.762 48.8759 147.762 48.8759 146.835 48.6266C147.078 48.4637 147.32 48.3008 147.57 48.1329C147.57 48.2958 147.57 48.4587 147.57 48.6266C147.812 48.5451 148.054 48.4637 148.304 48.3797C148.183 48.1354 148.062 47.891 147.937 47.6392Z" fill="#E7E7E7"/>
<path d="M37.0759 15.5506C37.4394 15.6321 37.8028 15.7135 38.1772 15.7975C38.0561 15.9604 37.9349 16.1233 37.8101 16.2911C37.4467 16.2911 37.0833 16.2911 36.7088 16.2911C36.8365 16.7787 36.8365 16.7787 37.0759 17.2785C37.3182 17.3599 37.5605 17.4414 37.8101 17.5253C37.1968 17.5559 37.1968 17.5559 36.5712 17.587C35.2194 17.6682 35.2194 17.6682 34.7128 18.2812C34.6447 18.4391 34.5765 18.5969 34.5063 18.7595C34.0218 18.7595 33.5372 18.7595 33.038 18.7595C31.8582 19.1961 31.8582 19.1961 31.409 20.0091C30.8354 20.7342 30.8354 20.7342 30.1013 20.9502C29.4904 20.9758 28.8778 20.981 28.2658 20.981C30.9505 19.1191 33.6789 17.4067 36.7088 15.7975C36.83 15.716 36.9511 15.6346 37.0759 15.5506Z" fill="#121211"/>
<path d="M142.797 48.8734C143.645 48.8734 144.493 48.8734 145.367 48.8734C144.883 48.9549 144.398 49.0363 143.899 49.1202C144.02 49.7719 144.141 50.4235 144.266 51.0949C145.114 51.1764 145.962 51.2578 146.835 51.3418C146.101 51.8354 146.101 51.8354 144.954 51.8663C144.606 51.8561 144.258 51.8459 143.899 51.8354C143.899 52.65 143.899 53.4646 143.899 54.3038C143.535 54.3038 143.172 54.3038 142.797 54.3038C142.797 52.5118 142.797 50.7197 142.797 48.8734Z" fill="#040404"/>
<path d="M146.835 46.6519C146.835 46.8148 146.835 46.9777 146.835 47.1456C147.199 47.3085 147.562 47.4714 147.937 47.6392C147.626 47.6192 147.316 47.5992 146.996 47.5785C144.04 47.4653 144.04 47.4653 141.444 48.3026C139.724 49.4811 139.635 50.9944 139.494 52.576C139.372 52.576 139.251 52.576 139.127 52.576C138.395 49.8659 138.395 49.8659 139.217 48.7404C141.342 47.0405 143.617 46.538 146.835 46.6519Z" fill="#323232"/>
<path d="M20.557 38.7532C22.598 38.8725 22.598 38.8725 23.2872 39.4165C23.5558 40.1591 23.3308 40.7208 23.1266 41.4684C23.2316 41.8819 23.3534 42.2937 23.4937 42.7025C23.5073 43.1138 23.5112 43.5255 23.4937 43.9367C22.7739 43.2108 22.242 42.4873 21.6941 41.6998C21.3237 41.2034 21.3237 41.2034 20.686 40.8465C20.5223 40.7259 20.3586 40.6053 20.1899 40.481C20.3046 39.5708 20.3046 39.5708 20.557 38.7532Z" fill="#F1F0EE"/>
<path d="M43.3165 56.7722C43.6836 57.5127 43.6836 57.5127 43.315 58.1355C42.1849 59.5259 41.228 60.5569 39.2785 61.462C39.0362 60.9733 38.7939 60.4846 38.5443 59.981C39.3599 59.4326 40.0438 59.2588 41.1139 58.9937C41.1139 58.4235 41.1139 57.8533 41.1139 57.2658C41.5985 57.3473 42.083 57.4287 42.5823 57.5127C42.8246 57.2683 43.0668 57.0239 43.3165 56.7722Z" fill="#F3F3F3"/>
<path d="M149.038 51.3418C149.529 51.4189 150.019 51.5018 150.506 51.5886C150.87 51.5886 151.233 51.5886 151.608 51.5886C151.727 52.616 151.757 53.1592 150.919 54.0415C150.139 54.5506 150.139 54.5506 149.405 54.5506C148.448 53.5858 148.589 52.7089 148.671 51.5886C148.792 51.5071 148.913 51.4257 149.038 51.3418Z" fill="#F7F7F7"/>
<path d="M36.7088 23.2025C37.0723 23.3654 37.4357 23.5284 37.8101 23.6962C37.53 23.7929 37.2498 23.8897 36.9612 23.9893C35.8459 24.4951 35.4147 24.8471 34.8734 25.6709C34.8121 26.4423 34.8121 26.4423 34.8734 27.1519C34.7523 27.3148 34.6311 27.4777 34.5063 27.6456C33.4161 27.5641 32.3258 27.4827 31.2025 27.3987C32.8428 25.8433 34.6645 24.5222 36.7088 23.2025Z" fill="#E6E5E3"/>
<path d="M24.5949 82.443C25.8468 82.6373 27.0503 82.9049 28.2658 83.1835C28.3869 83.5908 28.5081 83.9981 28.6329 84.4177C28.3906 84.4177 28.1483 84.4177 27.8987 84.4177C28.141 84.5806 28.3833 84.7435 28.6329 84.9114C28.9963 85.2779 28.9963 85.2779 29.3671 85.6519C28.6402 85.8963 28.6402 85.8963 27.8987 86.1456C27.3471 85.5752 26.7966 85.0043 26.2468 84.4331C26.0892 84.2704 25.9317 84.1076 25.7693 83.9399C24.5949 82.7178 24.5949 82.7178 24.5949 82.443Z" fill="#F3F3F3"/>
<path d="M145.734 46.8987C147.515 46.7491 148.403 46.8536 149.864 47.5775C151.139 48.2563 152.174 48.8868 152.555 49.9774C152.583 50.1884 152.611 50.3993 152.64 50.6167C152.673 50.8283 152.705 51.0399 152.739 51.2579C152.709 51.8354 152.709 51.8354 151.975 52.5759C151.94 52.3163 151.94 52.3163 151.904 52.0514C151.556 50.2339 150.845 49.0396 148.671 47.8861C147.687 47.5444 146.809 47.3483 145.734 47.1456C145.734 47.0641 145.734 46.9827 145.734 46.8987Z" fill="#151515"/>
<path d="M27.8987 21.2278C28.9127 21.9097 28.8453 22.5131 29 23.4494C27.9858 23.5968 27.1057 23.6962 26.0633 23.6962C26.1844 24.022 26.3055 24.3478 26.4304 24.6835C26.0669 24.8465 25.7035 25.0094 25.3291 25.1772C25.4502 24.8514 25.5714 24.5256 25.6962 24.1899C25.4539 24.1899 25.2116 24.1899 24.962 24.1899C24.8409 24.3528 24.7197 24.5157 24.5949 24.6835C24.5949 23.6529 25.268 23.3162 26.2468 22.5392C26.5534 22.2938 26.8601 22.0485 27.176 21.7958C27.5337 21.5146 27.5337 21.5146 27.8987 21.2278Z" fill="#0F0F0F"/>
<path d="M29.3671 87.3797C30.928 88.3975 32.3538 89.481 33.7721 90.5886C33.5299 90.9144 33.2876 91.2402 33.038 91.5759C32.8941 91.4181 32.7502 91.2603 32.602 91.0977C31.9961 90.5295 31.9961 90.5295 30.996 90.4652C30.7007 90.4244 30.4055 90.3837 30.1012 90.3418C29.6194 89.8327 29.6194 89.8327 29.3671 89.3544C29.6093 89.273 29.8516 89.1915 30.1012 89.1076C29.859 88.8632 29.6167 88.6188 29.3671 88.3671C29.3671 88.0412 29.3671 87.7154 29.3671 87.3797Z" fill="#181818"/>
<path d="M144.266 49.3671C145.235 49.4486 146.204 49.53 147.203 49.6139C147.432 50.2002 147.432 50.2002 147.57 50.8481C146.835 51.3418 146.835 51.3418 145.505 51.3726C145.096 51.3625 144.687 51.3523 144.266 51.3418C144.266 50.6901 144.266 50.0385 144.266 49.3671Z" fill="#E1E1E1"/>
<path d="M138.759 49.8608C138.881 49.8608 139.002 49.8608 139.127 49.8608C139.136 50.0367 139.145 50.2127 139.155 50.394C139.352 52.6304 140.264 53.8212 142.43 55.538C140.962 55.538 140.962 55.538 139.998 55.0135C138.259 53.5975 138.188 52.1278 138.392 50.3544C138.514 50.1915 138.635 50.0286 138.759 49.8608Z" fill="#0F0F0F"/>
<path d="M142.43 48.6266C147.111 48.5957 147.111 48.5957 147.937 48.8734C147.57 49.3671 147.57 49.3671 146.927 49.5368C145.957 49.6274 145.21 49.5259 144.266 49.3671C144.266 49.9373 144.266 50.5075 144.266 51.0949C144.145 51.0949 144.024 51.0949 143.899 51.0949C143.899 50.4433 143.899 49.7916 143.899 49.1203C143.535 49.0388 143.172 48.9573 142.797 48.8734C142.797 50.6654 142.797 52.4575 142.797 54.3038C142.676 54.3038 142.555 54.3038 142.43 54.3038C142.43 52.4303 142.43 50.5568 142.43 48.6266Z" fill="#4B4B4B"/>
<path d="M101.316 101.203C102.269 101.843 102.234 102.293 102.418 103.177C102.509 103.355 102.599 103.534 102.693 103.717C102.738 103.939 102.738 103.939 102.785 104.165C102.257 104.597 102.257 104.597 101.684 104.905C101.464 104.824 101.244 104.742 101.018 104.658C100.195 104.36 100.195 104.36 99.1139 104.411C99.2421 104.262 99.3704 104.114 99.5025 103.96C99.753 103.664 99.753 103.664 100.009 103.362C100.175 103.168 100.341 102.973 100.512 102.772C100.91 102.242 101.144 101.782 101.316 101.203Z" fill="#EDEDED"/>
<path d="M33.7722 91.576C35.439 91.9273 36.3564 92.4945 37.5578 93.3347C37.8819 93.5593 38.206 93.7839 38.54 94.0154C38.7837 94.1878 39.0274 94.3603 39.2785 94.538C39.0362 94.7009 38.7939 94.8638 38.5443 95.0317C38.302 94.8687 38.0598 94.7058 37.8101 94.538C37.4467 94.538 37.0833 94.538 36.7089 94.538C36.2385 94.1147 36.2385 94.1147 35.7911 93.5661C35.1153 92.6971 35.1153 92.6971 33.7722 92.3165C33.7722 92.0721 33.7722 91.8277 33.7722 91.576Z" fill="#151514"/>
<path d="M147.937 47.6392C149.506 48.03 150.237 48.7514 151.241 49.6139C150.998 49.9397 150.756 50.2656 150.506 50.6013C150.264 50.4384 150.022 50.2754 149.772 50.1076C149.409 50.4741 149.409 50.4741 149.038 50.8481C148.917 50.2779 148.796 49.7077 148.671 49.1202C147.762 48.8759 147.762 48.8759 146.835 48.6266C147.078 48.4637 147.32 48.3008 147.57 48.1329C147.57 48.2958 147.57 48.4587 147.57 48.6266C147.812 48.5451 148.054 48.4637 148.304 48.3797C148.183 48.1354 148.062 47.891 147.937 47.6392Z" fill="#DFDFDF"/>
<path d="M16.519 47.8861C17.2568 48.6303 17.5197 49.1733 17.8497 50.0305C17.9453 50.2758 18.0408 50.5211 18.1393 50.7739C18.2103 50.9613 18.2813 51.1487 18.3544 51.3418C17.991 51.464 17.991 51.464 17.6202 51.5886C16.8631 51.4189 16.8631 51.4189 16.1519 51.0949C15.4708 50.179 15.916 49.1004 16.1519 48.1329C16.273 48.0515 16.3942 47.97 16.519 47.8861Z" fill="#EAE9E7"/>
<path d="M70.481 5.18353C70.1971 5.27517 70.1971 5.27517 69.9074 5.36866C68.7293 5.77491 67.5899 6.21965 66.443 6.66455C66.443 6.90891 66.443 7.15328 66.443 7.40505C65.8373 7.48651 65.2316 7.56796 64.6076 7.65189C64.6076 7.32607 64.6076 7.00024 64.6076 6.66455C64.3653 6.66455 64.123 6.66455 63.8734 6.66455C63.8734 6.50164 63.8734 6.33872 63.8734 6.17088C64.6295 6.00414 65.3869 5.84011 66.1448 5.67721C66.5664 5.58557 66.988 5.49393 67.4224 5.39952C68.5146 5.20666 69.3624 5.13821 70.481 5.18353Z" fill="#201E1F"/>
<path d="M98.0126 102.93C98.4972 103.012 98.9818 103.093 99.481 103.177C99.7319 103.613 99.7319 103.613 99.8481 104.165C99.4021 104.639 99.4021 104.639 98.7698 105.09C98.562 105.242 98.3543 105.393 98.1403 105.549C97.8954 105.719 97.8954 105.719 97.6456 105.892C97.4033 105.648 97.161 105.404 96.9114 105.152C97.1537 104.989 97.3959 104.826 97.6456 104.658C97.5279 104.016 97.5279 104.016 97.2785 103.424C97.5207 103.424 97.763 103.424 98.0126 103.424C98.0126 103.261 98.0126 103.098 98.0126 102.93Z" fill="#11100E"/>
<path d="M41.8481 72.5696C42.2152 73.3101 42.2152 73.3101 41.5958 74.1895C40.9678 74.8868 40.4694 75.2743 39.2785 75.5317C38.7049 75.2231 38.7049 75.2231 38.1772 74.7911C38.292 74.2512 38.292 74.2512 38.5443 73.8038C39.2785 73.8038 40.0127 73.8038 40.7469 73.8038C40.7469 73.6409 40.7469 73.478 40.7469 73.3101C41.2975 72.909 41.2975 72.909 41.8481 72.5696Z" fill="#0C0B09"/>
<path d="M116.367 67.8797C116.731 67.9612 117.094 68.0427 117.468 68.1266C117.153 69.5265 116.599 70.7236 115.013 71.6903C114.733 71.8175 114.453 71.9448 114.165 72.0759C114.774 70.6303 115.439 69.2475 116.367 67.8797Z" fill="#E4E3E2"/>
<path d="M132.152 47.3924C131.957 48.505 131.346 49.2323 130.316 50.1076C129.953 50.1076 129.59 50.1076 129.215 50.1076C129.536 48.1946 129.536 48.1946 129.949 47.6392C130.716 47.4729 131.346 47.3924 132.152 47.3924Z" fill="#0B0B0B"/>
<path d="M82.9621 56.7722C83.0832 56.9351 83.2043 57.098 83.3291 57.2658C83.5714 57.3473 83.8137 57.4287 84.0633 57.5127C83.9422 57.5941 83.821 57.6756 83.6962 57.7595C84.0596 57.7595 84.4231 57.7595 84.7975 57.7595C84.7975 57.9224 84.7975 58.0853 84.7975 58.2532C84.4341 58.2532 84.0707 58.2532 83.6962 58.2532C83.6962 58.4975 83.6962 58.7419 83.6962 58.9937C82.8473 59.657 82.8473 59.657 81.8608 60.2279C81.4974 60.2279 81.134 60.2279 80.7595 60.2279C80.8878 60.0404 81.016 59.853 81.1481 59.6599C81.3987 59.292 81.3987 59.292 81.6543 58.9165C81.8204 58.6731 81.9865 58.4297 82.1576 58.1789C82.616 57.5088 82.616 57.5088 82.9621 56.7722Z" fill="#12110F"/>
<path d="M124.81 56.0316C125.295 56.0316 125.779 56.0316 126.278 56.0316C126.278 56.4389 126.278 56.8462 126.278 57.2658C126.051 57.3269 125.824 57.388 125.59 57.451C124.76 57.7154 124.76 57.7154 124.443 58.2532C123.986 58.8678 123.537 58.9904 122.608 59.2405C123.126 58.0489 123.867 57.089 124.81 56.0316Z" fill="#E4E4E4"/>
<path d="M112.329 46.6519C112.571 46.9777 112.814 47.3035 113.063 47.6392C112.942 47.7207 112.821 47.8022 112.696 47.8861C113.181 48.2119 113.665 48.5377 114.165 48.8734C113.801 49.0363 113.438 49.1992 113.063 49.3671C112.844 49.2907 112.624 49.2144 112.398 49.1357C111.562 48.8482 111.562 48.8482 110.494 48.6266C111.099 47.9749 111.705 47.3233 112.329 46.6519Z" fill="#171715"/>
<path d="M55.1551 39.4628C55.5507 39.4673 55.9463 39.4717 56.3538 39.4763C56.8053 39.4849 56.8053 39.4849 57.2658 39.4937C57.2658 39.5751 57.2658 39.6566 57.2658 39.7405C55.6305 39.8627 55.6305 39.8627 53.962 39.9873C54.2043 40.1503 54.4466 40.3132 54.6962 40.481C54.4615 40.5116 54.2268 40.5421 53.985 40.5736C53.6102 40.6499 53.6102 40.6499 53.2279 40.7279C53.1067 40.8908 52.9856 41.0537 52.8608 41.2215C51.9522 40.9772 51.9522 40.9772 51.0253 40.7279C51.3924 39.9873 51.3924 39.9873 52.0061 39.6962C53.0942 39.4384 54.004 39.446 55.1551 39.4628Z" fill="#232121"/>
<path d="M31.5696 25.6709C31.933 25.7523 32.2964 25.8338 32.6709 25.9177C32.0587 26.8906 31.1191 27.5936 30.1012 28.3861C29.3671 27.4604 29.3671 27.4604 29.3671 26.9051C29.8838 26.2102 30.5512 26.0133 31.5696 25.6709Z" fill="#0F0E0D"/>
<path d="M43.6836 17.7722C44.4104 17.7722 45.1372 17.7722 45.8861 17.7722C46.0072 17.9351 46.1284 18.098 46.2532 18.2658C44.2544 19.2433 44.2544 19.2433 42.2152 20.2405C41.9729 20.1591 41.7307 20.0776 41.481 19.9937C41.2516 19.4846 41.2516 19.4846 41.114 19.0063C41.3562 18.9249 41.5985 18.8434 41.8481 18.7595C41.8481 18.9224 41.8481 19.0853 41.8481 19.2532C42.0904 19.2532 42.3327 19.2532 42.5823 19.2532C42.7034 19.0088 42.8246 18.7644 42.9494 18.5127C43.3128 18.4312 43.6762 18.3498 44.0507 18.2658C43.9295 18.1029 43.8084 17.94 43.6836 17.7722Z" fill="#141312"/>
<path d="M119.671 61.462C119.913 61.7064 120.155 61.9508 120.405 62.2025C120.156 62.7608 120.156 62.7608 119.717 63.3596C119.574 63.5591 119.431 63.7586 119.284 63.9641C119.169 64.1159 119.055 64.2677 118.937 64.4241C118.694 64.4241 118.452 64.4241 118.203 64.4241C117.96 63.7724 117.718 63.1208 117.468 62.4494C117.911 62.3425 117.911 62.3425 118.363 62.2334C119.353 62.0217 119.353 62.0217 119.671 61.462Z" fill="#0D0D0C"/>
<path d="M15.0507 33.0759C15.2929 33.1574 15.5352 33.2389 15.7848 33.3228C15.5248 33.7261 15.2552 34.1267 14.9818 34.5261C14.8328 34.7495 14.6837 34.9728 14.5301 35.203C13.8362 35.9058 13.2987 36.0518 12.114 36.2848C12.2883 35.7376 12.4883 35.2879 12.8711 34.7884C13.2952 34.2876 13.2952 34.2876 13.2152 33.5696C13.4499 33.534 13.6846 33.4983 13.9265 33.4616C14.6746 33.3697 14.6746 33.3697 15.0507 33.0759Z" fill="#F0F0EF"/>
<path d="M120.405 107.373C119.521 107.968 118.782 108.116 117.606 108.392C117.238 108.479 116.87 108.566 116.49 108.656C116.066 108.754 116.066 108.754 115.633 108.854C115.633 108.114 115.633 108.114 116.367 107.62C116.367 107.539 116.367 107.457 116.367 107.373C118.006 106.912 118.813 106.807 120.405 107.373Z" fill="#151414"/>
<path d="M85.8987 63.6835C86.4514 64.1683 86.9601 64.6172 87.3671 65.1646C87.1248 65.1646 86.8825 65.1646 86.6329 65.1646C86.3906 65.8162 86.1483 66.4679 85.8987 67.1392C85.4142 67.0578 84.9296 66.9763 84.4304 66.8924C84.606 66.4964 84.782 66.1004 84.958 65.7045C85.056 65.484 85.154 65.2635 85.2549 65.0363C85.4596 64.5833 85.6761 64.1327 85.8987 63.6835Z" fill="#E6E5E3"/>
<path d="M26.4304 57.019C26.7938 57.019 27.1572 57.019 27.5316 57.019C27.8599 57.4485 28.1794 57.8811 28.4952 58.3149C28.6741 58.5554 28.853 58.796 29.0373 59.0438C29.3671 59.7342 29.3671 59.7342 29.0545 60.3165C28.8458 60.517 28.8458 60.517 28.6329 60.7215C27.6644 59.9554 27.2733 59.2863 26.9122 58.3149C26.8199 58.0718 26.7276 57.8287 26.6325 57.5782C26.5658 57.3937 26.4991 57.2091 26.4304 57.019Z" fill="#222120"/>
<path d="M146.835 51.8354C146.957 52.0798 147.078 52.3242 147.203 52.576C147.566 52.6574 147.929 52.7389 148.304 52.8228C149.038 53.5633 149.038 53.5633 149.038 54.3038C148.432 54.3038 147.827 54.3038 147.203 54.3038C146.523 53.5329 146.361 52.976 146.468 52.0823C146.589 52.0008 146.711 51.9194 146.835 51.8354Z" fill="#1A1A1A"/>
<path d="M138.76 41.2215C138.881 41.4659 139.002 41.7102 139.127 41.962C138.781 42.3819 138.411 42.7926 138.025 43.1962C137.904 43.4151 137.783 43.634 137.658 43.8596C137.291 44.4304 137.291 44.4304 136.19 44.924C135.826 45.0055 135.463 45.087 135.089 45.1709C135.618 44.1461 136.374 43.369 137.337 42.502C137.603 42.2611 137.869 42.0202 138.143 41.7721C138.448 41.4995 138.448 41.4995 138.76 41.2215Z" fill="#D6D6D5"/>
<path d="M67.5443 19.7468C67.302 19.7468 67.0598 19.7468 66.8101 19.7468C66.3998 20.2696 66.3998 20.2696 66.076 20.981C64.6323 21.317 63.1727 21.5379 61.6709 21.7215C63.1513 20.6017 65.2128 19.2243 67.5443 19.7468Z" fill="#2B2A2A"/>
<path d="M113.797 6.1709C114.579 6.20465 114.579 6.20465 115.472 6.3406C115.768 6.38228 116.064 6.42396 116.369 6.46691C116.61 6.53214 116.852 6.59736 117.101 6.66457C117.468 7.40508 117.468 7.40508 117.468 7.89875C116.871 7.78759 116.275 7.67399 115.679 7.55935C115.347 7.49635 115.014 7.43335 114.672 7.36844C113.797 7.15824 113.797 7.15824 113.063 6.66457C113.306 6.50166 113.548 6.33875 113.797 6.1709Z" fill="#DFDFDF"/>
<path d="M93.9747 67.6329C94.217 67.7958 94.4592 67.9587 94.7089 68.1266C94.6724 69.0338 94.3528 69.3524 93.447 70.0395C92.5063 70.5949 92.5063 70.5949 91.7722 70.8418C92.2908 69.6502 93.0312 68.6903 93.9747 67.6329Z" fill="#201F1F"/>
<path d="M98.0127 62.4494C98.3761 62.4494 98.7395 62.4494 99.1139 62.4494C99.5269 62.8505 99.5269 62.8505 99.8481 63.4367C99.5269 64.2389 99.5269 64.2389 99.1139 64.9177C98.8717 64.9177 98.6294 64.9177 98.3798 64.9177C98.3798 64.5104 98.3798 64.1032 98.3798 63.6835C98.0164 63.6021 97.6529 63.5206 97.2785 63.4367C97.5208 63.1109 97.7631 62.7851 98.0127 62.4494Z" fill="#121111"/>
<path d="M75.2532 10.3671C75.132 10.7744 75.0109 11.1816 74.8861 11.6013C74.1592 11.6827 73.4324 11.7642 72.6835 11.8481C72.5624 11.5223 72.4413 11.1964 72.3165 10.8607C71.7108 10.8607 71.1051 10.8607 70.481 10.8607C70.481 10.7793 70.481 10.6978 70.481 10.6139C72.0996 10.3418 73.5953 10.3482 75.2532 10.3671Z" fill="#E2E1DF"/>
<path d="M75.2531 104.658C75.7377 105.066 76.2223 105.473 76.7215 105.892C76.6004 106.055 76.4792 106.218 76.3544 106.386C74.1739 106.142 74.1739 106.142 71.9493 105.892C72.4339 105.729 72.9185 105.567 73.4177 105.399C73.66 105.236 73.9023 105.073 74.1519 104.905C74.5153 104.987 74.8787 105.068 75.2531 105.152C75.2531 104.989 75.2531 104.826 75.2531 104.658Z" fill="#CDCDCD"/>
<path d="M98.7468 104.658C98.9891 104.984 99.2314 105.31 99.481 105.646C100.329 105.646 101.177 105.646 102.051 105.646C100.906 106.088 99.9667 106.224 98.655 106.294C98.3276 106.312 98.0001 106.33 97.6628 106.349C97.4148 106.362 97.1668 106.374 96.9114 106.386C96.9114 105.892 96.9114 105.892 97.8291 105.244C98.1319 105.051 98.4348 104.858 98.7468 104.658Z" fill="#C2C1C0"/>
<path d="M141.329 89.1076C141.693 89.1891 142.056 89.2705 142.43 89.3544C142.091 89.6856 141.745 90.0143 141.398 90.3418C141.206 90.5251 141.015 90.7083 140.817 90.8972C140.623 91.0397 140.428 91.1823 140.228 91.3291C139.864 91.3291 139.501 91.3291 139.127 91.3291C139.127 90.9218 139.127 90.5146 139.127 90.0949C139.57 89.988 139.57 89.988 140.021 89.879C141.011 89.6673 141.011 89.6673 141.329 89.1076Z" fill="#EDECEB"/>
<path d="M32.6709 18.019C32.9131 18.1004 33.1554 18.1819 33.405 18.2658C33.1855 18.3982 32.9659 18.5305 32.7397 18.6669C31.8748 19.2396 31.8748 19.2396 31.3861 20.0399C30.8354 20.7342 30.8354 20.7342 30.1013 20.9502C29.4904 20.9758 28.8778 20.981 28.2658 20.981C29.7195 20.0035 31.1731 19.0261 32.6709 18.019Z" fill="#272726"/>
<path d="M45.1519 11.8481C46.2532 12.3418 46.2532 12.3418 46.6203 13.0823C45.7484 13.2366 45.7484 13.2366 44.7848 13.3291C44.5426 13.1662 44.3003 13.0033 44.0507 12.8355C43.9295 13.0798 43.8084 13.3242 43.6836 13.576C43.199 13.4131 42.7145 13.2501 42.2152 13.0823C43.6689 12.4714 43.6689 12.4714 45.1519 11.8481Z" fill="#131211"/>
<path d="M110.127 49.1203C110.369 49.1203 110.611 49.1203 110.861 49.1203C110.74 49.4461 110.618 49.7719 110.494 50.1076C110.251 50.1076 110.009 50.1076 109.759 50.1076C109.759 50.2705 109.759 50.4334 109.759 50.6013C110.002 50.6013 110.244 50.6013 110.494 50.6013C110.373 50.8456 110.251 51.09 110.127 51.3418C108.819 51.6349 108.819 51.6349 107.557 51.8354C107.916 51.4289 108.275 51.0227 108.635 50.6167C108.835 50.3905 109.036 50.1642 109.242 49.9311C109.759 49.3671 109.759 49.3671 110.127 49.1203Z" fill="#1B1A1A"/>
<path d="M20.5569 38.7532C20.6781 38.9161 20.7992 39.079 20.924 39.2468C21.1663 39.2468 21.4086 39.2468 21.6582 39.2468C21.7112 39.5116 21.7642 39.7763 21.8188 40.0491C21.9656 40.7073 22.1266 41.3237 22.3924 41.962C20.6465 40.9085 20.6465 40.9085 20.2357 40.0799C20.1899 39.4937 20.1899 39.4937 20.5569 38.7532Z" fill="#E0DFDD"/>
<path d="M28.6329 94.7848C29.4809 94.8663 30.3289 94.9477 31.2026 95.0316C31.3237 95.276 31.4448 95.5204 31.5696 95.7721C31.042 96.3121 31.042 96.3121 30.4684 96.7595C29.5507 96.1887 29.5507 96.1887 28.6329 95.5253C28.6329 95.2809 28.6329 95.0366 28.6329 94.7848Z" fill="#12110F"/>
<path d="M154.177 40.2342C155.261 40.9628 155.31 41.7041 155.646 42.7025C155.282 42.8247 155.282 42.8247 154.911 42.9494C154.911 42.7865 154.911 42.6235 154.911 42.4557C154.427 42.3742 153.942 42.2928 153.443 42.2089C153.322 41.883 153.201 41.5572 153.076 41.2215C153.318 41.1401 153.56 41.0586 153.81 40.9747C153.931 40.7303 154.052 40.4859 154.177 40.2342Z" fill="#EAE9E7"/>
<path d="M128.481 104.411C128.723 104.493 128.966 104.574 129.215 104.658C129.094 105.147 128.973 105.636 128.848 106.139C128.621 106.093 128.394 106.048 128.16 106C127.364 105.834 127.364 105.834 126.646 106.139C126.282 105.976 125.919 105.813 125.544 105.646C126.016 105.432 126.491 105.222 126.967 105.013C127.363 104.837 127.363 104.837 127.767 104.657C128.003 104.576 128.238 104.495 128.481 104.411Z" fill="#DFDDDE"/>
<path d="M141.696 97.2532C141.939 97.4161 142.181 97.579 142.43 97.7468C141.34 98.3985 140.25 99.0501 139.127 99.7215C139.005 99.4771 138.884 99.2328 138.76 98.981C139.577 98.1467 140.306 97.6204 141.696 97.2532Z" fill="#1F1E1D"/>
<path d="M151.608 79.7278C151.729 79.8908 151.85 80.0537 151.975 80.2215C152.217 80.303 152.459 80.3844 152.709 80.4684C152.588 80.8756 152.467 81.2829 152.342 81.7025C151.978 81.7025 151.615 81.7025 151.24 81.7025C150.254 82.3042 150.254 82.3042 149.405 82.9367C150.024 81.8264 150.806 80.7821 151.608 79.7278Z" fill="#222222"/>
<path d="M52.8607 55.538C53.103 55.6194 53.3453 55.7009 53.5949 55.7848C52.8681 56.5179 52.8681 56.5179 52.1266 57.2658C51.907 57.2098 51.6874 57.1538 51.4612 57.0961C51.0637 57.0579 51.0637 57.0579 50.6582 57.019C50.0077 57.3533 50.0077 57.3533 49.5569 57.7595C49.3147 57.678 49.0724 57.5966 48.8228 57.5126C49.2187 57.2748 49.6168 57.0386 50.0158 56.803C50.348 56.6054 50.348 56.6054 50.6869 56.4038C51.3926 56.0315 52.0258 55.7584 52.8607 55.538Z" fill="#E1E1E1"/>
<path d="M152.342 49.8608C153.266 50.7926 153.211 51.2207 153.076 52.3291C152.769 53.0123 152.388 53.6442 151.975 54.3038C151.562 53.8718 151.562 53.8718 151.24 53.3165C151.539 52.8536 151.539 52.8536 151.975 52.3291C152.239 51.4752 152.342 50.737 152.342 49.8608Z" fill="#3D3D3D"/>
<path d="M149.772 33.5696C151.241 33.5696 151.241 33.5696 152.342 33.8164C152.066 35.2357 152.066 35.2357 151.241 35.7911C149.772 34.125 149.772 34.125 149.772 33.5696Z" fill="#121011"/>
<path d="M118.937 13.8228C119.421 13.8228 119.906 13.8228 120.405 13.8228C120.405 13.9857 120.405 14.1486 120.405 14.3165C120.768 14.3979 121.132 14.4794 121.506 14.5633C121.385 14.7262 121.264 14.8891 121.139 15.057C122.229 15.1791 122.229 15.1791 123.342 15.3038C123.221 15.4667 123.099 15.6296 122.975 15.7975C121.497 15.4971 120.188 15.1817 118.937 14.5633C118.937 14.3189 118.937 14.0746 118.937 13.8228Z" fill="#191817"/>
<path d="M142.43 36.7785C142.673 36.9414 142.915 37.1043 143.165 37.2722C142.317 38.0867 141.469 38.9013 140.595 39.7405C140.353 39.4961 140.11 39.2518 139.861 39C140.328 38.4969 140.819 38.0032 141.329 37.519C141.571 37.519 141.814 37.519 142.063 37.519C142.184 37.2746 142.306 37.0303 142.43 36.7785Z" fill="#181818"/>
<path d="M45.8861 103.177C46.322 103.686 46.322 103.686 46.6202 104.165C45.6637 104.394 45.2833 104.448 44.3259 104.18C44.1139 104.093 43.902 104.007 43.6835 103.918C43.6835 103.673 43.6835 103.429 43.6835 103.177C44.7848 102.93 44.7848 102.93 45.8861 103.177Z" fill="#0E0E0E"/>
<path d="M126.646 98.7342C126.888 98.8156 127.13 98.8971 127.38 98.981C127.259 99.2254 127.137 99.4698 127.013 99.7215C126.118 99.9992 126.118 99.9992 125.177 100.215C124.814 100.337 124.814 100.337 124.443 100.462C124.201 100.381 123.958 100.299 123.709 100.215C123.588 100.46 123.467 100.704 123.342 100.956C122.978 100.793 122.615 100.63 122.24 100.462C122.528 100.358 122.815 100.254 123.111 100.147C123.482 100.012 123.854 99.8763 124.237 99.737C124.607 99.6024 124.978 99.4678 125.359 99.3291C126.23 99.0361 126.23 99.0361 126.646 98.7342Z" fill="#1E1D1C"/>
<path d="M19.0886 85.1582C19.452 85.2397 19.8154 85.3211 20.1899 85.4051C20.0687 85.9753 19.9476 86.5454 19.8228 87.1329C18.7215 86.8861 18.7215 86.8861 18.102 86.1301C17.943 85.8909 17.7841 85.6516 17.6202 85.4051C18.1048 85.4865 18.5894 85.568 19.0886 85.6519C19.0886 85.489 19.0886 85.3261 19.0886 85.1582Z" fill="#11100E"/>
<path d="M43.3165 56.7722C43.6836 57.5127 43.6836 57.5127 43.2477 58.1606C42.5823 58.7468 42.5823 58.7468 41.7793 58.9474C41.5597 58.9627 41.3402 58.9779 41.114 58.9937C41.114 58.4235 41.114 57.8533 41.114 57.2658C41.5985 57.3473 42.0831 57.4287 42.5823 57.5127C42.8246 57.2683 43.0669 57.0239 43.3165 56.7722Z" fill="#E4E4E2"/>
<path d="M142.43 55.2911C143.012 55.3546 143.593 55.4223 144.174 55.4917C144.498 55.5289 144.821 55.5661 145.155 55.6045C146.171 55.7982 146.772 56.0677 147.57 56.5253C146.927 56.5387 146.285 56.5483 145.642 56.5562C145.285 56.5619 144.927 56.5676 144.558 56.5735C143.524 56.525 142.941 56.3885 142.063 56.0316C142.184 55.7873 142.306 55.5429 142.43 55.2911Z" fill="#303030"/>
<path d="M21.6582 41.4684C22.564 42.1833 23.0541 42.7393 23.1266 43.6899C22.5989 44.1373 22.5989 44.1373 22.0253 44.4304C21.5874 43.4734 21.2911 42.7232 21.2911 41.7152C21.4123 41.6337 21.5334 41.5523 21.6582 41.4684Z" fill="#161513"/>
<path d="M20.9241 23.943C21.9834 24.0413 22.327 24.1381 23.0348 24.699C23.1863 24.8568 23.3377 25.0146 23.4937 25.1772C23.0091 25.503 22.5246 25.8289 22.0253 26.1646C22.0253 26.0016 22.0253 25.8387 22.0253 25.6709C21.6619 25.7523 21.2985 25.8338 20.9241 25.9177C20.9241 25.2595 20.9241 24.6013 20.9241 23.943Z" fill="#ECECEC"/>
<path d="M50.6582 104.658C51.3924 104.905 51.3924 104.905 51.8054 105.661C51.9114 105.9 52.0174 106.14 52.1266 106.386C51.7632 106.468 51.3998 106.549 51.0253 106.633C50.6619 106.47 50.2985 106.307 49.9241 106.139C49.9241 105.728 49.9241 105.316 49.9241 104.905C50.1664 104.824 50.4086 104.742 50.6582 104.658Z" fill="#11100E"/>
<path d="M77.8228 90.5886C78.1862 90.5886 78.5496 90.5886 78.9241 90.5886C78.6818 91.3217 78.4395 92.0548 78.1899 92.8101C77.7053 92.7287 77.2208 92.6472 76.7215 92.5633C76.4921 92.1005 76.4921 92.1005 76.3544 91.5759C76.5967 91.413 76.839 91.2501 77.0886 91.0823C77.3309 91.2452 77.5732 91.4081 77.8228 91.5759C77.8228 91.2501 77.8228 90.9243 77.8228 90.5886Z" fill="#E7E6E4"/>
<path d="M29.7342 86.8861C29.8553 87.049 29.9764 87.2119 30.1012 87.3797C30.2224 87.2168 30.3435 87.0539 30.4683 86.8861C30.8317 86.9675 31.1952 87.049 31.5696 87.1329C31.6907 87.5402 31.8119 87.9475 31.9367 88.3671C31.4521 88.3671 30.9676 88.3671 30.4683 88.3671C29.8259 87.75 29.8259 87.75 29.3671 87.1329C29.4882 87.0515 29.6093 86.97 29.7342 86.8861Z" fill="#EEEEEE"/>
<path d="M139.494 53.5633C139.736 53.5633 139.978 53.5633 140.228 53.5633C140.781 53.9953 140.781 53.9953 141.375 54.5506C141.573 54.7339 141.771 54.9172 141.974 55.106C142.125 55.2486 142.275 55.3911 142.43 55.538C140.962 55.538 140.962 55.538 140.136 55.106C139.494 54.5506 139.494 54.5506 139.494 53.5633Z" fill="#1D1D1D"/>
<path d="M159.684 34.8038C160.474 35.451 160.932 35.9501 161.152 36.7785C159.408 36.8093 159.408 36.8093 158.582 36.5317C158.858 35.3592 158.858 35.3592 159.684 34.8038Z" fill="#181716"/>
<path d="M18.3544 29.8671C18.839 29.9486 19.3235 30.03 19.8228 30.1139C19.5933 30.7002 19.5933 30.7002 19.0886 31.3481C17.9414 31.6721 17.9414 31.6721 16.886 31.8418C17.2988 31.1082 17.7021 30.5251 18.3544 29.8671Z" fill="#141312"/>
<path d="M33.0379 23.6962C33.6436 23.9406 34.2493 24.1849 34.8734 24.4367C34.2677 24.844 33.662 25.2513 33.0379 25.6709C32.625 25.1001 32.625 25.1001 32.3038 24.4367C32.5461 24.1923 32.7883 23.948 33.0379 23.6962Z" fill="#0C0B09"/>
<path d="M97.6456 4.44303C99.7706 4.39199 101.474 4.54383 103.519 4.9367C103.156 5.30325 103.156 5.30325 102.785 5.6772C101.698 5.52595 101.177 5.36774 100.215 4.9367C99.3621 4.83947 98.5053 4.75531 97.6456 4.68986C97.6456 4.60841 97.6456 4.52695 97.6456 4.44303ZM100.949 5.43037C101.071 5.59328 101.192 5.75619 101.316 5.92404C100.953 5.84258 100.59 5.76113 100.215 5.6772C100.457 5.59575 100.7 5.51429 100.949 5.43037Z" fill="#424240"/>
<path d="M106.089 53.3165C106.331 53.5608 106.573 53.8052 106.823 54.057C107.186 53.894 107.55 53.7311 107.924 53.5633C108.045 54.052 108.166 54.5408 108.291 55.0443C107.928 55.1258 107.564 55.2072 107.19 55.2911C106.948 55.0468 106.705 54.8024 106.456 54.5506C106.092 54.5506 105.729 54.5506 105.354 54.5506C105.597 54.1434 105.839 53.7361 106.089 53.3165Z" fill="#100F0D"/>
<path d="M52.1266 100.709C53.1967 100.974 53.8806 101.148 54.6962 101.696C52.6313 102.437 52.6313 102.437 51.3924 102.437C51.3924 102.274 51.3924 102.111 51.3924 101.943C51.6347 101.943 51.877 101.943 52.1266 101.943C52.1266 101.536 52.1266 101.128 52.1266 100.709Z" fill="#1A1918"/>
<path d="M15.7848 65.9051C16.1482 65.9051 16.5116 65.9051 16.8861 65.9051C16.8861 66.3938 16.8861 66.8825 16.8861 67.3861C17.1283 67.3861 17.3706 67.3861 17.6202 67.3861C17.378 68.0377 17.1357 68.6894 16.8861 69.3608C16.7649 69.3608 16.6438 69.3608 16.519 69.3608C16.4353 68.8546 16.3517 68.3483 16.268 67.8421C16.2184 67.3833 16.2184 67.3833 15.7848 67.1392C15.7699 66.728 15.7691 66.3163 15.7848 65.9051Z" fill="#D4D3D1"/>
<path d="M167.76 57.2658C168.668 57.388 168.668 57.388 169.595 57.5127C169.595 58.0828 169.595 58.653 169.595 59.2405C169.232 59.0776 168.868 58.9147 168.494 58.7468C168.251 58.9097 168.009 59.0727 167.76 59.2405C167.76 58.5889 167.76 57.9372 167.76 57.2658Z" fill="#EEEDEB"/>
<path d="M86.6329 43.9367C86.7541 44.0996 86.8752 44.2625 87 44.4304C87.2423 44.4304 87.4846 44.4304 87.7342 44.4304C87.613 45.082 87.4919 45.7337 87.3671 46.4051C87.246 46.0792 87.1248 45.7534 87 45.4177C86.6366 45.4992 86.2732 45.5806 85.8987 45.6646C85.8987 45.3387 85.8987 45.0129 85.8987 44.6772C86.141 44.6772 86.3833 44.6772 86.6329 44.6772C86.6329 44.4328 86.6329 44.1885 86.6329 43.9367Z" fill="#E8E8E8"/>
<path d="M41.481 20.2405C41.8445 20.322 42.2079 20.4034 42.5823 20.4873C42.2152 20.7342 41.8481 20.981 41.481 21.2279C41.2539 21.4009 41.0268 21.574 40.7928 21.7524C39.908 22.2773 39.3341 22.3756 38.1772 22.462C39.2785 21.7215 40.3798 20.981 41.481 20.2405Z" fill="#D8D7D6"/>
<path d="M110.861 108.854C111.572 108.947 111.572 108.947 112.329 109.101C112.45 109.264 112.571 109.427 112.696 109.595C110.879 109.961 110.879 109.961 109.025 110.335C108.904 110.173 108.783 110.01 108.658 109.842C109.264 109.76 109.87 109.679 110.494 109.595C110.615 109.351 110.736 109.106 110.861 108.854Z" fill="#12110F"/>
<path d="M131.785 95.2785C131.906 95.4414 132.027 95.6043 132.152 95.7721C132.394 95.8536 132.636 95.9351 132.886 96.019C132.038 96.4263 131.19 96.8335 130.316 97.2532C130.074 97.1717 129.832 97.0902 129.582 97.0063C129.703 96.8434 129.825 96.6805 129.949 96.5127C130.071 96.2683 130.192 96.0239 130.316 95.7721C130.801 95.7721 131.286 95.7721 131.785 95.7721C131.785 95.6092 131.785 95.4463 131.785 95.2785Z" fill="#E4E3E1"/>
<path d="M26.7974 92.8101C27.6922 92.9952 27.6922 92.9952 28.6329 93.3038C28.9312 93.8283 28.9312 93.8283 29 94.2911C28.2731 94.5355 28.2731 94.5355 27.5316 94.7848C27.5316 94.3734 27.5316 93.962 27.5316 93.5506C27.1682 93.4692 26.8048 93.3877 26.4304 93.3038C26.5515 93.1409 26.6726 92.978 26.7974 92.8101Z" fill="#141414"/>
<path d="M147.203 49.1203C147.687 49.1203 148.172 49.1203 148.671 49.1203C148.792 49.6904 148.913 50.2606 149.038 50.8481C148.553 50.8481 148.069 50.8481 147.57 50.8481C147.448 50.2779 147.327 49.7077 147.203 49.1203Z" fill="#0D0D0D"/>
<path d="M127.747 97.0063C127.989 97.0878 128.231 97.1692 128.481 97.2532C128.481 97.579 128.481 97.9048 128.481 98.2405C127.875 98.4034 127.27 98.5663 126.646 98.7342C126.577 98.1479 126.577 98.1479 126.646 97.5C127.009 97.3371 127.372 97.1742 127.747 97.0063Z" fill="#E7E7E7"/>
<path d="M139.861 91.3291C140.228 92.0696 140.228 92.0696 139.861 92.8101C139.371 92.8924 138.882 92.9747 138.392 93.057C137.766 93.3731 137.151 93.7005 136.557 94.0443C137.074 93.2507 137.696 92.7307 138.622 92.1313C138.854 91.9799 139.086 91.8284 139.325 91.6724C139.59 91.5025 139.59 91.5025 139.861 91.3291Z" fill="#11100E"/>
<path d="M26.4304 69.3607C26.6726 69.3607 26.9149 69.3607 27.1645 69.3607C27.4204 69.6783 27.672 69.9974 27.9217 70.3172C28.1325 70.5836 28.1325 70.5836 28.3475 70.8553C28.4417 71.0137 28.5359 71.1722 28.6329 71.3354C28.5118 71.4983 28.3906 71.6613 28.2658 71.8291C27.9024 71.7476 27.539 71.6662 27.1645 71.5823C26.8964 71.0722 26.8964 71.0722 26.7286 70.4561C26.6704 70.2521 26.6122 70.0482 26.5522 69.838C26.4919 69.6018 26.4919 69.6018 26.4304 69.3607Z" fill="#171616"/>
<path d="M57.7706 14.0233C57.9674 14.1201 58.1643 14.2168 58.3671 14.3165C58.1248 14.3165 57.8826 14.3165 57.6329 14.3165C57.6329 14.4794 57.6329 14.6423 57.6329 14.8101C56.784 14.9644 56.784 14.9644 55.7975 15.057C55.4341 14.8941 55.0707 14.7311 54.6962 14.5633C56.6842 13.7734 56.6842 13.7734 57.7706 14.0233Z" fill="#DEDDDB"/>
<path d="M56.5317 7.89874C56.7739 7.9802 57.0162 8.06165 57.2658 8.14558C57.2658 8.38995 57.2658 8.63431 57.2658 8.88608C56.6464 9.16377 56.6464 9.16377 55.7975 9.37976C54.788 9.16377 54.788 9.16377 53.962 8.88608C54.8378 8.41904 55.4567 8.13967 56.5317 7.89874Z" fill="#1D1C1B"/>
<path d="M57.2658 108.608C58.2349 108.771 59.2041 108.933 60.2025 109.101C59.8391 109.468 59.8391 109.468 59.4684 109.842C58.6204 109.679 57.7724 109.516 56.8987 109.348C57.0199 109.104 57.141 108.859 57.2658 108.608Z" fill="#F2F2F1"/>
<path d="M30.8355 61.462C31.5623 61.7064 32.2891 61.9508 33.038 62.2025C33.038 62.3655 33.038 62.5284 33.038 62.6962C32.6746 62.7777 32.3112 62.8591 31.9367 62.943C31.9367 62.7801 31.9367 62.6172 31.9367 62.4494C31.331 62.4494 30.7253 62.4494 30.1013 62.4494C29.9801 62.2865 29.859 62.1236 29.7342 61.9557C30.0976 61.7928 30.461 61.6299 30.8355 61.462Z" fill="#141414"/>
<path d="M104.987 53.3165C105.23 53.5608 105.472 53.8052 105.722 54.057C105.176 54.6679 105.176 54.6679 104.62 55.2911C104.257 55.2097 103.893 55.1282 103.519 55.0443C103.64 54.7185 103.761 54.3927 103.886 54.057C104.128 54.057 104.371 54.057 104.62 54.057C104.741 53.8126 104.863 53.5682 104.987 53.3165Z" fill="#E9E9E9"/>
<path d="M26.0633 22.7089C26.1844 22.9532 26.3055 23.1976 26.4304 23.4494C26.3092 23.6123 26.1881 23.7752 26.0633 23.943C26.1844 24.1874 26.3055 24.4318 26.4304 24.6835C26.0669 24.8465 25.7035 25.0094 25.3291 25.1772C25.4502 24.8514 25.5714 24.5256 25.6962 24.1899C25.4539 24.1899 25.2116 24.1899 24.962 24.1899C24.8409 24.3528 24.7197 24.5157 24.5949 24.6835C24.5949 23.7188 25.1476 23.4208 26.0633 22.7089Z" fill="#1D1C1B"/>
<path d="M58.3671 12.3418C59.4196 12.4833 59.7846 12.5544 60.5696 13.0823C59.5029 13.3925 58.8091 13.5759 57.6329 13.5759C57.8752 13.1687 58.1175 12.7614 58.3671 12.3418Z" fill="#191918"/>
<path d="M151.241 90.8354C151.362 90.9984 151.483 91.1613 151.608 91.3291C151.103 92.2335 150.82 92.7021 149.52 93.1495C149.24 93.2004 148.96 93.2514 148.671 93.3038C149.283 92.3309 150.223 91.628 151.241 90.8354Z" fill="#D8D6D7"/>
<path d="M162.987 74.2975C163.23 74.3789 163.472 74.4604 163.722 74.5443C163.479 75.2774 163.237 76.0105 162.987 76.7658C162.624 76.6029 162.261 76.44 161.886 76.2721C162.25 75.6205 162.613 74.9688 162.987 74.2975Z" fill="#100E0E"/>
<path d="M116.367 67.8797C116.731 67.9612 117.094 68.0427 117.468 68.1266C117.264 68.9519 116.972 69.6158 116.367 70.3481C115.954 69.947 115.954 69.947 115.633 69.3608C115.954 68.5585 115.954 68.5585 116.367 67.8797Z" fill="#EFEEEC"/>
<path d="M120.405 61.7089C120.911 62.4818 120.736 62.7672 120.313 63.591C119.671 64.4241 119.671 64.4241 118.57 64.9177C118.736 64.5677 118.905 64.2181 119.074 63.8687C119.215 63.5766 119.215 63.5766 119.358 63.2786C119.653 62.7292 120 62.2249 120.405 61.7089Z" fill="#D6D6D5"/>
<path d="M137.658 41.4684C137.75 42.0237 137.75 42.0237 137.658 42.7025C136.924 43.2733 136.924 43.2733 136.19 43.6899C135.665 42.9835 135.97 42.472 136.19 41.7152C137.291 41.4684 137.291 41.4684 137.658 41.4684Z" fill="#131211"/>
<path d="M158.949 33.3228C159.313 33.3228 159.676 33.3228 160.051 33.3228C160.819 34.1625 160.851 34.8168 160.785 35.7911C159.814 35.0197 159.374 34.2884 158.949 33.3228Z" fill="#E7E7E7"/>
<path d="M150.139 23.6962C150.866 23.8591 151.593 24.022 152.342 24.1899C152.099 24.5971 151.857 25.0044 151.608 25.424C151.002 25.0168 150.396 24.6095 149.772 24.1899C149.893 24.027 150.014 23.864 150.139 23.6962Z" fill="#EBEAE8"/>
<path d="M39.6456 20.2405C40.4256 20.4719 40.4256 20.4719 41.1139 20.7342C40.5082 21.06 39.9025 21.3858 39.2785 21.7215C39.0362 21.5586 38.7939 21.3957 38.5443 21.2279C38.6655 20.9835 38.7866 20.7391 38.9114 20.4873C39.1537 20.4059 39.396 20.3244 39.6456 20.2405Z" fill="#121110"/>
<path d="M109.025 108.854C109.389 109.017 109.752 109.18 110.127 109.348C109.884 109.348 109.642 109.348 109.392 109.348C109.271 109.674 109.15 110 109.025 110.335C108.42 110.417 107.814 110.498 107.19 110.582C107.305 110.104 107.305 110.104 107.557 109.595C107.92 109.513 108.284 109.432 108.658 109.348C108.779 109.185 108.901 109.022 109.025 108.854Z" fill="#0B0A09"/>
<path d="M117.835 108.608C117.601 108.679 117.366 108.75 117.124 108.824C116.311 109.059 116.311 109.059 116 109.595C114.91 109.595 113.82 109.595 112.696 109.595C113.582 109.198 114.29 108.94 115.266 108.685C115.641 108.584 115.641 108.584 116.023 108.481C116.734 108.361 116.734 108.361 117.835 108.608Z" fill="#D4D3D1"/>
<path d="M45.886 105.152C47.9968 105.337 47.9968 105.337 48.8228 105.892C48.4593 105.974 48.0959 106.055 47.7215 106.139C47.4792 106.302 47.2369 106.465 46.9873 106.633C46.8662 106.307 46.745 105.981 46.6202 105.646C46.3779 105.646 46.1357 105.646 45.886 105.646C45.886 105.483 45.886 105.32 45.886 105.152Z" fill="#EFEEED"/>
<path d="M133.62 100.709C134.105 100.872 134.589 101.035 135.089 101.203C134.846 101.528 134.604 101.854 134.354 102.19C133.749 101.864 133.143 101.538 132.519 101.203C132.882 101.04 133.246 100.877 133.62 100.709Z" fill="#100F0D"/>
<path d="M103.519 94.7848C104.008 95.443 104.498 96.1013 104.987 96.7595C104.76 96.7951 104.533 96.8308 104.299 96.8675C103.507 96.9894 103.507 96.9894 102.785 97.2532C103.027 96.4386 103.269 95.624 103.519 94.7848Z" fill="#C6C5C3"/>
<path d="M134.354 94.7848C134.597 94.9477 134.839 95.1106 135.089 95.2785C134.951 95.803 134.951 95.803 134.722 96.2658C134.237 96.2658 133.752 96.2658 133.253 96.2658C133.253 95.5253 133.253 95.5253 133.804 95.1088C134.076 94.9484 134.076 94.9484 134.354 94.7848Z" fill="#141312"/>
<path d="M20.5569 88.6139C22.6677 89.0767 22.6677 89.0767 23.4937 89.3544C23.3725 89.6803 23.2514 90.0061 23.1266 90.3418C23.1266 90.1789 23.1266 90.0159 23.1266 89.8481C22.7631 89.9296 22.3997 90.011 22.0253 90.0949C21.5407 89.6062 21.0562 89.1175 20.5569 88.6139Z" fill="#171717"/>
<path d="M41.8481 72.5696C42.2152 73.3101 42.2152 73.3101 41.9298 73.7604C41.5355 74.1863 41.1411 74.6121 40.7468 75.038C40.5045 75.038 40.2623 75.038 40.0126 75.038C40.3816 74.0101 40.6632 73.2971 41.8481 72.5696Z" fill="#212120"/>
<path d="M27.5317 72.3228C28.3223 72.97 28.78 73.4691 29 74.2975C28.2732 74.1346 27.5463 73.9716 26.7975 73.8038C27.0398 73.3151 27.282 72.8263 27.5317 72.3228Z" fill="#D9D9D9"/>
<path d="M6.60757 60.9684C6.72871 60.9684 6.84985 60.9684 6.97466 60.9684C6.97466 62.2716 6.97466 63.5749 6.97466 64.9177C6.85352 64.9177 6.73238 64.9177 6.60757 64.9177C5.86901 63.3727 5.86901 62.5134 6.60757 60.9684Z" fill="#C9C8C6"/>
<path d="M59.1013 56.7722C59.8125 56.8493 59.8125 56.8493 60.5696 57.019C60.6908 57.2634 60.8119 57.5077 60.9367 57.7595C60.4522 58.0039 59.9676 58.2482 59.4684 58.5C59.2261 58.4185 58.9838 58.3371 58.7342 58.2532C58.8553 57.7644 58.9765 57.2757 59.1013 56.7722Z" fill="#EAEAE8"/>
<path d="M58.7342 55.2911C59.461 55.2911 60.1878 55.2911 60.9367 55.2911C60.5733 55.7799 60.2099 56.2686 59.8354 56.7722C59.2297 56.4463 58.6241 56.1205 58 55.7848C58.2423 55.7848 58.4846 55.7848 58.7342 55.7848C58.7342 55.6219 58.7342 55.459 58.7342 55.2911Z" fill="#1C1B1A"/>
<path d="M149.038 54.057C149.28 54.3013 149.523 54.5457 149.772 54.7975C148.396 55.538 148.396 55.538 147.57 55.538C147.57 55.1307 147.57 54.7234 147.57 54.3038C148.054 54.2223 148.539 54.1409 149.038 54.057Z" fill="#DADADA"/>
<path d="M62.4051 45.4177C62.7685 45.4177 63.1319 45.4177 63.5063 45.4177C63.5063 45.825 63.5063 46.2323 63.5063 46.6519C63.2641 46.6519 63.0218 46.6519 62.7722 46.6519C62.651 46.8148 62.5299 46.9777 62.4051 47.1456C62.1628 46.8197 61.9205 46.4939 61.6709 46.1582C61.9132 45.9139 62.1555 45.6695 62.4051 45.4177Z" fill="#0E0D0C"/>
<path d="M25.3291 44.924C26.0633 45.4177 26.0633 45.4177 26.1092 46.0657C26.094 46.2591 26.0789 46.4526 26.0633 46.6519C25.6999 46.5704 25.3365 46.489 24.962 46.4051C24.7197 46.6494 24.4775 46.8938 24.2278 47.1456C24.4106 46.2237 24.549 45.7109 25.3291 44.924Z" fill="#F5F5F5"/>
<path d="M161.519 37.2722C162.246 37.5165 162.246 37.5165 162.987 37.7658C163.322 38.7184 163.45 39.3002 162.987 40.2342C162.503 39.2567 162.018 38.2792 161.519 37.2722Z" fill="#D9D8D6"/>
<path d="M154.177 25.9177C154.419 25.9992 154.662 26.0806 154.911 26.1646C154.911 26.4089 154.911 26.6533 154.911 26.9051C154.177 27.3216 154.177 27.3216 153.443 27.6456C153.201 27.2383 152.958 26.831 152.709 26.4114C153.397 26.1491 153.397 26.1491 154.177 25.9177Z" fill="#EAEAEA"/>
<path d="M128.481 15.7975C128.723 15.8789 128.966 15.9604 129.215 16.0443C128.852 16.1257 128.488 16.2072 128.114 16.2911C127.857 16.6161 127.612 16.9453 127.38 17.2785C127.016 17.4007 127.016 17.4007 126.646 17.5253C126.282 17.2809 125.919 17.0366 125.544 16.7848C125.908 16.7033 126.271 16.6219 126.646 16.538C126.888 16.6194 127.13 16.7009 127.38 16.7848C127.501 16.5404 127.622 16.2961 127.747 16.0443C127.989 15.9628 128.231 15.8814 128.481 15.7975Z" fill="#161513"/>
<path d="M140.595 98.4873C140.837 98.5688 141.079 98.6502 141.329 98.7342C140.181 99.572 139.286 100.118 137.658 100.462C138.637 99.8038 139.616 99.1456 140.595 98.4873Z" fill="#DBDBDB"/>
<path d="M132.886 96.019C132.886 96.1819 132.886 96.3448 132.886 96.5127C132.644 96.5127 132.402 96.5127 132.152 96.5127C132.031 96.757 131.91 97.0014 131.785 97.2532C131.421 97.3346 131.058 97.4161 130.684 97.5C130.441 97.6629 130.199 97.8258 129.949 97.9937C129.707 97.8308 129.465 97.6678 129.215 97.5C129.688 97.2517 130.162 97.0052 130.638 96.7595C130.902 96.622 131.166 96.4846 131.438 96.343C132.152 96.019 132.152 96.019 132.886 96.019Z" fill="#242322"/>
<path d="M42.9494 95.0316C43.3128 95.1131 43.6762 95.1946 44.0506 95.2785C43.9295 95.5228 43.8084 95.7672 43.6835 96.019C43.4413 96.019 43.199 96.019 42.9494 96.019C42.8282 96.1819 42.7071 96.3448 42.5823 96.5127C42.2189 96.2683 41.8554 96.0239 41.481 95.7722C42.1464 95.3865 42.1464 95.3865 42.9494 95.0316Z" fill="#E2E2E2"/>
<path d="M80.7595 73.557C80.8806 73.557 81.0017 73.557 81.1266 73.557C81.1266 73.9643 81.1266 74.3715 81.1266 74.7912C80.907 74.8573 80.6874 74.9235 80.4612 74.9917C79.6684 75.2811 79.1597 75.5795 78.5569 76.0253C78.3147 75.8624 78.0724 75.6995 77.8228 75.5317C78.004 75.4305 78.1852 75.3293 78.372 75.225C78.6071 75.092 78.8423 74.959 79.0846 74.822C79.3189 74.6903 79.5531 74.5585 79.7944 74.4228C80.432 74.0698 80.432 74.0698 80.7595 73.557Z" fill="#D4D3D2"/>
<path d="M95.8101 65.1646C96.3608 65.5039 96.3608 65.5039 96.9114 65.9051C96.9114 66.068 96.9114 66.2309 96.9114 66.3987C96.1846 66.6431 95.4577 66.8875 94.7089 67.1392C95.3972 65.7199 95.3972 65.7199 95.8101 65.1646Z" fill="#1B191A"/>
<path d="M46.2531 60.9684C46.7349 61.9401 46.3423 62.4802 45.8861 63.4367C45.7649 63.2738 45.6438 63.1109 45.519 62.943C45.2767 62.943 45.0344 62.943 44.7848 62.943C45.0048 62.1147 45.4625 61.6156 46.2531 60.9684Z" fill="#151412"/>
<path d="M99.8481 60.2278C100.212 60.4722 100.575 60.7166 100.949 60.9684C100.101 61.4571 99.2534 61.9458 98.3798 62.4494C98.8199 61.6883 99.289 60.9529 99.8481 60.2278Z" fill="#212120"/>
<path d="M82.2279 58.2532C82.5913 58.4975 82.9547 58.7419 83.3291 58.9937C82.7234 59.4824 82.1177 59.9711 81.4937 60.4747C81.2514 60.3932 81.0091 60.3118 80.7595 60.2278C81.2441 59.5762 81.7286 58.9246 82.2279 58.2532Z" fill="#222121"/>
<path d="M48.4557 56.2785C48.698 56.4414 48.9403 56.6043 49.1899 56.7722C49.0472 57.5159 48.7257 57.8575 48.0886 58.5C47.7252 58.4186 47.3618 58.3371 46.9874 58.2532C47.1085 58.0088 47.2296 57.7644 47.3545 57.5127C47.5967 57.5127 47.839 57.5127 48.0886 57.5127C48.2098 57.1054 48.3309 56.6981 48.4557 56.2785Z" fill="#0E0E0E"/>
<path d="M91.038 40.2342C91.2803 40.3156 91.5225 40.3971 91.7722 40.481C91.651 40.8068 91.5299 41.1327 91.4051 41.4684C90.7994 41.4684 90.1937 41.4684 89.5696 41.4684C89.5696 41.6313 89.5696 41.7942 89.5696 41.962C89.3273 41.8806 89.0851 41.7991 88.8354 41.7152C89.5696 41.2215 90.3038 40.7278 91.038 40.2342Z" fill="#302F2E"/>
<path d="M147.203 31.5949C147.929 31.5949 148.656 31.5949 149.405 31.5949C149.526 32.0837 149.647 32.5724 149.772 33.076C149.409 33.1981 149.409 33.1981 149.038 33.3228C148.796 32.8341 148.553 32.3453 148.304 31.8418C148.062 31.8418 147.819 31.8418 147.57 31.8418C147.448 32.0047 147.327 32.1676 147.203 32.3354C147.203 32.0911 147.203 31.8467 147.203 31.5949Z" fill="#232122"/>
<path d="M36.3418 23.943C36.8263 24.106 37.3109 24.2689 37.8101 24.4367C37.4467 24.5589 37.4467 24.5589 37.076 24.6835C36.6541 25.1588 36.6541 25.1588 36.7089 25.6709C36.3455 25.5894 35.982 25.508 35.6076 25.4241C35.9288 24.2207 35.9288 24.2207 36.3418 23.943Z" fill="#F2F2F2"/>
<path d="M26.4304 21.4747C26.5515 21.8005 26.6726 22.1263 26.7974 22.462C26.1917 22.7879 25.586 23.1137 24.962 23.4494C24.8409 23.205 24.7197 22.9606 24.5949 22.7089C24.8372 22.7089 25.0795 22.7089 25.3291 22.7089C25.4994 22.4721 25.4994 22.4721 25.6732 22.2306C26.0633 21.7215 26.0633 21.7215 26.4304 21.4747Z" fill="#EBEBEB"/>
<path d="M37.4431 92.8101C37.5642 92.973 37.6853 93.1359 37.8101 93.3038C38.5366 93.4832 39.271 93.6489 40.0127 93.7975C39.8915 94.1233 39.7704 94.4491 39.6456 94.7848C37.9249 93.8929 37.9249 93.8929 37.4431 93.5506C37.4431 93.3063 37.4431 93.0619 37.4431 92.8101Z" fill="#DCDCDC"/>
<path d="M24.2278 82.1962C24.9849 82.767 24.9849 82.767 25.6962 83.4304C25.575 83.6747 25.4539 83.9191 25.3291 84.1709C25.0868 84.1709 24.8445 84.1709 24.5949 84.1709C24.2278 83.6772 23.8607 83.1835 23.4937 82.6899C23.7359 82.6899 23.9782 82.6899 24.2278 82.6899C24.2278 82.527 24.2278 82.364 24.2278 82.1962Z" fill="#212121"/>
<path d="M85.1645 65.1646C85.8987 65.6582 85.8987 65.6582 85.9446 66.4296C85.9295 66.6638 85.9143 66.898 85.8987 67.1392C85.4142 67.0578 84.9296 66.9763 84.4304 66.8924C84.6726 66.3222 84.9149 65.752 85.1645 65.1646Z" fill="#CDCCCA"/>
<path d="M27.5317 54.7975C27.7739 55.0418 28.0162 55.2862 28.2658 55.538C27.9446 56.3247 27.9446 56.3247 27.5317 57.019C26.7975 56.2785 26.7975 56.2785 26.7975 55.2911C27.0398 55.2911 27.282 55.2911 27.5317 55.2911C27.5317 55.1282 27.5317 54.9653 27.5317 54.7975Z" fill="#EBEAE8"/>
<path d="M84.4303 53.3165C84.6726 53.5608 84.9149 53.8052 85.1645 54.057C84.8892 54.8283 84.8892 54.8283 84.4303 55.538C84.0669 55.6602 84.0669 55.6602 83.6962 55.7848C84.0174 53.8718 84.0174 53.8718 84.4303 53.3165Z" fill="#353432"/>
<path d="M109.025 48.3797C109.631 48.3797 110.237 48.3797 110.861 48.3797C110.376 48.9499 109.892 49.5201 109.392 50.1076C109.15 50.1076 108.908 50.1076 108.658 50.1076C108.779 49.5374 108.9 48.9672 109.025 48.3797Z" fill="#EBEBEB"/>
<path d="M105.354 31.8418C106.445 32.0861 107.535 32.3305 108.658 32.5823C107.557 33.0759 107.557 33.0759 106.57 32.9834C106.29 32.9325 106.01 32.8816 105.722 32.8291C105.6 32.5033 105.479 32.1775 105.354 31.8418Z" fill="#E5E5E5"/>
<path d="M148.304 22.9557C150.093 24.1282 150.093 24.1282 150.506 24.6835C149.306 24.5444 148.735 24.3134 147.937 23.6962C148.058 23.4518 148.179 23.2075 148.304 22.9557Z" fill="#1C1B1A"/>
<path d="M40.3797 21.4747C40.7431 21.5561 41.1066 21.6376 41.481 21.7215C41.2387 22.0473 40.9964 22.3732 40.7468 22.7089C40.1411 22.7089 39.5354 22.7089 38.9114 22.7089C38.9114 22.546 38.9114 22.383 38.9114 22.2152C39.2748 22.2152 39.6382 22.2152 40.0126 22.2152C40.1338 21.9708 40.2549 21.7265 40.3797 21.4747Z" fill="#F6F5F3"/>
<path d="M36.3418 93.7975C37.1907 93.7358 37.1907 93.7358 38.1772 93.7975C38.8426 94.2911 38.8426 94.2911 39.2785 94.7848C38.3005 94.7848 37.6183 94.7622 36.7089 94.538C36.5877 94.2936 36.4666 94.0492 36.3418 93.7975Z" fill="#0E0E0D"/>
<path d="M151.24 89.6013C151.604 89.7642 151.967 89.9271 152.342 90.0949C151.857 90.4208 151.373 90.7466 150.873 91.0823C150.631 90.7564 150.389 90.4306 150.139 90.0949C150.503 89.932 150.866 89.7691 151.24 89.6013Z" fill="#151312"/>
<path d="M146.835 85.4051C146.957 85.568 147.078 85.7309 147.203 85.8987C146.767 86.6547 146.767 86.6547 146.101 87.3797C145.617 87.4612 145.132 87.5427 144.633 87.6266C145.36 86.8935 146.087 86.1604 146.835 85.4051Z" fill="#292928"/>
<path d="M45.519 63.4367C45.6401 63.4367 45.7612 63.4367 45.8861 63.4367C45.8861 64.3327 45.8861 65.2287 45.8861 66.1519C45.5226 66.1519 45.1592 66.1519 44.7848 66.1519C45.0271 65.2559 45.2693 64.3599 45.519 63.4367Z" fill="#DEDDDB"/>
<path d="M25.3291 63.9304C25.5714 64.0118 25.8137 64.0933 26.0633 64.1772C25.9422 64.4216 25.821 64.666 25.6962 64.9177C25.5669 65.4106 25.4435 65.9042 25.3291 66.3987C24.5949 65.6582 24.5949 65.6582 24.7097 64.8869C24.962 64.1772 24.962 64.1772 25.3291 63.9304Z" fill="#0D0C0A"/>
<path d="M48.0886 59.7342C48.4557 60.4747 48.4557 60.4747 48.0886 61.2152C47.604 61.2152 47.1195 61.2152 46.6202 61.2152C46.7414 60.8079 46.8625 60.4006 46.9873 59.981C47.3507 59.8996 47.7142 59.8181 48.0886 59.7342Z" fill="#EBEBEB"/>
<path d="M41.8481 58.7468C42.0904 58.8283 42.3327 58.9098 42.5823 58.9937C41.8555 59.7268 41.8555 59.7268 41.1139 60.4747C40.8717 60.3932 40.6294 60.3118 40.3798 60.2279C40.4945 59.765 40.4945 59.765 40.7468 59.2405C41.1103 59.0776 41.4737 58.9147 41.8481 58.7468Z" fill="#ECECEA"/>
<path d="M26.4304 57.019C26.7938 57.019 27.1572 57.019 27.5316 57.019C27.7739 57.5892 28.0162 58.1594 28.2658 58.7468C28.0235 58.9097 27.7812 59.0727 27.5316 59.2405C27.1682 58.5074 26.8048 57.7743 26.4304 57.019Z" fill="#171614"/>
<path d="M24.595 48.3797C24.7161 48.3797 24.8372 48.3797 24.962 48.3797C25.0832 49.1128 25.2043 49.8459 25.3291 50.6013C24.9657 50.6013 24.6023 50.6013 24.2279 50.6013C24.1067 50.2754 23.9856 49.9496 23.8608 49.6139C23.9819 49.6139 24.1031 49.6139 24.2279 49.6139C24.349 49.2066 24.4701 48.7994 24.595 48.3797Z" fill="#3E3E3E"/>
<path d="M95.0759 40.7278C95.4393 40.7278 95.8028 40.7278 96.1772 40.7278C96.7672 41.5213 96.5654 42.3165 96.5443 43.1962C95.504 42.4055 95.2519 41.7693 95.0759 40.7278Z" fill="#1F1F1F"/>
<path d="M15.0507 33.0759C15.2929 33.1574 15.5352 33.2389 15.7848 33.3228C15.5426 33.6486 15.3003 33.9744 15.0507 34.3101C14.445 34.3101 13.8393 34.3101 13.2152 34.3101C13.2152 34.0658 13.2152 33.8214 13.2152 33.5696C13.4499 33.534 13.6846 33.4983 13.9264 33.4616C14.6746 33.3697 14.6746 33.3697 15.0507 33.0759Z" fill="#E5E5E5"/>
<path d="M63.1393 12.0949C63.3815 12.1764 63.6238 12.2579 63.8734 12.3418C62.8866 12.8978 62.1678 13.3 60.9367 13.576C60.8156 13.3316 60.6945 13.0872 60.5696 12.8354C61.4153 12.5722 62.273 12.3259 63.1393 12.0949Z" fill="#D8D8D8"/>
<path d="M122.24 7.89874C122.604 8.14311 122.967 8.38748 123.342 8.63925C123.221 8.80216 123.099 8.96507 122.975 9.13292C122.611 9.21438 122.248 9.29583 121.873 9.37976C121.07 9.02493 121.07 9.02493 120.405 8.63925C120.64 8.6087 120.874 8.57816 121.116 8.54669C121.491 8.47032 121.491 8.47032 121.873 8.39241C121.995 8.2295 122.116 8.06659 122.24 7.89874Z" fill="#ECEBE9"/>
<path d="M68.2785 110.829C69.3687 110.951 69.3687 110.951 70.481 111.076C69.9965 111.402 69.5119 111.728 69.0127 112.063C68.5281 111.9 68.0436 111.737 67.5443 111.57C67.7866 111.57 68.0289 111.57 68.2785 111.57C68.2785 111.325 68.2785 111.081 68.2785 110.829Z" fill="#EBEBEB"/>
<path d="M120.405 101.203C119.529 101.67 118.91 101.949 117.835 102.19C117.835 101.864 117.835 101.538 117.835 101.203C118.814 100.873 119.365 101.037 120.405 101.203Z" fill="#E5E5E5"/>
<path d="M107.924 82.9367C108.166 83.0182 108.409 83.0996 108.658 83.1835C108.416 83.7537 108.174 84.3239 107.924 84.9114C107.561 84.667 107.197 84.4227 106.823 84.1709C107.19 83.4304 107.19 83.4304 107.924 82.9367Z" fill="#0D0D0D"/>
<path d="M68.2785 58.2532C68.5207 58.3346 68.763 58.4161 69.0126 58.5C69.2421 59.2559 69.2421 59.2559 69.3797 59.981C69.0163 59.981 68.6529 59.981 68.2785 59.981C67.9355 59.238 67.895 59.0266 68.2785 58.2532Z" fill="#E6E5E4"/>
<path d="M128.481 51.8354C128.723 51.9169 128.966 51.9984 129.215 52.0823C129.146 52.5297 129.146 52.5297 128.848 53.0696C127.907 53.5016 127.907 53.5016 127.013 53.8101C127.425 53.0766 127.829 52.4934 128.481 51.8354Z" fill="#D9D8D6"/>
<path d="M153.076 27.1519C154.544 28.2935 154.544 28.2935 154.544 29.1266C154.423 28.9637 154.302 28.8008 154.177 28.6329C153.814 28.6329 153.45 28.6329 153.076 28.6329C152.936 28.2241 152.814 27.8123 152.709 27.3987C152.83 27.3173 152.951 27.2358 153.076 27.1519Z" fill="#141414"/>
<path d="M69.3797 4.1962C69.8643 4.1962 70.3488 4.1962 70.8481 4.1962C70.8481 4.35911 70.8481 4.52202 70.8481 4.68987C71.3326 4.77132 71.8172 4.85278 72.3164 4.9367C71.0775 5.09098 71.0775 5.09098 69.7468 5.18354C69.5045 5.02063 69.2623 4.85772 69.0126 4.68987C69.1338 4.52696 69.2549 4.36405 69.3797 4.1962Z" fill="#EFEEEE"/>
<path d="M131.785 103.177C131.906 103.503 132.027 103.829 132.152 104.165C131.546 104.327 130.94 104.49 130.316 104.658C130.195 104.414 130.074 104.169 129.949 103.918C130.555 103.673 131.161 103.429 131.785 103.177Z" fill="#ECECEC"/>
<path d="M47.7215 98.981C48.2666 99.2254 48.2666 99.2254 48.8228 99.4747C48.7016 99.6376 48.5805 99.8005 48.4557 99.9684C48.8191 100.05 49.1825 100.131 49.557 100.215C48.7951 100.352 48.146 100.462 47.3544 100.462C47.3544 99.4747 47.3544 99.4747 47.7215 98.981Z" fill="#100F0E"/>
<path d="M151.975 91.3291C152.217 91.5735 152.459 91.8179 152.709 92.0696C152.345 92.4362 152.345 92.4362 151.975 92.8101C151.611 92.7287 151.248 92.6472 150.873 92.5633C150.873 92.3189 150.873 92.0746 150.873 91.8228C151.237 91.8228 151.6 91.8228 151.975 91.8228C151.975 91.6599 151.975 91.497 151.975 91.3291Z" fill="#F6F4F5"/>
<path d="M154.544 87.6266C154.787 87.708 155.029 87.7895 155.278 87.8734C155.278 88.1992 155.278 88.5251 155.278 88.8608C154.915 88.9829 154.915 88.9829 154.544 89.1076C154.423 89.2705 154.302 89.4334 154.177 89.6013C154.177 89.3569 154.177 89.1125 154.177 88.8608C153.935 88.7793 153.693 88.6979 153.443 88.6139C153.806 88.2881 154.17 87.9623 154.544 87.6266Z" fill="#E2E2E2"/>
<path d="M29.3671 87.3797C29.9728 87.787 30.5785 88.1943 31.2025 88.6139C31.0814 88.8583 30.9602 89.1026 30.8354 89.3544C30.1012 88.9225 30.1012 88.9225 29.3671 88.3671C29.3671 88.0412 29.3671 87.7154 29.3671 87.3797Z" fill="#1F1F1F"/>
<path d="M26.7975 84.9114C27.5243 84.9114 28.2512 84.9114 29 84.9114C29.1212 85.1558 29.2423 85.4001 29.3671 85.6519C28.6403 85.8963 28.6403 85.8963 27.8988 86.1456C27.5353 85.7383 27.1719 85.331 26.7975 84.9114Z" fill="#E9E9E9"/>
<path d="M154.177 74.7911C154.419 74.954 154.662 75.117 154.911 75.2848C154.669 75.6921 154.427 76.0994 154.177 76.519C153.814 76.1932 153.45 75.8673 153.076 75.5316C153.443 75.038 153.443 75.038 154.177 74.7911Z" fill="#F1F0EE"/>
<path d="M90.6709 71.0886C90.9131 71.0886 91.1554 71.0886 91.405 71.0886C90.7626 72.5079 90.7626 72.5079 89.9367 73.0633C89.5696 72.3228 89.5696 72.3228 90.0514 71.6594C90.2558 71.471 90.4603 71.2827 90.6709 71.0886Z" fill="#DFDDDE"/>
<path d="M65.7089 68.1266C66.5083 69.2016 66.4542 69.4759 66.076 70.5949C65.8337 70.5135 65.5914 70.432 65.3418 70.3481C65.4629 69.615 65.5841 68.8819 65.7089 68.1266Z" fill="#C1C0BE"/>
<path d="M96.9114 62.943C97.1537 62.943 97.3959 62.943 97.6456 62.943C97.2513 63.6626 96.9928 64.1224 96.1772 64.6709C96.0561 64.4265 95.9349 64.1822 95.8101 63.9304C96.2919 63.3904 96.2919 63.3904 96.9114 62.943Z" fill="#EBEAEB"/>
<path d="M70.481 61.462C71.4501 61.462 72.4192 61.462 73.4177 61.462C73.4177 61.7879 73.4177 62.1137 73.4177 62.4494C72.0641 62.3264 71.3602 62.1777 70.481 61.462Z" fill="#D3D3D3"/>
<path d="M67.9114 59.981C68.396 60.1439 68.8805 60.3068 69.3798 60.4747C69.1375 60.8005 68.8952 61.1263 68.6456 61.462C68.2822 61.462 67.9187 61.462 67.5443 61.462C67.6655 60.9733 67.7866 60.4846 67.9114 59.981Z" fill="#151412"/>
<path d="M143.99 47.4695C144.308 47.5535 144.308 47.5535 144.633 47.6392C143.906 47.8836 143.906 47.8836 143.165 48.1329C143.165 48.2958 143.165 48.4587 143.165 48.6266C142.68 48.4637 142.195 48.3008 141.696 48.1329C142.961 47.3734 142.961 47.3734 143.99 47.4695Z" fill="#C8C8C8"/>
<path d="M113.43 45.4177C114.532 46.3434 114.532 46.3434 114.532 46.8987C113.926 46.8173 113.32 46.7358 112.696 46.6519C112.939 46.2446 113.181 45.8373 113.43 45.4177Z" fill="#1F1D1E"/>
<path d="M144.633 35.2975C144.996 35.3789 145.36 35.4604 145.734 35.5443C145.492 35.8701 145.25 36.196 145 36.5316C144.758 36.5316 144.515 36.5316 144.266 36.5316C144.145 36.6946 144.024 36.8575 143.899 37.0253C143.656 36.9439 143.414 36.8624 143.165 36.7785C143.649 36.2897 144.134 35.801 144.633 35.2975Z" fill="#D1D1D1"/>
<path d="M157.114 31.3481C157.477 31.6739 157.841 31.9997 158.215 32.3354C157.973 32.6613 157.731 32.9871 157.481 33.3228C157.481 33.1599 157.481 32.997 157.481 32.8291C157.239 32.8291 156.996 32.8291 156.747 32.8291C156.868 32.3404 156.989 31.8516 157.114 31.3481Z" fill="#232221"/>
<path d="M18.3544 28.1392C18.839 28.3021 19.3235 28.4651 19.8228 28.6329C19.3382 29.0402 18.8536 29.4475 18.3544 29.8671C17.9414 28.6946 17.9414 28.6946 18.3544 28.1392Z" fill="#EAE9E7"/>
<path d="M63.5063 28.1392C63.8698 28.2207 64.2332 28.3021 64.6076 28.3861C64.3653 28.7934 64.123 29.2006 63.8734 29.6202C63.51 29.3759 63.1466 29.1315 62.7722 28.8797C63.0144 28.6354 63.2567 28.391 63.5063 28.1392Z" fill="#0E0E0E"/>
<path d="M135.089 14.0696C135.331 14.0696 135.573 14.0696 135.823 14.0696C135.823 14.2325 135.823 14.3954 135.823 14.5633C136.186 14.5633 136.55 14.5633 136.924 14.5633C137.045 14.8076 137.166 15.052 137.291 15.3038C136.19 15.3038 136.19 15.3038 135.387 14.8101C135.167 14.6472 134.948 14.4843 134.722 14.3164C134.843 14.235 134.964 14.1535 135.089 14.0696Z" fill="#DEDEDE"/>
</g>
<defs>
<clipPath id="clip0_127_50">
<rect width="174" height="117" fill="white"/>
</clipPath>
</defs>
</svg>
