<svg width="322" height="117" viewBox="0 0 322 117" fill="none" xmlns="http://www.w3.org/2000/svg">
<g clip-path="url(#clip0_135_137)">
<rect width="322" height="117" fill="white"/>
<g filter="url(#filter0_dd_135_137)">
<mask id="path-1-outside-1_135_137" maskUnits="userSpaceOnUse" x="-1" y="33" width="225" height="38" fill="black">
<rect fill="white" x="-1" y="33" width="225" height="38"/>
<path d="M11.0114 69L0.852273 34.0909H10.1761L15.4432 56.9659H15.733L21.75 34.0909H29.3523L35.3693 57.017H35.6591L40.9432 34.0909H50.25L40.108 69H31.9773L25.6875 47.8295H25.4148L19.125 69H11.0114ZM70.6278 57.6989V42.8182H78.946V69H71.0028V64.125H70.7301C70.1506 65.7273 69.1619 67 67.7642 67.9432C66.3778 68.875 64.7017 69.3409 62.7358 69.3409C60.9517 69.3409 59.3835 68.9318 58.0312 68.1136C56.679 67.2955 55.6278 66.1534 54.8778 64.6875C54.1278 63.2102 53.7472 61.483 53.7358 59.5057V42.8182H62.071V57.8693C62.0824 59.2898 62.4574 60.4091 63.196 61.2273C63.9347 62.0455 64.9403 62.4545 66.2131 62.4545C67.0426 62.4545 67.7869 62.2727 68.446 61.9091C69.1165 61.5341 69.6449 60.9943 70.0312 60.2898C70.429 59.5739 70.6278 58.7102 70.6278 57.6989ZM92.5866 54.0682V69H84.2514V42.8182H92.1776V47.625H92.4673C93.0469 46.0227 94.0355 44.767 95.4332 43.858C96.831 42.9375 98.4957 42.4773 100.428 42.4773C102.268 42.4773 103.865 42.892 105.217 43.7216C106.581 44.5398 107.638 45.6875 108.388 47.1648C109.149 48.6307 109.524 50.3466 109.513 52.3125V69H101.178V53.9489C101.189 52.4943 100.82 51.358 100.07 50.5398C99.331 49.7216 98.3026 49.3125 96.9844 49.3125C96.1094 49.3125 95.3366 49.5057 94.6662 49.892C94.0071 50.267 93.4957 50.8068 93.1321 51.5114C92.7798 52.2159 92.598 53.0682 92.5866 54.0682ZM124.236 69.375C122.304 69.375 120.548 68.875 118.969 67.875C117.389 66.875 116.128 65.375 115.185 63.375C114.241 61.375 113.77 58.892 113.77 55.9261C113.77 52.8466 114.259 50.3125 115.236 48.3239C116.213 46.3352 117.491 44.8636 119.071 43.9091C120.662 42.9545 122.372 42.4773 124.202 42.4773C125.577 42.4773 126.753 42.7159 127.73 43.1932C128.707 43.6591 129.514 44.2614 130.151 45C130.787 45.7386 131.27 46.5057 131.599 47.3011H131.77V34.0909H140.105V69H131.855V64.7557H131.599C131.247 65.5625 130.747 66.3182 130.099 67.0227C129.452 67.7273 128.639 68.2955 127.662 68.7273C126.696 69.1591 125.554 69.375 124.236 69.375ZM127.134 62.8807C128.145 62.8807 129.009 62.5966 129.724 62.0284C130.44 61.4489 130.991 60.6364 131.378 59.5909C131.764 58.5455 131.957 57.3182 131.957 55.9091C131.957 54.4773 131.764 53.2443 131.378 52.2102C131.003 51.1761 130.452 50.3807 129.724 49.8239C129.009 49.267 128.145 48.9886 127.134 48.9886C126.099 48.9886 125.224 49.2727 124.509 49.8409C123.793 50.4091 123.247 51.2102 122.872 52.2443C122.509 53.2784 122.327 54.5 122.327 55.9091C122.327 57.3182 122.514 58.5455 122.889 59.5909C123.264 60.6364 123.804 61.4489 124.509 62.0284C125.224 62.5966 126.099 62.8807 127.134 62.8807ZM157.615 69.4943C154.876 69.4943 152.513 68.9545 150.524 67.875C148.547 66.7841 147.024 65.233 145.956 63.2216C144.899 61.1989 144.371 58.7955 144.371 56.0114C144.371 53.3068 144.905 50.9432 145.973 48.9205C147.041 46.8864 148.547 45.3068 150.49 44.1818C152.433 43.0455 154.723 42.4773 157.359 42.4773C159.223 42.4773 160.928 42.767 162.473 43.3466C164.018 43.9261 165.354 44.7841 166.479 45.9205C167.604 47.0568 168.479 48.4602 169.104 50.1307C169.729 51.7898 170.041 53.6932 170.041 55.8409V57.9205H147.286V53.0795H162.286C162.274 52.1932 162.064 51.4034 161.655 50.7102C161.246 50.017 160.683 49.4773 159.967 49.0909C159.263 48.6932 158.45 48.4943 157.53 48.4943C156.598 48.4943 155.763 48.7045 155.024 49.125C154.286 49.5341 153.7 50.0966 153.268 50.8125C152.837 51.517 152.609 52.3182 152.587 53.2159V58.142C152.587 59.2102 152.797 60.1477 153.217 60.9545C153.638 61.75 154.234 62.3693 155.007 62.8125C155.78 63.2557 156.7 63.4773 157.768 63.4773C158.507 63.4773 159.178 63.375 159.78 63.1705C160.382 62.9659 160.899 62.6648 161.331 62.267C161.763 61.8693 162.087 61.3807 162.303 60.8011L169.956 61.0227C169.638 62.7386 168.939 64.233 167.859 65.5057C166.791 66.767 165.388 67.75 163.649 68.4545C161.911 69.1477 159.899 69.4943 157.615 69.4943ZM174.298 69V42.8182H182.395V47.5909H182.668C183.145 45.8636 183.923 44.5795 185.003 43.7386C186.082 42.8864 187.338 42.4602 188.77 42.4602C189.156 42.4602 189.554 42.4886 189.963 42.5455C190.372 42.5909 190.753 42.6648 191.105 42.767V50.0114C190.707 49.875 190.185 49.767 189.537 49.6875C188.901 49.608 188.332 49.5682 187.832 49.5682C186.844 49.5682 185.952 49.7898 185.156 50.233C184.372 50.6648 183.753 51.2727 183.298 52.0568C182.855 52.8295 182.634 53.7386 182.634 54.7841V69H174.298ZM194.501 69V34.0909H209.058C211.672 34.0909 213.859 34.4602 215.621 35.1989C217.393 35.9375 218.723 36.9716 219.609 38.3011C220.507 39.6307 220.956 41.1705 220.956 42.9205C220.956 44.25 220.678 45.4375 220.121 46.483C219.564 47.517 218.797 48.375 217.82 49.0568C216.842 49.7386 215.712 50.2159 214.428 50.4886V50.8295C215.837 50.8977 217.138 51.2784 218.331 51.9716C219.536 52.6648 220.501 53.6307 221.229 54.8693C221.956 56.0966 222.32 57.5511 222.32 59.233C222.32 61.108 221.842 62.7841 220.888 64.2614C219.933 65.7273 218.553 66.8864 216.746 67.7386C214.939 68.5795 212.746 69 210.166 69H194.501ZM202.939 62.1989H208.155C209.984 62.1989 211.331 61.8523 212.195 61.1591C213.07 60.4659 213.507 59.5 213.507 58.2614C213.507 57.3636 213.297 56.5909 212.876 55.9432C212.456 55.2841 211.859 54.7784 211.087 54.4261C210.314 54.0625 209.388 53.8807 208.308 53.8807H202.939V62.1989ZM202.939 48.4432H207.609C208.53 48.4432 209.348 48.2898 210.064 47.983C210.78 47.6761 211.337 47.233 211.734 46.6534C212.143 46.0739 212.348 45.375 212.348 44.5568C212.348 43.3864 211.933 42.4659 211.104 41.7955C210.274 41.125 209.155 40.7898 207.746 40.7898H202.939V48.4432Z"/>
</mask>
<path d="M11.0114 69L0.852273 34.0909H10.1761L15.4432 56.9659H15.733L21.75 34.0909H29.3523L35.3693 57.017H35.6591L40.9432 34.0909H50.25L40.108 69H31.9773L25.6875 47.8295H25.4148L19.125 69H11.0114ZM70.6278 57.6989V42.8182H78.946V69H71.0028V64.125H70.7301C70.1506 65.7273 69.1619 67 67.7642 67.9432C66.3778 68.875 64.7017 69.3409 62.7358 69.3409C60.9517 69.3409 59.3835 68.9318 58.0312 68.1136C56.679 67.2955 55.6278 66.1534 54.8778 64.6875C54.1278 63.2102 53.7472 61.483 53.7358 59.5057V42.8182H62.071V57.8693C62.0824 59.2898 62.4574 60.4091 63.196 61.2273C63.9347 62.0455 64.9403 62.4545 66.2131 62.4545C67.0426 62.4545 67.7869 62.2727 68.446 61.9091C69.1165 61.5341 69.6449 60.9943 70.0312 60.2898C70.429 59.5739 70.6278 58.7102 70.6278 57.6989ZM92.5866 54.0682V69H84.2514V42.8182H92.1776V47.625H92.4673C93.0469 46.0227 94.0355 44.767 95.4332 43.858C96.831 42.9375 98.4957 42.4773 100.428 42.4773C102.268 42.4773 103.865 42.892 105.217 43.7216C106.581 44.5398 107.638 45.6875 108.388 47.1648C109.149 48.6307 109.524 50.3466 109.513 52.3125V69H101.178V53.9489C101.189 52.4943 100.82 51.358 100.07 50.5398C99.331 49.7216 98.3026 49.3125 96.9844 49.3125C96.1094 49.3125 95.3366 49.5057 94.6662 49.892C94.0071 50.267 93.4957 50.8068 93.1321 51.5114C92.7798 52.2159 92.598 53.0682 92.5866 54.0682ZM124.236 69.375C122.304 69.375 120.548 68.875 118.969 67.875C117.389 66.875 116.128 65.375 115.185 63.375C114.241 61.375 113.77 58.892 113.77 55.9261C113.77 52.8466 114.259 50.3125 115.236 48.3239C116.213 46.3352 117.491 44.8636 119.071 43.9091C120.662 42.9545 122.372 42.4773 124.202 42.4773C125.577 42.4773 126.753 42.7159 127.73 43.1932C128.707 43.6591 129.514 44.2614 130.151 45C130.787 45.7386 131.27 46.5057 131.599 47.3011H131.77V34.0909H140.105V69H131.855V64.7557H131.599C131.247 65.5625 130.747 66.3182 130.099 67.0227C129.452 67.7273 128.639 68.2955 127.662 68.7273C126.696 69.1591 125.554 69.375 124.236 69.375ZM127.134 62.8807C128.145 62.8807 129.009 62.5966 129.724 62.0284C130.44 61.4489 130.991 60.6364 131.378 59.5909C131.764 58.5455 131.957 57.3182 131.957 55.9091C131.957 54.4773 131.764 53.2443 131.378 52.2102C131.003 51.1761 130.452 50.3807 129.724 49.8239C129.009 49.267 128.145 48.9886 127.134 48.9886C126.099 48.9886 125.224 49.2727 124.509 49.8409C123.793 50.4091 123.247 51.2102 122.872 52.2443C122.509 53.2784 122.327 54.5 122.327 55.9091C122.327 57.3182 122.514 58.5455 122.889 59.5909C123.264 60.6364 123.804 61.4489 124.509 62.0284C125.224 62.5966 126.099 62.8807 127.134 62.8807ZM157.615 69.4943C154.876 69.4943 152.513 68.9545 150.524 67.875C148.547 66.7841 147.024 65.233 145.956 63.2216C144.899 61.1989 144.371 58.7955 144.371 56.0114C144.371 53.3068 144.905 50.9432 145.973 48.9205C147.041 46.8864 148.547 45.3068 150.49 44.1818C152.433 43.0455 154.723 42.4773 157.359 42.4773C159.223 42.4773 160.928 42.767 162.473 43.3466C164.018 43.9261 165.354 44.7841 166.479 45.9205C167.604 47.0568 168.479 48.4602 169.104 50.1307C169.729 51.7898 170.041 53.6932 170.041 55.8409V57.9205H147.286V53.0795H162.286C162.274 52.1932 162.064 51.4034 161.655 50.7102C161.246 50.017 160.683 49.4773 159.967 49.0909C159.263 48.6932 158.45 48.4943 157.53 48.4943C156.598 48.4943 155.763 48.7045 155.024 49.125C154.286 49.5341 153.7 50.0966 153.268 50.8125C152.837 51.517 152.609 52.3182 152.587 53.2159V58.142C152.587 59.2102 152.797 60.1477 153.217 60.9545C153.638 61.75 154.234 62.3693 155.007 62.8125C155.78 63.2557 156.7 63.4773 157.768 63.4773C158.507 63.4773 159.178 63.375 159.78 63.1705C160.382 62.9659 160.899 62.6648 161.331 62.267C161.763 61.8693 162.087 61.3807 162.303 60.8011L169.956 61.0227C169.638 62.7386 168.939 64.233 167.859 65.5057C166.791 66.767 165.388 67.75 163.649 68.4545C161.911 69.1477 159.899 69.4943 157.615 69.4943ZM174.298 69V42.8182H182.395V47.5909H182.668C183.145 45.8636 183.923 44.5795 185.003 43.7386C186.082 42.8864 187.338 42.4602 188.77 42.4602C189.156 42.4602 189.554 42.4886 189.963 42.5455C190.372 42.5909 190.753 42.6648 191.105 42.767V50.0114C190.707 49.875 190.185 49.767 189.537 49.6875C188.901 49.608 188.332 49.5682 187.832 49.5682C186.844 49.5682 185.952 49.7898 185.156 50.233C184.372 50.6648 183.753 51.2727 183.298 52.0568C182.855 52.8295 182.634 53.7386 182.634 54.7841V69H174.298ZM194.501 69V34.0909H209.058C211.672 34.0909 213.859 34.4602 215.621 35.1989C217.393 35.9375 218.723 36.9716 219.609 38.3011C220.507 39.6307 220.956 41.1705 220.956 42.9205C220.956 44.25 220.678 45.4375 220.121 46.483C219.564 47.517 218.797 48.375 217.82 49.0568C216.842 49.7386 215.712 50.2159 214.428 50.4886V50.8295C215.837 50.8977 217.138 51.2784 218.331 51.9716C219.536 52.6648 220.501 53.6307 221.229 54.8693C221.956 56.0966 222.32 57.5511 222.32 59.233C222.32 61.108 221.842 62.7841 220.888 64.2614C219.933 65.7273 218.553 66.8864 216.746 67.7386C214.939 68.5795 212.746 69 210.166 69H194.501ZM202.939 62.1989H208.155C209.984 62.1989 211.331 61.8523 212.195 61.1591C213.07 60.4659 213.507 59.5 213.507 58.2614C213.507 57.3636 213.297 56.5909 212.876 55.9432C212.456 55.2841 211.859 54.7784 211.087 54.4261C210.314 54.0625 209.388 53.8807 208.308 53.8807H202.939V62.1989ZM202.939 48.4432H207.609C208.53 48.4432 209.348 48.2898 210.064 47.983C210.78 47.6761 211.337 47.233 211.734 46.6534C212.143 46.0739 212.348 45.375 212.348 44.5568C212.348 43.3864 211.933 42.4659 211.104 41.7955C210.274 41.125 209.155 40.7898 207.746 40.7898H202.939V48.4432Z" fill="black"/>
<path d="M11.0114 69L10.0512 69.2794L10.2609 70H11.0114V69ZM0.852273 34.0909V33.0909H-0.480227L-0.107895 34.3703L0.852273 34.0909ZM10.1761 34.0909L11.1506 33.8665L10.972 33.0909H10.1761V34.0909ZM15.4432 56.9659L14.4687 57.1903L14.6473 57.9659H15.4432V56.9659ZM15.733 56.9659V57.9659H16.5039L16.7001 57.2203L15.733 56.9659ZM21.75 34.0909V33.0909H20.979L20.7829 33.8365L21.75 34.0909ZM29.3523 34.0909L30.3195 33.8371L30.1237 33.0909H29.3523V34.0909ZM35.3693 57.017L34.4021 57.2709L34.5979 58.017H35.3693V57.017ZM35.6591 57.017V58.017H36.4548L36.6335 57.2416L35.6591 57.017ZM40.9432 34.0909V33.0909H40.1474L39.9687 33.8663L40.9432 34.0909ZM50.25 34.0909L51.2103 34.3699L51.5819 33.0909H50.25V34.0909ZM40.108 69V70H40.8588L41.0683 69.279L40.108 69ZM31.9773 69L31.0187 69.2848L31.2312 70H31.9773V69ZM25.6875 47.8295L26.6461 47.5447L26.4336 46.8295H25.6875V47.8295ZM25.4148 47.8295V46.8295H24.6687L24.4562 47.5447L25.4148 47.8295ZM19.125 69V70H19.8711L20.0836 69.2848L19.125 69ZM11.9715 68.7206L1.81244 33.8115L-0.107895 34.3703L10.0512 69.2794L11.9715 68.7206ZM0.852273 35.0909H10.1761V33.0909H0.852273V35.0909ZM9.20164 34.3153L14.4687 57.1903L16.4177 56.7415L11.1506 33.8665L9.20164 34.3153ZM15.4432 57.9659H15.733V55.9659H15.4432V57.9659ZM16.7001 57.2203L22.7171 34.3453L20.7829 33.8365L14.7659 56.7115L16.7001 57.2203ZM21.75 35.0909H29.3523V33.0909H21.75V35.0909ZM28.385 34.3448L34.4021 57.2709L36.3366 56.7632L30.3195 33.8371L28.385 34.3448ZM35.3693 58.017H35.6591V56.017H35.3693V58.017ZM36.6335 57.2416L41.9176 34.3155L39.9687 33.8663L34.6846 56.7925L36.6335 57.2416ZM40.9432 35.0909H50.25V33.0909H40.9432V35.0909ZM49.2897 33.8119L39.1477 68.721L41.0683 69.279L51.2103 34.3699L49.2897 33.8119ZM40.108 68H31.9773V70H40.108V68ZM32.9359 68.7152L26.6461 47.5447L24.7289 48.1143L31.0187 69.2848L32.9359 68.7152ZM25.6875 46.8295H25.4148V48.8295H25.6875V46.8295ZM24.4562 47.5447L18.1664 68.7152L20.0836 69.2848L26.3734 48.1143L24.4562 47.5447ZM19.125 68H11.0114V70H19.125V68ZM70.6278 42.8182V41.8182H69.6278V42.8182H70.6278ZM78.946 42.8182H79.946V41.8182H78.946V42.8182ZM78.946 69V70H79.946V69H78.946ZM71.0028 69H70.0028V70H71.0028V69ZM71.0028 64.125H72.0028V63.125H71.0028V64.125ZM70.7301 64.125V63.125H70.0284L69.7897 63.7849L70.7301 64.125ZM67.7642 67.9432L68.322 68.7731L68.3236 68.7721L67.7642 67.9432ZM58.0312 68.1136L57.5136 68.9692L57.5136 68.9692L58.0312 68.1136ZM54.8778 64.6875L53.9862 65.1402L53.9876 65.143L54.8778 64.6875ZM53.7358 59.5057L52.7358 59.5057L52.7358 59.5114L53.7358 59.5057ZM53.7358 42.8182V41.8182H52.7358V42.8182H53.7358ZM62.071 42.8182H63.071V41.8182H62.071V42.8182ZM62.071 57.8693L61.071 57.8693L61.0711 57.8773L62.071 57.8693ZM63.196 61.2273L63.9383 60.5572L63.9383 60.5572L63.196 61.2273ZM68.446 61.9091L68.9291 62.7847L68.9342 62.7818L68.446 61.9091ZM70.0312 60.2898L69.1571 59.8041L69.1544 59.8089L70.0312 60.2898ZM71.6278 57.6989V42.8182H69.6278V57.6989H71.6278ZM70.6278 43.8182H78.946V41.8182H70.6278V43.8182ZM77.946 42.8182V69H79.946V42.8182H77.946ZM78.946 68H71.0028V70H78.946V68ZM72.0028 69V64.125H70.0028V69H72.0028ZM71.0028 63.125H70.7301V65.125H71.0028V63.125ZM69.7897 63.7849C69.2814 65.1902 68.425 66.2909 67.2048 67.1143L68.3236 68.7721C69.8988 67.7091 71.0197 66.2643 71.6705 64.4651L69.7897 63.7849ZM67.2064 67.1132C66.0124 67.9157 64.5389 68.3409 62.7358 68.3409V70.3409C64.8645 70.3409 66.7433 69.8343 68.322 68.7731L67.2064 67.1132ZM62.7358 68.3409C61.1101 68.3409 59.7257 67.97 58.5489 67.2581L57.5136 68.9692C59.0414 69.8936 60.7933 70.3409 62.7358 70.3409V68.3409ZM58.5489 67.2581C57.3624 66.5402 56.4372 65.5398 55.7681 64.232L53.9876 65.143C54.8185 66.767 55.9955 68.0507 57.5136 68.9692L58.5489 67.2581ZM55.7695 64.2348C55.1022 62.9204 54.7464 61.3516 54.7358 59.4999L52.7358 59.5114C52.7479 61.6143 53.1535 63.5 53.9862 65.1402L55.7695 64.2348ZM54.7358 59.5057V42.8182H52.7358V59.5057H54.7358ZM53.7358 43.8182H62.071V41.8182H53.7358V43.8182ZM61.071 42.8182V57.8693H63.071V42.8182H61.071ZM61.0711 57.8773C61.0838 59.47 61.5082 60.85 62.4538 61.8974L63.9383 60.5572C63.4066 59.9682 63.081 59.1096 63.071 57.8613L61.0711 57.8773ZM62.4538 61.8974C63.4121 62.9589 64.7056 63.4545 66.2131 63.4545V61.4545C65.1751 61.4545 64.4573 61.132 63.9383 60.5572L62.4538 61.8974ZM66.2131 63.4545C67.1939 63.4545 68.1074 63.238 68.9291 62.7847L67.9629 61.0335C67.4665 61.3074 66.8913 61.4545 66.2131 61.4545V63.4545ZM68.9342 62.7818C69.7761 62.3109 70.4358 61.6317 70.9081 60.7706L69.1544 59.8089C68.8539 60.3569 68.4568 60.7572 67.9579 61.0363L68.9342 62.7818ZM70.9054 60.7754C71.4029 59.8799 71.6278 58.8407 71.6278 57.6989H69.6278C69.6278 58.5798 69.455 59.2678 69.1571 59.8041L70.9054 60.7754ZM92.5866 54.0682L91.5866 54.0568V54.0682H92.5866ZM92.5866 69V70H93.5866V69H92.5866ZM84.2514 69H83.2514V70H84.2514V69ZM84.2514 42.8182V41.8182H83.2514V42.8182H84.2514ZM92.1776 42.8182H93.1776V41.8182H92.1776V42.8182ZM92.1776 47.625H91.1776V48.625H92.1776V47.625ZM92.4673 47.625V48.625H93.169L93.4077 47.9651L92.4673 47.625ZM95.4332 43.858L95.9785 44.6963L95.9832 44.6931L95.4332 43.858ZM105.217 43.7216L104.694 44.574L104.703 44.5791L105.217 43.7216ZM108.388 47.1648L107.496 47.6175L107.5 47.6257L108.388 47.1648ZM109.513 52.3125L108.513 52.3067V52.3125H109.513ZM109.513 69V70H110.513V69H109.513ZM101.178 69H100.178V70H101.178V69ZM101.178 53.9489L100.178 53.9411V53.9489H101.178ZM100.07 50.5398L99.3273 51.2099L99.3324 51.2155L100.07 50.5398ZM94.6662 49.892L95.1607 50.7612L95.1655 50.7585L94.6662 49.892ZM93.1321 51.5114L92.2434 51.0527L92.2377 51.0641L93.1321 51.5114ZM91.5866 54.0682V69H93.5866V54.0682H91.5866ZM92.5866 68H84.2514V70H92.5866V68ZM85.2514 69V42.8182H83.2514V69H85.2514ZM84.2514 43.8182H92.1776V41.8182H84.2514V43.8182ZM91.1776 42.8182V47.625H93.1776V42.8182H91.1776ZM92.1776 48.625H92.4673V46.625H92.1776V48.625ZM93.4077 47.9651C93.915 46.5627 94.7674 45.4839 95.9785 44.6962L94.888 43.0197C93.3036 44.0502 92.1788 45.4828 91.527 47.2849L93.4077 47.9651ZM95.9832 44.6931C97.1936 43.896 98.6603 43.4773 100.428 43.4773V41.4773C98.3312 41.4773 96.4683 41.979 94.8832 43.0228L95.9832 44.6931ZM100.428 43.4773C102.114 43.4773 103.523 43.8556 104.694 44.574L105.74 42.8692C104.207 41.9285 102.423 41.4773 100.428 41.4773V43.4773ZM104.703 44.5791C105.898 45.2963 106.828 46.3005 107.496 47.6175L109.279 46.7121C108.448 45.0745 107.264 43.7832 105.732 42.8641L104.703 44.5791ZM107.5 47.6257C108.174 48.9225 108.523 50.4724 108.513 52.3067L110.513 52.3183C110.525 50.2207 110.124 48.3389 109.275 46.7039L107.5 47.6257ZM108.513 52.3125V69H110.513V52.3125H108.513ZM109.513 68H101.178V70H109.513V68ZM102.178 69V53.9489H100.178V69H102.178ZM102.178 53.9567C102.19 52.33 101.775 50.9207 100.807 49.864L99.3324 51.2155C99.8639 51.7952 100.188 52.6586 100.178 53.9411L102.178 53.9567ZM100.812 49.8697C99.8466 48.8005 98.5251 48.3125 96.9844 48.3125V50.3125C98.08 50.3125 98.8153 50.6427 99.3273 51.2099L100.812 49.8697ZM96.9844 48.3125C95.9575 48.3125 95.0082 48.5408 94.1669 49.0256L95.1655 50.7585C95.6651 50.4706 96.2613 50.3125 96.9844 50.3125V48.3125ZM94.1717 49.0229C93.3363 49.4982 92.6917 50.1843 92.2435 51.0527L94.0207 51.97C94.2998 51.4293 94.6779 51.0359 95.1607 50.7612L94.1717 49.0229ZM92.2377 51.0641C91.802 51.9356 91.5993 52.945 91.5867 54.0568L93.5866 54.0795C93.5967 53.1913 93.7577 52.4963 94.0265 51.9586L92.2377 51.0641ZM118.969 67.875L118.434 68.7199L118.434 68.7199L118.969 67.875ZM115.185 63.375L114.28 63.8015L114.28 63.8015L115.185 63.375ZM115.236 48.3239L116.133 48.7649L116.133 48.7649L115.236 48.3239ZM119.071 43.9091L118.557 43.0516L118.554 43.0532L119.071 43.9091ZM127.73 43.1932L127.291 44.0918L127.3 44.0958L127.73 43.1932ZM130.151 45L130.908 44.3473L130.908 44.3473L130.151 45ZM131.599 47.3011L130.676 47.6839L130.931 48.3011H131.599V47.3011ZM131.77 47.3011V48.3011H132.77V47.3011H131.77ZM131.77 34.0909V33.0909H130.77V34.0909H131.77ZM140.105 34.0909H141.105V33.0909H140.105V34.0909ZM140.105 69V70H141.105V69H140.105ZM131.855 69H130.855V70H131.855V69ZM131.855 64.7557H132.855V63.7557H131.855V64.7557ZM131.599 64.7557V63.7557H130.945L130.683 64.3555L131.599 64.7557ZM130.099 67.0227L129.363 66.3459L129.363 66.3459L130.099 67.0227ZM127.662 68.7273L127.258 67.8126L127.254 67.8143L127.662 68.7273ZM129.724 62.0284L130.346 62.8117L130.354 62.8057L129.724 62.0284ZM131.378 59.5909L132.316 59.9376L132.316 59.9376L131.378 59.5909ZM131.378 52.2102L130.438 52.5512L130.441 52.5602L131.378 52.2102ZM129.724 49.8239L129.11 50.6132L129.117 50.6179L129.724 49.8239ZM122.872 52.2443L121.932 51.9034L121.929 51.9126L122.872 52.2443ZM124.509 62.0284L123.873 62.8007L123.88 62.8063L123.887 62.8117L124.509 62.0284ZM124.236 68.375C122.487 68.375 120.918 67.9253 119.504 67.0301L118.434 68.7199C120.179 69.8247 122.121 70.375 124.236 70.375V68.375ZM119.504 67.0301C118.112 66.149 116.966 64.8086 116.089 62.9485L114.28 63.8015C115.289 65.9414 116.667 67.601 118.434 68.7199L119.504 67.0301ZM116.089 62.9485C115.226 61.1192 114.77 58.7924 114.77 55.9261H112.77C112.77 58.9917 113.256 61.6308 114.28 63.8015L116.089 62.9485ZM114.77 55.9261C114.77 52.9434 115.244 50.5736 116.133 48.7649L114.338 47.8828C113.273 50.0514 112.77 52.7498 112.77 55.9261H114.77ZM116.133 48.7649C117.043 46.9133 118.203 45.6021 119.588 44.7649L118.554 43.0532C116.78 44.1251 115.383 45.7572 114.338 47.8828L116.133 48.7649ZM119.586 44.7666C121.023 43.9039 122.556 43.4773 124.202 43.4773V41.4773C122.188 41.4773 120.301 42.0052 118.557 43.0516L119.586 44.7666ZM124.202 43.4773C125.464 43.4773 126.482 43.6965 127.291 44.0917L128.169 42.2946C127.024 41.7353 125.69 41.4773 124.202 41.4773V43.4773ZM127.3 44.0958C128.166 44.5087 128.857 45.0303 129.393 45.6527L130.908 44.3473C130.172 43.4925 129.249 42.8095 128.16 42.2905L127.3 44.0958ZM129.393 45.6527C129.969 46.3213 130.392 46.9987 130.676 47.6839L132.523 46.9184C132.148 46.0126 131.605 45.156 130.908 44.3473L129.393 45.6527ZM131.599 48.3011H131.77V46.3011H131.599V48.3011ZM132.77 47.3011V34.0909H130.77V47.3011H132.77ZM131.77 35.0909H140.105V33.0909H131.77V35.0909ZM139.105 34.0909V69H141.105V34.0909H139.105ZM140.105 68H131.855V70H140.105V68ZM132.855 69V64.7557H130.855V69H132.855ZM131.855 63.7557H131.599V65.7557H131.855V63.7557ZM130.683 64.3555C130.379 65.0523 129.943 65.7159 129.363 66.3459L130.836 67.6995C131.552 66.9205 132.116 66.0727 132.516 65.1558L130.683 64.3555ZM129.363 66.3459C128.819 66.938 128.124 67.4299 127.258 67.8126L128.066 69.642C129.155 69.161 130.084 68.5165 130.836 67.6995L129.363 66.3459ZM127.254 67.8143C126.444 68.1765 125.447 68.375 124.236 68.375V70.375C125.661 70.375 126.948 70.1417 128.07 69.6402L127.254 67.8143ZM127.134 63.8807C128.345 63.8807 129.434 63.5353 130.346 62.8117L129.103 61.2451C128.583 61.6579 127.945 61.8807 127.134 61.8807V63.8807ZM130.354 62.8057C131.236 62.0913 131.88 61.1162 132.316 59.9376L130.44 59.2443C130.103 60.1565 129.645 60.8064 129.095 61.2512L130.354 62.8057ZM132.316 59.9376C132.752 58.7562 132.957 57.4066 132.957 55.9091H130.957C130.957 57.2298 130.776 58.3347 130.44 59.2443L132.316 59.9376ZM132.957 55.9091C132.957 54.3915 132.753 53.034 132.315 51.8602L130.441 52.5602C130.775 53.4546 130.957 54.5631 130.957 55.9091H132.957ZM132.318 51.8693C131.891 50.692 131.239 49.7244 130.332 49.0299L129.117 50.6179C129.664 51.037 130.115 51.6602 130.438 52.5511L132.318 51.8693ZM130.338 49.0345C129.427 48.3254 128.34 47.9886 127.134 47.9886V49.9886C127.95 49.9886 128.59 50.2086 129.11 50.6132L130.338 49.0345ZM127.134 47.9886C125.905 47.9886 124.803 48.3308 123.887 49.0576L125.13 50.6242C125.646 50.2146 126.294 49.9886 127.134 49.9886V47.9886ZM123.887 49.0576C122.999 49.7624 122.357 50.7309 121.932 51.9034L123.812 52.5852C124.137 51.6896 124.586 51.0558 125.13 50.6242L123.887 49.0576ZM121.929 51.9126C121.519 53.0788 121.327 54.4177 121.327 55.9091H123.327C123.327 54.5823 123.498 53.4781 123.816 52.5761L121.929 51.9126ZM121.327 55.9091C121.327 57.4037 121.525 58.7501 121.948 59.9285L123.83 59.2533C123.503 58.3408 123.327 57.2326 123.327 55.9091H121.327ZM121.948 59.9285C122.371 61.1069 123.002 62.0839 123.873 62.8007L125.144 61.2561C124.606 60.8138 124.158 60.1658 123.83 59.2533L121.948 59.9285ZM123.887 62.8117C124.803 63.5385 125.905 63.8807 127.134 63.8807V61.8807C126.294 61.8807 125.646 61.6547 125.13 61.2451L123.887 62.8117ZM150.524 67.875L150.041 68.7506L150.047 68.7539L150.524 67.875ZM145.956 63.2216L145.07 63.6847L145.073 63.6906L145.956 63.2216ZM145.973 48.9205L146.857 49.3874L146.858 49.3854L145.973 48.9205ZM150.49 44.1818L150.991 45.0473L150.995 45.045L150.49 44.1818ZM162.473 43.3466L162.824 42.4103L162.824 42.4103L162.473 43.3466ZM169.104 50.1307L168.167 50.4811L168.168 50.4832L169.104 50.1307ZM170.041 57.9205V58.9205H171.041V57.9205H170.041ZM147.286 57.9205H146.286V58.9205H147.286V57.9205ZM147.286 53.0795V52.0795H146.286V53.0795H147.286ZM162.286 53.0795V54.0795H163.298L163.285 53.0667L162.286 53.0795ZM159.967 49.0909L159.476 49.9617L159.484 49.9664L159.492 49.9709L159.967 49.0909ZM155.024 49.125L155.509 49.9999L155.519 49.9941L155.024 49.125ZM153.268 50.8125L154.121 51.3351L154.125 51.329L153.268 50.8125ZM152.587 53.2159L151.587 53.1906L151.587 53.2033V53.2159H152.587ZM153.217 60.9545L152.331 61.4167L152.333 61.4219L153.217 60.9545ZM155.007 62.8125L154.51 63.68L154.51 63.68L155.007 62.8125ZM159.78 63.1705L160.101 64.1173L160.101 64.1173L159.78 63.1705ZM161.331 62.267L162.008 63.0026L162.008 63.0026L161.331 62.267ZM162.303 60.8011L162.331 59.8016L161.616 59.7808L161.365 60.452L162.303 60.8011ZM169.956 61.0227L170.939 61.205L171.152 60.0569L169.985 60.0231L169.956 61.0227ZM167.859 65.5057L167.097 64.8588L167.096 64.8594L167.859 65.5057ZM163.649 68.4545L164.019 69.3835L164.025 69.3813L163.649 68.4545ZM157.615 68.4943C155.008 68.4943 152.816 67.9811 151.001 66.9961L150.047 68.7539C152.21 69.928 154.745 70.4943 157.615 70.4943V68.4943ZM151.007 66.9994C149.201 66.0032 147.817 64.594 146.839 62.7526L145.073 63.6906C146.231 65.8719 147.892 67.565 150.041 68.7506L151.007 66.9994ZM146.842 62.7585C145.875 60.9068 145.371 58.6692 145.371 56.0114H143.371C143.371 58.9217 143.923 61.4909 145.07 63.6847L146.842 62.7585ZM145.371 56.0114C145.371 53.4399 145.878 51.2421 146.857 49.3874L145.089 48.4535C143.932 50.6442 143.371 53.1737 143.371 56.0114H145.371ZM146.858 49.3854C147.841 47.5143 149.215 46.0754 150.991 45.0472L149.989 43.3164C147.879 44.5382 146.241 46.2584 145.088 48.4555L146.858 49.3854ZM150.995 45.045C152.76 44.0126 154.87 43.4773 157.359 43.4773V41.4773C154.576 41.4773 152.106 42.0784 149.985 43.3186L150.995 45.045ZM157.359 43.4773C159.118 43.4773 160.702 43.7506 162.122 44.2829L162.824 42.4103C161.153 41.7835 159.328 41.4773 157.359 41.4773V43.4773ZM162.122 44.2829C163.537 44.8134 164.748 45.5936 165.768 46.624L167.189 45.2169C165.959 43.9746 164.5 43.0388 162.824 42.4103L162.122 44.2829ZM165.768 46.624C166.783 47.6489 167.586 48.9277 168.167 50.4811L170.04 49.7803C169.372 47.9928 168.425 46.4647 167.189 45.2169L165.768 46.624ZM168.168 50.4832C168.743 52.0086 169.041 53.7889 169.041 55.8409H171.041C171.041 53.5975 170.715 51.571 170.039 49.7782L168.168 50.4832ZM169.041 55.8409V57.9205H171.041V55.8409H169.041ZM170.041 56.9205H147.286V58.9205H170.041V56.9205ZM148.286 57.9205V53.0795H146.286V57.9205H148.286ZM147.286 54.0795H162.286V52.0795H147.286V54.0795ZM163.285 53.0667C163.272 52.0241 163.023 51.0603 162.516 50.202L160.794 51.2185C161.105 51.7466 161.276 52.3623 161.286 53.0924L163.285 53.0667ZM162.516 50.202C162.013 49.3503 161.317 48.6827 160.442 48.2109L159.492 49.9709C160.05 50.2718 160.478 50.6838 160.794 51.2185L162.516 50.202ZM160.459 48.2201C159.585 47.7266 158.598 47.4943 157.53 47.4943V49.4943C158.302 49.4943 158.941 49.6598 159.476 49.9617L160.459 48.2201ZM157.53 47.4943C156.442 47.4943 155.433 47.7416 154.529 48.2559L155.519 49.9941C156.092 49.6675 156.754 49.4943 157.53 49.4943V47.4943ZM154.54 48.2502C153.649 48.7432 152.935 49.4286 152.412 50.296L154.125 51.329C154.465 50.7646 154.922 50.3249 155.509 49.9998L154.54 48.2502ZM152.416 50.2899C151.884 51.1573 151.614 52.1328 151.587 53.1906L153.586 53.2412C153.605 52.5036 153.789 51.8768 154.121 51.3351L152.416 50.2899ZM151.587 53.2159V58.142H153.587V53.2159H151.587ZM151.587 58.142C151.587 59.3431 151.824 60.4443 152.331 61.4167L154.104 60.4924C153.77 59.8512 153.587 59.0773 153.587 58.142H151.587ZM152.333 61.4219C152.841 62.3828 153.571 63.1417 154.51 63.68L155.505 61.945C154.898 61.597 154.434 61.1172 154.101 60.4872L152.333 61.4219ZM154.51 63.68C155.461 64.2258 156.561 64.4773 157.768 64.4773V62.4773C156.84 62.4773 156.098 62.2856 155.505 61.945L154.51 63.68ZM157.768 64.4773C158.599 64.4773 159.38 64.3622 160.101 64.1173L159.458 62.2236C158.975 62.3878 158.415 62.4773 157.768 62.4773V64.4773ZM160.101 64.1173C160.825 63.8717 161.466 63.5025 162.008 63.0026L160.653 61.5315C160.333 61.8271 159.94 62.0601 159.458 62.2236L160.101 64.1173ZM162.008 63.0026C162.562 62.4926 162.972 61.8691 163.24 61.1502L161.365 60.452C161.201 60.8922 160.963 61.2461 160.653 61.5315L162.008 63.0026ZM162.274 61.8007L169.927 62.0223L169.985 60.0231L162.331 59.8016L162.274 61.8007ZM168.973 60.8404C168.685 62.393 168.058 63.7252 167.097 64.8588L168.622 66.1525C169.82 64.7407 170.591 63.0842 170.939 61.205L168.973 60.8404ZM167.096 64.8594C166.146 65.9815 164.883 66.8757 163.274 67.5277L164.025 69.3813C165.893 68.6243 167.436 67.5526 168.623 66.1519L167.096 64.8594ZM163.279 67.5257C161.681 68.1628 159.799 68.4943 157.615 68.4943V70.4943C159.999 70.4943 162.14 70.1327 164.019 69.3834L163.279 67.5257ZM174.298 69H173.298V70H174.298V69ZM174.298 42.8182V41.8182H173.298V42.8182H174.298ZM182.395 42.8182H183.395V41.8182H182.395V42.8182ZM182.395 47.5909H181.395V48.5909H182.395V47.5909ZM182.668 47.5909V48.5909H183.429L183.631 47.8572L182.668 47.5909ZM185.003 43.7386L185.617 44.5276L185.622 44.5235L185.003 43.7386ZM189.963 42.5455L189.826 43.5359L189.839 43.5378L189.853 43.5393L189.963 42.5455ZM191.105 42.767H192.105V42.0161L191.384 41.8067L191.105 42.767ZM191.105 50.0114L190.781 50.9573L192.105 51.4114V50.0114H191.105ZM189.537 49.6875L189.413 50.6798L189.415 50.68L189.537 49.6875ZM185.156 50.233L185.639 51.1089L185.643 51.1065L185.156 50.233ZM183.298 52.0568L182.433 51.5553L182.431 51.5593L183.298 52.0568ZM182.634 69V70H183.634V69H182.634ZM175.298 69V42.8182H173.298V69H175.298ZM174.298 43.8182H182.395V41.8182H174.298V43.8182ZM181.395 42.8182V47.5909H183.395V42.8182H181.395ZM182.395 48.5909H182.668V46.5909H182.395V48.5909ZM183.631 47.8572C184.069 46.2732 184.753 45.2006 185.617 44.5275L184.388 42.9497C183.093 43.9584 182.221 45.4541 181.704 47.3246L183.631 47.8572ZM185.622 44.5235C186.518 43.8166 187.553 43.4602 188.77 43.4602V41.4602C187.123 41.4602 185.647 41.9561 184.383 42.9538L185.622 44.5235ZM188.77 43.4602C189.107 43.4602 189.459 43.485 189.826 43.5359L190.101 41.555C189.649 41.4922 189.205 41.4602 188.77 41.4602V43.4602ZM189.853 43.5393C190.212 43.5792 190.535 43.6429 190.826 43.7274L191.384 41.8067C190.97 41.6866 190.533 41.6026 190.073 41.5516L189.853 43.5393ZM190.105 42.767V50.0114H192.105V42.767H190.105ZM191.429 49.0654C190.94 48.8978 190.342 48.7789 189.659 48.695L189.415 50.68C190.027 50.7552 190.474 50.8522 190.781 50.9573L191.429 49.0654ZM189.661 48.6952C188.994 48.6119 188.384 48.5682 187.832 48.5682V50.5682C188.281 50.5682 188.807 50.604 189.413 50.6798L189.661 48.6952ZM187.832 48.5682C186.688 48.5682 185.626 48.8263 184.67 49.3594L185.643 51.1065C186.277 50.7533 186.999 50.5682 187.832 50.5682V48.5682ZM184.674 49.357C183.728 49.8777 182.978 50.616 182.433 51.5553L184.163 52.5583C184.528 51.9295 185.016 51.4519 185.639 51.1089L184.674 49.357ZM182.431 51.5593C181.887 52.5079 181.634 53.5946 181.634 54.7841H183.634C183.634 53.8827 183.823 53.1512 184.166 52.5543L182.431 51.5593ZM181.634 54.7841V69H183.634V54.7841H181.634ZM182.634 68H174.298V70H182.634V68ZM194.501 69H193.501V70H194.501V69ZM194.501 34.0909V33.0909H193.501V34.0909H194.501ZM215.621 35.1989L215.234 36.1211L215.236 36.1219L215.621 35.1989ZM219.609 38.3011L218.777 38.8558L218.781 38.8607L219.609 38.3011ZM220.121 46.483L221.001 46.9571L221.003 46.953L220.121 46.483ZM217.82 49.0568L217.247 48.2367L217.247 48.2367L217.82 49.0568ZM214.428 50.4886L214.22 49.5105L213.428 49.6787V50.4886H214.428ZM214.428 50.8295H213.428V51.7823L214.379 51.8284L214.428 50.8295ZM218.331 51.9716L217.829 52.8363L217.832 52.8383L218.331 51.9716ZM221.229 54.8693L220.366 55.3756L220.368 55.3791L221.229 54.8693ZM220.888 64.2614L221.726 64.807L221.728 64.8041L220.888 64.2614ZM216.746 67.7386L217.168 68.6453L217.172 68.6431L216.746 67.7386ZM202.939 62.1989H201.939V63.1989H202.939V62.1989ZM212.195 61.1591L211.574 60.3752L211.569 60.3792L212.195 61.1591ZM212.876 55.9432L212.033 56.481L212.038 56.4877L212.876 55.9432ZM211.087 54.4261L210.661 55.331L210.672 55.336L211.087 54.4261ZM202.939 53.8807V52.8807H201.939V53.8807H202.939ZM202.939 48.4432H201.939V49.4432H202.939V48.4432ZM211.734 46.6534L210.917 46.0767L210.91 46.0876L211.734 46.6534ZM211.104 41.7955L211.732 41.0177L211.732 41.0177L211.104 41.7955ZM202.939 40.7898V39.7898H201.939V40.7898H202.939ZM195.501 69V34.0909H193.501V69H195.501ZM194.501 35.0909H209.058V33.0909H194.501V35.0909ZM209.058 35.0909C211.585 35.0909 213.631 35.4489 215.234 36.1211L216.007 34.2767C214.087 33.4715 211.759 33.0909 209.058 33.0909V35.0909ZM215.236 36.1219C216.864 36.8002 218.021 37.7212 218.777 38.8558L220.441 37.7464C219.425 36.2219 217.923 35.0748 216.005 34.2758L215.236 36.1219ZM218.781 38.8607C219.557 40.01 219.956 41.3509 219.956 42.9205H221.956C221.956 40.99 221.458 39.2514 220.438 37.7415L218.781 38.8607ZM219.956 42.9205C219.956 44.1064 219.709 45.1291 219.238 46.0129L221.003 46.953C221.646 45.7459 221.956 44.3936 221.956 42.9205H219.956ZM219.24 46.0089C218.759 46.903 218.098 47.6431 217.247 48.2367L218.392 49.8769C219.496 49.1069 220.369 48.1311 221.001 46.9571L219.24 46.0089ZM217.247 48.2367C216.391 48.8345 215.386 49.2627 214.22 49.5105L214.635 51.4668C216.037 51.1691 217.294 50.6427 218.392 49.8769L217.247 48.2367ZM213.428 50.4886V50.8295H215.428V50.4886H213.428ZM214.379 51.8284C215.632 51.889 216.777 52.2253 217.829 52.8363L218.833 51.1069C217.499 50.3315 216.041 49.9065 214.476 49.8307L214.379 51.8284ZM217.832 52.8383C218.881 53.442 219.724 54.2814 220.366 55.3756L222.091 54.363C221.279 52.9799 220.19 51.8876 218.83 51.1049L217.832 52.8383ZM220.368 55.3791C220.989 56.4264 221.32 57.6981 221.32 59.233H223.32C223.32 57.4041 222.923 55.7668 222.089 54.3595L220.368 55.3791ZM221.32 59.233C221.32 60.9287 220.891 62.4139 220.048 63.7186L221.728 64.8041C222.794 63.1543 223.32 61.2872 223.32 59.233H221.32ZM220.05 63.7157C219.21 65.0051 217.983 66.0496 216.319 66.8342L217.172 68.6431C219.123 67.7232 220.656 66.4495 221.726 64.807L220.05 63.7157ZM216.324 66.832C214.682 67.5961 212.641 68 210.166 68V70C212.85 70 215.196 69.563 217.168 68.6453L216.324 66.832ZM210.166 68H194.501V70H210.166V68ZM202.939 63.1989H208.155V61.1989H202.939V63.1989ZM208.155 63.1989C210.075 63.1989 211.696 62.8415 212.821 61.939L211.569 60.3792C210.966 60.8631 209.893 61.1989 208.155 61.1989V63.1989ZM212.816 61.9429C213.958 61.0376 214.507 59.7673 214.507 58.2614H212.507C212.507 59.2327 212.181 59.8942 211.574 60.3753L212.816 61.9429ZM214.507 58.2614C214.507 57.2025 214.257 56.2335 213.715 55.3987L212.038 56.4877C212.337 56.9483 212.507 57.5248 212.507 58.2614H214.507ZM213.719 55.4054C213.186 54.5695 212.434 53.9414 211.501 53.5162L210.672 55.336C211.285 55.6154 211.726 55.9987 212.033 56.481L213.719 55.4054ZM211.512 53.5213C210.576 53.0807 209.497 52.8807 208.308 52.8807V54.8807C209.278 54.8807 210.052 55.0443 210.661 55.331L211.512 53.5213ZM208.308 52.8807H202.939V54.8807H208.308V52.8807ZM201.939 53.8807V62.1989H203.939V53.8807H201.939ZM202.939 49.4432H207.609V47.4432H202.939V49.4432ZM207.609 49.4432C208.641 49.4432 209.597 49.271 210.458 48.9021L209.67 47.0638C209.099 47.3085 208.419 47.4432 207.609 47.4432V49.4432ZM210.458 48.9021C211.328 48.529 212.043 47.9715 212.559 47.2192L210.91 46.0876C210.631 46.4944 210.231 46.8233 209.67 47.0638L210.458 48.9021ZM212.551 47.2301C213.097 46.4569 213.348 45.5488 213.348 44.5568H211.348C211.348 45.2012 211.19 45.6908 210.917 46.0767L212.551 47.2301ZM213.348 44.5568C213.348 43.1178 212.822 41.8981 211.732 41.0177L210.475 42.5732C211.045 43.0337 211.348 43.6549 211.348 44.5568H213.348ZM211.732 41.0177C210.675 40.163 209.31 39.7898 207.746 39.7898V41.7898C209 41.7898 209.874 42.087 210.475 42.5732L211.732 41.0177ZM207.746 39.7898H202.939V41.7898H207.746V39.7898ZM201.939 40.7898V48.4432H203.939V40.7898H201.939Z" fill="black" mask="url(#path-1-outside-1_135_137)"/>
<path d="M11.0114 69L10.0512 69.2794L10.2609 70H11.0114V69ZM0.852273 34.0909V33.0909H-0.480227L-0.107895 34.3703L0.852273 34.0909ZM10.1761 34.0909L11.1506 33.8665L10.972 33.0909H10.1761V34.0909ZM15.4432 56.9659L14.4687 57.1903L14.6473 57.9659H15.4432V56.9659ZM15.733 56.9659V57.9659H16.5039L16.7001 57.2203L15.733 56.9659ZM21.75 34.0909V33.0909H20.979L20.7829 33.8365L21.75 34.0909ZM29.3523 34.0909L30.3195 33.8371L30.1237 33.0909H29.3523V34.0909ZM35.3693 57.017L34.4021 57.2709L34.5979 58.017H35.3693V57.017ZM35.6591 57.017V58.017H36.4548L36.6335 57.2416L35.6591 57.017ZM40.9432 34.0909V33.0909H40.1474L39.9687 33.8663L40.9432 34.0909ZM50.25 34.0909L51.2103 34.3699L51.5819 33.0909H50.25V34.0909ZM40.108 69V70H40.8588L41.0683 69.279L40.108 69ZM31.9773 69L31.0187 69.2848L31.2312 70H31.9773V69ZM25.6875 47.8295L26.6461 47.5447L26.4336 46.8295H25.6875V47.8295ZM25.4148 47.8295V46.8295H24.6687L24.4562 47.5447L25.4148 47.8295ZM19.125 69V70H19.8711L20.0836 69.2848L19.125 69ZM11.9715 68.7206L1.81244 33.8115L-0.107895 34.3703L10.0512 69.2794L11.9715 68.7206ZM0.852273 35.0909H10.1761V33.0909H0.852273V35.0909ZM9.20164 34.3153L14.4687 57.1903L16.4177 56.7415L11.1506 33.8665L9.20164 34.3153ZM15.4432 57.9659H15.733V55.9659H15.4432V57.9659ZM16.7001 57.2203L22.7171 34.3453L20.7829 33.8365L14.7659 56.7115L16.7001 57.2203ZM21.75 35.0909H29.3523V33.0909H21.75V35.0909ZM28.385 34.3448L34.4021 57.2709L36.3366 56.7632L30.3195 33.8371L28.385 34.3448ZM35.3693 58.017H35.6591V56.017H35.3693V58.017ZM36.6335 57.2416L41.9176 34.3155L39.9687 33.8663L34.6846 56.7925L36.6335 57.2416ZM40.9432 35.0909H50.25V33.0909H40.9432V35.0909ZM49.2897 33.8119L39.1477 68.721L41.0683 69.279L51.2103 34.3699L49.2897 33.8119ZM40.108 68H31.9773V70H40.108V68ZM32.9359 68.7152L26.6461 47.5447L24.7289 48.1143L31.0187 69.2848L32.9359 68.7152ZM25.6875 46.8295H25.4148V48.8295H25.6875V46.8295ZM24.4562 47.5447L18.1664 68.7152L20.0836 69.2848L26.3734 48.1143L24.4562 47.5447ZM19.125 68H11.0114V70H19.125V68ZM70.6278 42.8182V41.8182H69.6278V42.8182H70.6278ZM78.946 42.8182H79.946V41.8182H78.946V42.8182ZM78.946 69V70H79.946V69H78.946ZM71.0028 69H70.0028V70H71.0028V69ZM71.0028 64.125H72.0028V63.125H71.0028V64.125ZM70.7301 64.125V63.125H70.0284L69.7897 63.7849L70.7301 64.125ZM67.7642 67.9432L68.322 68.7731L68.3236 68.7721L67.7642 67.9432ZM58.0312 68.1136L57.5136 68.9692L57.5136 68.9692L58.0312 68.1136ZM54.8778 64.6875L53.9862 65.1402L53.9876 65.143L54.8778 64.6875ZM53.7358 59.5057L52.7358 59.5057L52.7358 59.5114L53.7358 59.5057ZM53.7358 42.8182V41.8182H52.7358V42.8182H53.7358ZM62.071 42.8182H63.071V41.8182H62.071V42.8182ZM62.071 57.8693L61.071 57.8693L61.0711 57.8773L62.071 57.8693ZM63.196 61.2273L63.9383 60.5572L63.9383 60.5572L63.196 61.2273ZM68.446 61.9091L68.9291 62.7847L68.9342 62.7818L68.446 61.9091ZM70.0312 60.2898L69.1571 59.8041L69.1544 59.8089L70.0312 60.2898ZM71.6278 57.6989V42.8182H69.6278V57.6989H71.6278ZM70.6278 43.8182H78.946V41.8182H70.6278V43.8182ZM77.946 42.8182V69H79.946V42.8182H77.946ZM78.946 68H71.0028V70H78.946V68ZM72.0028 69V64.125H70.0028V69H72.0028ZM71.0028 63.125H70.7301V65.125H71.0028V63.125ZM69.7897 63.7849C69.2814 65.1902 68.425 66.2909 67.2048 67.1143L68.3236 68.7721C69.8988 67.7091 71.0197 66.2643 71.6705 64.4651L69.7897 63.7849ZM67.2064 67.1132C66.0124 67.9157 64.5389 68.3409 62.7358 68.3409V70.3409C64.8645 70.3409 66.7433 69.8343 68.322 68.7731L67.2064 67.1132ZM62.7358 68.3409C61.1101 68.3409 59.7257 67.97 58.5489 67.2581L57.5136 68.9692C59.0414 69.8936 60.7933 70.3409 62.7358 70.3409V68.3409ZM58.5489 67.2581C57.3624 66.5402 56.4372 65.5398 55.7681 64.232L53.9876 65.143C54.8185 66.767 55.9955 68.0507 57.5136 68.9692L58.5489 67.2581ZM55.7695 64.2348C55.1022 62.9204 54.7464 61.3516 54.7358 59.4999L52.7358 59.5114C52.7479 61.6143 53.1535 63.5 53.9862 65.1402L55.7695 64.2348ZM54.7358 59.5057V42.8182H52.7358V59.5057H54.7358ZM53.7358 43.8182H62.071V41.8182H53.7358V43.8182ZM61.071 42.8182V57.8693H63.071V42.8182H61.071ZM61.0711 57.8773C61.0838 59.47 61.5082 60.85 62.4538 61.8974L63.9383 60.5572C63.4066 59.9682 63.081 59.1096 63.071 57.8613L61.0711 57.8773ZM62.4538 61.8974C63.4121 62.9589 64.7056 63.4545 66.2131 63.4545V61.4545C65.1751 61.4545 64.4573 61.132 63.9383 60.5572L62.4538 61.8974ZM66.2131 63.4545C67.1939 63.4545 68.1074 63.238 68.9291 62.7847L67.9629 61.0335C67.4665 61.3074 66.8913 61.4545 66.2131 61.4545V63.4545ZM68.9342 62.7818C69.7761 62.3109 70.4358 61.6317 70.9081 60.7706L69.1544 59.8089C68.8539 60.3569 68.4568 60.7572 67.9579 61.0363L68.9342 62.7818ZM70.9054 60.7754C71.4029 59.8799 71.6278 58.8407 71.6278 57.6989H69.6278C69.6278 58.5798 69.455 59.2678 69.1571 59.8041L70.9054 60.7754ZM92.5866 54.0682L91.5866 54.0568V54.0682H92.5866ZM92.5866 69V70H93.5866V69H92.5866ZM84.2514 69H83.2514V70H84.2514V69ZM84.2514 42.8182V41.8182H83.2514V42.8182H84.2514ZM92.1776 42.8182H93.1776V41.8182H92.1776V42.8182ZM92.1776 47.625H91.1776V48.625H92.1776V47.625ZM92.4673 47.625V48.625H93.169L93.4077 47.9651L92.4673 47.625ZM95.4332 43.858L95.9785 44.6963L95.9832 44.6931L95.4332 43.858ZM105.217 43.7216L104.694 44.574L104.703 44.5791L105.217 43.7216ZM108.388 47.1648L107.496 47.6175L107.5 47.6257L108.388 47.1648ZM109.513 52.3125L108.513 52.3067V52.3125H109.513ZM109.513 69V70H110.513V69H109.513ZM101.178 69H100.178V70H101.178V69ZM101.178 53.9489L100.178 53.9411V53.9489H101.178ZM100.07 50.5398L99.3273 51.2099L99.3324 51.2155L100.07 50.5398ZM94.6662 49.892L95.1607 50.7612L95.1655 50.7585L94.6662 49.892ZM93.1321 51.5114L92.2434 51.0527L92.2377 51.0641L93.1321 51.5114ZM91.5866 54.0682V69H93.5866V54.0682H91.5866ZM92.5866 68H84.2514V70H92.5866V68ZM85.2514 69V42.8182H83.2514V69H85.2514ZM84.2514 43.8182H92.1776V41.8182H84.2514V43.8182ZM91.1776 42.8182V47.625H93.1776V42.8182H91.1776ZM92.1776 48.625H92.4673V46.625H92.1776V48.625ZM93.4077 47.9651C93.915 46.5627 94.7674 45.4839 95.9785 44.6962L94.888 43.0197C93.3036 44.0502 92.1788 45.4828 91.527 47.2849L93.4077 47.9651ZM95.9832 44.6931C97.1936 43.896 98.6603 43.4773 100.428 43.4773V41.4773C98.3312 41.4773 96.4683 41.979 94.8832 43.0228L95.9832 44.6931ZM100.428 43.4773C102.114 43.4773 103.523 43.8556 104.694 44.574L105.74 42.8692C104.207 41.9285 102.423 41.4773 100.428 41.4773V43.4773ZM104.703 44.5791C105.898 45.2963 106.828 46.3005 107.496 47.6175L109.279 46.7121C108.448 45.0745 107.264 43.7832 105.732 42.8641L104.703 44.5791ZM107.5 47.6257C108.174 48.9225 108.523 50.4724 108.513 52.3067L110.513 52.3183C110.525 50.2207 110.124 48.3389 109.275 46.7039L107.5 47.6257ZM108.513 52.3125V69H110.513V52.3125H108.513ZM109.513 68H101.178V70H109.513V68ZM102.178 69V53.9489H100.178V69H102.178ZM102.178 53.9567C102.19 52.33 101.775 50.9207 100.807 49.864L99.3324 51.2155C99.8639 51.7952 100.188 52.6586 100.178 53.9411L102.178 53.9567ZM100.812 49.8697C99.8466 48.8005 98.5251 48.3125 96.9844 48.3125V50.3125C98.08 50.3125 98.8153 50.6427 99.3273 51.2099L100.812 49.8697ZM96.9844 48.3125C95.9575 48.3125 95.0082 48.5408 94.1669 49.0256L95.1655 50.7585C95.6651 50.4706 96.2613 50.3125 96.9844 50.3125V48.3125ZM94.1717 49.0229C93.3363 49.4982 92.6917 50.1843 92.2435 51.0527L94.0207 51.97C94.2998 51.4293 94.6779 51.0359 95.1607 50.7612L94.1717 49.0229ZM92.2377 51.0641C91.802 51.9356 91.5993 52.945 91.5867 54.0568L93.5866 54.0795C93.5967 53.1913 93.7577 52.4963 94.0265 51.9586L92.2377 51.0641ZM118.969 67.875L118.434 68.7199L118.434 68.7199L118.969 67.875ZM115.185 63.375L114.28 63.8015L114.28 63.8015L115.185 63.375ZM115.236 48.3239L116.133 48.7649L116.133 48.7649L115.236 48.3239ZM119.071 43.9091L118.557 43.0516L118.554 43.0532L119.071 43.9091ZM127.73 43.1932L127.291 44.0918L127.3 44.0958L127.73 43.1932ZM130.151 45L130.908 44.3473L130.908 44.3473L130.151 45ZM131.599 47.3011L130.676 47.6839L130.931 48.3011H131.599V47.3011ZM131.77 47.3011V48.3011H132.77V47.3011H131.77ZM131.77 34.0909V33.0909H130.77V34.0909H131.77ZM140.105 34.0909H141.105V33.0909H140.105V34.0909ZM140.105 69V70H141.105V69H140.105ZM131.855 69H130.855V70H131.855V69ZM131.855 64.7557H132.855V63.7557H131.855V64.7557ZM131.599 64.7557V63.7557H130.945L130.683 64.3555L131.599 64.7557ZM130.099 67.0227L129.363 66.3459L129.363 66.3459L130.099 67.0227ZM127.662 68.7273L127.258 67.8126L127.254 67.8143L127.662 68.7273ZM129.724 62.0284L130.346 62.8117L130.354 62.8057L129.724 62.0284ZM131.378 59.5909L132.316 59.9376L132.316 59.9376L131.378 59.5909ZM131.378 52.2102L130.438 52.5512L130.441 52.5602L131.378 52.2102ZM129.724 49.8239L129.11 50.6132L129.117 50.6179L129.724 49.8239ZM122.872 52.2443L121.932 51.9034L121.929 51.9126L122.872 52.2443ZM124.509 62.0284L123.873 62.8007L123.88 62.8063L123.887 62.8117L124.509 62.0284ZM124.236 68.375C122.487 68.375 120.918 67.9253 119.504 67.0301L118.434 68.7199C120.179 69.8247 122.121 70.375 124.236 70.375V68.375ZM119.504 67.0301C118.112 66.149 116.966 64.8086 116.089 62.9485L114.28 63.8015C115.289 65.9414 116.667 67.601 118.434 68.7199L119.504 67.0301ZM116.089 62.9485C115.226 61.1192 114.77 58.7924 114.77 55.9261H112.77C112.77 58.9917 113.256 61.6308 114.28 63.8015L116.089 62.9485ZM114.77 55.9261C114.77 52.9434 115.244 50.5736 116.133 48.7649L114.338 47.8828C113.273 50.0514 112.77 52.7498 112.77 55.9261H114.77ZM116.133 48.7649C117.043 46.9133 118.203 45.6021 119.588 44.7649L118.554 43.0532C116.78 44.1251 115.383 45.7572 114.338 47.8828L116.133 48.7649ZM119.586 44.7666C121.023 43.9039 122.556 43.4773 124.202 43.4773V41.4773C122.188 41.4773 120.301 42.0052 118.557 43.0516L119.586 44.7666ZM124.202 43.4773C125.464 43.4773 126.482 43.6965 127.291 44.0917L128.169 42.2946C127.024 41.7353 125.69 41.4773 124.202 41.4773V43.4773ZM127.3 44.0958C128.166 44.5087 128.857 45.0303 129.393 45.6527L130.908 44.3473C130.172 43.4925 129.249 42.8095 128.16 42.2905L127.3 44.0958ZM129.393 45.6527C129.969 46.3213 130.392 46.9987 130.676 47.6839L132.523 46.9184C132.148 46.0126 131.605 45.156 130.908 44.3473L129.393 45.6527ZM131.599 48.3011H131.77V46.3011H131.599V48.3011ZM132.77 47.3011V34.0909H130.77V47.3011H132.77ZM131.77 35.0909H140.105V33.0909H131.77V35.0909ZM139.105 34.0909V69H141.105V34.0909H139.105ZM140.105 68H131.855V70H140.105V68ZM132.855 69V64.7557H130.855V69H132.855ZM131.855 63.7557H131.599V65.7557H131.855V63.7557ZM130.683 64.3555C130.379 65.0523 129.943 65.7159 129.363 66.3459L130.836 67.6995C131.552 66.9205 132.116 66.0727 132.516 65.1558L130.683 64.3555ZM129.363 66.3459C128.819 66.938 128.124 67.4299 127.258 67.8126L128.066 69.642C129.155 69.161 130.084 68.5165 130.836 67.6995L129.363 66.3459ZM127.254 67.8143C126.444 68.1765 125.447 68.375 124.236 68.375V70.375C125.661 70.375 126.948 70.1417 128.07 69.6402L127.254 67.8143ZM127.134 63.8807C128.345 63.8807 129.434 63.5353 130.346 62.8117L129.103 61.2451C128.583 61.6579 127.945 61.8807 127.134 61.8807V63.8807ZM130.354 62.8057C131.236 62.0913 131.88 61.1162 132.316 59.9376L130.44 59.2443C130.103 60.1565 129.645 60.8064 129.095 61.2512L130.354 62.8057ZM132.316 59.9376C132.752 58.7562 132.957 57.4066 132.957 55.9091H130.957C130.957 57.2298 130.776 58.3347 130.44 59.2443L132.316 59.9376ZM132.957 55.9091C132.957 54.3915 132.753 53.034 132.315 51.8602L130.441 52.5602C130.775 53.4546 130.957 54.5631 130.957 55.9091H132.957ZM132.318 51.8693C131.891 50.692 131.239 49.7244 130.332 49.0299L129.117 50.6179C129.664 51.037 130.115 51.6602 130.438 52.5511L132.318 51.8693ZM130.338 49.0345C129.427 48.3254 128.34 47.9886 127.134 47.9886V49.9886C127.95 49.9886 128.59 50.2086 129.11 50.6132L130.338 49.0345ZM127.134 47.9886C125.905 47.9886 124.803 48.3308 123.887 49.0576L125.13 50.6242C125.646 50.2146 126.294 49.9886 127.134 49.9886V47.9886ZM123.887 49.0576C122.999 49.7624 122.357 50.7309 121.932 51.9034L123.812 52.5852C124.137 51.6896 124.586 51.0558 125.13 50.6242L123.887 49.0576ZM121.929 51.9126C121.519 53.0788 121.327 54.4177 121.327 55.9091H123.327C123.327 54.5823 123.498 53.4781 123.816 52.5761L121.929 51.9126ZM121.327 55.9091C121.327 57.4037 121.525 58.7501 121.948 59.9285L123.83 59.2533C123.503 58.3408 123.327 57.2326 123.327 55.9091H121.327ZM121.948 59.9285C122.371 61.1069 123.002 62.0839 123.873 62.8007L125.144 61.2561C124.606 60.8138 124.158 60.1658 123.83 59.2533L121.948 59.9285ZM123.887 62.8117C124.803 63.5385 125.905 63.8807 127.134 63.8807V61.8807C126.294 61.8807 125.646 61.6547 125.13 61.2451L123.887 62.8117ZM150.524 67.875L150.041 68.7506L150.047 68.7539L150.524 67.875ZM145.956 63.2216L145.07 63.6847L145.073 63.6906L145.956 63.2216ZM145.973 48.9205L146.857 49.3874L146.858 49.3854L145.973 48.9205ZM150.49 44.1818L150.991 45.0473L150.995 45.045L150.49 44.1818ZM162.473 43.3466L162.824 42.4103L162.824 42.4103L162.473 43.3466ZM169.104 50.1307L168.167 50.4811L168.168 50.4832L169.104 50.1307ZM170.041 57.9205V58.9205H171.041V57.9205H170.041ZM147.286 57.9205H146.286V58.9205H147.286V57.9205ZM147.286 53.0795V52.0795H146.286V53.0795H147.286ZM162.286 53.0795V54.0795H163.298L163.285 53.0667L162.286 53.0795ZM159.967 49.0909L159.476 49.9617L159.484 49.9664L159.492 49.9709L159.967 49.0909ZM155.024 49.125L155.509 49.9999L155.519 49.9941L155.024 49.125ZM153.268 50.8125L154.121 51.3351L154.125 51.329L153.268 50.8125ZM152.587 53.2159L151.587 53.1906L151.587 53.2033V53.2159H152.587ZM153.217 60.9545L152.331 61.4167L152.333 61.4219L153.217 60.9545ZM155.007 62.8125L154.51 63.68L154.51 63.68L155.007 62.8125ZM159.78 63.1705L160.101 64.1173L160.101 64.1173L159.78 63.1705ZM161.331 62.267L162.008 63.0026L162.008 63.0026L161.331 62.267ZM162.303 60.8011L162.331 59.8016L161.616 59.7808L161.365 60.452L162.303 60.8011ZM169.956 61.0227L170.939 61.205L171.152 60.0569L169.985 60.0231L169.956 61.0227ZM167.859 65.5057L167.097 64.8588L167.096 64.8594L167.859 65.5057ZM163.649 68.4545L164.019 69.3835L164.025 69.3813L163.649 68.4545ZM157.615 68.4943C155.008 68.4943 152.816 67.9811 151.001 66.9961L150.047 68.7539C152.21 69.928 154.745 70.4943 157.615 70.4943V68.4943ZM151.007 66.9994C149.201 66.0032 147.817 64.594 146.839 62.7526L145.073 63.6906C146.231 65.8719 147.892 67.565 150.041 68.7506L151.007 66.9994ZM146.842 62.7585C145.875 60.9068 145.371 58.6692 145.371 56.0114H143.371C143.371 58.9217 143.923 61.4909 145.07 63.6847L146.842 62.7585ZM145.371 56.0114C145.371 53.4399 145.878 51.2421 146.857 49.3874L145.089 48.4535C143.932 50.6442 143.371 53.1737 143.371 56.0114H145.371ZM146.858 49.3854C147.841 47.5143 149.215 46.0754 150.991 45.0472L149.989 43.3164C147.879 44.5382 146.241 46.2584 145.088 48.4555L146.858 49.3854ZM150.995 45.045C152.76 44.0126 154.87 43.4773 157.359 43.4773V41.4773C154.576 41.4773 152.106 42.0784 149.985 43.3186L150.995 45.045ZM157.359 43.4773C159.118 43.4773 160.702 43.7506 162.122 44.2829L162.824 42.4103C161.153 41.7835 159.328 41.4773 157.359 41.4773V43.4773ZM162.122 44.2829C163.537 44.8134 164.748 45.5936 165.768 46.624L167.189 45.2169C165.959 43.9746 164.5 43.0388 162.824 42.4103L162.122 44.2829ZM165.768 46.624C166.783 47.6489 167.586 48.9277 168.167 50.4811L170.04 49.7803C169.372 47.9928 168.425 46.4647 167.189 45.2169L165.768 46.624ZM168.168 50.4832C168.743 52.0086 169.041 53.7889 169.041 55.8409H171.041C171.041 53.5975 170.715 51.571 170.039 49.7782L168.168 50.4832ZM169.041 55.8409V57.9205H171.041V55.8409H169.041ZM170.041 56.9205H147.286V58.9205H170.041V56.9205ZM148.286 57.9205V53.0795H146.286V57.9205H148.286ZM147.286 54.0795H162.286V52.0795H147.286V54.0795ZM163.285 53.0667C163.272 52.0241 163.023 51.0603 162.516 50.202L160.794 51.2185C161.105 51.7466 161.276 52.3623 161.286 53.0924L163.285 53.0667ZM162.516 50.202C162.013 49.3503 161.317 48.6827 160.442 48.2109L159.492 49.9709C160.05 50.2718 160.478 50.6838 160.794 51.2185L162.516 50.202ZM160.459 48.2201C159.585 47.7266 158.598 47.4943 157.53 47.4943V49.4943C158.302 49.4943 158.941 49.6598 159.476 49.9617L160.459 48.2201ZM157.53 47.4943C156.442 47.4943 155.433 47.7416 154.529 48.2559L155.519 49.9941C156.092 49.6675 156.754 49.4943 157.53 49.4943V47.4943ZM154.54 48.2502C153.649 48.7432 152.935 49.4286 152.412 50.296L154.125 51.329C154.465 50.7646 154.922 50.3249 155.509 49.9998L154.54 48.2502ZM152.416 50.2899C151.884 51.1573 151.614 52.1328 151.587 53.1906L153.586 53.2412C153.605 52.5036 153.789 51.8768 154.121 51.3351L152.416 50.2899ZM151.587 53.2159V58.142H153.587V53.2159H151.587ZM151.587 58.142C151.587 59.3431 151.824 60.4443 152.331 61.4167L154.104 60.4924C153.77 59.8512 153.587 59.0773 153.587 58.142H151.587ZM152.333 61.4219C152.841 62.3828 153.571 63.1417 154.51 63.68L155.505 61.945C154.898 61.597 154.434 61.1172 154.101 60.4872L152.333 61.4219ZM154.51 63.68C155.461 64.2258 156.561 64.4773 157.768 64.4773V62.4773C156.84 62.4773 156.098 62.2856 155.505 61.945L154.51 63.68ZM157.768 64.4773C158.599 64.4773 159.38 64.3622 160.101 64.1173L159.458 62.2236C158.975 62.3878 158.415 62.4773 157.768 62.4773V64.4773ZM160.101 64.1173C160.825 63.8717 161.466 63.5025 162.008 63.0026L160.653 61.5315C160.333 61.8271 159.94 62.0601 159.458 62.2236L160.101 64.1173ZM162.008 63.0026C162.562 62.4926 162.972 61.8691 163.24 61.1502L161.365 60.452C161.201 60.8922 160.963 61.2461 160.653 61.5315L162.008 63.0026ZM162.274 61.8007L169.927 62.0223L169.985 60.0231L162.331 59.8016L162.274 61.8007ZM168.973 60.8404C168.685 62.393 168.058 63.7252 167.097 64.8588L168.622 66.1525C169.82 64.7407 170.591 63.0842 170.939 61.205L168.973 60.8404ZM167.096 64.8594C166.146 65.9815 164.883 66.8757 163.274 67.5277L164.025 69.3813C165.893 68.6243 167.436 67.5526 168.623 66.1519L167.096 64.8594ZM163.279 67.5257C161.681 68.1628 159.799 68.4943 157.615 68.4943V70.4943C159.999 70.4943 162.14 70.1327 164.019 69.3834L163.279 67.5257ZM174.298 69H173.298V70H174.298V69ZM174.298 42.8182V41.8182H173.298V42.8182H174.298ZM182.395 42.8182H183.395V41.8182H182.395V42.8182ZM182.395 47.5909H181.395V48.5909H182.395V47.5909ZM182.668 47.5909V48.5909H183.429L183.631 47.8572L182.668 47.5909ZM185.003 43.7386L185.617 44.5276L185.622 44.5235L185.003 43.7386ZM189.963 42.5455L189.826 43.5359L189.839 43.5378L189.853 43.5393L189.963 42.5455ZM191.105 42.767H192.105V42.0161L191.384 41.8067L191.105 42.767ZM191.105 50.0114L190.781 50.9573L192.105 51.4114V50.0114H191.105ZM189.537 49.6875L189.413 50.6798L189.415 50.68L189.537 49.6875ZM185.156 50.233L185.639 51.1089L185.643 51.1065L185.156 50.233ZM183.298 52.0568L182.433 51.5553L182.431 51.5593L183.298 52.0568ZM182.634 69V70H183.634V69H182.634ZM175.298 69V42.8182H173.298V69H175.298ZM174.298 43.8182H182.395V41.8182H174.298V43.8182ZM181.395 42.8182V47.5909H183.395V42.8182H181.395ZM182.395 48.5909H182.668V46.5909H182.395V48.5909ZM183.631 47.8572C184.069 46.2732 184.753 45.2006 185.617 44.5275L184.388 42.9497C183.093 43.9584 182.221 45.4541 181.704 47.3246L183.631 47.8572ZM185.622 44.5235C186.518 43.8166 187.553 43.4602 188.77 43.4602V41.4602C187.123 41.4602 185.647 41.9561 184.383 42.9538L185.622 44.5235ZM188.77 43.4602C189.107 43.4602 189.459 43.485 189.826 43.5359L190.101 41.555C189.649 41.4922 189.205 41.4602 188.77 41.4602V43.4602ZM189.853 43.5393C190.212 43.5792 190.535 43.6429 190.826 43.7274L191.384 41.8067C190.97 41.6866 190.533 41.6026 190.073 41.5516L189.853 43.5393ZM190.105 42.767V50.0114H192.105V42.767H190.105ZM191.429 49.0654C190.94 48.8978 190.342 48.7789 189.659 48.695L189.415 50.68C190.027 50.7552 190.474 50.8522 190.781 50.9573L191.429 49.0654ZM189.661 48.6952C188.994 48.6119 188.384 48.5682 187.832 48.5682V50.5682C188.281 50.5682 188.807 50.604 189.413 50.6798L189.661 48.6952ZM187.832 48.5682C186.688 48.5682 185.626 48.8263 184.67 49.3594L185.643 51.1065C186.277 50.7533 186.999 50.5682 187.832 50.5682V48.5682ZM184.674 49.357C183.728 49.8777 182.978 50.616 182.433 51.5553L184.163 52.5583C184.528 51.9295 185.016 51.4519 185.639 51.1089L184.674 49.357ZM182.431 51.5593C181.887 52.5079 181.634 53.5946 181.634 54.7841H183.634C183.634 53.8827 183.823 53.1512 184.166 52.5543L182.431 51.5593ZM181.634 54.7841V69H183.634V54.7841H181.634ZM182.634 68H174.298V70H182.634V68ZM194.501 69H193.501V70H194.501V69ZM194.501 34.0909V33.0909H193.501V34.0909H194.501ZM215.621 35.1989L215.234 36.1211L215.236 36.1219L215.621 35.1989ZM219.609 38.3011L218.777 38.8558L218.781 38.8607L219.609 38.3011ZM220.121 46.483L221.001 46.9571L221.003 46.953L220.121 46.483ZM217.82 49.0568L217.247 48.2367L217.247 48.2367L217.82 49.0568ZM214.428 50.4886L214.22 49.5105L213.428 49.6787V50.4886H214.428ZM214.428 50.8295H213.428V51.7823L214.379 51.8284L214.428 50.8295ZM218.331 51.9716L217.829 52.8363L217.832 52.8383L218.331 51.9716ZM221.229 54.8693L220.366 55.3756L220.368 55.3791L221.229 54.8693ZM220.888 64.2614L221.726 64.807L221.728 64.8041L220.888 64.2614ZM216.746 67.7386L217.168 68.6453L217.172 68.6431L216.746 67.7386ZM202.939 62.1989H201.939V63.1989H202.939V62.1989ZM212.195 61.1591L211.574 60.3752L211.569 60.3792L212.195 61.1591ZM212.876 55.9432L212.033 56.481L212.038 56.4877L212.876 55.9432ZM211.087 54.4261L210.661 55.331L210.672 55.336L211.087 54.4261ZM202.939 53.8807V52.8807H201.939V53.8807H202.939ZM202.939 48.4432H201.939V49.4432H202.939V48.4432ZM211.734 46.6534L210.917 46.0767L210.91 46.0876L211.734 46.6534ZM211.104 41.7955L211.732 41.0177L211.732 41.0177L211.104 41.7955ZM202.939 40.7898V39.7898H201.939V40.7898H202.939ZM195.501 69V34.0909H193.501V69H195.501ZM194.501 35.0909H209.058V33.0909H194.501V35.0909ZM209.058 35.0909C211.585 35.0909 213.631 35.4489 215.234 36.1211L216.007 34.2767C214.087 33.4715 211.759 33.0909 209.058 33.0909V35.0909ZM215.236 36.1219C216.864 36.8002 218.021 37.7212 218.777 38.8558L220.441 37.7464C219.425 36.2219 217.923 35.0748 216.005 34.2758L215.236 36.1219ZM218.781 38.8607C219.557 40.01 219.956 41.3509 219.956 42.9205H221.956C221.956 40.99 221.458 39.2514 220.438 37.7415L218.781 38.8607ZM219.956 42.9205C219.956 44.1064 219.709 45.1291 219.238 46.0129L221.003 46.953C221.646 45.7459 221.956 44.3936 221.956 42.9205H219.956ZM219.24 46.0089C218.759 46.903 218.098 47.6431 217.247 48.2367L218.392 49.8769C219.496 49.1069 220.369 48.1311 221.001 46.9571L219.24 46.0089ZM217.247 48.2367C216.391 48.8345 215.386 49.2627 214.22 49.5105L214.635 51.4668C216.037 51.1691 217.294 50.6427 218.392 49.8769L217.247 48.2367ZM213.428 50.4886V50.8295H215.428V50.4886H213.428ZM214.379 51.8284C215.632 51.889 216.777 52.2253 217.829 52.8363L218.833 51.1069C217.499 50.3315 216.041 49.9065 214.476 49.8307L214.379 51.8284ZM217.832 52.8383C218.881 53.442 219.724 54.2814 220.366 55.3756L222.091 54.363C221.279 52.9799 220.19 51.8876 218.83 51.1049L217.832 52.8383ZM220.368 55.3791C220.989 56.4264 221.32 57.6981 221.32 59.233H223.32C223.32 57.4041 222.923 55.7668 222.089 54.3595L220.368 55.3791ZM221.32 59.233C221.32 60.9287 220.891 62.4139 220.048 63.7186L221.728 64.8041C222.794 63.1543 223.32 61.2872 223.32 59.233H221.32ZM220.05 63.7157C219.21 65.0051 217.983 66.0496 216.319 66.8342L217.172 68.6431C219.123 67.7232 220.656 66.4495 221.726 64.807L220.05 63.7157ZM216.324 66.832C214.682 67.5961 212.641 68 210.166 68V70C212.85 70 215.196 69.563 217.168 68.6453L216.324 66.832ZM210.166 68H194.501V70H210.166V68ZM202.939 63.1989H208.155V61.1989H202.939V63.1989ZM208.155 63.1989C210.075 63.1989 211.696 62.8415 212.821 61.939L211.569 60.3792C210.966 60.8631 209.893 61.1989 208.155 61.1989V63.1989ZM212.816 61.9429C213.958 61.0376 214.507 59.7673 214.507 58.2614H212.507C212.507 59.2327 212.181 59.8942 211.574 60.3753L212.816 61.9429ZM214.507 58.2614C214.507 57.2025 214.257 56.2335 213.715 55.3987L212.038 56.4877C212.337 56.9483 212.507 57.5248 212.507 58.2614H214.507ZM213.719 55.4054C213.186 54.5695 212.434 53.9414 211.501 53.5162L210.672 55.336C211.285 55.6154 211.726 55.9987 212.033 56.481L213.719 55.4054ZM211.512 53.5213C210.576 53.0807 209.497 52.8807 208.308 52.8807V54.8807C209.278 54.8807 210.052 55.0443 210.661 55.331L211.512 53.5213ZM208.308 52.8807H202.939V54.8807H208.308V52.8807ZM201.939 53.8807V62.1989H203.939V53.8807H201.939ZM202.939 49.4432H207.609V47.4432H202.939V49.4432ZM207.609 49.4432C208.641 49.4432 209.597 49.271 210.458 48.9021L209.67 47.0638C209.099 47.3085 208.419 47.4432 207.609 47.4432V49.4432ZM210.458 48.9021C211.328 48.529 212.043 47.9715 212.559 47.2192L210.91 46.0876C210.631 46.4944 210.231 46.8233 209.67 47.0638L210.458 48.9021ZM212.551 47.2301C213.097 46.4569 213.348 45.5488 213.348 44.5568H211.348C211.348 45.2012 211.19 45.6908 210.917 46.0767L212.551 47.2301ZM213.348 44.5568C213.348 43.1178 212.822 41.8981 211.732 41.0177L210.475 42.5732C211.045 43.0337 211.348 43.6549 211.348 44.5568H213.348ZM211.732 41.0177C210.675 40.163 209.31 39.7898 207.746 39.7898V41.7898C209 41.7898 209.874 42.087 210.475 42.5732L211.732 41.0177ZM207.746 39.7898H202.939V41.7898H207.746V39.7898ZM201.939 40.7898V48.4432H203.939V40.7898H201.939Z" fill="black" fill-opacity="0.2" mask="url(#path-1-outside-1_135_137)"/>
</g>
</g>
<defs>
<filter id="filter0_dd_135_137" x="-4.48022" y="33.0909" width="231.8" height="45.4033" filterUnits="userSpaceOnUse" color-interpolation-filters="sRGB">
<feFlood flood-opacity="0" result="BackgroundImageFix"/>
<feColorMatrix in="SourceAlpha" type="matrix" values="0 0 0 0 0 0 0 0 0 0 0 0 0 0 0 0 0 0 127 0" result="hardAlpha"/>
<feOffset dy="4"/>
<feGaussianBlur stdDeviation="2"/>
<feComposite in2="hardAlpha" operator="out"/>
<feColorMatrix type="matrix" values="0 0 0 0 0 0 0 0 0 0 0 0 0 0 0 0 0 0 0.25 0"/>
<feBlend mode="normal" in2="BackgroundImageFix" result="effect1_dropShadow_135_137"/>
<feColorMatrix in="SourceAlpha" type="matrix" values="0 0 0 0 0 0 0 0 0 0 0 0 0 0 0 0 0 0 127 0" result="hardAlpha"/>
<feOffset dy="4"/>
<feGaussianBlur stdDeviation="2"/>
<feComposite in2="hardAlpha" operator="out"/>
<feColorMatrix type="matrix" values="0 0 0 0 0 0 0 0 0 0 0 0 0 0 0 0 0 0 0.25 0"/>
<feBlend mode="normal" in2="effect1_dropShadow_135_137" result="effect2_dropShadow_135_137"/>
<feBlend mode="normal" in="SourceGraphic" in2="effect2_dropShadow_135_137" result="shape"/>
</filter>
<clipPath id="clip0_135_137">
<rect width="322" height="117" fill="white"/>
</clipPath>
</defs>
</svg>
